<?xml version="1.0" encoding="UTF-8"?>
<svg width="108px" height="86px" viewBox="0 0 108 86" version="1.1" xmlns="http://www.w3.org/2000/svg" xmlns:xlink="http://www.w3.org/1999/xlink">
    <title>编组 2备份</title>
    <defs>
        <linearGradient x1="50%" y1="5.13558368%" x2="50%" y2="171.474998%" id="linearGradient-1">
            <stop stop-color="#FFBD1C" offset="0%"></stop>
            <stop stop-color="#FFDEAA" stop-opacity="0" offset="100%"></stop>
        </linearGradient>
        <linearGradient x1="50%" y1="5.13558368%" x2="50%" y2="171.474998%" id="linearGradient-2">
            <stop stop-color="#FFBD1C" offset="0%"></stop>
            <stop stop-color="#FFDEAA" stop-opacity="0" offset="100%"></stop>
        </linearGradient>
    </defs>
    <g id="中韩数据看板" stroke="none" stroke-width="1" fill="none" fill-rule="evenodd">
        <g id="数据大屏备份-5" transform="translate(-2017.000000, -390.000000)" fill-rule="nonzero">
            <g id="编组-2备份" transform="translate(2017.000000, 390.000000)">
                <g id="钱" transform="translate(15.600000, 9.555556)">
                    <path d="M32.3136376,16.7222222 C24.8688289,16.7222222 18.8232219,18.8507247 18.8232219,21.4785055 L18.8232219,29.4669593 C18.8232219,29.6246261 18.8496219,29.7560152 18.876022,29.913682 C19.5360227,32.2261292 25.2912294,34.0392979 32.3136376,34.0392979 C39.3360458,34.0392979 45.0912525,32.2261292 45.7512532,29.913682 C45.8040533,29.7560152 45.8040533,29.6246261 45.8040533,29.4669593 L45.8040533,21.4522277 C45.8040533,18.8507247 39.7848463,16.7222222 32.3136376,16.7222222 Z M43.4016505,22.0828951 C42.8208498,22.5033401 41.9760488,22.8975072 40.9464476,23.2391187 C38.6232449,24.0011751 35.5344413,24.4216201 32.3136376,24.4216201 C29.0664338,24.4216201 26.0040303,24.0011751 23.6808276,23.2391187 C22.6512264,22.8975072 21.8064254,22.5033401 21.2256247,22.0828951 C20.7768242,21.7675614 20.644824,21.5310612 20.618424,21.4522277 C20.644824,21.3733943 20.8032242,21.136894 21.2256247,20.8215603 C21.8064254,20.4011154 22.6512264,20.0069483 23.6808276,19.6653368 C26.0040303,18.9032803 29.0928339,18.4828354 32.3136376,18.4828354 C35.5608414,18.4828354 38.6232449,18.9032803 40.9464476,19.6653368 C41.9760488,20.0069483 42.8208498,20.4011154 43.3752505,20.8215603 C43.824051,21.136894 43.9560511,21.3733943 43.9824512,21.4522277 C43.9824512,21.5310612 43.850451,21.7675614 43.4016505,22.0828951 Z" id="形状" fill="url(#linearGradient-1)"></path>
                    <path d="M74.3136376,16.7222222 C66.8688289,16.7222222 60.8232219,18.8507247 60.8232219,21.4785055 L60.8232219,29.4669593 C60.8232219,29.6246261 60.8496219,29.7560152 60.876022,29.913682 C61.5360227,32.2261292 67.2912294,34.0392979 74.3136376,34.0392979 C81.3360458,34.0392979 87.0912525,32.2261292 87.7512532,29.913682 C87.8040533,29.7560152 87.8040533,29.6246261 87.8040533,29.4669593 L87.8040533,21.4522277 C87.8040533,18.8507247 81.7848463,16.7222222 74.3136376,16.7222222 Z M85.4016505,22.0828951 C84.8208498,22.5033401 83.9760488,22.8975072 82.9464476,23.2391187 C80.6232449,24.0011751 77.5344413,24.4216201 74.3136376,24.4216201 C71.0664338,24.4216201 68.0040303,24.0011751 65.6808276,23.2391187 C64.6512264,22.8975072 63.8064254,22.5033401 63.2256247,22.0828951 C62.7768242,21.7675614 62.644824,21.5310612 62.618424,21.4522277 C62.644824,21.3733943 62.8032242,21.136894 63.2256247,20.8215603 C63.8064254,20.4011154 64.6512264,20.0069483 65.6808276,19.6653368 C68.0040303,18.9032803 71.0928339,18.4828354 74.3136376,18.4828354 C77.5608414,18.4828354 80.6232449,18.9032803 82.9464476,19.6653368 C83.9760488,20.0069483 84.8208498,20.4011154 85.3752505,20.8215603 C85.824051,21.136894 85.9560511,21.3733943 85.9824512,21.4522277 C85.9824512,21.5310612 85.850451,21.7675614 85.4016505,22.0828951 Z" id="形状备份" fill="url(#linearGradient-1)"></path>
                    <path d="M74.3136376,8.36111111 C66.8688289,8.36111111 60.8232219,10.4896136 60.8232219,13.1173944 L60.8232219,21.1058482 C60.8232219,21.263515 60.8496219,21.3949041 60.876022,21.5525709 C61.5360227,23.865018 67.2912294,25.6781868 74.3136376,25.6781868 C81.3360458,25.6781868 87.0912525,23.865018 87.7512532,21.5525709 C87.8040533,21.3949041 87.8040533,21.263515 87.8040533,21.1058482 L87.8040533,13.0911166 C87.8040533,10.4896136 81.7848463,8.36111111 74.3136376,8.36111111 Z M85.4016505,13.721784 C84.8208498,14.1422289 83.9760488,14.5363961 82.9464476,14.8780076 C80.6232449,15.640064 77.5344413,16.060509 74.3136376,16.060509 C71.0664338,16.060509 68.0040303,15.640064 65.6808276,14.8780076 C64.6512264,14.5363961 63.8064254,14.1422289 63.2256247,13.721784 C62.7768242,13.4064503 62.644824,13.16995 62.618424,13.0911166 C62.644824,13.0122832 62.8032242,12.7757829 63.2256247,12.4604492 C63.8064254,12.0400043 64.6512264,11.6458372 65.6808276,11.3042256 C68.0040303,10.5421692 71.0928339,10.1217243 74.3136376,10.1217243 C77.5608414,10.1217243 80.6232449,10.5421692 82.9464476,11.3042256 C83.9760488,11.6458372 84.8208498,12.0400043 85.3752505,12.4604492 C85.824051,12.7757829 85.9560511,13.0122832 85.9824512,13.0911166 C85.9824512,13.16995 85.850451,13.4064503 85.4016505,13.721784 Z" id="形状备份-3" fill="url(#linearGradient-1)"></path>
                    <path d="M74.3136376,0 C66.8688289,0 60.8232219,2.12850248 60.8232219,4.75628331 L60.8232219,12.7447371 C60.8232219,12.9024039 60.8496219,13.0337929 60.876022,13.1914598 C61.5360227,15.5039069 67.2912294,17.3170757 74.3136376,17.3170757 C81.3360458,17.3170757 87.0912525,15.5039069 87.7512532,13.1914598 C87.8040533,13.0337929 87.8040533,12.9024039 87.8040533,12.7447371 L87.8040533,4.7300055 C87.8040533,2.12850248 81.7848463,0 74.3136376,0 Z M85.4016505,5.3606729 C84.8208498,5.78111784 83.9760488,6.17528496 82.9464476,6.51689647 C80.6232449,7.27895291 77.5344413,7.69939785 74.3136376,7.69939785 C71.0664338,7.69939785 68.0040303,7.27895291 65.6808276,6.51689647 C64.6512264,6.17528496 63.8064254,5.78111784 63.2256247,5.3606729 C62.7768242,5.0453392 62.644824,4.80883893 62.618424,4.7300055 C62.644824,4.65117208 62.8032242,4.4146718 63.2256247,4.0993381 C63.8064254,3.67889317 64.6512264,3.28472604 65.6808276,2.94311454 C68.0040303,2.18105809 71.0928339,1.76061316 74.3136376,1.76061316 C77.5608414,1.76061316 80.6232449,2.18105809 82.9464476,2.94311454 C83.9760488,3.28472604 84.8208498,3.67889317 85.3752505,4.0993381 C85.824051,4.4146718 85.9560511,4.65117208 85.9824512,4.7300055 C85.9824512,4.80883893 85.850451,5.0453392 85.4016505,5.3606729 Z" id="形状备份-4" fill="url(#linearGradient-1)"></path>
                    <path d="M38.4648448,34.4071872 C36.6168426,34.7487988 34.5312402,34.9327434 32.3136376,34.9327434 C30.096035,34.9327434 28.0104326,34.7487988 26.1624304,34.4071872 C21.8064254,33.618853 18.8232219,32.3312404 18.8232219,30.4917938 L18.8232219,33.618853 C17.21282,33.3823527 15.4176179,33.2509637 13.5432158,33.2509637 C6.0984071,33.2509637 0.0528000614,35.3794662 0.0528000614,38.007247 L0.0528000614,45.9957007 C0.0528000614,46.1533676 0.0792000922,46.2847566 0.105600123,46.4424235 C0.765600891,48.7548706 6.52080759,50.5680394 13.5432158,50.5680394 C15.4176179,50.5680394 17.21282,50.4366503 18.8232219,50.2001501 C19.0872222,50.1738723 19.3248225,50.1213166 19.5888228,50.068761 C19.9848233,49.9899276 20.3544237,49.937372 20.7240241,49.8585386 C24.1560281,49.1227599 26.5584309,47.8877029 26.9544314,46.4424235 C27.0072314,46.2847566 27.0072314,46.1533676 27.0072314,45.9957007 L27.0072314,47.0730909 C27.0072314,48.5709259 25.0536292,49.7008717 22.0176256,50.489206 C21.5688251,50.5943172 21.0936245,50.7257062 20.618424,50.8045397 C20.3016236,50.8570953 19.9848233,50.9359287 19.6680229,50.9884843 C19.3776225,51.0410399 19.0872222,51.0935956 18.7968219,51.1198734 C17.16002,51.3563736 15.3912179,51.5140405 13.5168157,51.5140405 C11.2992131,51.5140405 9.21361072,51.3300958 7.36560857,50.9884843 C3.0096035,50.2001501 0.0264000307,48.9125375 0.0264000307,47.0730909 L0.0264000307,55.0615446 C0.0264000307,55.2192115 0.0528000614,55.3506005 0.0792000922,55.5082674 C0.73920086,57.8207145 6.49440756,59.6338833 13.5168157,59.6338833 C16.1832188,59.6338833 18.6384217,59.3711052 20.7504241,58.9243824 C24.1824281,58.1886038 26.5584309,56.9535468 26.9544314,55.5082674 C27.0072314,55.3506005 27.0072314,55.2192115 27.0072314,55.0615446 L27.0072314,56.1389348 C27.0072314,57.610492 25.0800292,58.7404378 22.0440257,59.5550498 C21.3048248,59.7389945 20.5128239,59.9229392 19.6416229,60.080606 C17.7936207,60.4222175 15.7080183,60.6061622 13.4904157,60.6061622 C11.2728131,60.6061622 9.18721069,60.4222175 7.33920854,60.080606 C2.98320347,59.2922718 0,58.0046591 0,56.1652126 L0,64.0748329 C0,64.2324997 0.0264000307,64.3638888 0.0528000614,64.5215556 C0.712800829,66.8340028 6.46800753,68.6471715 13.4904157,68.6471715 C20.5128239,68.6471715 26.2680306,66.8340028 26.9280313,64.5215556 C26.9808314,64.3638888 26.9808314,64.2324997 26.9808314,64.0748329 L26.9808314,60.7112734 C28.5912333,60.9477737 30.3864354,61.0791627 32.2608375,61.0791627 C39.2832457,61.0791627 45.0384524,59.2659939 45.6984532,56.9535468 C45.7512532,56.79588 45.7512532,56.6644909 45.7512532,56.5068241 L45.7512532,48.5183703 C45.7512532,50.3578169 42.7680498,51.6454295 38.4120447,52.4337638 C36.5640425,52.7753753 34.4784401,52.9593199 32.2608375,52.9593199 C30.3864354,52.9593199 28.5912333,52.8279309 26.9808314,52.5651528 L26.9808314,51.6454295 C28.5912333,51.8819298 30.3864354,52.0133188 32.2608375,52.0133188 C39.2832457,52.0133188 45.0384524,50.2001501 45.6984532,47.8877029 C45.7512532,47.7300361 45.7512532,47.598647 45.7512532,47.4409802 L45.7512532,39.5050821 C45.7512532,41.3445287 42.7680498,42.6321413 38.4120447,43.4204755 C36.5640425,43.762087 34.4784401,43.9460317 32.2608375,43.9460317 C30.3864354,43.9460317 28.5912333,43.8146426 26.9808314,43.5518646 L26.9808314,42.6321413 C28.5912333,42.8686415 30.3864354,43.0000306 32.2608375,43.0000306 C39.2832457,43.0000306 45.0384524,41.1868618 45.6984532,38.8744147 C45.7512532,38.7167478 45.7512532,38.5853588 45.7512532,38.4276919 L45.7512532,30.4917938 C45.8040533,32.3312404 42.8208498,33.618853 38.4648448,34.4071872 Z M24.6312287,38.6116366 C24.050428,39.0320815 23.205627,39.4262486 22.2024258,39.7678602 C21.5424251,39.9780826 20.8032242,40.1883051 20.0112233,40.3459719 L19.1400223,40.5036388 C19.0344221,40.5299166 18.928822,40.5299166 18.8232219,40.5561944 C17.18642,40.8189725 15.3912179,40.9503615 13.5432158,40.9503615 C10.296012,40.9503615 7.23360842,40.5299166 4.91040571,39.7678602 C3.88080452,39.4262486 3.03600353,39.0320815 2.48160289,38.6116366 C2.03280237,38.2963029 1.90080221,38.0598026 1.87440218,37.9809692 C1.90080221,37.9021358 2.0592024,37.6656355 2.48160289,37.3503018 C3.06240356,36.9298568 3.90720455,36.5356897 4.91040571,36.1940782 C7.23360842,35.4320218 10.322412,35.0115768 13.5432158,35.0115768 C15.3912179,35.0115768 17.18642,35.1429659 18.8232219,35.405744 C20.0376233,35.5896886 21.1728246,35.8787445 22.1760258,36.1940782 C23.205627,36.5356897 24.050428,36.9298568 24.6048286,37.3503018 C25.0536292,37.6656355 25.1856293,37.9021358 25.2120293,37.9809692 C25.2120293,38.0598026 25.0536292,38.2963029 24.6312287,38.6116366 Z" id="形状" fill="url(#linearGradient-2)"></path>
                    <path d="M80.4648448,34.4071872 C78.6168426,34.7487988 76.5312402,34.9327434 74.3136376,34.9327434 C72.096035,34.9327434 70.0104326,34.7487988 68.1624304,34.4071872 C63.8064254,33.618853 60.8232219,32.3312404 60.8232219,30.4917938 L60.8232219,33.618853 C59.21282,33.3823527 57.4176179,33.2509637 55.5432158,33.2509637 C48.0984071,33.2509637 42.0528001,35.3794662 42.0528001,38.007247 L42.0528001,45.9957007 C42.0528001,46.1533676 42.0792001,46.2847566 42.1056001,46.4424235 C42.7656009,48.7548706 48.5208076,50.5680394 55.5432158,50.5680394 C57.4176179,50.5680394 59.21282,50.4366503 60.8232219,50.2001501 C61.0872222,50.1738723 61.3248225,50.1213166 61.5888228,50.068761 C61.9848233,49.9899276 62.3544237,49.937372 62.7240241,49.8585386 C66.1560281,49.1227599 68.5584309,47.8877029 68.9544314,46.4424235 C69.0072314,46.2847566 69.0072314,46.1533676 69.0072314,45.9957007 L69.0072314,47.0730909 C69.0072314,48.5709259 67.0536292,49.7008717 64.0176256,50.489206 C63.5688251,50.5943172 63.0936245,50.7257062 62.618424,50.8045397 C62.3016236,50.8570953 61.9848233,50.9359287 61.6680229,50.9884843 C61.3776225,51.0410399 61.0872222,51.0935956 60.7968219,51.1198734 C59.16002,51.3563736 57.3912179,51.5140405 55.5168157,51.5140405 C53.2992131,51.5140405 51.2136107,51.3300958 49.3656086,50.9884843 C45.0096035,50.2001501 42.0264,48.9125375 42.0264,47.0730909 L42.0264,55.0615446 C42.0264,55.2192115 42.0528001,55.3506005 42.0792001,55.5082674 C42.7392009,57.8207145 48.4944076,59.6338833 55.5168157,59.6338833 C58.1832188,59.6338833 60.6384217,59.3711052 62.7504241,58.9243824 C66.1824281,58.1886038 68.5584309,56.9535468 68.9544314,55.5082674 C69.0072314,55.3506005 69.0072314,55.2192115 69.0072314,55.0615446 L69.0072314,56.1389348 C69.0072314,57.610492 67.0800292,58.7404378 64.0440257,59.5550498 C63.3048248,59.7389945 62.5128239,59.9229392 61.6416229,60.080606 C59.7936207,60.4222175 57.7080183,60.6061622 55.4904157,60.6061622 C53.2728131,60.6061622 51.1872107,60.4222175 49.3392085,60.080606 C44.9832035,59.2922718 42,58.0046591 42,56.1652126 L42,64.0748329 C42,64.2324997 42.0264,64.3638888 42.0528001,64.5215556 C42.7128008,66.8340028 48.4680075,68.6471715 55.4904157,68.6471715 C62.5128239,68.6471715 68.2680306,66.8340028 68.9280313,64.5215556 C68.9808314,64.3638888 68.9808314,64.2324997 68.9808314,64.0748329 L68.9808314,60.7112734 C70.5912333,60.9477737 72.3864354,61.0791627 74.2608375,61.0791627 C81.2832457,61.0791627 87.0384524,59.2659939 87.6984532,56.9535468 C87.7512532,56.79588 87.7512532,56.6644909 87.7512532,56.5068241 L87.7512532,48.5183703 C87.7512532,50.3578169 84.7680498,51.6454295 80.4120447,52.4337638 C78.5640425,52.7753753 76.4784401,52.9593199 74.2608375,52.9593199 C72.3864354,52.9593199 70.5912333,52.8279309 68.9808314,52.5651528 L68.9808314,51.6454295 C70.5912333,51.8819298 72.3864354,52.0133188 74.2608375,52.0133188 C81.2832457,52.0133188 87.0384524,50.2001501 87.6984532,47.8877029 C87.7512532,47.7300361 87.7512532,47.598647 87.7512532,47.4409802 L87.7512532,39.5050821 C87.7512532,41.3445287 84.7680498,42.6321413 80.4120447,43.4204755 C78.5640425,43.762087 76.4784401,43.9460317 74.2608375,43.9460317 C72.3864354,43.9460317 70.5912333,43.8146426 68.9808314,43.5518646 L68.9808314,42.6321413 C70.5912333,42.8686415 72.3864354,43.0000306 74.2608375,43.0000306 C81.2832457,43.0000306 87.0384524,41.1868618 87.6984532,38.8744147 C87.7512532,38.7167478 87.7512532,38.5853588 87.7512532,38.4276919 L87.7512532,30.4917938 C87.8040533,32.3312404 84.8208498,33.618853 80.4648448,34.4071872 Z M66.6312287,38.6116366 C66.050428,39.0320815 65.205627,39.4262486 64.2024258,39.7678602 C63.5424251,39.9780826 62.8032242,40.1883051 62.0112233,40.3459719 L61.1400223,40.5036388 C61.0344221,40.5299166 60.928822,40.5299166 60.8232219,40.5561944 C59.18642,40.8189725 57.3912179,40.9503615 55.5432158,40.9503615 C52.296012,40.9503615 49.2336084,40.5299166 46.9104057,39.7678602 C45.8808045,39.4262486 45.0360035,39.0320815 44.4816029,38.6116366 C44.0328024,38.2963029 43.9008022,38.0598026 43.8744022,37.9809692 C43.9008022,37.9021358 44.0592024,37.6656355 44.4816029,37.3503018 C45.0624036,36.9298568 45.9072045,36.5356897 46.9104057,36.1940782 C49.2336084,35.4320218 52.322412,35.0115768 55.5432158,35.0115768 C57.3912179,35.0115768 59.18642,35.1429659 60.8232219,35.405744 C62.0376233,35.5896886 63.1728246,35.8787445 64.1760258,36.1940782 C65.205627,36.5356897 66.050428,36.9298568 66.6048286,37.3503018 C67.0536292,37.6656355 67.1856293,37.9021358 67.2120293,37.9809692 C67.2120293,38.0598026 67.0536292,38.2963029 66.6312287,38.6116366 Z" id="形状备份-2" fill="url(#linearGradient-2)"></path>
                </g>
            </g>
        </g>
    </g>
</svg>