<?xml version="1.0" encoding="UTF-8"?>
<svg width="746px" height="123px" viewBox="0 0 746 123" version="1.1" xmlns="http://www.w3.org/2000/svg" xmlns:xlink="http://www.w3.org/1999/xlink">
    <title>编组 5</title>
    <g id="中韩数据看板" stroke="none" stroke-width="1" fill="none" fill-rule="evenodd">
        <g id="数据大屏备份-5" transform="translate(-203.000000, -385.000000)">
            <g id="编组-5" transform="translate(203.000000, 385.000000)">
                <g id="编组" transform="translate(119.000000, 42.000000)" fill="#44B2D3">
                    <circle id="椭圆形" cx="5" cy="5" r="5"></circle>
                    <circle id="椭圆形备份-2" opacity="0.803075036" cx="39" cy="5" r="5"></circle>
                    <circle id="椭圆形备份-4" opacity="0.400004542" cx="107" cy="5" r="5"></circle>
                    <circle id="椭圆形备份-3" opacity="0.596520712" cx="73" cy="5" r="5"></circle>
                    <circle id="椭圆形备份-5" opacity="0.202307413" cx="141" cy="5" r="5"></circle>
                </g>
                <g id="编组备份" transform="translate(562.000000, 47.000000) scale(-1, 1) translate(-562.000000, -47.000000) translate(489.000000, 42.000000)" fill="#FEA3C3">
                    <circle id="椭圆形" cx="5" cy="5" r="5"></circle>
                    <circle id="椭圆形备份-2" opacity="0.803075036" cx="39" cy="5" r="5"></circle>
                    <circle id="椭圆形备份-4" opacity="0.400004542" cx="107" cy="5" r="5"></circle>
                    <circle id="椭圆形备份-3" opacity="0.596520712" cx="73" cy="5" r="5"></circle>
                    <circle id="椭圆形备份-5" opacity="0.202307413" cx="141" cy="5" r="5"></circle>
                </g>
                <g id="女" transform="translate(667.000000, 0.000000)" fill="#F692BB" fill-rule="nonzero">
                    <path d="M53.623104,62.4791114 C56.0110588,64.195664 59.3721653,65.8537864 64.0765753,67.2379903 C64.0765753,67.2379903 80.4788652,69.3343821 78.8918378,84 L0.0507492609,84 C-1.00853183,69.8585336 14.8660117,67.2398735 14.8660117,67.2398735 C19.7738815,65.7954075 23.219279,64.0551182 25.6255662,62.2563815 C31.8144662,86.4634939 35.4119774,75.7404437 39.652727,66.2793272 C43.8825064,75.71128 47.4690303,86.3976935 53.6213,62.4809946 L53.623104,62.4791114 Z M53.0971299,62.0901473 C51.2406412,63.233303 46.1036944,66.0053574 39.6527554,66.1678766 C32.9525428,65.9998731 27.6689546,63.0159915 26.0067594,61.9641448 C32.7454578,56.6738642 30.7405235,51.0037272 30.7405235,51.0037272 C16.9827639,53.6223873 7.4583659,47.8627989 7.4583659,47.8627989 C13.278901,43.6736703 11.6918135,44.7200387 15.925261,20.628032 C20.1587086,-3.4640346 39.7370291,0.199196262 39.7370291,0.199196262 C39.7370291,0.199196262 58.7838493,-2.93990883 63.0191868,20.6243512 C67.2526343,44.1922921 65.663717,43.6700495 71.4860819,47.8591181 C71.4860819,47.8591181 62.4876864,53.6205384 48.2021203,51.0037016 C48.2021203,51.0037016 46.164198,56.76329 53.0953259,62.0882384 L53.0971299,62.0901473 Z" id="形状"></path>
                </g>
                <g id="男" fill="#4BDDE3" fill-rule="nonzero">
                    <path d="M70.4411147,61.5776768 C54.1909634,60.0936813 53.2247382,52.550504 53.2247382,52.550504 L53.2247382,50.57931 C62.711313,46.8105214 65.6209685,32.368165 65.6209685,32.368165 C65.6209685,26.6169823 62.8869903,26.4377829 62.8869903,26.4377829 L62.8869903,17.113811 C63.5073508,1.52905806 54.344681,5.14104716 54.2293928,5.14104716 C54.1141046,5.14104716 49.057892,1.03065957 49.057892,1.03065957 C45.5168962,-1.75253203 37.6333768,1.98265669 37.6333768,1.98265669 L37.3039819,1.98265669 C28.3718886,2.21785598 26.0496541,8.85383595 26.0496541,8.85383595 L26.2033718,26.0849839 C21.5589029,26.0849839 22.1737734,32.8217636 22.1737734,32.8217636 C22.1737734,40.2137413 34.7292113,50.3665106 34.7292113,50.3665106 C35.5197592,60.0432814 30.5458953,59.3656835 30.5458953,59.3656835 L30.5458908,59.3656837 C24.3863423,59.7498907 18.289825,60.8489793 12.374269,62.6416651 L11.6221505,62.8992643 L11.6221521,62.8992637 C6.14065115,64.9957136 1.87334805,69.4945388 -1.01690151e-15,75.1520267 L-1.01690151e-15,84 L86.99887,84 L86.99887,77.1232208 C87.1580775,66.9480515 70.4412834,61.5776677 70.4412834,61.5776677 L70.4411147,61.5776768 Z" id="路径"></path>
                </g>
                <g id="未知" transform="translate(343.000000, 0.000000)" fill="#A3A0D5" fill-rule="nonzero">
                    <path d="M34.43791,84 C32.8353472,84 30.9229557,83.937004 28.6366328,83.8162616 L28.6366468,83.8162624 C24.0733806,83.5625435 19.517157,83.1984565 14.9720866,82.7243316 C12.4987981,82.4565985 10.4528597,82.1993648 8.71140814,81.9001337 L8.71140153,81.9001327 C7.10222403,81.6480451 5.49923351,81.3592355 3.90371327,81.0339375 L3.90371334,81.0339376 C3.02803904,80.9335095 2.18743749,80.6371929 1.44645045,80.1677424 C0.912262865,79.7530187 0.458203418,78.3881051 0.148374619,76.1097494 L0.148373565,76.1097384 C-0.136529958,73.1476852 -0.0107350416,70.1613318 0.522306961,67.2325607 L0.522306889,67.2325614 C0.717350044,65.3929015 1.63074613,63.6992685 3.07038167,62.5078606 L3.07038262,62.5078598 C4.51514094,61.3855383 6.13990586,60.5073469 7.87807088,59.9092744 L7.87807022,59.9092746 C9.76341853,59.2528262 11.6818927,58.6921207 13.625866,58.2294015 L13.6258667,58.2294013 C15.4891693,57.802832 17.2625156,57.0602635 18.8662469,56.0350403 L18.8662468,56.0350403 C19.858565,55.4452279 20.7750493,54.7402078 21.5959454,53.9351733 L21.5959454,53.9351733 C22.1838418,53.3599892 22.6567564,52.6815588 22.990175,51.9350499 L22.9901752,51.9350495 C23.2703159,51.2692737 23.4137348,50.5556378 23.4121834,49.8351824 C23.4121834,49.178974 23.385474,48.4230218 23.3160296,47.3730883 L23.3160295,47.3730863 C23.2710067,46.2113615 22.7917244,45.1067371 21.9698768,44.2705327 C21.1632536,43.5145806 20.3085534,42.7481291 19.4218021,41.992177 L19.4218025,41.9921773 C18.8801843,41.5757321 18.4509427,41.034922 18.1718036,40.4172771 L18.1718027,40.4172753 C17.8287114,39.7100344 17.5045263,38.9940823 17.1995813,38.2701613 L17.1995808,38.2701598 C16.866833,37.4129978 16.5885213,36.5363751 16.3662513,35.6453363 L16.3662508,35.6453358 C16.171411,35.4477842 15.99279,35.2353839 15.8320632,35.010126 L15.8320633,35.0101262 C15.5904905,34.6117666 15.3728811,34.1998359 15.1803544,33.7764543 L15.1803549,33.7764552 C14.8486431,33.0527024 14.5684127,32.3072148 14.3416804,31.5453465 L14.3416801,31.5453458 C14.0620089,30.6899493 13.8617616,29.8114175 13.74339,28.920512 L13.7433898,28.9205107 C13.6428214,28.2700584 13.6590935,27.6073145 13.791467,26.9623847 L13.791467,26.9623842 C13.8323694,26.3599848 13.9882129,25.7705251 14.2508684,25.2247442 L14.2508686,25.2246219 C14.2553538,23.0968352 14.3801952,20.9709454 14.6248135,18.8567751 L14.6248114,18.8567888 C14.9144486,16.9229117 15.317539,15.0071009 15.8320649,13.1189226 L15.8320655,13.1189203 C16.3582737,11.1154442 17.2644395,9.22753247 18.5030035,7.5542727 L18.5030035,7.55427261 C19.5221197,6.13542691 20.7395697,4.86477152 22.1194535,3.77976161 L22.1194542,3.77976107 C23.3423577,2.8211974 24.6987351,2.03980386 26.1472181,1.45940799 L26.1472195,1.45940745 C27.5059548,0.919886191 28.9239725,0.537589402 30.3726433,0.320229581 L30.3726424,0.320229723 C31.7224468,0.108933679 33.0870143,0.0018630168 34.4538355,0 L34.453836,0 C35.6234356,0.0835076872 36.7855335,0.248409795 37.9313867,0.493466739 L37.9313872,0.493466829 C38.6868453,0.662794242 39.4173885,0.925626233 40.1055306,1.2756673 L40.105531,1.27566748 C40.6403831,1.56249517 41.1254265,1.93107412 41.5424956,2.36759834 C42.0286063,2.8925651 42.4292469,3.2810405 42.7924945,3.64326757 L44.5499717,3.64326757 L44.5499717,3.64326757 C45.0923829,3.6429795 45.6320459,3.71899566 46.1525345,3.86900327 L46.1525343,3.86900321 C46.7407437,4.04846187 47.2858884,4.34311484 47.7550971,4.73519836 L47.7550969,4.73519824 C48.3910556,5.27711876 48.9643119,5.88625963 49.4644972,6.55158323 L49.4644977,6.55158391 C50.8654568,8.34351488 51.934145,10.364032 52.6215463,12.520456 L52.6215453,12.5204528 C53.25996,14.5346026 53.7526458,16.5906062 54.0959031,18.6730632 L54.0959026,18.6730595 C54.3909337,20.8778276 54.5692366,23.0961607 54.6300891,25.3190976 L54.6300891,25.3190976 C54.7629985,25.6720076 54.8561464,26.0381708 54.9078666,26.4110285 C54.9612854,26.8415012 55.0093623,27.366468 55.0467554,27.9859288 L55.0467559,27.9859482 C55.0669896,28.7479057 55.0205216,29.5101564 54.9078651,30.2642937 L54.9078652,30.2642917 C54.8394593,31.2380794 54.6602797,32.2012755 54.3736776,33.1358599 L54.3736776,33.13586 C54.1912557,33.7044759 53.9092464,34.2374392 53.540345,34.7107603 L53.540345,34.7107603 C53.2780766,35.0884933 52.9284143,35.399735 52.5200467,35.6189528 L52.5200478,35.6189486 C52.2921187,36.5090195 52.0120959,37.3854208 51.6813785,38.2437722 L51.6813781,38.2437732 C51.37802,38.966637 51.0538161,39.6808799 50.7091566,40.3856376 L50.7091566,40.3856376 C50.4300165,41.0032825 50.0007759,41.5440916 49.4591577,41.9605379 C48.2251844,42.9632244 47.4506124,43.6089335 46.863006,44.1076519 L46.8630064,44.1076515 C46.0726237,44.9102816 45.5813214,45.9517715 45.4687768,47.0632144 L45.4687769,47.0632142 C45.2890645,47.9013964 45.2297269,48.7601897 45.292495,49.6145526 L45.2924949,49.614552 C45.3630026,50.5141461 45.5963642,51.3941483 45.9815969,52.2131375 L45.9815972,52.213138 C46.4417768,53.1723599 47.1046431,54.0242221 47.92604,54.7119798 L47.9260402,54.71198 C49.0358462,55.6243927 50.3020273,56.3354294 51.6653533,56.811847 L51.6653582,56.8118489 C53.1977984,57.3897952 54.7597233,57.8891893 56.3448415,58.3080041 C58.0916349,58.7804742 59.7422745,59.3001913 61.2593672,59.8829044 L61.2593657,59.8829038 C62.7666511,60.4260609 64.1876005,61.1772955 65.4794476,62.1140126 L65.4794476,62.1140126 C66.6978544,63.0064755 67.6048465,64.2481152 68.0755993,65.6680375 L68.0755999,65.6680398 C68.3620079,66.7346451 68.5779146,67.8183426 68.7219668,68.9123344 L68.721967,68.9123353 C68.9080771,70.2220453 69.0008953,71.5429212 68.9998762,72.865335 L68.9998762,72.8654502 C69.004202,74.1340652 68.8951568,75.400609 68.6738696,76.6504605 L68.6738695,76.6504616 C68.5414713,77.6026098 68.210491,78.5176514 67.7016481,79.3382914 L67.701648,79.3382915 C67.04748,79.9573595 66.2292622,80.3830573 65.3405389,80.5667137 L65.3405404,80.5667132 C63.7729607,81.0265995 62.1780769,81.3912648 60.5649243,81.6586441 C58.599114,81.9946228 56.446338,82.3201022 54.1546733,82.6140836 L54.1546894,82.6140815 C51.8111813,82.9147839 49.4621227,83.1720627 47.1087552,83.3857837 C44.7209367,83.60102 42.4132463,83.7532604 40.2497866,83.8425048 C38.0863269,83.9317491 36.1098328,84 34.4378257,84 L34.43791,84 Z M34.224235,35.9655415 L34.2242349,35.9655415 C32.5299317,35.9655415 31.1555985,37.3137935 31.1526563,38.9788507 L31.1526563,38.9788548 C31.1526563,40.6468136 32.5269895,41.9997617 34.2242349,42.0026633 L34.224235,42.0026633 C35.9214804,41.9997676 37.2958136,40.6468136 37.2958136,38.9788548 L37.2958136,38.9788934 C37.2928887,37.3138363 35.91858,35.9655415 34.2242768,35.9655415 L34.224235,35.9655415 Z M34.1868418,16.4367781 C36.5265834,16.4367781 39.2616239,17.4394646 39.2616239,20.2742851 C39.2616239,22.9516155 38.4015819,23.5658266 35.8535071,25.392711 L35.5703877,25.5921983 L35.5703883,25.592198 C33.0629723,27.049114 31.5575962,29.7285054 31.6387677,32.5900049 L31.6387677,34.080948 L36.8417548,34.080948 L36.8417547,34.080948 C36.8469268,31.8092774 37.9566626,29.6768665 39.827832,28.3430408 L39.8278319,28.3430409 C40.8723251,27.4205492 41.8012481,26.3790192 42.5949236,25.2404873 L42.5949236,25.2404873 C43.8780172,23.4945422 44.5287662,21.3764038 44.4432127,19.2243682 L44.4432129,19.2243709 C44.0408267,14.67254 40.0425088,11.2515101 35.3994171,11.4863609 L35.3994171,11.4863609 C29.8378253,10.7986473 24.7619895,14.6718838 24.0621203,20.137485 C24.0030365,20.5989482 23.9768686,21.0639068 23.9838083,21.5289545 L29.0852998,21.5289545 L29.0852997,21.5289534 C28.9387372,18.8625734 31.0194135,16.5842894 33.7326273,16.4402517 C33.8838796,16.4322224 34.0354282,16.4310619 34.186789,16.4367739 L34.1868418,16.4367781 Z" id="形状"></path>
                </g>
                <text id="男" font-family="PingFang-SC-Bold, PingFang SC" font-size="20" font-weight="bold" fill="#46D1D6">
                    <tspan x="33" y="116">男</tspan>
                </text>
                <text id="未知" font-family="PingFang-SC-Bold, PingFang SC" font-size="20" font-weight="bold" fill="#8E8BBD">
                    <tspan x="357" y="116">未知</tspan>
                </text>
                <text id="女" font-family="PingFang-SC-Bold, PingFang SC" font-size="20" font-weight="bold" fill="#F692BB">
                    <tspan x="696" y="116">女</tspan>
                </text>
            </g>
        </g>
    </g>
</svg>