<?xml version="1.0" encoding="UTF-8"?>
<svg width="14px" height="14px" viewBox="0 0 14 14" version="1.1" xmlns="http://www.w3.org/2000/svg" xmlns:xlink="http://www.w3.org/1999/xlink">
    <title>编组 15备份 7</title>
    <g id="页面-1" stroke="none" stroke-width="1" fill="none" fill-rule="evenodd">
        <g id="中韩数据看板" transform="translate(-1288.000000, -1225.000000)">
            <g id="编组-15备份-14" transform="translate(1288.000000, 1225.000000)">
                <circle id="椭圆形" stroke="#3599FE" cx="7" cy="7" r="6.5"></circle>
                <path d="M7.69408305,8.33442689 L7.9427464,3.99835967 C7.97260529,3.47769521 7.57472877,3.03140785 7.05406431,3.00154896 C7.03606136,3.00051653 7.01803253,3 7,3 C6.47661036,3 6.05231923,3.42429113 6.05231923,3.94768077 C6.05231923,3.96464898 6.05277495,3.98161413 6.05368591,3.99855787 L6.28679004,8.33429475 C6.30686007,8.70759726 6.61540568,9 6.98924731,9 C7.36345509,9 7.6726583,8.70802085 7.69408305,8.33442689 Z M6.99173554,12 C7.27272727,12 7.52066116,11.8991597 7.71900826,11.7142857 C7.90082645,11.5294118 8,11.2941176 8,10.9915966 C8,10.7058824 7.90082645,10.4705882 7.71900826,10.2857143 C7.52066116,10.0840336 7.27272727,10 6.99173554,10 C6.7107438,10 6.47933884,10.0840336 6.28099174,10.2857143 C6.08264463,10.4705882 6,10.7058824 6,10.9915966 C6,11.2773109 6.08264463,11.512605 6.28099174,11.7142857 C6.47933884,11.8991597 6.7107438,12 6.99173554,12 Z" id="！" fill="#3599FE" fill-rule="nonzero"></path>
            </g>
        </g>
    </g>
</svg>