<?xml version="1.0" encoding="UTF-8"?>
<svg width="24px" height="24px" viewBox="0 0 24 24" version="1.1" xmlns="http://www.w3.org/2000/svg" xmlns:xlink="http://www.w3.org/1999/xlink">
    <title>button/审核备份 2</title>
    <defs>
        <filter x="-13.9%" y="-12.5%" width="127.8%" height="125.0%" filterUnits="objectBoundingBox" id="filter-1">
            <feOffset dx="0" dy="0" in="SourceAlpha" result="shadowOffsetOuter1"></feOffset>
            <feGaussianBlur stdDeviation="0.5" in="shadowOffsetOuter1" result="shadowBlurOuter1"></feGaussianBlur>
            <feColorMatrix values="0 0 0 0 0   0 0 0 0 0   0 0 0 0 0  0 0 0 0.5 0" type="matrix" in="shadowBlurOuter1" result="shadowMatrixOuter1"></feColorMatrix>
            <feMerge>
                <feMergeNode in="shadowMatrixOuter1"></feMergeNode>
                <feMergeNode in="SourceGraphic"></feMergeNode>
            </feMerge>
        </filter>
    </defs>
    <g id="页面-1" stroke="none" stroke-width="1" fill="none" fill-rule="evenodd">
        <g id="按钮状态" transform="translate(-833.000000, -715.000000)" fill-rule="nonzero">
            <g id="button/审核备份-2" transform="translate(833.000000, 715.000000)">
                <g id="审核" transform="translate(3.000000, 2.000000)" filter="url(#filter-1)">
                    <path d="M7.27081029,2.84288194 C7.26769912,1.90972222 7.48237002,0.988963294 7.89615597,0.151909722 C5.93300608,0.595238095 4.43342091,2.17323909 4.0943031,4.15116567 C3.75518529,6.12599206 4.64186947,8.11321925 6.34368086,9.1827877 C6.76368916,9.45870536 7.01569414,9.92683532 7.00947179,10.4290675 C7.00947179,11.2599206 6.33434735,11.9326637 5.5005531,11.9326637 L2.47649336,11.9326637 C1.12624447,11.9326637 0.0280005531,13.0239335 0.0280005531,14.3725198 C0.0280005531,15.0452629 0.295561394,15.6901042 0.771570796,16.1644345 C1.2475802,16.6387649 1.89470409,16.9053819 2.56982854,16.9053819 L15.4594165,16.9053819 C16.1189851,16.9053819 16.7505531,16.6449653 17.217229,16.1799355 C17.6839049,15.7149058 17.945352,15.0855655 17.945352,14.4283234 C17.9514657,13.7679812 17.6901272,13.1324405 17.2234513,12.6643105 C16.7567754,12.1961806 16.1189851,11.9326637 15.4563053,11.9326637 L12.4975802,11.9326637 C11.663786,11.9326637 10.9886615,11.2599206 10.9886615,10.4290675 C10.9824392,9.92993552 11.231333,9.45870536 11.6482301,9.1827877 C11.8224558,9.07428075 11.9904591,8.95337302 12.1491289,8.82316468 C9.30862832,8.23412698 7.27081029,5.73846726 7.27081029,2.84288194 Z" id="路径" fill="#3599FE"></path>
                    <path d="M15.9696488,19.8567708 C16.5203263,19.8567708 16.965224,19.4134425 16.965224,18.8647073 C16.965224,18.3159722 16.5203263,17.8726438 15.9696488,17.8726438 L2.03159569,17.8726438 C1.48091814,17.8726438 1.03602046,18.3159722 1.03602046,18.8647073 C1.03602046,19.4134425 1.48091814,19.8567708 2.03159569,19.8567708 L15.9696488,19.8567708 Z" id="路径" fill="#B8D7FF"></path>
                    <path d="M13.975398,4.98821925 C13.9784983,3.47842262 13.287818,2.05233135 12.1055725,1.10987103 C10.9233269,0.167410714 9.37396294,-0.186011905 7.89615597,0.151909722 C7.05925055,1.84771825 7.05925055,3.83184524 7.8930448,5.52765377 C8.72683905,7.2234623 10.3010924,8.44184028 12.1584624,8.82316468 C13.3095962,7.88380456 13.9784983,6.47631448 13.975398,4.98821925 L13.975398,4.98821925 Z" id="路径" fill="#3599FE"></path>
                </g>
            </g>
        </g>
    </g>
</svg>