<?xml version="1.0" encoding="UTF-8"?>
<svg width="20px" height="20px" viewBox="0 0 20 20" version="1.1" xmlns="http://www.w3.org/2000/svg" xmlns:xlink="http://www.w3.org/1999/xlink">
    <title>BBD查看</title>
    <g id="页面-1" stroke="none" stroke-width="1" fill="none" fill-rule="evenodd">
        <g id="按钮状态" transform="translate(-1021.000000, -718.000000)" fill="#3599FE" fill-rule="nonzero">
            <g id="BBD查看" transform="translate(1021.000000, 718.000000)">
                <path d="M10,3 C3.3925,3 0,9.99934303 0,9.99934303 C0,9.99934303 2.56,17 10,17 C16.73875,17 20,10.0269357 20,10.0269357 C20,10.0269357 16.71125,3 10,3 L10,3 L10,3 Z M10.015,14.3747536 C7.59875,14.3747536 5.8525,12.4603473 5.8525,9.99934303 C5.8525,7.53833881 7.59875,5.62393243 10.015,5.62393243 C12.43125,5.62393243 14.1775,7.53833881 14.1775,9.99934303 C14.1775,12.4603473 12.43125,14.3747536 10.015,14.3747536 L10.015,14.3747536 L10.015,14.3747536 Z M10.015,7.37409244 C8.635,7.37672454 7.5175,8.59343031 7.5175,9.99934303 C7.5175,11.4052557 8.635,12.6245894 10.015,12.6245894 C11.39625,12.6245894 12.5125,11.4052557 12.5125,9.99934303 C12.5125,8.59343031 11.39625,7.37146879 10.015,7.37409244 L10.015,7.37409244 L10.015,7.37409244 Z" id="形状"></path>
            </g>
        </g>
    </g>
</svg>