<?xml version="1.0" encoding="UTF-8"?>
<svg width="20px" height="20px" viewBox="0 0 20 20" version="1.1" xmlns="http://www.w3.org/2000/svg" xmlns:xlink="http://www.w3.org/1999/xlink">
    <title>停用</title>
    <g id="运营官绺系统1.4.0" stroke="none" stroke-width="1" fill="none" fill-rule="evenodd">
        <g id="渠道列表" transform="translate(-1272.000000, -544.000000)" fill="#F64E60" fill-rule="nonzero">
            <g id="停用" transform="translate(1272.000000, 544.000000)">
                <path d="M10.0000116,0 C15.500018,0 20.0000233,4.5 20.0000233,10.0000116 C20.0000233,15.500018 15.500018,20.0000233 10.0000116,20.0000233 C4.5,20.0000233 0,15.500018 0,10.0000116 C0,4.5 4.5,0 10.0000116,0 Z M14.3181818,8.18181818 L5.68181818,8.18181818 C4.80318335,8.18181818 4.09090909,8.89409244 4.09090909,9.77272727 C4.09090909,10.6513621 4.80318335,11.3636364 5.68181818,11.3636364 L5.68181818,11.3636364 L14.3181818,11.3636364 C15.1968166,11.3636364 15.9090909,10.6513621 15.9090909,9.77272727 C15.9090909,8.89409244 15.1968166,8.18181818 14.3181818,8.18181818 L14.3181818,8.18181818 Z" id="形状"></path>
            </g>
        </g>
    </g>
</svg>