<?xml version="1.0" encoding="UTF-8"?>
<svg width="24px" height="24px" viewBox="0 0 24 24" version="1.1" xmlns="http://www.w3.org/2000/svg" xmlns:xlink="http://www.w3.org/1999/xlink">
    <title>停用</title>
    <g id="运营官绺系统1.4.0" stroke="none" stroke-width="1" fill="none" fill-rule="evenodd">
        <g id="渠道列表" transform="translate(-1270.000000, -647.000000)" fill="#F64E60" fill-rule="nonzero">
            <g id="停用备份" transform="translate(1270.000000, 647.000000)">
                <path d="M12.0000116,2 C17.500018,2 22.0000233,6.5 22.0000233,12.0000116 C22.0000233,17.500018 17.500018,22.0000233 12.0000116,22.0000233 C6.5,22.0000233 2,17.500018 2,12.0000116 C2,6.5 6.5,2 12.0000116,2 Z M16.3181818,10.1818182 L7.68181818,10.1818182 C6.80318335,10.1818182 6.09090909,10.8940924 6.09090909,11.7727273 C6.09090909,12.6513621 6.80318335,13.3636364 7.68181818,13.3636364 L7.68181818,13.3636364 L16.3181818,13.3636364 C17.1968166,13.3636364 17.9090909,12.6513621 17.9090909,11.7727273 C17.9090909,10.8940924 17.1968166,10.1818182 16.3181818,10.1818182 L16.3181818,10.1818182 Z" id="形状"></path>
            </g>
        </g>
    </g>
</svg>