<?xml version="1.0" encoding="UTF-8"?>
<svg width="141px" height="141px" viewBox="0 0 141 141" version="1.1" xmlns="http://www.w3.org/2000/svg" xmlns:xlink="http://www.w3.org/1999/xlink">
    <title>性别女</title>
    <g id="皮肤检测" stroke="none" stroke-width="1" fill="none" fill-rule="evenodd">
        <g id="性别女" fill="#F64E60" fill-rule="nonzero">
            <path d="M58.5742188,105.46875 C84.453125,105.46875 105.410156,84.4921875 105.410156,58.6328125 C105.410156,32.7734375 84.4335938,11.7773438 58.5742188,11.7773438 C32.7148438,11.7773438 11.71875,32.7539062 11.71875,58.6132813 C11.71875,84.4726562 32.6953125,105.46875 58.5742188,105.46875 Z M103.90625,95.6835937 L118.125,109.902344 L126.40625,101.621094 C128.691406,99.3359375 132.402344,99.3359375 134.6875,101.621094 C136.972656,103.90625 136.972656,107.617188 134.6875,109.902344 L126.40625,118.164062 L138.828125,130.585938 C141.113281,132.871094 141.113281,136.582031 138.828125,138.867188 C136.542969,141.152344 132.832031,141.152344 130.546875,138.867188 L118.125,126.445312 L109.84375,134.726562 C107.558594,137.011719 103.847656,137.011719 101.5625,134.726562 C99.2773438,132.441406 99.2773438,128.730469 101.5625,126.445312 L109.84375,118.164062 L95.625,103.945312 C85.5273438,112.207031 72.6171875,117.167969 58.5742188,117.167969 C26.2304688,117.167969 0.01953125,90.9570312 0.01953125,58.6132813 C0.01953125,26.2695313 26.2304688,0.05859375 58.5742188,0.05859375 C90.9179688,0.05859375 117.128906,26.2695313 117.128906,58.6132813 C117.109375,72.6757812 112.167969,85.5859375 103.90625,95.6835938 L103.90625,95.6835937 Z" id="形状"></path>
        </g>
    </g>
</svg>