<?xml version="1.0" encoding="UTF-8"?>
<svg width="20px" height="20px" viewBox="0 0 20 20" version="1.1" xmlns="http://www.w3.org/2000/svg" xmlns:xlink="http://www.w3.org/1999/xlink">
    <title>BBD查看</title>
    <g id="页面-1" stroke="none" stroke-width="1" fill="none" fill-rule="evenodd">
        <g id="用户协议" transform="translate(-1229.000000, -244.000000)" fill="#3599FE" fill-rule="nonzero">
            <g id="查看历史" transform="translate(1229.000000, 244.000000)">
                <path d="M14.091066,9.39976535 C16.8014981,9.39976535 18.9999994,11.5489413 18.9999994,14.1998765 L18.9999994,14.2001034 C19.0013233,16.8497114 16.8034158,18.9986889 14.0908469,19 C14.0908465,19 14.090846,19 14.0908455,19 C11.3795368,19 9.18191212,16.8508245 9.18191212,14.1998893 L9.18191212,14.199662 C9.18058845,11.550054 11.3784957,9.40107647 14.0910646,9.39976535 C14.091065,9.39976535 14.0910655,9.39976535 14.091066,9.39976535 L14.091066,9.39976535 Z M13.6816961,1 L13.681696,1 C14.8111723,1 15.7267928,1.89436433 15.7267928,2.99762025 L15.7267928,8.42193372 L15.7267928,8.42193383 C12.4609828,7.53789007 9.07981847,9.40724464 8.1747614,12.5972531 C7.66595819,14.3906079 8.03881656,16.3130898 9.18389223,17.8003879 L3.04597316,17.8003879 L3.04597321,17.8003879 C1.91649683,17.8008608 1.00048505,16.9068798 1,15.8036239 C1,15.8030529 1,15.802482 1,15.801911 L1,2.99761998 L1,2.9976201 C1,1.89436419 1.91562023,1 3.04509662,1 C3.04538888,1 3.04568114,1 3.0459734,1 L13.6817021,1 L13.6816961,1 Z M13.9885043,10.6002216 L13.9885043,10.6002216 C13.6280402,10.600429 13.3239055,10.8622933 13.2784623,11.2115807 L13.2723261,11.2997739 L13.2723261,14.3009134 C13.2723261,14.5338121 13.3889133,14.7401672 13.5686153,14.8677477 L13.649262,14.9165537 L13.7062407,14.9687847 L15.136844,16.1015971 L15.2166141,16.1563968 L15.216614,16.1563968 C15.5542538,16.3576385 15.9949839,16.2534195 16.2010085,15.9236169 C16.3696311,15.6536882 16.3319074,15.3068286 16.1089893,15.0775289 L16.037985,15.0133105 L14.7038073,13.9575601 L14.7038073,11.2997749 L14.7038073,11.2997744 C14.7038073,10.9137577 14.3836966,10.6006957 13.9885056,10.6002216 L13.9885043,10.6002216 Z M8.05570854,6.59984389 L3.76214561,6.59984389 L3.7621456,6.59984389 C3.36613279,6.60205844 3.04693985,6.91743327 3.04919603,7.30425008 C3.05125933,7.65423496 3.31748533,7.94902146 3.6727329,7.99466736 L3.7621456,7.99980483 L8.05570853,7.99980483 L8.05570856,7.99980483 C8.45148578,8.01332775 8.78354823,7.71089967 8.79739296,7.3243103 C8.81123727,6.93772093 8.50162154,6.61336722 8.10584432,6.59984389 C8.08913782,6.59927307 8.07241591,6.59927307 8.05570938,6.5998439 L8.05570854,6.59984389 Z M6.82847536,3.79992202 L3.76214561,3.79992202 L3.7621456,3.79992202 C3.36613279,3.80213656 3.04693985,4.1175114 3.04919603,4.50432821 C3.05125933,4.85431309 3.31748533,5.14909959 3.6727329,5.19474549 L3.7621456,5.19988296 L6.82847535,5.19988296 L6.82847538,5.19988296 C7.2242526,5.21340588 7.55631506,4.91097779 7.57015978,4.52438843 C7.58400409,4.13779906 7.27438837,3.81344534 6.87861114,3.79992202 C6.86190464,3.79935119 6.84518274,3.79935119 6.8284762,3.79992202 L6.82847536,3.79992202 Z" id="形状"></path>
            </g>
        </g>
    </g>
</svg>