<?xml version="1.0" encoding="UTF-8"?>
<svg width="20px" height="20px" viewBox="0 0 20 20" version="1.1" xmlns="http://www.w3.org/2000/svg" xmlns:xlink="http://www.w3.org/1999/xlink">
    <title>管理 2</title>
    <g id="保险管理系统1.4.0" stroke="none" stroke-width="1" fill="none" fill-rule="evenodd">
        <g id="国家医保目录" transform="translate(-1219.000000, -420.000000)" fill="#3599FE" fill-rule="nonzero">
            <g id="管理-2备份" transform="translate(1219.000000, 420.000000)">
                <path d="M16.0039535,10.8870796 L16.0039536,10.8870796 C15.3038225,10.8121388 14.598991,10.9782994 14.0081179,11.357588 L15.7401512,13.07359 L15.7401512,13.07359 C15.7763405,13.1087747 15.7932059,13.159057 15.7854637,13.2086839 L15.7003074,13.8039736 L15.7003074,13.8039736 C15.6905772,13.8749719 15.6342437,13.9308474 15.5625468,13.9406144 L14.961244,14.0246614 L14.961244,14.0246614 C14.9110973,14.0325466 14.8602074,14.0158171 14.8247855,13.979802 L13.0914502,12.265089 L13.0914505,12.2650886 C12.1753114,13.6838092 12.5943483,15.5691659 14.0273995,16.4761513 C14.8745463,17.0123117 15.9327272,17.1053048 16.8620382,16.7252635 L16.8620382,16.7252634 C16.9819271,16.6770269 17.1193317,16.7044361 17.2109969,16.7948729 L18.2836544,17.8562882 L18.2836544,17.8562881 C18.5366044,18.1058605 18.9458088,18.1058605 19.1987596,17.8562883 L19.6576143,17.4020221 L19.6576143,17.4020221 C19.9097076,17.1516016 19.9097076,16.7464892 19.6576143,16.4960679 L18.5849568,15.435426 L18.5849568,15.435426 C18.4936064,15.3446775 18.4659204,15.2086469 18.5146442,15.0899569 L18.5146442,15.0899568 C19.16802,13.535142 18.4245269,11.7503529 16.8540069,11.1035006 C16.5829336,10.991855 16.2971286,10.9191547 16.0052663,10.8876061 L16.0039535,10.8870796 Z M9.60472729,1.57617032 L16.6997876,4.75397089 L16.6997876,4.75397089 C17.3559134,5.04778983 17.6472158,5.81255541 17.350429,6.46211991 C17.2198221,6.74797243 16.9885302,6.97695403 16.6997876,7.10625488 L9.60472729,10.2837976 L9.60472732,10.2837976 C9.26319046,10.4369952 8.87152334,10.4369952 8.52998648,10.2837977 L1.43466573,7.10548145 L1.43466576,7.10548147 C0.778539994,6.81166253 0.487237572,6.04689695 0.784024375,5.39733245 C0.914631298,5.11147993 1.14592323,4.88249833 1.43466576,4.75319748 L8.52998651,1.57617035 L8.52998656,1.57617033 C8.87158852,1.42327496 9.26312543,1.42327496 9.60472739,1.57617036 L9.60472729,1.57617032 Z M12.7909289,17.046743 L9.74873787,18.4092837 L9.74873791,18.4092836 C9.40633908,18.5626882 9.01379174,18.5626882 8.67139291,18.4092837 L1.56227005,15.2265847 L1.56227012,15.2265847 C0.904777169,14.9319563 0.613032038,14.1654376 0.910636551,13.5145195 C1.04150988,13.2282752 1.27313437,12.9989661 1.56227012,12.8694023 L1.56227014,12.8694023 C1.72547111,12.7966408 1.91235128,12.7966408 2.07555199,12.8694023 L8.671393,15.8223901 L8.67139299,15.8223901 C9.01379183,15.9757947 9.40633916,15.9757947 9.748738,15.8223902 L11.3995212,15.0829831 L11.3995209,15.0829824 C11.6624848,15.8566347 12.1456676,16.5385754 12.7909289,17.0467425 L12.7909289,17.046743 Z M12.9794708,10.2611101 C12.9659291,10.2794148 12.952127,10.2977195 12.9391062,10.3160242 L12.939106,10.3160244 C11.874537,11.0807023 11.2259061,12.2888878 11.1812914,13.5902469 L9.49509155,14.3456384 L9.49509159,14.3456384 C9.15269275,14.499043 8.76014542,14.499043 8.41774658,14.3456385 L1.30836331,11.1616504 L1.30836324,11.1616504 C0.650943207,10.8672101 0.359099118,10.1009003 0.65651613,9.45005443 C0.787379564,9.16368113 1.01909728,8.9342793 1.30836324,8.80472579 L1.3083632,8.80472581 C1.51655511,8.71122149 1.75537935,8.71122149 1.9635723,8.80472577 L8.55941331,11.758487 L8.55941324,11.758487 C8.90178343,11.9116128 9.29412764,11.9116128 9.63649783,11.7584871 L12.9794708,10.2611101 Z M9.4745188,1.57617032 L16.5695791,4.75397089 L16.5695791,4.75397089 C17.2257049,5.04778983 17.5170073,5.81255541 17.2202205,6.46211991 C17.0896136,6.74797243 16.8583217,6.97695403 16.5695791,7.10625488 L9.47451881,10.2837976 L9.47451883,10.2837976 C9.13298198,10.4369952 8.74131485,10.4369952 8.399778,10.2837977 L1.30445724,7.10548145 L1.30445727,7.10548147 C0.648331509,6.81166253 0.357029087,6.04689695 0.653815891,5.39733245 C0.784422813,5.11147993 1.01571475,4.88249833 1.30445727,4.75319748 L8.39977803,1.57617035 L8.39977807,1.57617033 C8.74138003,1.42327496 9.13291695,1.42327496 9.47451891,1.57617036 L9.4745188,1.57617032 Z M12.6607204,17.046743 L9.61852939,18.4092837 L9.61852943,18.4092836 C9.27613059,18.5626882 8.88358326,18.5626882 8.54118442,18.4092837 L1.43206157,15.2265847 L1.43206164,15.2265847 C0.774568684,14.9319563 0.482823553,14.1654376 0.780428066,13.5145195 C0.911301395,13.2282752 1.14292588,12.9989661 1.43206164,12.8694023 L1.43206166,12.8694023 C1.59526263,12.7966408 1.78214279,12.7966408 1.9453435,12.8694023 L8.54118451,15.8223901 L8.54118451,15.8223901 C8.88358334,15.9757947 9.27613068,15.9757947 9.61852951,15.8223902 L11.2693127,15.0829831 L11.2693124,15.0829824 C11.5322763,15.8566347 12.0154591,16.5385754 12.6607204,17.0467425 L12.6607204,17.046743 Z M12.8492623,10.2611101 C12.8357206,10.2794148 12.8219185,10.2977195 12.8088977,10.3160242 L12.8088975,10.3160244 C11.7443285,11.0807023 11.0956976,12.2888878 11.0510829,13.5902469 L9.36488306,14.3456384 L9.3648831,14.3456384 C9.02248427,14.499043 8.62993693,14.499043 8.2875381,14.3456385 L1.17815483,11.1616504 L1.17815476,11.1616504 C0.520734722,10.8672101 0.228890633,10.1009003 0.526307646,9.45005443 C0.657171079,9.16368113 0.888888797,8.9342793 1.17815476,8.80472579 L1.17815472,8.80472581 C1.38634663,8.71122149 1.62517086,8.71122149 1.83336381,8.80472577 L8.42920482,11.758487 L8.42920476,11.758487 C8.77157495,11.9116128 9.16391915,11.9116128 9.50628934,11.7584871 L12.8492623,10.2611101 Z" id="形状"></path>
            </g>
        </g>
    </g>
</svg>