<?xml version="1.0" encoding="UTF-8"?>
<svg width="28px" height="31px" viewBox="0 0 28 31" version="1.1" xmlns="http://www.w3.org/2000/svg" xmlns:xlink="http://www.w3.org/1999/xlink">
    <title>icon/订单结算</title>
    <g id="健康管理系统1.7.0" stroke="none" stroke-width="1" fill="none" fill-rule="evenodd">
        <g id="个人信息备份-3" transform="translate(-1018.000000, -522.000000)" fill-rule="nonzero">
            <g id="编组-5" transform="translate(968.000000, 24.000000)">
                <g id="编组-4备份" transform="translate(30.000000, 472.000000)">
                    <g id="申报" transform="translate(20.000000, 26.000000)">
                        <path d="M22.9603173,26.9097511 C22.8095951,26.9097511 22.6601095,26.8823317 22.5190601,26.8288249 L12.1063931,22.8794027 L1.69372615,26.8288249 C1.30903365,26.9747251 0.877746623,26.9211995 0.539726378,26.6856056 C0.201706133,26.4500117 0,26.0623479 0,25.648329 L0,3.78417969 C0,1.69758301 1.6854604,2.14149686e-14 3.75715649,2.14149686e-14 L20.4556298,2.14149686e-14 C22.5273259,2.14149686e-14 24.2127863,1.69758301 24.2127863,3.78417969 L24.2127863,25.648329 C24.2127863,25.9828858 24.0808274,26.3037389 23.8459415,26.5402984 C23.6110556,26.776858 23.292485,26.9097511 22.9603173,26.9097511 Z M12.1063931,20.2701687 C12.255928,20.2701687 12.4055463,20.2970785 12.5477338,20.3510661 L21.7080153,23.8254476 L21.7080153,3.78417969 C21.7080153,3.08864746 21.1461951,2.52278646 20.4556298,2.52278646 L3.75715649,2.52278646 C3.06659113,2.52278646 2.50477099,3.08864746 2.50477099,3.78417969 L2.50477099,23.8254476 L11.6650525,20.3510661 C11.8061232,20.2975314 11.9556412,20.2701249 12.1063931,20.2701687 L12.1063931,20.2701687 Z" id="形状" fill="#6BC8FF"></path>
                        <path d="M24.0892176,5.35167101 L7.39074427,5.35167101 C6.00744275,5.35167101 4.88597328,6.4812066 4.88597328,7.87445747 L4.88597328,29.7386068 L15.7399809,25.6218397 L26.5939885,29.7386068 L26.5939885,7.87445747 C26.5939885,6.4812066 25.4725191,5.35167101 24.0892176,5.35167101 Z" id="路径" fill="#3599FE"></path>
                        <path d="M26.5939051,31.0000288 C26.4431829,31.0000288 26.2936973,30.9726095 26.1526479,30.9191026 L15.7399809,26.9696804 L5.32731393,30.9191026 C4.94262144,31.0650029 4.51133441,31.0114772 4.17331416,30.7758834 C3.83529392,30.5402895 3.63358779,30.1526257 3.63358779,29.7386068 L3.63358779,7.87445747 C3.63358779,5.78786079 5.31904819,4.09027778 7.39074427,4.09027778 L24.0892176,4.09027778 C26.1609136,4.09027778 27.846374,5.78786079 27.846374,7.87445747 L27.846374,29.7386068 C27.846374,30.0731636 27.7144152,30.3940167 27.4795293,30.6305762 C27.2446434,30.8671357 26.9260728,31.0000288 26.5939051,31.0000288 Z M15.7399809,24.3604465 C15.8895157,24.3604465 16.0391341,24.3873562 16.1813216,24.4413439 L25.3416031,27.9157254 L25.3416031,7.87445747 C25.3416031,7.17892524 24.7797829,6.61306424 24.0892176,6.61306424 L7.39074427,6.61306424 C6.70017891,6.61306424 6.13835878,7.17892524 6.13835878,7.87445747 L6.13835878,27.9157254 L15.2986403,24.4413439 C15.439711,24.3878092 15.589229,24.3604027 15.7399809,24.3604465 L15.7399809,24.3604465 Z" id="形状" fill="#3599FE"></path>
                        <path d="M20.485687,1.9375 L3.78721374,1.9375 C2.40391221,1.9375 1.28244275,3.06703559 1.28244275,4.46028646 L1.28244275,26.3244358 L12.1364504,22.2076687 L22.9851145,18.1855062 L22.990458,4.46028646 C22.990458,3.06703559 21.8689885,1.9375 20.485687,1.9375 Z" id="路径" fill="#6BC8FF"></path>
                        <path d="M24.0892176,5.35167101 L7.39074427,5.35167101 C6.00744275,5.35167101 4.88597328,6.4812066 4.88597328,7.87445747 L4.88597328,29.7386068 L15.7399809,25.6218397 L26.588645,21.5996772 L26.5939885,7.87445747 C26.5939885,6.4812066 25.4725191,5.35167101 24.0892176,5.35167101 Z" id="路径" fill="#3599FE"></path>
                        <path d="M4.88605677,31 C4.55388902,31 4.23531842,30.8671357 4.00043252,30.6305762 C3.76554663,30.3940167 3.63358779,30.0731636 3.63358779,29.7386068 L3.63358779,7.87445747 C3.63358779,5.78786079 5.31904819,4.09027778 7.39074427,4.09027778 L24.0892176,4.09027778 C26.1609136,4.09027778 27.846374,5.78786079 27.846374,7.87445747 L27.8410305,21.6001817 C27.8408044,22.1285742 27.5136214,22.6008267 27.0213025,22.7833686 L16.17698,26.8040175 L5.32739742,30.9191867 C5.18630179,30.9726214 5.03679697,31 4.88605677,31 Z M7.39074427,6.61306424 C6.70017891,6.61306424 6.13835878,7.17892524 6.13835878,7.87445747 L6.13835878,27.9157254 L15.2986403,24.4413439 L15.3073235,24.4381483 L25.33651,20.7197293 L25.3416031,7.87395291 C25.3416031,7.17892524 24.7797829,6.61306424 24.0892176,6.61306424 L7.39074427,6.61306424 L7.39074427,6.61306424 Z" id="形状" fill="#3599FE"></path>
                        <path d="M9.92540553,17.4292589 L9.92540553,9.52452799 C9.92540553,9.03031413 9.52756441,8.62961155 9.03687977,8.62961155 C8.54619513,8.62961155 8.14835401,9.03031413 8.14835401,9.52452799 L8.14835401,17.4292589 C8.14835401,17.9235569 8.54611164,18.3241753 9.03687977,18.3241753 C9.5276479,18.3241753 9.92540553,17.9235569 9.92540553,17.4292589 Z" id="路径" fill="#E1F1FF"></path>
                    </g>
                </g>
            </g>
        </g>
    </g>
</svg>