<?xml version="1.0" encoding="UTF-8"?>
<svg width="20px" height="20px" viewBox="0 0 20 20" version="1.1" xmlns="http://www.w3.org/2000/svg" xmlns:xlink="http://www.w3.org/1999/xlink">
    <title>button/编辑</title>
    <g id="页面-1" stroke="none" stroke-width="1" fill="none" fill-rule="evenodd">
        <g id="按钮状态" transform="translate(-629.000000, -297.000000)" fill-rule="nonzero">
            <g id="button/编辑" transform="translate(629.000000, 297.000000)">
                <polygon id="路径" fill="#2D97FF" points="6.13350076 18.8828222 1.11111111 18.8632126 1.11901537 13.8677397 1.11331695 13.8620406 1.11901537 13.8562803 1.11901537 13.8337906 1.13016711 13.8450661 13.8627616 1.11111111 18.8888889 6.13765295 6.1540886 18.8736915 6.16315705 18.8827609 6.14477505 18.8827609 6.13864772 18.8888889"></polygon>
                <path d="M6.06308803,20 C6.02587941,20 5.98870503,19.9977431 5.95176081,19.9933147 L0.933414629,19.9737588 C0.416698897,19.9717595 -0.000871886006,19.5518381 1.36716061e-06,19.0351366 L0.0078743602,14.040627 C-0.00331529935,13.9388522 0.00214980883,13.8359339 0.0240549157,13.7359168 C0.0699989925,13.4914295 0.211197434,13.2752182 0.416573951,13.1348688 L13.2757424,0.274501535 C13.6416479,-0.0915005115 14.2350182,-0.0915005115 14.6009862,0.274501535 L19.7255368,5.39940489 C20.0914877,5.76539701 20.0914877,6.35878003 19.7255368,6.72477215 L6.85193697,19.5994471 C6.71935432,19.7859312 6.52318861,19.9175204 6.3003612,19.9694478 C6.22351918,19.989566 6.14374092,20 6.06308803,20 Z M1.87563524,18.1030747 L5.68281374,18.1179448 L17.7376399,6.06205728 L13.9383955,2.26252118 L1.88163266,14.3204705 L1.87563524,18.1030747 L1.87563524,18.1030747 Z" id="形状" fill="#2D97FF"></path>
                <path d="M5.46615307,15.5555556 C5.19510378,15.5559085 4.93509718,15.44819 4.74371288,15.2562538 C4.3446883,14.8572994 4.3446883,14.2103353 4.74371288,13.8113128 L9.36689417,9.18815575 C9.76585063,8.78913327 10.4128181,8.78913327 10.8118427,9.18815575 C11.2108673,9.58711012 11.2108673,10.2340742 10.8118427,10.6330967 L6.18866138,15.2562538 C5.99724332,15.4481812 5.73721998,15.5558965 5.46615307,15.5555556 L5.46615307,15.5555556 Z" id="路径" fill="#F4F6F9"></path>
                <polygon id="路径" fill="#F4F6F9" points="10.2141098 3.33333333 16.6666667 9.78590087 15.3414458 11.1111111 8.88888889 4.65854357"></polygon>
                <path d="M19.047532,20 L9.84135692,20 C9.31534058,20 8.88888889,19.5025185 8.88888889,18.8888889 C8.88888889,18.2752593 9.31534058,17.7777778 9.84135692,17.7777778 L19.047532,17.7777778 C19.5735483,17.7777778 20,18.2752593 20,18.8888889 C20,19.5025185 19.5736118,20 19.047532,20 L19.047532,20 Z" id="路径" fill="#B8D7FF"></path>
            </g>
        </g>
    </g>
</svg>