<?xml version="1.0" encoding="UTF-8"?>
<svg width="24px" height="24px" viewBox="0 0 24 24" version="1.1" xmlns="http://www.w3.org/2000/svg" xmlns:xlink="http://www.w3.org/1999/xlink">
    <title>管理 2</title>
    <g id="保险管理系统1.4.0" stroke="none" stroke-width="1" fill="none" fill-rule="evenodd">
        <g id="国家医保目录" transform="translate(-1217.000000, -483.000000)" fill="#3599FE" fill-rule="nonzero">
            <g id="管理-2备份-2" transform="translate(1217.000000, 483.000000)">
                <path d="M18.0039535,12.8870796 L18.0039536,12.8870796 C17.3038225,12.8121388 16.598991,12.9782994 16.0081179,13.357588 L17.7401512,15.07359 L17.7401512,15.07359 C17.7763405,15.1087747 17.7932059,15.159057 17.7854637,15.2086839 L17.7003074,15.8039736 L17.7003074,15.8039736 C17.6905772,15.8749719 17.6342437,15.9308474 17.5625468,15.9406144 L16.961244,16.0246614 L16.961244,16.0246614 C16.9110973,16.0325466 16.8602074,16.0158171 16.8247855,15.979802 L15.0914502,14.265089 L15.0914505,14.2650886 C14.1753114,15.6838092 14.5943483,17.5691659 16.0273995,18.4761513 C16.8745463,19.0123117 17.9327272,19.1053048 18.8620382,18.7252635 L18.8620382,18.7252634 C18.9819271,18.6770269 19.1193317,18.7044361 19.2109969,18.7948729 L20.2836544,19.8562882 L20.2836544,19.8562881 C20.5366044,20.1058605 20.9458088,20.1058605 21.1987596,19.8562883 L21.6576143,19.4020221 L21.6576143,19.4020221 C21.9097076,19.1516016 21.9097076,18.7464892 21.6576143,18.4960679 L20.5849568,17.435426 L20.5849568,17.435426 C20.4936064,17.3446775 20.4659204,17.2086469 20.5146442,17.0899569 L20.5146442,17.0899568 C21.16802,15.535142 20.4245269,13.7503529 18.8540069,13.1035006 C18.5829336,12.991855 18.2971286,12.9191547 18.0052663,12.8876061 L18.0039535,12.8870796 Z M11.6047273,3.57617032 L18.6997876,6.75397089 L18.6997876,6.75397089 C19.3559134,7.04778983 19.6472158,7.81255541 19.350429,8.46211991 C19.2198221,8.74797243 18.9885302,8.97695403 18.6997876,9.10625488 L11.6047273,12.2837976 L11.6047273,12.2837976 C11.2631905,12.4369952 10.8715233,12.4369952 10.5299865,12.2837977 L3.43466573,9.10548145 L3.43466576,9.10548147 C2.77853999,8.81166253 2.48723757,8.04689695 2.78402438,7.39733245 C2.9146313,7.11147993 3.14592323,6.88249833 3.43466576,6.75319748 L10.5299865,3.57617035 L10.5299866,3.57617033 C10.8715885,3.42327496 11.2631254,3.42327496 11.6047274,3.57617036 L11.6047273,3.57617032 Z M14.7909289,19.046743 L11.7487379,20.4092837 L11.7487379,20.4092836 C11.4063391,20.5626882 11.0137917,20.5626882 10.6713929,20.4092837 L3.56227005,17.2265847 L3.56227012,17.2265847 C2.90477717,16.9319563 2.61303204,16.1654376 2.91063655,15.5145195 C3.04150988,15.2282752 3.27313437,14.9989661 3.56227012,14.8694023 L3.56227014,14.8694023 C3.72547111,14.7966408 3.91235128,14.7966408 4.07555199,14.8694023 L10.671393,17.8223901 L10.671393,17.8223901 C11.0137918,17.9757947 11.4063392,17.9757947 11.748738,17.8223902 L13.3995212,17.0829831 L13.3995209,17.0829824 C13.6624848,17.8566347 14.1456676,18.5385754 14.7909289,19.0467425 L14.7909289,19.046743 Z M14.9794708,12.2611101 C14.9659291,12.2794148 14.952127,12.2977195 14.9391062,12.3160242 L14.939106,12.3160244 C13.874537,13.0807023 13.2259061,14.2888878 13.1812914,15.5902469 L11.4950915,16.3456384 L11.4950916,16.3456384 C11.1526928,16.499043 10.7601454,16.499043 10.4177466,16.3456385 L3.30836331,13.1616504 L3.30836324,13.1616504 C2.65094321,12.8672101 2.35909912,12.1009003 2.65651613,11.4500544 C2.78737956,11.1636811 3.01909728,10.9342793 3.30836324,10.8047258 L3.3083632,10.8047258 C3.51655511,10.7112215 3.75537935,10.7112215 3.9635723,10.8047258 L10.5594133,13.758487 L10.5594132,13.758487 C10.9017834,13.9116128 11.2941276,13.9116128 11.6364978,13.7584871 L14.9794708,12.2611101 Z M11.4745188,3.57617032 L18.5695791,6.75397089 L18.5695791,6.75397089 C19.2257049,7.04778983 19.5170073,7.81255541 19.2202205,8.46211991 C19.0896136,8.74797243 18.8583217,8.97695403 18.5695791,9.10625488 L11.4745188,12.2837976 L11.4745188,12.2837976 C11.132982,12.4369952 10.7413149,12.4369952 10.399778,12.2837977 L3.30445724,9.10548145 L3.30445727,9.10548147 C2.64833151,8.81166253 2.35702909,8.04689695 2.65381589,7.39733245 C2.78442281,7.11147993 3.01571475,6.88249833 3.30445727,6.75319748 L10.399778,3.57617035 L10.3997781,3.57617033 C10.74138,3.42327496 11.1329169,3.42327496 11.4745189,3.57617036 L11.4745188,3.57617032 Z M14.6607204,19.046743 L11.6185294,20.4092837 L11.6185294,20.4092836 C11.2761306,20.5626882 10.8835833,20.5626882 10.5411844,20.4092837 L3.43206157,17.2265847 L3.43206164,17.2265847 C2.77456868,16.9319563 2.48282355,16.1654376 2.78042807,15.5145195 C2.9113014,15.2282752 3.14292588,14.9989661 3.43206164,14.8694023 L3.43206166,14.8694023 C3.59526263,14.7966408 3.78214279,14.7966408 3.9453435,14.8694023 L10.5411845,17.8223901 L10.5411845,17.8223901 C10.8835833,17.9757947 11.2761307,17.9757947 11.6185295,17.8223902 L13.2693127,17.0829831 L13.2693124,17.0829824 C13.5322763,17.8566347 14.0154591,18.5385754 14.6607204,19.0467425 L14.6607204,19.046743 Z M14.8492623,12.2611101 C14.8357206,12.2794148 14.8219185,12.2977195 14.8088977,12.3160242 L14.8088975,12.3160244 C13.7443285,13.0807023 13.0956976,14.2888878 13.0510829,15.5902469 L11.3648831,16.3456384 L11.3648831,16.3456384 C11.0224843,16.499043 10.6299369,16.499043 10.2875381,16.3456385 L3.17815483,13.1616504 L3.17815476,13.1616504 C2.52073472,12.8672101 2.22889063,12.1009003 2.52630765,11.4500544 C2.65717108,11.1636811 2.8888888,10.9342793 3.17815476,10.8047258 L3.17815472,10.8047258 C3.38634663,10.7112215 3.62517086,10.7112215 3.83336381,10.8047258 L10.4292048,13.758487 L10.4292048,13.758487 C10.7715749,13.9116128 11.1639192,13.9116128 11.5062893,13.7584871 L14.8492623,12.2611101 Z" id="形状"></path>
            </g>
        </g>
    </g>
</svg>