<?xml version="1.0" encoding="UTF-8"?>
<svg width="20px" height="20px" viewBox="0 0 20 20" version="1.1" xmlns="http://www.w3.org/2000/svg" xmlns:xlink="http://www.w3.org/1999/xlink">
    <title>button/编辑备份 3</title>
    <g id="页面-1" stroke="none" stroke-width="1" fill="none" fill-rule="evenodd">
        <g id="按钮状态" transform="translate(-939.000000, -300.000000)" fill-rule="nonzero">
            <g id="button/编辑备份-3" transform="translate(939.000000, 300.000000)">
                <polygon id="路径" fill="#989AB3" points="5.75909675 19.2796205 0.714285714 19.2599234 0.722225259 14.2421492 0.716501401 14.2364248 0.722225259 14.2306387 0.722225259 14.2080486 0.733426786 14.2193745 13.5228632 1.42857143 18.5714286 6.47755319 5.77977649 19.270449 5.78888543 19.2795589 5.77042137 19.2795589 5.76426668 19.2857143"></polygon>
                <path d="M6.06308803,20 C6.02587941,20 5.98870503,19.9977431 5.95176081,19.9933147 L0.933414629,19.9737588 C0.416698897,19.9717595 -0.000871886006,19.5518381 1.36716061e-06,19.0351366 L0.0078743602,14.040627 C-0.00331529935,13.9388522 0.00214980883,13.8359339 0.0240549157,13.7359168 C0.0699989925,13.4914295 0.211197434,13.2752182 0.416573951,13.1348688 L13.2757424,0.274501535 C13.6416479,-0.0915005115 14.2350182,-0.0915005115 14.6009862,0.274501535 L19.7255368,5.39940489 C20.0914877,5.76539701 20.0914877,6.35878003 19.7255368,6.72477215 L6.85193697,19.5994471 C6.71935432,19.7859312 6.52318861,19.9175204 6.3003612,19.9694478 C6.22351918,19.989566 6.14374092,20 6.06308803,20 Z M1.87563524,18.1030747 L5.68281374,18.1179448 L17.7376399,6.06205728 L13.9383955,2.26252118 L1.88163266,14.3204705 L1.87563524,18.1030747 L1.87563524,18.1030747 Z" id="形状" fill="#989AB3"></path>
                <path d="M5.98521903,15 C5.72385007,15.0003404 5.47312942,14.8964689 5.28858027,14.7113876 C4.90380658,14.3266816 4.90380658,13.7028233 5.28858027,13.3180517 L9.74664795,8.86000733 C10.131356,8.47523565 10.7552175,8.47523565 11.1399912,8.86000733 C11.5247649,9.24471333 11.5247649,9.86857155 11.1399912,10.2533432 L6.68192347,14.7113876 C6.49734178,14.8964604 6.24660498,15.0003288 5.98521903,15 L5.98521903,15 Z" id="路径" fill="#FFFFFF"></path>
                <polygon id="路径" fill="#FFFFFF" points="10.6244578 2.85714286 17.1428571 9.37555292 15.8041136 10.7142857 9.28571429 4.19587565"></polygon>
                <path d="M18.367263,20 L9.48987989,20 C8.98264984,20 8.57142857,19.5202857 8.57142857,18.9285714 C8.57142857,18.3368571 8.98264984,17.8571429 9.48987989,17.8571429 L18.367263,17.8571429 C18.874493,17.8571429 19.2857143,18.3368571 19.2857143,18.9285714 C19.2857143,19.5202857 18.8745542,20 18.367263,20 L18.367263,20 Z" id="路径" fill="#989AB3"></path>
            </g>
        </g>
    </g>
</svg>