<?xml version="1.0" encoding="UTF-8"?>
<svg width="20px" height="20px" viewBox="0 0 20 20" version="1.1" xmlns="http://www.w3.org/2000/svg" xmlns:xlink="http://www.w3.org/1999/xlink">
    <title>常用语</title>
    <defs>
        <rect id="path-1" x="0" y="0" width="893" height="878" rx="4"></rect>
        <filter x="-2.4%" y="-1.7%" width="104.7%" height="104.8%" filterUnits="objectBoundingBox" id="filter-3">
            <feOffset dx="0" dy="6" in="SourceAlpha" result="shadowOffsetOuter1"></feOffset>
            <feGaussianBlur stdDeviation="6" in="shadowOffsetOuter1" result="shadowBlurOuter1"></feGaussianBlur>
            <feColorMatrix values="0 0 0 0 0.950577446   0 0 0 0 0.950577446   0 0 0 0 0.950577446  0 0 0 0.5 0" type="matrix" in="shadowBlurOuter1"></feColorMatrix>
        </filter>
        <rect id="path-4" x="511" y="652" width="893" height="61"></rect>
        <filter x="-1.1%" y="-13.1%" width="102.2%" height="132.8%" filterUnits="objectBoundingBox" id="filter-5">
            <feOffset dx="0" dy="2" in="SourceAlpha" result="shadowOffsetOuter1"></feOffset>
            <feGaussianBlur stdDeviation="3" in="shadowOffsetOuter1" result="shadowBlurOuter1"></feGaussianBlur>
            <feColorMatrix values="0 0 0 0 0.810178895   0 0 0 0 0.810178895   0 0 0 0 0.810178895  0 0 0 0.5 0" type="matrix" in="shadowBlurOuter1"></feColorMatrix>
        </filter>
    </defs>
    <g id="页面-1" stroke="none" stroke-width="1" fill="none" fill-rule="evenodd">
        <g id="聊天" transform="translate(-1239.000000, -673.000000)">
            <rect fill="#F3F6FC" x="0" y="0" width="1425" height="926"></rect>
            <g id="矩形" transform="translate(511.000000, 24.000000)">
                <mask id="mask-2" fill="white">
                    <use xlink:href="#path-1"></use>
                </mask>
                <g id="蒙版">
                    <use fill="black" fill-opacity="1" filter="url(#filter-3)" xlink:href="#path-1"></use>
                    <use fill="#FFFFFF" fill-rule="evenodd" xlink:href="#path-1"></use>
                </g>
            </g>
            <g id="分割线备份-2">
                <use fill="black" fill-opacity="1" filter="url(#filter-5)" xlink:href="#path-4"></use>
                <use fill="#FFFFFF" fill-rule="evenodd" xlink:href="#path-4"></use>
            </g>
            <g id="常用语" transform="translate(1239.000000, 673.000000)" fill="#3599FE" fill-rule="nonzero">
                <path d="M12.1728607,9.32823409 L12.1728607,9.32823409 C12.1997724,9.26923041 12.2126807,9.20479694 12.210576,9.13997204 L12.210576,8.95193326 C12.210576,8.88493617 12.199864,8.83893146 12.1791094,8.81391913 C12.1583549,8.7889068 12.1059107,8.77640063 12.0228926,8.77640063 L7.71978026,8.77640063 C7.64449854,8.77640063 7.59436049,8.78890678 7.56936574,8.81391913 C7.54437098,8.83893146 7.53165051,8.88515942 7.53165051,8.95193326 L7.53165051,9.13997204 C7.53165051,9.23220491 7.54437102,9.29897875 7.56936574,9.3409637 C7.59436049,9.38294865 7.6445731,9.40371778 7.71978026,9.40371778 L12.0222095,9.40371778 C12.0976399,9.40349445 12.1476292,9.37959886 12.1728471,9.32823428 L12.1728607,9.32823409 Z M10.0001074,0 C4.47717933,0 0,4.476089 0,9.99932613 C0,15.5225828 4.47717933,20 10.0001074,20 C15.5230354,20 20,15.5225828 20,9.99932613 C20,4.47606947 15.5228207,0 10.0001074,0 Z M14.9320899,13.9834346 L14.9320899,13.9834407 C14.9341772,14.2013044 14.90471,14.4183224 14.8446069,14.6277305 L14.844607,14.6277303 C14.7887359,14.8186886 14.6900445,14.994366 14.5560516,15.1413761 C14.4221514,15.28743 14.2465938,15.4002831 14.029377,15.479936 C13.8121602,15.5595883 13.540344,15.5993399 13.2139245,15.5991909 L13.2139247,15.5991909 C12.9575009,15.5964009 12.7016997,15.5733267 12.4489102,15.5301841 C12.164446,15.4841794 11.8340857,15.4110036 11.4578254,15.3106563 C11.2571233,15.2518477 11.1149673,15.153585 11.0313534,15.0158684 C10.9477402,14.8781519 10.9435743,14.679543 11.0188561,14.4200403 C11.1527563,14.001681 11.4329044,13.8594973 11.8593022,13.9934911 C12.1519486,14.0686768 12.4048708,14.123019 12.6180707,14.1565176 L12.6180703,14.1565175 C12.7984283,14.1869782 12.9808256,14.2037752 13.1637111,14.2067654 C13.3226061,14.2067654 13.4267498,14.1795944 13.4761456,14.1252523 C13.52554,14.0709102 13.5506834,13.9977343 13.551576,13.9057245 L13.551576,12.7151855 C13.551576,12.6399253 13.5430957,12.5899008 13.5263582,12.5646652 C13.5096207,12.5394297 13.4678884,12.5271468 13.4009384,12.5271468 L10.6048777,12.5271468 L10.6048777,15.3495109 C10.6048777,15.59204 10.5338361,15.7718918 10.3917539,15.8890624 C10.2496709,16.006233 10.0698725,16.0647439 9.85235902,16.0645953 C9.63484555,16.0645953 9.4550479,16.0060842 9.31296412,15.8890624 C9.17088111,15.7720407 9.09976426,15.5921904 9.09961592,15.3495109 L9.09961592,12.5271468 L6.26539628,12.5271468 C6.18170867,12.5271468 6.13997651,12.5691317 6.13997651,12.6526547 L6.13997651,14.8351981 C6.13997651,15.0360413 6.07726653,15.1970581 5.95184675,15.3182484 C5.82642698,15.4394389 5.6553317,15.5000341 5.4385619,15.5000341 C5.22104843,15.5000341 5.05166396,15.4394389 4.93041044,15.3182484 C4.80915633,15.1970579 4.74852937,15.0360413 4.74852937,14.8351981 L4.74852937,12.4391467 C4.74852937,12.0125976 4.82589393,11.7114832 4.98062324,11.5358015 C5.13535235,11.3601201 5.42599113,11.2723533 5.85253722,11.2725017 L9.10117605,11.3977864 L9.10117605,10.6203955 L7.19309895,10.6203955 C6.87516027,10.6203955 6.62008129,10.5385101 6.42786004,10.3747392 C6.23563879,10.2109684 6.13945302,9.92488998 6.13930468,9.51650592 L6.13930468,8.70092732 C6.13930468,8.46703344 6.16444816,8.27683536 6.21473514,8.13033501 C6.26502211,7.98383448 6.33584052,7.86882241 6.42718938,7.78530018 L6.42718934,7.78530022 C6.52188506,7.70026873 6.63611071,7.63997084 6.75970842,7.6097676 L6.75970831,7.60976762 C6.90125358,7.57482291 7.04664753,7.55793954 7.19242815,7.55951971 L12.4750235,7.55951971 C12.7008695,7.55951971 12.8868408,7.576269 13.0329416,7.60976762 C13.1790415,7.64326617 13.2940479,7.70177704 13.3779584,7.78530025 C13.4614229,7.86912112 13.5199671,7.98621768 13.5535908,8.13658933 C13.5872147,8.28696079 13.6038778,8.47507302 13.6035801,8.70092934 L13.6035801,9.51650794 C13.6035801,9.92623192 13.5241327,10.2126092 13.3652383,10.3756358 C13.2063434,10.5386623 12.9095314,10.6205479 12.4748012,10.6212921 L10.6048849,10.6212921 L10.6048849,11.3989057 L13.8035366,11.273621 C14.2299343,11.273621 14.5246634,11.3613872 14.6877239,11.5369208 C14.8507845,11.7124534 14.9326122,12.0135684 14.9332075,12.440266 L14.9320899,13.9834346 Z M15.8352473,7.57403488 L15.8352473,7.57403498 C15.8155938,7.80202424 15.7800235,8.02835715 15.7287967,8.25137737 L15.7287967,8.25137734 C15.6757919,8.48869915 15.610842,8.72319072 15.5341951,8.95395356 C15.4505819,9.19648269 15.3334931,9.35117294 15.1829304,9.41802041 C15.0323671,9.48486866 14.8568095,9.48486866 14.6562558,9.41802041 C14.4387423,9.35117216 14.3028342,9.25290966 14.2485295,9.12323251 C14.1942256,8.99355577 14.2005487,8.8242022 14.2674987,8.61517103 L14.2674987,8.6151711 C14.3343056,8.4308999 14.3887307,8.24236714 14.4304106,8.05083109 C14.4720684,7.85847468 14.5013777,7.6912056 14.5183384,7.54902191 C14.5348528,7.40676457 14.5308358,7.31274508 14.5056179,7.26674057 C14.4804,7.22073586 14.4136731,7.19773341 14.3047675,7.19773341 L5.59991524,7.19773341 C5.516302,7.19773341 5.47449547,7.24373812 5.47449547,7.33574753 L5.47449547,8.85434964 C5.47449547,9.05489401 5.40970266,9.20117168 5.28011703,9.29318071 C5.1505314,9.38519013 4.98985184,9.43030163 4.79807562,9.428515 C4.37167786,9.428515 4.15847996,9.23623321 4.15847996,8.85166844 L4.15847996,7.14636648 C4.15847996,6.74438317 4.26299647,6.44542708 4.47202891,6.2494982 C4.68106153,6.05356933 5.01581159,5.95530604 5.47628103,5.95471031 L6.39126479,5.95471031 C6.30780028,5.82071594 6.2221042,5.6911136 6.13417734,5.56590351 C6.0462495,5.44069322 5.96442162,5.32359705 5.8886937,5.21461442 C5.73827917,5.03089326 5.68181788,4.86570828 5.71931001,4.7190595 C5.75680214,4.57241012 5.87180737,4.41563636 6.06432686,4.24873839 C6.21503905,4.12323043 6.39692011,4.08347861 6.60996967,4.12948351 L6.60996975,4.12948353 C6.81622098,4.17151204 7.00329321,4.27933582 7.1431148,4.43677798 L7.14311505,4.43677829 C7.32409592,4.65294462 7.48373436,4.88614119 7.61979861,5.13310025 C7.77854465,5.41329749 7.92070144,5.68716625 8.04627053,5.95470848 L9.12506034,5.95470848 L9.12506034,4.5111418 C9.12506034,4.29377228 9.20688822,4.14325218 9.37054397,4.05958151 L9.37054401,4.05958149 C9.68851977,3.89224913 10.0684242,3.89224913 10.3864,4.05958153 C10.5500557,4.14340241 10.6318836,4.2939227 10.6318836,4.51114182 L10.6318836,5.95381392 L11.9485682,5.95381392 L11.9485684,5.95381373 C12.1219153,5.74439582 12.2791766,5.52214908 12.419004,5.28897789 C12.5652529,5.04644877 12.6927564,4.81642425 12.8015122,4.59890628 C12.9019374,4.41503628 13.0399282,4.28960195 13.2154864,4.22260603 C13.3910444,4.15560895 13.591895,4.1806955 13.8180376,4.29786628 C14.0187397,4.39836211 14.1546478,4.52379487 14.2257639,4.67416652 C14.2968798,4.82453798 14.2696534,5.01272638 14.1440847,5.2387292 C14.0771347,5.3475624 14.0060932,5.46048959 13.930961,5.57751173 C13.8558282,5.69453348 13.7715455,5.81996663 13.678113,5.95381197 L14.3177087,5.95381197 C14.6270182,5.95381197 14.8820971,5.97681442 15.0829476,6.02281913 C15.283798,6.06882384 15.4426932,6.15242146 15.5596331,6.27361239 C15.6765726,6.3951006 15.7560196,6.56028655 15.7979748,6.76916732 C15.8399303,6.97805004 15.8524277,7.2456665 15.835467,7.5720167 L15.8352473,7.57403488 Z" id="形状"></path>
            </g>
        </g>
    </g>
</svg>