<?xml version="1.0" encoding="UTF-8"?>
<svg width="16px" height="16px" viewBox="0 0 16 16" version="1.1" xmlns="http://www.w3.org/2000/svg" xmlns:xlink="http://www.w3.org/1999/xlink">
    <title>编组 2</title>
    <g id="页面-1" stroke="none" stroke-width="1" fill="none" fill-rule="evenodd">
        <g id="标签分类" transform="translate(-373.000000, -309.000000)">
            <g id="编组-2" transform="translate(373.000000, 309.000000)">
                <circle id="椭圆形" stroke="#3599FE" fill="#3599FE" cx="8" cy="8" r="7.5"></circle>
                <g id="关闭" transform="translate(8.000000, 8.000000) scale(-1, 1) translate(-8.000000, -8.000000) translate(4.000000, 4.000000)" fill="#FFFFFF" fill-rule="nonzero">
                    <path d="M4.80857478,4.0002233 L7.83207726,0.975827611 C8.05537878,0.752526098 8.05537878,0.390777648 7.83207726,0.167476135 C7.60877575,-0.0558253782 7.2470273,-0.0558253782 7.02372579,0.167476135 L4.0002233,3.19187182 L0.975827611,0.168369341 C0.752526098,-0.0549321722 0.390777648,-0.0549321722 0.167476135,0.168369341 C-0.0558253782,0.391670854 -0.0558253782,0.753419304 0.167476135,0.976720817 L3.19187182,4.0002233 L0.168369341,7.02461899 C-0.0549321722,7.2479205 -0.0549321722,7.60966896 0.168369341,7.83297047 C0.280020097,7.94462122 0.42650589,8 0.572098476,8 C0.717691062,8 0.864176855,7.94462122 0.975827611,7.83297047 L4.0002233,4.80857478 L7.02461899,7.83207726 C7.2479205,8.05537878 7.60966896,8.05537878 7.83297047,7.83207726 C7.94462122,7.72042651 8,7.57394071 8,7.42834813 C8,7.28275554 7.94462122,7.13626975 7.83297047,7.02461899 L4.80857478,4.0002233 Z" id="路径"></path>
                </g>
            </g>
        </g>
    </g>
</svg>