<?xml version="1.0" encoding="UTF-8"?>
<svg width="20px" height="20px" viewBox="0 0 20 20" version="1.1" xmlns="http://www.w3.org/2000/svg" xmlns:xlink="http://www.w3.org/1999/xlink">
    <title>button/删除</title>
    <defs>
        <rect id="path-1" x="264" y="147" width="1074" height="740" rx="4"></rect>
        <filter x="-2.0%" y="-2.0%" width="103.9%" height="105.7%" filterUnits="objectBoundingBox" id="filter-2">
            <feOffset dx="0" dy="6" in="SourceAlpha" result="shadowOffsetOuter1"></feOffset>
            <feGaussianBlur stdDeviation="6" in="shadowOffsetOuter1" result="shadowBlurOuter1"></feGaussianBlur>
            <feColorMatrix values="0 0 0 0 0.950577446   0 0 0 0 0.950577446   0 0 0 0 0.950577446  0 0 0 0.5 0" type="matrix" in="shadowBlurOuter1"></feColorMatrix>
        </filter>
    </defs>
    <g id="页面-1" stroke="none" stroke-width="1" fill="none" fill-rule="evenodd">
        <g id="购药商城-新增/编辑服务类型" transform="translate(-1241.000000, -452.000000)">
            <rect fill="#F3F6FC" x="0" y="0" width="1366" height="926"></rect>
            <g id="顶部导航栏">
                <use fill="black" fill-opacity="1" filter="url(#filter-2)" xlink:href="#path-1"></use>
                <use fill="#FFFFFF" fill-rule="evenodd" xlink:href="#path-1"></use>
            </g>
            <g id="button/删除" transform="translate(1241.000000, 452.000000)">
                <path d="M16.1689815,19.8698113 L4.0162037,19.8698113 C2.5802228,19.8698113 1.41203704,18.7271934 1.41203704,17.3226415 L1.41203704,7.84150943 C1.41203704,6.67108491 2.38556134,5.71886792 3.58217593,5.71886792 L16.6030093,5.71886792 C17.7996238,5.71886792 18.7731481,6.67108491 18.7731481,7.84150943 L18.7731481,17.3226415 C18.7731481,18.7271934 17.6049624,19.8698113 16.1689815,19.8698113 Z M3.58217593,7.84150943 L3.58217593,17.3226415 C3.58217593,17.5567689 3.77683738,17.7471698 4.0162037,17.7471698 L16.1689815,17.7471698 C16.4083478,17.7471698 16.3631185,18.2809047 16.3631185,18.0467773 L3.58217593,18.1750977 L3.58217593,7.84150943 Z" id="形状" fill="#2D97FF" fill-rule="nonzero"></path>
                <path d="M12.0125145,15.8041754 C11.7246658,15.8045421 11.4485442,15.6926504 11.245298,15.4932783 L7.33333333,11.666934 C6.90957755,11.2525236 6.90957755,10.5804953 7.33333333,10.1660142 C7.75701678,9.75160377 8.44408275,9.75160377 8.86783854,10.1660142 L12.7798032,13.9923585 C13.203559,14.4067689 13.203559,15.0787972 12.7798032,15.4932783 C12.5765213,15.6926412 12.3003819,15.8045296 12.0125145,15.8041754 Z" id="路径" fill="#F4F6F9" fill-rule="nonzero"></path>
                <path d="M8.10054977,15.8041754 C7.81270107,15.8045421 7.53657947,15.6926504 7.33333333,15.4932783 C6.90957755,15.0788679 6.90957755,14.4068396 7.33333333,13.9923585 L11.245298,10.1660142 C11.6689815,9.75160377 12.3560475,9.75160377 12.7798032,10.1660142 C13.203559,10.5804245 13.203559,11.2524528 12.7798032,11.666934 L8.86783854,15.4932783 C8.66455655,15.6926412 8.38841718,15.8045296 8.10054977,15.8041754 Z" id="路径" fill="#F4F6F9" fill-rule="nonzero"></path>
                <rect id="矩形" fill="#B8D7FF" x="0" y="1.63018868" width="20" height="2.71698113" rx="1.35849057"></rect>
                <rect id="矩形" fill="#B8D7FF" x="8.33333333" y="0" width="3.7037037" height="3.98490566" rx="1.85185185"></rect>
            </g>
        </g>
    </g>
</svg>