<?xml version="1.0" encoding="UTF-8"?>
<svg width="32px" height="32px" viewBox="0 0 32 32" version="1.1" xmlns="http://www.w3.org/2000/svg" xmlns:xlink="http://www.w3.org/1999/xlink">
    <title>编组 4</title>
    <g id="健康管理系统1.7.0" stroke="none" stroke-width="1" fill="none" fill-rule="evenodd">
        <g id="个人信息备份-3" transform="translate(-998.000000, -382.000000)">
            <g id="编组-5" transform="translate(968.000000, 24.000000)">
                <g id="编组-4" transform="translate(30.000000, 358.000000)">
                    <rect id="矩形备份-3" fill="#F7F7F7" x="0" y="0" width="32" height="32" rx="4"></rect>
                    <g id="编组" transform="translate(9.000000, 8.000000)" fill-rule="nonzero">
                        <g id="部门">
                            <path d="M13.4542317,0.0554045672 C13.6619414,0.0554045672 13.8321019,0.218215949 13.8321019,0.416954843 L13.8321019,12.9802805 C13.8321019,13.1790194 13.6918857,13.2490565 13.5212491,13.1362703 L12.2540746,12.2999288 C12.0824888,12.1871431 11.9427473,11.9320103 11.9427473,11.7332714 L11.9427473,2.22380831 L11.9427473,2.22380766 C11.9422235,2.02441005 11.7732736,1.86296247 11.5648754,1.86271305 L3.56874693,1.86271305 L3.56874695,1.86271305 C3.36030196,1.86196671 3.19144317,1.70060356 3.19040046,1.50116278 L3.19040046,0.416964425 C3.19040046,0.218225531 3.3610372,0.0554045672 3.56874695,0.0554045672 L13.454235,0.0554045672" id="形状" fill="#E0C1FF"></path>
                            <path d="M10.4345849,2.94826404 L0.548628968,2.94826404 C0.339017613,2.94826404 0.168380869,3.10743742 0.168380869,3.30708669 L0.168380869,15.7539849 C0.168380869,15.9495405 0.315726756,16.0314011 0.49159075,15.9268018 L5.16815978,13.2254033 C5.34402344,13.1212585 5.63871588,13.1212585 5.81457954,13.2254033 L10.4868708,15.9268018 C10.6627344,16.0314014 10.8100807,15.9495408 10.8100807,15.7539849 L10.8100807,3.30708669 L10.8100807,3.30708759 C10.8092978,3.10904899 10.6415661,2.94876377 10.4345866,2.94826404 L10.4345849,2.94826404 Z" id="路径" fill="#AD5BFF"></path>
                            <path d="M7.80568355,8.48704229 C7.80568355,8.68714659 7.63501673,8.85086771 7.42588161,8.85086771 L6.05699113,8.85086771 L6.05699113,10.1606367 C6.05699113,10.3561923 5.88540525,10.5199134 5.67674303,10.5199134 L5.30124895,10.5199134 L5.30124894,10.5199134 C5.093977,10.5196628 4.92601721,10.3589551 4.92575487,10.1606367 L4.92575487,8.85086771 L3.55211203,8.85086771 L3.55211204,8.85086771 C3.34396616,8.84837806 3.17661796,8.68621447 3.17661796,8.48704229 L3.17661796,8.12776556 L3.17661796,8.12773719 C3.17661796,7.92856501 3.34399457,7.76641395 3.55214212,7.76394055 L4.92578495,7.76394055 L4.92578495,6.45417158 C4.92578495,6.25406728 5.09166784,6.09489485 5.30127903,6.09489485 L5.67677311,6.09489485 C5.88543366,6.09489485 6.0570212,6.25406824 6.0570212,6.45417158 L6.0570212,7.76394055 L7.42591169,7.76394055 C7.63504847,7.76394055 7.80568355,7.92766167 7.80568355,8.12776597 L7.80568355,8.48704269 L7.80568355,8.48704229 Z" id="路径" fill="#E0C1FF"></path>
                        </g>
                    </g>
                </g>
            </g>
        </g>
    </g>
</svg>