<?xml version="1.0" encoding="UTF-8"?>
<svg width="32px" height="32px" viewBox="0 0 32 32" version="1.1" xmlns="http://www.w3.org/2000/svg" xmlns:xlink="http://www.w3.org/1999/xlink">
    <title>编组 3</title>
    <g id="健康管理系统1.7.0" stroke="none" stroke-width="1" fill="none" fill-rule="evenodd">
        <g id="个人信息备份-3" transform="translate(-998.000000, -334.000000)">
            <g id="编组-5" transform="translate(968.000000, 24.000000)">
                <g id="编组-3" transform="translate(30.000000, 310.000000)">
                    <rect id="矩形备份-2" fill="#F7F7F7" x="0" y="0" width="32" height="32" rx="4"></rect>
                    <g id="手机" transform="translate(9.000000, 8.000000)" fill-rule="nonzero">
                        <path d="M3.25,0 L9.75,0 C11.5449713,0 13,1.58560824 13,3.54166667 L13,13.4583333 C13,15.4143918 11.5449713,17 9.75,17 L3.25,17 C1.45502874,17 0,15.4143918 0,13.4583333 L0,3.54166667 C0,1.58560824 1.45502874,0 3.25,0 Z" id="路径" fill="#FF556E"></path>
                        <path d="M0.371535797,1.67816092 C1.06019053,0.996168582 1.86518476,0.436781609 2.75274249,0.0325670498 C1.73195727,0.176245211 0.863163972,0.802681992 0.371535797,1.67816092 Z M0,13.2988506 C0.288972286,14.8371648 1.61561778,16 3.2068418,16 L5.12269053,16 C3.09613164,15.7586207 1.29849885,14.7643678 0,13.2988506 Z M7.04229215,16 L9.73498845,16 C11.5382506,16 13,14.5076628 13,12.6666667 L13,12.1819923 C11.7071305,14.2509579 9.54734411,15.7011494 7.04229215,16 L7.04229215,16 Z M12.9962471,3.18199234 C12.9193129,1.41187739 11.4875866,0 9.73498845,0 L9.33905889,0 C10.8477194,0.666666667 12.119948,1.7835249 12.9962471,3.18199234 Z" id="形状" fill="#FF556E"></path>
                        <path d="M2,5.5 C2,6.88071187 3.11928813,8 4.5,8 C5.88071187,8 7,6.88071187 7,5.5 C7,4.11928813 5.88071187,3 4.5,3 C3.11928813,3 2,4.11928813 2,5.5 Z" id="路径" fill="#FF9280"></path>
                        <path d="M9.16363636,0 C9.92181818,0 10.6327273,0.324324324 11.1690909,0.914914915 C11.7054545,1.50550551 12,2.28828829 12,3.12312312 L12,12.8768769 C12,13.7117117 11.7054545,14.4944945 11.1690909,15.0850851 C10.6327273,15.6756757 9.92181818,16 9.16363636,16 L2.83636364,16 C2.07818182,16 1.36727273,15.6756757 0.830909091,15.0850851 C0.294545455,14.4944945 0,13.7117117 0,12.8768769 L0,3.12312312 C0,2.28828829 0.294545455,1.50550551 0.830909091,0.914914915 C1.36727273,0.324324324 2.07818182,0 2.83636364,0 L9.16363636,0 M9.75,0 L3.25,0 C1.45502874,0 0,1.58560824 0,3.54166667 L0,13.4583333 C0,15.4143918 1.45502874,17 3.25,17 L9.75,17 C11.5449713,17 13,15.4143918 13,13.4583333 L13,3.54166667 C13,1.58560824 11.5449713,0 9.75,0 Z" id="形状" fill="#EF4868"></path>
                        <path d="M9.875,3 L3.125,3 C2.50431034,3 2,3.46776612 2,4.04347826 L2,9.95652174 C2,10.5322339 2.50431034,11 3.125,11 L9.875,11 C10.4956897,11 11,10.5322339 11,9.95652174 L11,4.04347826 C11,3.46776612 10.4956897,3 9.875,3 Z M6.5,12 C5.67241379,12 5,12.6724138 5,13.5 C5,14.3275862 5.67241379,15 6.5,15 C7.32758621,15 8,14.3275862 8,13.5 C8,12.6724138 7.32974138,12 6.5,12 Z" id="形状" fill="#FFC7C7"></path>
                    </g>
                </g>
            </g>
        </g>
    </g>
</svg>