<?xml version="1.0" encoding="UTF-8"?>
<svg width="32px" height="32px" viewBox="0 0 32 32" version="1.1" xmlns="http://www.w3.org/2000/svg" xmlns:xlink="http://www.w3.org/1999/xlink">
    <title>编组</title>
    <g id="健康管理系统1.7.0" stroke="none" stroke-width="1" fill="none" fill-rule="evenodd">
        <g id="个人信息备份-3" transform="translate(-998.000000, -238.000000)">
            <g id="编组-5" transform="translate(968.000000, 24.000000)">
                <g id="编组" transform="translate(30.000000, 214.000000)">
                    <rect id="矩形" fill="#F7F7F7" x="0" y="0" width="32" height="32" rx="4"></rect>
                    <g id="工号" transform="translate(7.000000, 8.000000)" fill-rule="nonzero">
                        <path d="M9.8997882,3.57500318 L8.09983035,3.57500318 L8.09983036,3.57500318 C7.87126164,3.57478729 7.67496772,3.40569955 7.63184044,3.17187711 L7.19985038,1.12812612 L7.19985035,1.12812596 C7.14018446,0.850219959 7.30808706,0.574546386 7.57487171,0.512392281 C7.60835706,0.504591124 7.64253026,0.500438025 7.67684035,0.5 L10.3227794,0.5 L10.3227794,0.5 C10.5960279,0.508642974 10.8108143,0.746397181 10.8025162,1.0310378 C10.8015637,1.06371534 10.7976299,1.09622436 10.790768,1.12812582 L10.358778,3.17187682 L10.358778,3.17187679 C10.3163286,3.40227787 10.1249591,3.57035345 9.89978853,3.57500318 L9.8997882,3.57500318 Z" id="路径" fill="#C9F7F4"></path>
                        <path d="M11.4657521,7.81249944 L11.4657522,7.81249944 C10.9578411,7.77950374 10.4656404,8.00272875 10.1427826,8.41250068 L10.1427824,8.41250096 C9.82285878,8.85697521 9.66353081,9.40467709 9.6927935,9.95937727 L9.69279351,9.95937703 C9.66658365,10.5136905 9.82560366,11.0603355 10.1427824,11.5062533 L10.1427823,11.5062532 C10.4718288,11.9064086 10.9606526,12.124639 11.4657519,12.0968787 L11.4657518,12.0968787 C11.9672337,12.1298496 12.4542497,11.9144115 12.7797209,11.515629 L12.7797209,11.515629 C13.1077696,11.0714558 13.2707657,10.5187991 13.2387103,9.95937696 L13.2387104,9.95937544 C13.2664109,9.39472164 13.1040818,8.83769676 12.7797209,8.38437411 L12.7797209,8.3843741 C12.4516131,7.99029198 11.9654724,7.77871051 11.4657519,7.81249789 L11.4657521,7.81249944 Z M17.0996154,2.03748704 L11.9967329,2.03748704 L11.5557423,4.1656133 L11.5557424,4.16561311 C11.4727201,4.61290206 11.09303,4.93327245 10.6557624,4.92498875 L7.32583203,4.92498875 L7.32583207,4.92498875 C6.88856449,4.93327288 6.50887518,4.61290206 6.42585209,4.1656131 L6.00286253,2.03748704 L0.899980022,2.03748704 L0.899979982,2.03748704 C0.402936192,2.03748704 0,2.45722006 0,2.97498856 C0,2.97498856 0,2.97498856 0,2.97498856 L0,14.5624984 L0,14.5624985 C0,15.0802648 0.402934082,15.5 0.899979982,15.5 L17.099607,15.5 L17.099607,15.5 C17.5966508,15.5 17.9995869,15.080267 17.9995869,14.5624985 L17.9995869,3.00311371 L17.999587,3.00311278 C18.0144979,2.48557938 17.6238316,2.05344279 17.1270114,2.0379103 C17.1178791,2.03762479 17.1087432,2.03748704 17.0996068,2.03748704 L17.0996154,2.03748704 Z M8.04581683,12.7343786 L7.25383436,12.7343786 L4.49989776,8.55313239 L4.49989776,12.7343786 L3.64491815,12.7343786 L3.64491815,7.17500623 L4.49989776,7.17500623 L7.1998356,11.3093847 L7.1998356,7.17500623 L8.01881745,7.17500623 L8.04581683,12.7343786 Z M13.3916937,12.031253 L13.3916938,12.031253 C12.8964851,12.5855291 12.1917465,12.8839795 11.4657374,12.8468786 L11.4657374,12.8468786 C10.7383067,12.8815911 10.0333402,12.5796118 9.53978105,12.0218772 L9.53978089,12.021877 C9.07936133,11.4445296 8.84192711,10.709214 8.87379693,9.95937454 L8.87379687,9.95937318 C8.84192727,9.20953368 9.07936191,8.47421811 9.53978294,7.8968707 L9.53978289,7.89687076 C10.0271575,7.32900236 10.7355263,7.0221188 11.4657392,7.06249579 L11.4657392,7.06249579 C12.193826,7.0238274 12.9003428,7.32646891 13.3916956,7.88749722 L13.3916957,7.88749735 C13.8534779,8.46772099 14.0909437,9.20647747 14.0576797,9.95937337 L14.0576796,9.95937322 C14.0883518,10.7118912 13.8511886,11.4497028 13.3916957,12.0312492 L13.3916937,12.031253 Z M15.767639,12.5843777 L15.767639,12.5843777 C15.6618008,12.6840864 15.5233115,12.7377657 15.3806472,12.7343779 L15.3806473,12.7343779 C15.2339854,12.7357094 15.0923593,12.6787093 14.9846571,12.5750029 L14.9846571,12.5750029 C14.8848495,12.4667492 14.8298986,12.3219612 14.8316607,12.1718768 L14.8316607,12.1718765 C14.8271338,12.0240354 14.882687,11.8810638 14.9846573,11.7781262 L14.9846573,11.7781261 C15.091341,11.6727278 15.2336486,11.6154528 15.3806475,11.6187511 L15.3806475,11.6187511 C15.5279964,11.6133328 15.6710638,11.6709135 15.7766377,11.7781261 L15.7766377,11.7781261 C15.878608,11.8810641 15.9341612,12.0240355 15.9296341,12.1718765 L15.9296341,12.1718791 C15.9303952,12.3263393 15.8721058,12.4747637 15.767636,12.5843788 L15.767639,12.5843777 Z" id="形状" fill="#18C4BD"></path>
                    </g>
                </g>
            </g>
        </g>
    </g>
</svg>