<?xml version="1.0" encoding="UTF-8"?>
<svg width="32px" height="32px" viewBox="0 0 32 32" version="1.1" xmlns="http://www.w3.org/2000/svg" xmlns:xlink="http://www.w3.org/1999/xlink">
    <title>编组 2</title>
    <g id="健康管理系统1.7.0" stroke="none" stroke-width="1" fill="none" fill-rule="evenodd">
        <g id="个人信息备份-3" transform="translate(-998.000000, -286.000000)">
            <g id="编组-5" transform="translate(968.000000, 24.000000)">
                <g id="编组-2" transform="translate(30.000000, 262.000000)">
                    <rect id="矩形备份" fill="#F7F7F7" x="0" y="0" width="32" height="32" rx="4"></rect>
                    <g id="邮箱" transform="translate(8.000000, 9.000000)">
                        <path d="M1.92337725,14.9960066 C0.863246553,14.9960065 0.00383908614,14.1451124 0.00383908614,13.0954791 L0.00383908614,13.0262413 C0.00130598664,13.0030967 0,12.9798349 0,12.9565553 L0,5.88343065 L0.00383908391,5.79093833 C0.00423606136,4.98583599 0.516920493,4.26835125 1.28355375,4 L8.00061419,9.03142867 L14.7203087,4 C15.4858493,4.2697823 15.9978963,4.98639251 16,5.79093035 L16,13.0935675 C15.9978991,14.1423118 15.1397383,14.991992 14.0804832,14.9940939 C8.00194237,15.0061561 8.00193032,14.9960066 1.92337725,14.9960066 Z" id="形状" fill="#3599FE" fill-rule="nonzero"></path>
                        <path d="M3,0 L13,0 C14.1045695,-2.02906125e-16 15,0.8954305 15,2 L15,6 L15,6 L8,11 L1,6 L1,2 C1,0.8954305 1.8954305,2.02906125e-16 3,0 Z" id="矩形" fill="#E1F1FF"></path>
                        <path d="M9.39999932,3 L4.60000076,3 L4.60000073,3 C4.26863012,3 4,2.77614328 4,2.5 C4,2.5 4,2.5 4,2.5 L4,2.5 C4,2.22385816 4.26862831,2 4.60000073,2 L9.3999993,2 L9.39999927,2 C9.73136988,2 10,2.22385665 10,2.5 L10,2.5 C10,2.77614184 9.73137169,3 9.39999927,3 L9.39999932,3 Z" id="路径" fill="#3599FE" fill-rule="nonzero"></path>
                        <path d="M6.5,5 L4.5,5 L4.5,5 C4.22385839,5 4,4.77614328 4,4.5 C4,4.5 4,4.5 4,4.5 L4,4.5 C4,4.22385816 4.22385688,4 4.5,4 L6.5,4 L6.5,4 C6.77614161,4 7,4.22385665 7,4.5 L7,4.5 C7,4.77614184 6.77614312,5 6.5,5 C6.5,5 6.5,5 6.5,5 L6.5,5 Z" id="路径" fill="#3599FE" fill-rule="nonzero"></path>
                    </g>
                </g>
            </g>
        </g>
    </g>
</svg>