<?xml version="1.0" encoding="UTF-8"?>
<svg width="16px" height="16px" viewBox="0 0 16 16" version="1.1" xmlns="http://www.w3.org/2000/svg" xmlns:xlink="http://www.w3.org/1999/xlink">
    <title>数据</title>
    <g id="页面-1" stroke="none" stroke-width="1" fill="none" fill-rule="evenodd">
        <g id="保单报表" transform="translate(-276.000000, -27.000000)" fill-rule="nonzero">
            <g id="数据" transform="translate(276.000000, 27.000000)">
                <path d="M1.41198456,12.9436459 C2.18970871,12.9436459 2.82396923,12.2957957 2.82396923,11.4985407 L2.82396923,3.31219259 L2.82396923,3.3121939 C2.79103856,2.51408363 2.13217631,1.89441038 1.35235802,1.928114 C0.61868711,1.95982253 0.0309820391,2.56131348 0,3.3121939 L0,11.498542 C0,12.297085 0.634260469,12.9436472 1.41198462,12.9436472 L1.41198462,12.9449351 L1.41198456,12.9436459 Z M5.64667996,12.9436472 C6.42692101,12.9436472 7.05866463,12.2957957 7.05866463,11.4985407 L7.05866463,7.16451329 L7.05866463,7.16451459 C7.02573395,6.36640433 6.3668717,5.74673108 5.58705341,5.7804347 C4.85338251,5.81214323 4.26567743,6.41363418 4.2346954,7.16451459 L4.2346954,11.498542 C4.2346954,12.297085 4.86895587,12.9436472 5.64668001,12.9436472 L5.64667996,12.9436472 Z M14.1160708,12.9436466 C14.8963118,12.9436466 15.5293139,12.2957957 15.5293139,11.4985407 L15.5293139,8.60960836 L15.5293139,8.60960913 C15.4889863,7.81185607 14.8244079,7.19860759 14.0449387,7.23988057 C13.3218589,7.27816807 12.7440126,7.86956831 12.7066031,8.60960913 L12.7066031,11.4985415 C12.7066031,12.2970844 13.3396051,12.9436466 14.1160708,12.9436466 L14.1160708,12.9436466 Z" id="形状" fill="#3599FE"></path>
                <path d="M9.88265347,12.9436472 C10.6616361,12.9436472 11.2946381,12.2957957 11.2946381,11.4985407 L11.2946381,1.38539077 L11.2946381,1.38539208 C11.2617075,0.587281811 10.6028452,-0.0323914392 9.82302693,0.00131218473 C9.08935602,0.0330207091 8.50165095,0.634511662 8.47066891,1.38539208 L8.47066891,11.498542 C8.47066891,12.297085 9.10367092,12.9436472 9.88265352,12.9436472 L9.88265347,12.9436472 Z" id="路径" fill="#C7D6FF"></path>
                <path d="M16,14.9541659 L16,14.9541311 C15.9993155,15.5314346 15.5422327,15.9992705 14.9781605,16 L1.02188866,16 L1.02188868,16 C0.457875465,15.9797334 0.0167064675,15.4953563 0.0365074438,14.9181157 C0.0553337333,14.3693187 0.485669586,13.9288899 1.02188868,13.9096206 L14.9781359,13.9070447 C15.541923,13.9070447 16,14.3758667 16,14.9528784 L16,14.9541659 Z" id="路径" fill="#3599FE"></path>
            </g>
        </g>
    </g>
</svg>