<?xml version="1.0" encoding="UTF-8"?>
<svg width="18px" height="13px" viewBox="0 0 18 13" version="1.1" xmlns="http://www.w3.org/2000/svg" xmlns:xlink="http://www.w3.org/1999/xlink">
    <title>眼睛</title>
    <g id="健康管理系统1.7.0" stroke="none" stroke-width="1" fill="none" fill-rule="evenodd">
        <g id="个人信息备份" transform="translate(-886.000000, -480.000000)" fill="#3599FE" fill-rule="nonzero">
            <g id="编组-6" transform="translate(443.000000, 165.000000)">
                <g id="眼睛" transform="translate(443.000000, 316.000000)">
                    <path d="M9.00027061,8.8817842e-16 C5.0534225,8.8817842e-16 1.64734313,2.44685522 0,6 C1.64735917,9.55314478 5.05344254,12 9.00027061,12 C12.9471187,12 16.3531981,9.55314478 18,6 C16.3531941,2.44685522 12.9470987,8.8817842e-16 9.00027061,8.8817842e-16 Z M9.00027061,10.2000086 C6.83996191,10.2000086 5.08892316,8.31975978 5.08892316,6 C5.08892316,3.68027035 6.83997394,1.79999139 9.00027061,1.79999139 C11.1605793,1.79999139 12.9116181,3.68026174 12.9116181,6 C12.9116181,8.3197727 11.1605673,10.2000086 9.00027061,10.2000086 Z M9.00027061,3.59998278 C7.76595598,3.59998278 6.76521207,4.67458995 6.76521207,5.99997848 C6.76521207,7.32533471 7.76596801,8.3999957 9.00027061,8.3999957 C10.2345853,8.3999957 11.2353492,7.32534547 11.2353492,5.99997848 C11.2353492,4.67460071 10.2345933,3.59998278 9.00027061,3.59998278 L9.00027061,3.59998278 Z M9.00027061,0 C5.0534225,0 1.64734313,2.44685522 0,6 C1.64735917,9.55314478 5.05344254,12 9.00027061,12 C12.9471187,12 16.3531981,9.55314478 18,6 C16.3531941,2.44685522 12.9470987,0 9.00027061,0 Z M9.00027061,10.2000086 C6.83996191,10.2000086 5.08892316,8.31975978 5.08892316,6 C5.08892316,3.68027035 6.83997394,1.79999139 9.00027061,1.79999139 C11.1605793,1.79999139 12.9116181,3.68026174 12.9116181,6 C12.9116181,8.3197727 11.1605673,10.2000086 9.00027061,10.2000086 Z M9.00027061,3.59998278 C7.76595598,3.59998278 6.76521207,4.67458995 6.76521207,5.99997848 C6.76521207,7.32533471 7.76596801,8.3999957 9.00027061,8.3999957 C10.2345853,8.3999957 11.2353492,7.32534547 11.2353492,5.99997848 C11.2353492,4.67460071 10.2345933,3.59998278 9.00027061,3.59998278 L9.00027061,3.59998278 Z" id="形状"></path>
                </g>
            </g>
        </g>
    </g>
</svg>