<?xml version="1.0" encoding="UTF-8"?>
<svg width="18px" height="13px" viewBox="0 0 18 13" version="1.1" xmlns="http://www.w3.org/2000/svg" xmlns:xlink="http://www.w3.org/1999/xlink">
    <title>眼睛</title>
    <g id="健康管理系统1.7.0" stroke="none" stroke-width="1" fill="none" fill-rule="evenodd">
        <g id="个人信息备份" transform="translate(-886.000000, -392.000000)" fill="#3599FE" fill-rule="nonzero">
            <g id="编组-6" transform="translate(443.000000, 165.000000)">
                <g id="眼睛" transform="translate(443.000000, 228.000000)">
                    <path d="M17.8913402,2.116037 L17.8913402,2.11603701 C18.076544,1.79983079 18.0207395,1.39777339 17.7564306,1.14404131 L17.7564306,1.14404131 C17.5080864,0.92988269 17.1332697,0.957731591 16.9192554,1.20624071 C16.9164677,1.20947767 16.9137151,1.21274462 16.9109979,1.21604101 L16.8570341,1.27904073 C16.8570341,1.27904073 13.259446,5.84202054 9.01429202,5.84202054 C4.76913807,5.84202054 1.162556,1.27904073 1.12658012,1.24304089 L1.12658013,1.24304091 C0.917700445,0.971126096 0.528085871,0.92014097 0.256352032,1.12916012 C0.246389752,1.1368232 0.236662439,1.14478727 0.227183287,1.15304131 L0.227183212,1.15304138 C-0.0495359567,1.41567498 -0.0769921588,1.8474217 0.164225596,2.143037 L0.164225143,2.14303644 C0.781501346,2.89873603 1.47134062,3.59204936 2.22384433,4.21302728 L0.586941744,6.01301931 L0.586941753,6.0130193 C0.331066813,6.28643177 0.331066813,6.71160254 0.586941736,6.985015 L0.586941718,6.98501497 C0.668619967,7.11928348 0.816734144,7.19856012 0.973682438,7.19201406 L0.973682412,7.19201406 C1.14529738,7.18632193 1.30739033,7.11170963 1.42338092,6.98501497 L3.22217497,5.0140237 L3.22217458,5.01402341 C4.12027521,5.68156382 5.10326697,6.22635672 6.14521491,6.63401448 L5.47067417,9.10000357 L5.47067413,9.10000368 C5.33994273,9.45968393 5.52534851,9.85731166 5.88479024,9.988131 C5.89654208,9.99240808 5.9084075,9.99636586 5.92037352,10 L6.11824086,10 L6.11824086,10 C6.41820558,9.99664184 6.67413849,9.78196718 6.72983084,9.48700227 L7.4043786,7.03001315 L7.40437797,7.03001301 C8.46491111,7.26410162 9.56368618,7.26410338 10.6242193,7.0300137 L11.2987671,9.45100298 L11.2987671,9.45100293 C11.3627453,9.7424575 11.6126514,9.95575479 11.910357,9.97300062 L12.0632545,9.97300062 L12.0632545,9.97300062 C12.4292459,9.86184724 12.6358929,9.47484755 12.5248138,9.10861245 C12.5211821,9.09663846 12.517227,9.0847652 12.5129527,9.07300548 L11.8473989,6.6520162 L11.8473991,6.65201614 C12.8924967,6.24722887 13.8762596,5.69898188 14.7704394,5.02302335 L16.5062757,6.95801479 L16.5062756,6.95801473 C16.7131844,7.20603922 17.0818458,7.23925646 17.3297052,7.03221079 C17.3340964,7.02854262 17.3384336,7.02481017 17.3427153,7.02101463 L17.3427153,7.02101463 C17.3680223,7.00483657 17.3895058,6.98333872 17.4056731,6.95801491 L17.4056731,6.95801491 C17.6490022,6.67976321 17.6490022,6.26427091 17.4056731,5.98601921 L15.7687706,4.18602717 L15.768771,4.18602683 C16.5477929,3.57346704 17.2593389,2.87955078 17.891348,2.11603599 L17.8913402,2.116037 Z" id="路径"></path>
                </g>
            </g>
        </g>
    </g>
</svg>