<?xml version="1.0" encoding="UTF-8"?>
<svg width="20px" height="20px" viewBox="0 0 20 20" version="1.1" xmlns="http://www.w3.org/2000/svg" xmlns:xlink="http://www.w3.org/1999/xlink">
    <title>密码重置</title>
    <g id="页面-1" stroke="none" stroke-width="1" fill="none" fill-rule="evenodd">
        <g id="按钮状态" transform="translate(-627.000000, -862.000000)" fill="#3599FE" fill-rule="nonzero">
            <g id="编组-6" transform="translate(627.000000, 862.000000)">
                <g id="形状" transform="translate(1.000000, 0.000000)">
                    <path d="M15.6361607,5.00546875 L14.3694196,5.00546875 L14.3694196,3.52526042 C14.3689575,1.57838985 12.6780087,0.000287525425 10.5920759,7.40148683e-16 L7.34960938,7.40148683e-16 C5.26334972,7.40148683e-16 3.57189081,1.57808478 3.57142857,3.52526042 L3.57142857,5.00546875 L2.23967634,5.00546875 C1.00689788,5.00546875 0.00753348214,5.93820885 0.00753348214,7.08880208 L0.00753348214,17.9067708 C0.00753348214,18.4593052 0.242705001,18.9892092 0.661312988,19.37991 C1.07992098,19.7706107 1.64767525,19.9901042 2.23967634,19.9901042 L15.6361607,19.9901042 C16.8689392,19.9901042 17.8683036,19.0573641 17.8683036,17.9067708 L17.8683036,7.08880208 C17.8683036,5.93820885 16.8689392,5.00546875 15.6361607,5.00546875 Z M5.3780692,3.675 C5.37822328,2.56247805 6.34456352,1.66067708 7.53655134,1.66067708 L10.3722098,1.66067708 C11.5596837,1.66067708 12.5223214,2.55913899 12.5223214,3.66744792 L12.5223214,5 L5.37946429,5 L5.3780692,3.675 Z M14.2248884,13.7731771 C13.7374442,16.0606771 11.5742187,17.7835938 8.97935268,17.7835938 C6.02622768,17.7835938 3.63225446,15.5492188 3.63225446,12.7932292 C3.63225446,10.0369792 6.02622768,7.80260417 8.97935268,7.80260417 C9.43935925,7.80230325 9.89748172,7.85744676 10.3423549,7.96666667 L10.483817,7.42604167 C10.5007219,7.36172576 10.5525859,7.31042765 10.6204002,7.29094867 C10.6882146,7.27146968 10.7620071,7.28667419 10.8147321,7.33098958 L13.5864955,9.66145833 L9.984375,10.5002604 C9.91586,10.5162279 9.84338933,10.497545 9.79336885,10.4510191 C9.74334836,10.4044932 9.72308246,10.3369184 9.73995536,10.2729167 L9.93247768,9.53828125 C9.62999166,9.46264002 9.31817714,9.42437926 9.00502232,9.42447917 C7.03257679,9.42447917 5.43359375,10.9168633 5.43359375,12.7578125 C5.43359375,14.5987617 7.03257679,16.0911458 9.00502232,16.0911458 C10.691498,16.0919718 12.1487389,14.9916072 12.5,13.4520833 C12.5844813,13.0700676 12.9442372,12.7955819 13.3621652,12.7942708 C13.6250775,12.7942541 13.8742001,12.9040559 14.0412179,13.0935661 C14.2082357,13.2830762 14.2756185,13.5324036 14.2248884,13.7731771 L14.2248884,13.7731771 Z"></path>
                </g>
            </g>
        </g>
    </g>
</svg>