<?xml version="1.0" encoding="UTF-8"?>
<svg width="66px" height="66px" viewBox="0 0 66 66" version="1.1" xmlns="http://www.w3.org/2000/svg" xmlns:xlink="http://www.w3.org/1999/xlink">
    <title>有效保单</title>
    <defs>
        <circle id="path-1" cx="34.5" cy="34.5" r="24.5"></circle>
        <filter x="-18.4%" y="-18.4%" width="136.7%" height="136.7%" filterUnits="objectBoundingBox" id="filter-2">
            <feOffset dx="0" dy="0" in="SourceAlpha" result="shadowOffsetOuter1"></feOffset>
            <feGaussianBlur stdDeviation="3" in="shadowOffsetOuter1" result="shadowBlurOuter1"></feGaussianBlur>
            <feColorMatrix values="0 0 0 0 0.699473505   0 0 0 0 0.699473505   0 0 0 0 0.699473505  0 0 0 0.5 0" type="matrix" in="shadowBlurOuter1"></feColorMatrix>
        </filter>
    </defs>
    <g id="健康/保险管理2.5" stroke="none" stroke-width="1" fill="none" fill-rule="evenodd">
        <g id="保险产品数据" transform="translate(-327.000000, -891.000000)">
            <g id="有效保单" transform="translate(327.000000, 891.000000)">
                <g id="椭圆形备份-6">
                    <use fill="black" fill-opacity="1" filter="url(#filter-2)" xlink:href="#path-1"></use>
                    <use fill="#FFFFFF" fill-rule="evenodd" xlink:href="#path-1"></use>
                </g>
                <g id="保单" transform="translate(23.000000, 22.000000)" fill-rule="nonzero">
                    <path d="M18.9260521,0 C20.9749541,0 22,0.954445153 22,2.86221306 L22,18.0555439 L16.4588987,18.0555439 C14.3918649,18.0555439 13.3571297,19.039989 13.3571297,21.0088767 L13.3571297,26 L3.17186005,26 C1.05647358,26 0,25.0422172 0,23.125543 L0,2.86221306 C0,0.955546715 1.05769182,0 3.17186005,0 L18.9260521,0 Z M16.5000156,9.74999837 L4.71429624,9.74999837 L4.71429621,9.74999837 C4.06339019,9.74999837 3.53572427,10.2350243 3.53572427,10.8333315 C3.53572427,11.4316387 4.06339019,11.9166647 4.71429621,11.9166647 L16.5000156,11.9166647 L16.5000156,11.9166647 C17.1509216,11.9166647 17.6785876,11.4316387 17.6785876,10.8333315 C17.6785876,10.2350243 17.1509216,9.74999837 16.5000156,9.74999837 L16.5000156,9.74999837 Z M14.1428717,5.41666576 L4.71429624,5.41666576 L4.71429623,5.41666576 C4.06339021,5.41825802 3.53713235,5.90457193 3.53886193,6.50287912 C3.54045019,7.04998059 3.98556764,7.51013156 4.5764968,7.57555603 L4.71429906,7.58333381 L14.1428745,7.58333381 L14.1428746,7.58333381 C14.7937806,7.58333381 15.3214465,7.09830785 15.3214465,6.50000066 C15.3214465,5.90169347 14.7937806,5.41666576 14.1428746,5.41666576 L14.1428717,5.41666576 Z" id="形状" fill="#AF5FFF"></path>
                    <path d="M21.1985796,19.4999967 C21.6397876,19.4999967 21.9975919,19.82333 21.9975919,20.222218 L15.5994478,25.9999967 L15.5994478,25.9999967 C15.3880848,26.0004026 15.1849786,25.9246079 15.0337333,25.7888923 L15.0337332,25.7888923 C14.8844243,25.6542499 14.8003428,25.4700434 14.8004363,25.2777804 L14.8004363,20.9444478 C14.8004363,19.9811146 15.3613147,19.4999967 16.4854911,19.4999967 L21.1973707,19.4999967 L21.1985796,19.4999967 Z" id="路径" fill="#D7AFFF"></path>
                </g>
            </g>
        </g>
    </g>
</svg>