<?xml version="1.0" encoding="UTF-8"?>
<svg width="66px" height="66px" viewBox="0 0 66 66" version="1.1" xmlns="http://www.w3.org/2000/svg" xmlns:xlink="http://www.w3.org/1999/xlink">
    <title>理赔申请</title>
    <defs>
        <circle id="path-1" cx="33.5" cy="33.5" r="24.5"></circle>
        <filter x="-18.4%" y="-18.4%" width="136.7%" height="136.7%" filterUnits="objectBoundingBox" id="filter-2">
            <feOffset dx="0" dy="0" in="SourceAlpha" result="shadowOffsetOuter1"></feOffset>
            <feGaussianBlur stdDeviation="3" in="shadowOffsetOuter1" result="shadowBlurOuter1"></feGaussianBlur>
            <feColorMatrix values="0 0 0 0 0.699473505   0 0 0 0 0.699473505   0 0 0 0 0.699473505  0 0 0 0.5 0" type="matrix" in="shadowBlurOuter1"></feColorMatrix>
        </filter>
    </defs>
    <g id="健康/保险管理2.5" stroke="none" stroke-width="1" fill="none" fill-rule="evenodd">
        <g id="保险产品数据" transform="translate(-1113.000000, -891.000000)">
            <g id="理赔申请" transform="translate(1113.000000, 891.000000)">
                <g id="椭圆形备份-12">
                    <use fill="black" fill-opacity="1" filter="url(#filter-2)" xlink:href="#path-1"></use>
                    <use fill="#FFFFFF" fill-rule="evenodd" xlink:href="#path-1"></use>
                </g>
                <g id="钱袋" transform="translate(21.000000, 17.000000)" fill="#3599FE" fill-rule="nonzero">
                    <path d="M13.6009087,17.8411359 L16.4778047,17.8411359 C17.0074266,17.8411359 17.43677,17.4493807 17.43677,16.9661261 C17.43677,16.4828715 17.0074266,16.0911163 16.4778047,16.0911163 L13.8579114,16.0911163 L16.0328448,14.105719 C16.2750668,13.8845468 16.3695738,13.5622646 16.2807661,13.2602731 C16.1919584,12.9582816 15.9333278,12.7224604 15.6022981,12.6416412 C15.2712684,12.5608219 14.9181308,12.6472829 14.6759089,12.8684551 L12.6429024,14.7243509 L10.607978,12.8693301 C10.3686542,12.6364602 10.0093328,12.5409984 9.67041275,12.6202449 C9.33149272,12.6994913 9.0667697,12.9408676 8.97967992,13.2500597 C8.89259013,13.5592518 8.99695705,13.8871828 9.25200099,14.105719 L11.4259754,16.0902413 L8.80608212,16.0902413 C8.27646019,16.0902413 7.84711679,16.4819965 7.84711679,16.9652511 C7.84711679,17.4485057 8.27646019,17.8402609 8.80608212,17.8402609 L11.6829781,17.8402609 L11.6829781,19.5902806 L8.80608212,19.5902806 C8.2764602,19.5902806 7.84711679,19.9820358 7.84711679,20.4652904 C7.84711679,20.948545 8.2764602,21.3403002 8.80608212,21.3403002 L11.6829781,21.3403002 L11.6829781,23.0903199 C11.6829781,23.5735745 12.1123215,23.9653297 12.6419434,23.9653297 C13.1715653,23.9653297 13.6009087,23.5735745 13.6009087,23.0903199 L13.6009087,21.3403002 L16.4778047,21.3403002 C17.0074266,21.3403002 17.43677,20.948545 17.43677,20.4652904 C17.43677,19.9820358 17.0074266,19.5902806 16.4778047,19.5902806 L13.6009087,19.5902806 L13.6009087,17.8402609 L13.6009087,17.8411359 Z M8.37454772,8.74978383 L16.966877,8.74978383 C19.50035,8.75026543 21.7353641,10.262719 22.471338,12.4747007 L25.8344293,22.5810642 C26.1495085,23.5276196 26.0108798,24.5516302 25.4528375,25.3997747 C24.8947952,26.2479192 23.9694624,26.8409779 22.9057493,27.0322392 C19.31826,27.6771214 15.8976307,28 12.6419434,28 C9.43612238,28 6.23317817,27.6867465 3.03311091,27.0611145 C2.0205503,26.8633805 1.13861494,26.3005106 0.587778308,25.5004511 C0.0369416733,24.7003917 -0.135999332,23.7311127 0.108266657,22.8129417 L2.78377991,12.7608289 C3.41023971,10.4071503 5.720057,8.74999308 8.37454772,8.74978383 Z M5.66547072,6.2525058 C3.16161227,4.37910975 2.45677276,3.18472134 3.55191113,2.67109056 C5.41613972,1.79608074 5.84767411,3.09284531 8.17795984,1.78033057 C10.5082456,0.467815827 11.5420102,-0.185816513 13.7648918,0.0460610772 C15.9877734,0.277938667 14.422742,3.15409598 16.5612347,3.54610041 C18.6997273,3.9372298 18.7668549,0.0224358529 22.0100757,2.04283351 C22.8788982,2.58358959 22.2363915,3.88822924 20.0844733,5.95587747 C19.3604495,6.65176416 18.3550698,7.04591291 17.3034739,7.0461397 L8.09740676,7.0461397 C7.21059085,7.04605774 6.35120112,6.76560595 5.66547072,6.2525058 L5.66547072,6.2525058 Z" id="形状"></path>
                </g>
            </g>
        </g>
    </g>
</svg>