<?xml version="1.0" encoding="UTF-8"?>
<svg width="66px" height="66px" viewBox="0 0 66 66" version="1.1" xmlns="http://www.w3.org/2000/svg" xmlns:xlink="http://www.w3.org/1999/xlink">
    <title>人数</title>
    <defs>
        <circle id="path-1" cx="33.5" cy="33.5" r="24.5"></circle>
        <filter x="-18.4%" y="-18.4%" width="136.7%" height="136.7%" filterUnits="objectBoundingBox" id="filter-2">
            <feOffset dx="0" dy="0" in="SourceAlpha" result="shadowOffsetOuter1"></feOffset>
            <feGaussianBlur stdDeviation="3" in="shadowOffsetOuter1" result="shadowBlurOuter1"></feGaussianBlur>
            <feColorMatrix values="0 0 0 0 0.699473505   0 0 0 0 0.699473505   0 0 0 0 0.699473505  0 0 0 0.5 0" type="matrix" in="shadowBlurOuter1"></feColorMatrix>
        </filter>
    </defs>
    <g id="健康/保险管理2.5" stroke="none" stroke-width="1" fill="none" fill-rule="evenodd">
        <g id="保险产品数据" transform="translate(-327.000000, -989.000000)">
            <g id="人数" transform="translate(327.000000, 989.000000)">
                <g id="椭圆形备份-11">
                    <use fill="black" fill-opacity="1" filter="url(#filter-2)" xlink:href="#path-1"></use>
                    <use fill="#FFFFFF" fill-rule="evenodd" xlink:href="#path-1"></use>
                </g>
                <g transform="translate(19.000000, 23.000000)" fill="#3599FE" fill-rule="nonzero" id="形状">
                    <path d="M23.3282539,17.5910571 C23.3282539,14.6733352 20.733091,11.4187949 17.6711113,10.1001013 C19.1583344,9.09020941 20.1351933,7.4349227 20.1351933,5.55516552 C20.1351933,2.48300046 17.5546047,0 14.3615148,0 C11.168425,0 8.58769005,2.48300046 8.58769005,5.54108684 C8.58769005,7.43495086 9.57909402,9.11814151 11.0809791,10.1141518 C8.06281019,11.474997 5.5404603,15.010069 5.5404603,17.5069229 C5.5404603,22.1502405 23.3282539,22.1502405 23.3282539,17.5910571 Z M24.5968038,9.58121745 C25.7631579,8.79562711 26.5067402,7.50503452 26.5067402,6.04617356 C26.5067402,3.66135781 24.4947251,1.72542669 22.0160689,1.72542669 C21.3891103,1.72542669 20.7767554,1.85171245 20.2372427,2.07618293 C21.0246649,3.03004165 21.5057633,4.23650004 21.5057633,5.54114315 C21.5057633,7.42087218 20.5289922,9.09023757 19.0417106,10.0862479 C22.103544,11.4048007 24.6988532,14.6733633 24.6988532,17.5772319 C24.6988532,17.6892982 24.6842496,17.8015897 24.6696753,17.8997744 C27.07546,17.5631813 29,16.7354676 29,15.4169147 C29,13.158244 26.9878679,10.6192104 24.5968038,9.58121745 L24.5968038,9.58121745 Z M4.15528669,17.5069229 C4.15528669,15.010069 6.67775365,11.4749688 9.69577626,10.1142081 C8.19406674,9.10428809 7.20266277,7.43495086 7.20266277,5.54114315 C7.20266277,4.20842715 7.69836476,2.9740085 8.51484779,2.01998084 C8.00454223,1.82361141 7.45045523,1.72542669 6.86727815,1.72542669 C4.38862191,1.72542669 2.37660684,3.66135781 2.37660684,6.04617356 C2.37660684,7.51908505 3.14930842,8.82358737 4.31575038,9.60917771 C1.96835069,10.6613338 0,13.424866 0,15.3606563 C0,16.67935 1.85169771,17.5210016 4.18449384,17.8717578 C4.16991953,17.7594944 4.15528669,17.6332368 4.15528669,17.5069229 L4.15528669,17.5069229 Z"></path>
                </g>
            </g>
        </g>
    </g>
</svg>