<?xml version="1.0" encoding="UTF-8"?>
<svg width="66px" height="66px" viewBox="0 0 66 66" version="1.1" xmlns="http://www.w3.org/2000/svg" xmlns:xlink="http://www.w3.org/1999/xlink">
    <title>编组 3</title>
    <defs>
        <circle id="path-1" cx="33.5" cy="33.5" r="24.5"></circle>
        <filter x="-18.4%" y="-18.4%" width="136.7%" height="136.7%" filterUnits="objectBoundingBox" id="filter-2">
            <feOffset dx="0" dy="0" in="SourceAlpha" result="shadowOffsetOuter1"></feOffset>
            <feGaussianBlur stdDeviation="3" in="shadowOffsetOuter1" result="shadowBlurOuter1"></feGaussianBlur>
            <feColorMatrix values="0 0 0 0 0.699473505   0 0 0 0 0.699473505   0 0 0 0 0.699473505  0 0 0 0.5 0" type="matrix" in="shadowBlurOuter1"></feColorMatrix>
        </filter>
    </defs>
    <g id="健康/保险管理2.5" stroke="none" stroke-width="1" fill="none" fill-rule="evenodd">
        <g id="保险产品数据" transform="translate(-864.000000, -891.000000)">
            <g id="编组-3" transform="translate(864.000000, 891.000000)">
                <g id="椭圆形备份-10">
                    <use fill="black" fill-opacity="1" filter="url(#filter-2)" xlink:href="#path-1"></use>
                    <use fill="#FFFFFF" fill-rule="evenodd" xlink:href="#path-1"></use>
                </g>
                <g id="上榜次数" transform="translate(21.000000, 22.000000)" fill="#F64E60" fill-rule="nonzero">
                    <path d="M21.8440233,1.06298887 L18.7973594,6.50002719 C16.2169398,4.30230226 11.8461538,4.07015883 11.8461538,4.07015883 L13.8891269,0.513185357 L13.8891268,0.513185444 C13.9724571,0.211602835 14.2731523,-5.39220054e-05 14.6181555,2.71900201e-05 L21.2370632,2.71900201e-05 C21.6592216,2.71900201e-05 22,0.302423711 22,0.676599633 C22,0.823216017 21.9372696,0.951506462 21.8474126,1.06299403 L21.8440233,1.06298887 Z M22,16.2492265 C22,21.6351942 17.075311,26 11.0008676,26 C4.92468898,26 0,21.6351942 0,16.2492265 C0,10.8648262 4.92468898,6.50002039 11.0008676,6.50002039 C17.0752821,6.50002039 22,10.8648262 22,16.2492265 Z M16.0124109,13.5030587 L13.0979797,13.0765189 L11.7932665,10.423653 C11.3459369,9.51682242 10.6444425,9.53416277 10.2072792,10.423653 L8.90256594,13.0765189 L5.98813474,13.5030587 C4.98842057,13.6487061 4.79017005,14.3231932 5.49844392,15.0167525 L7.60801051,17.0800927 L7.10984686,19.9965181 C6.94040365,20.9952433 7.51651135,21.3940396 8.39253134,20.9328249 L11.0002616,19.5561095 L13.6079918,20.9328249 C14.5009575,21.4044455 15.0567318,20.9761723 14.8906763,19.9965181 L14.3908192,17.0818198 L16.5020821,15.0167467 C17.2239091,14.3093158 16.9900795,13.6452328 16.0106978,13.5030529 L16.0124109,13.5030587 Z M0.152613008,1.06326906 L0.152613041,1.06326909 C0.0568222089,0.952631483 0.0032906306,0.81706562 0,0.676785466 L0,0.676788565 C0.00372719775,0.299680769 0.34609432,-0.00330291898 0.764695008,2.71900201e-05 C0.764715266,2.71900201e-05 0.764735524,2.71900201e-05 0.764755781,2.71900201e-05 L7.38646537,2.71900201e-05 C7.74256183,2.71900201e-05 8.03083067,0.221558283 8.11391909,0.513332056 L10.1538462,4.07112695 C10.1538462,4.07112695 5.78403975,4.30332323 3.20318917,6.50002719 L0.15432401,1.06480193 L0.152613008,1.06326906 Z" id="形状"></path>
                </g>
            </g>
        </g>
    </g>
</svg>