<?xml version="1.0" encoding="UTF-8"?>
<svg width="15px" height="16px" viewBox="0 0 15 16" version="1.1" xmlns="http://www.w3.org/2000/svg" xmlns:xlink="http://www.w3.org/1999/xlink">
    <title>预警</title>
    <g id="2.7.0" stroke="none" stroke-width="1" fill="none" fill-rule="evenodd">
        <g id="保险数据2" transform="translate(-292.000000, -1210.000000)" fill-rule="nonzero">
            <g id="预警" transform="translate(292.000000, 1210.000000)">
                <path d="M3.41052135,14 L2.32275759,14 L2.32275759,8.93710156 C2.32275759,6.06402216 4.64080869,3.73494083 7.50005668,3.73494083 C10.3593047,3.73494083 12.6772886,6.06402216 12.6772886,8.93710156 L12.6772886,14 L11.4816211,14 M7.87451457,5.83109211 L5.32053519,10.0577929 L7.36380931,10.0577929 L6.85291946,13.2280293 L9.40689885,9.00109241 L7.36370863,9.00109241 L7.87449779,5.83109211 L7.87451457,5.83109211 Z M11.7913703,1.18837494 L11.7913704,1.18837497 C12.0310879,1.32856365 12.1130293,1.63702415 11.9747229,1.87859929 L11.0563999,3.48292316 L10.1889578,2.97762311 L11.107264,1.37329924 L11.107264,1.37329927 C11.244494,1.13264816 11.5498942,1.04934372 11.7893952,1.18723177 C11.7900542,1.18761117 11.7907123,1.18799208 11.7913696,1.18837451 L11.7913703,1.18837494 Z M7.49852958,0 C7.79871345,0 8.04212618,0.227686008 8.04212618,0.50860498 L8.04212618,2.32668694 L6.95506723,2.32668694 L6.95506723,0.508503809 C6.95506723,0.227669146 7.19839605,0 7.4985128,0 L7.49852958,0 Z M3.20869268,1.1883918 L3.20869268,1.1883918 C3.44761306,1.04939626 3.75343545,1.13133118 3.89176705,1.37139887 C3.89213486,1.37203719 3.89250127,1.37267633 3.89286628,1.37331627 L4.81110537,2.97755583 L3.94356258,3.48285588 L3.02534027,1.87853201 C2.88709594,1.63690123 2.9690558,1.32799153 3.20869274,1.188392 L3.20869268,1.1883918 Z M0.0671832527,4.35731294 L0.0671832688,4.35731291 C0.204454458,4.11657749 0.509956152,4.03323932 0.749541073,4.17116952 C0.750147238,4.1715185 0.750752674,4.17186875 0.75135738,4.17222027 L2.34183851,5.09856154 L1.84101744,5.97354152 L0.250536307,5.04745318 C0.011000052,4.90793796 -0.0711444042,4.59904512 0.0671838394,4.3572963 L0.0671832527,4.35731294 Z M14.9328462,4.35731294 C15.0710905,4.59894372 14.9890468,4.90785342 14.7495944,5.04753726 L13.1591133,5.97372678 L12.6582922,5.09872994 L14.2487566,4.17230436 L14.2487565,4.1723044 C14.487645,4.03334663 14.793412,4.11528628 14.931705,4.35532159 C14.9320868,4.35598435 14.9324672,4.356648 14.932846,4.35731251 L14.9328462,4.35731294 Z" id="形状" fill="#3599FE"></path>
                <path d="M0.542701136,15 L14.4572989,15 L14.4572988,15 C14.7586915,15.0015318 15.001664,15.2266306 15,15.5027741 C14.9983326,15.7767529 14.7563304,15.9984814 14.4572988,16 L0.542701123,16 L0.542701154,16 C0.241308467,15.9984682 -0.00166401925,15.7733694 0,15.4972259 C0.00166738988,15.2232471 0.243669591,15.0015186 0.542701154,15 L0.542701136,15 Z" id="路径" fill="#266DFF"></path>
            </g>
        </g>
    </g>
</svg>