<?xml version="1.0" encoding="UTF-8"?>
<svg width="16px" height="16px" viewBox="0 0 16 16" version="1.1" xmlns="http://www.w3.org/2000/svg" xmlns:xlink="http://www.w3.org/1999/xlink">
    <title>功能</title>
    <g id="2.7.0" stroke="none" stroke-width="1" fill="none" fill-rule="evenodd">
        <g id="保险数据2" transform="translate(-768.000000, -595.000000)" fill-rule="nonzero">
            <g id="功能" transform="translate(768.000000, 595.000000)">
                <path d="M1,1.66504128 C1,1.29772739 1.29753463,1 1.66502563,1 L6.33497437,1 C6.70227173,1 7,1.29755136 7,1.66504128 L7,6.33495872 C7,6.70227261 6.70246537,7 6.33497437,7 L1.66502563,7 C1.29772827,7 1,6.70244864 1,6.33495872 L1,1.66504128 Z M8.27895059,10.1781266 C8.27895059,9.81087986 8.57645176,9.51314985 8.94401533,9.51314985 L13.6139035,9.51314985 C13.9812206,9.51314985 14.2789506,9.81065101 14.2789506,10.1781442 L14.2789506,14.8481555 C14.2789506,15.2154198 13.9814494,15.5131498 13.6139035,15.5131498 L8.94401533,15.5131498 C8.5766806,15.5131498 8.27895059,15.2155959 8.27895059,14.8481555 L8.27895059,10.1781442 L8.27895059,10.1781266 Z M0.721082981,10.1781266 C0.721082981,9.81087986 1.01861761,9.51314985 1.38610861,9.51314985 L6.05605735,9.51314985 C6.42335471,9.51314985 6.72108298,9.81065101 6.72108298,10.1781442 L6.72108298,14.8481555 C6.72108298,15.2154198 6.42354835,15.5131498 6.05605735,15.5131498 L1.38610861,15.5131498 C1.01881125,15.5131498 0.721082981,15.2155959 0.721082981,14.8481555 L0.721082981,10.1781442 L0.721082981,10.1781266 Z" id="形状" fill="#3599FE"></path>
                <path d="M11.0851552,1.17189562 C11.3142568,0.942779117 11.685584,0.942623815 11.9148565,1.17189562 L14.828168,4.08512138 C15.057223,4.31423789 15.0573317,4.68562622 14.828168,4.91483591 L11.9148565,7.82804614 C11.6857549,8.05727136 11.3144121,8.05736454 11.0851552,7.82804614 L8.17189028,4.91485144 C7.94278867,4.68573494 7.94261783,4.31436213 8.17189028,4.08513691 L11.0851552,1.17189562 Z" id="路径" fill="#CAE4FF"></path>
            </g>
        </g>
    </g>
</svg>