<?xml version="1.0" encoding="UTF-8"?>
<svg width="46px" height="46px" viewBox="0 0 46 46" version="1.1" xmlns="http://www.w3.org/2000/svg" xmlns:xlink="http://www.w3.org/1999/xlink">
    <title>保费</title>
    <g id="2.7.0" stroke="none" stroke-width="1" fill="none" fill-rule="evenodd">
        <g id="保险数据" transform="translate(-302.000000, -595.000000)">
            <g id="保费" transform="translate(302.000000, 595.000000)">
                <circle id="椭圆形" fill="#CCF2FF" cx="23" cy="23" r="23"></circle>
                <g id="保单" transform="translate(9.000000, 9.000000)" fill-rule="nonzero">
                    <path d="M22.1223022,28 L2.87769784,28 C1.25899281,28 0,26.5669071 0,24.7251588 L0,5.27484121 C0,3.43309291 1.25899281,2 2.87769784,2 L22.1223022,2 C23.7410072,2 25,3.43309291 25,5.27484121 L25,24.7251588 C25,26.5669071 23.7410072,28 22.1223022,28" id="路径" fill="#458FFF"></path>
                    <polygon id="路径" fill="#F8FDFF" points="7 14 27 14 27 0 7 0"></polygon>
                    <path d="M17.0993151,6.30670278 L23.4657534,6.30670278 C23.7607021,6.30670278 24,6.61814489 24,7 C24,7.38185511 23.7607021,7.69329722 23.4657534,7.69329722 L17.0993151,7.69329722 C16.8043664,7.69329722 16.5650685,7.38185511 16.5650685,7 C16.5650685,6.61814489 16.8043664,6.30670278 17.0993151,6.30670278 M17.0993151,3 L23.4657534,3 C23.7607021,3 24,3.31144211 24,3.69329722 C24,4.07515234 23.7607021,4.38659445 23.4657534,4.38659445 L17.0993151,4.38659445 C16.8043664,4.38659445 16.5650685,4.07515234 16.5650685,3.69329722 C16.5650685,3.31144211 16.8043664,3 17.0993151,3 M11.5342466,9.61340555 L23.4657534,9.61340555 C23.7607021,9.61340555 24,9.92484766 24,10.3067028 C24,10.6885579 23.7607021,11 23.4657534,11 L11.5342466,11 C11.2392979,11 11,10.6885579 11,10.3067028 C11,9.92213947 11.2392979,9.61340555 11.5342466,9.61340555" id="形状" fill="#CED3DF"></path>
                    <path d="M25.2027972,12 C26.7762238,12 28,13.4099828 28,15.222031 L28,24.777969 C28,26.5900172 26.7762238,28 25.2027972,28 L3,28 C4.57342657,28 5.7972028,26.5900172 5.7972028,24.777969 L5.7972028,12 L25.2027972,12 Z" id="路径" fill="#80B3FF"></path>
                    <path d="M15,18.5 C15,19.3291016 15.6708984,20 16.5,20 C17.3291016,20 18,19.3291016 18,18.5 C18,17.6708984 17.3291016,17 16.5,17 C15.6708984,17 15,17.6708984 15,18.5" id="路径" fill="#FFFFFF"></path>
                </g>
            </g>
        </g>
    </g>
</svg>