<?xml version="1.0" encoding="UTF-8"?>
<svg width="16px" height="16px" viewBox="0 0 16 16" version="1.1" xmlns="http://www.w3.org/2000/svg" xmlns:xlink="http://www.w3.org/1999/xlink">
    <title>数据</title>
    <g id="2.7.0" stroke="none" stroke-width="1" fill="none" fill-rule="evenodd">
        <g id="保险数据2" transform="translate(-768.000000, -942.000000)" fill-rule="nonzero">
            <g id="数据" transform="translate(768.000000, 942.000000)">
                <path d="M10.5915101,1.74222327 L10.5915101,1.74222327 C10.2739827,3.45138654 11.4021268,5.09433986 13.1112865,5.41187929 C13.3010831,5.44713949 13.4937208,5.46486498 13.6867642,5.46483163 C13.8784085,5.4640494 14.0700527,5.44527601 14.2577869,5.41007597 L14.2577869,11.645966 C14.2577869,14.2703285 12.7097671,15.8222584 10.0822851,15.8222584 L4.35954566,15.8222584 C1.72658947,15.8222584 0.177787666,14.2703285 0.177787666,11.645966 L0.177787666,5.93182033 C0.177787666,3.30824853 1.72580744,1.74222327 4.35954566,1.74222327 L10.5915101,1.74222327 Z M10.6861591,6.4308756 L10.5946389,6.43713339 L10.5946389,6.43713339 C10.441785,6.4591262 10.3043555,6.54209156 10.2136964,6.66710757 L8.32853488,9.09199164 L6.18289644,7.40238967 L6.18289644,7.40238967 C5.93071427,7.20590882 5.56700229,7.25106404 5.37052315,7.50324552 C5.36829149,7.50610984 5.36608685,7.50899509 5.36390948,7.5119009 L3.05321929,10.4921653 L3.05321928,10.4921653 C2.97176418,10.5934082 2.9278236,10.7197023 2.9288283,10.8496417 L2.93119241,10.9356862 L2.93119239,10.935686 C2.96215588,11.253002 3.24449166,11.4851367 3.56180938,11.4541734 C3.73998208,11.4367873 3.90000649,11.3377243 3.99501738,11.1859982 L5.92789151,8.68600468 L8.07430338,10.3685666 L8.07430333,10.3685666 C8.32331783,10.5690453 8.68770357,10.5296987 8.88818224,10.2806841 C8.8920483,10.275882 8.89583739,10.2710185 8.89954807,10.2660954 L11.135146,7.38125614 L11.135146,7.36639374 L11.135146,7.36639372 C11.3268762,7.10944202 11.2782379,6.74639347 11.0256347,6.54897074 L11.0256347,6.54897075 C10.9031415,6.4546202 10.7476231,6.41397653 10.5946301,6.43633062 L10.6861591,6.4308756 Z" id="形状" fill="#3599FE"></path>
                <path d="M11.9111335,2.13334248 L11.9111335,2.13334277 C11.9111335,3.213367 12.7866675,4.08890442 13.8666952,4.08890442 C14.9467194,4.08890442 15.8222568,3.21337043 15.8222568,2.13334277 L15.8222568,2.13334277 C15.8222568,1.05331855 14.9467246,0.177781121 13.8666952,0.177781121 C12.786671,0.177781121 11.9111335,1.05331339 11.9111335,2.13334277 L11.9111335,2.13334248 Z" id="路径" fill="#CAE4FF"></path>
            </g>
        </g>
    </g>
</svg>