<?xml version="1.0" encoding="UTF-8"?>
<svg width="46px" height="46px" viewBox="0 0 46 46" version="1.1" xmlns="http://www.w3.org/2000/svg" xmlns:xlink="http://www.w3.org/1999/xlink">
    <title>销量</title>
    <g id="2.7.0" stroke="none" stroke-width="1" fill="none" fill-rule="evenodd">
        <g id="保险数据" transform="translate(-302.000000, -673.000000)">
            <g id="销量" transform="translate(302.000000, 673.000000)">
                <circle id="椭圆形备份" fill="#E1DFFF" cx="23" cy="23" r="23"></circle>
                <g id="楼盘-面性-0" transform="translate(10.000000, 9.000000)" fill-rule="nonzero">
                    <path d="M9,27.9993273 L9,8 L24.0201665,8 C26.2183537,8 28,9.79531161 28,12.0103589 L28,23.9896411 C28,26.2046884 26.2183537,28 24.0201665,28 L9,28 L9,27.9993273 Z" id="路径" fill="#BDA6FF"></path>
                    <path d="M21,28 L4.12843147,28 C1.8482879,28 0,26.1622743 0,23.8951607 L0,4.10483929 C0,1.83772575 1.8482879,0 4.12843147,0 L16.8708895,0 C19.1510331,0 20.999321,1.83772575 20.999321,4.10483929 L20.999321,28 L21,28 Z" id="路径" fill="#957BFF"></path>
                    <path d="M14.7221786,12.5789783 L7.27782142,12.5789783 C6.5721393,12.5789783 6,12.0016148 6,11.2894891 C6,10.5773635 6.5721393,10 7.27782142,10 L14.7221786,10 C15.4278607,10 16,10.5773635 16,11.2894891 C16,12.0016148 15.4278607,12.5789783 14.7221786,12.5789783 Z M14.7221786,19 L7.27782142,19 C6.5721393,19 6,18.4226365 6,17.7105109 C6,16.9983852 6.5721393,16.4210217 7.27782142,16.4210217 L14.7221786,16.4210217 C15.4278607,16.4210217 16,16.9983852 16,17.7105109 C16,18.4226365 15.4278607,19 14.7221786,19 Z" id="形状" fill="#FFFFFF"></path>
                </g>
            </g>
        </g>
    </g>
</svg>