<?xml version="1.0" encoding="UTF-8"?>
<svg width="46px" height="46px" viewBox="0 0 46 46" version="1.1" xmlns="http://www.w3.org/2000/svg" xmlns:xlink="http://www.w3.org/1999/xlink">
    <title>销量</title>
    <g id="2.7.0" stroke="none" stroke-width="1" fill="none" fill-rule="evenodd">
        <g id="保险数据" transform="translate(-302.000000, -751.000000)">
            <g id="销量" transform="translate(302.000000, 751.000000)">
                <circle id="椭圆形备份-2" fill="#FFDFDF" cx="23" cy="23" r="23"></circle>
                <g id="消息推送" transform="translate(10.000000, 7.000000)" fill-rule="nonzero">
                    <path d="M0.0905886851,12.1516667 C2.84776507,6.71749997 7.48423549,4 14,4 C20.5157645,4 25.1522349,6.71666667 27.9094113,12.1516667 C27.9690815,12.2695246 28,12.4000754 28,12.5325 L28,25.6666667 C28,27.5076158 26.5251729,29 24.705882,29 L3.29411797,29 C1.47482709,29 0,27.5076158 0,25.6666667 L0,12.5325 C0,12.4000754 0.0309184682,12.2695246 0.0905886851,12.1516667 Z" id="路径" fill="#E63019"></path>
                    <path d="M5.2857143,0 L18.4285714,0 C20.1714226,0 21.8428912,0.698365326 23.0752731,1.9414636 C24.307655,3.18456188 25,4.87056497 25,6.62857142 L25,25.6857143 C25,27.5161437 23.5289356,29 21.7142857,29 L5.2857143,29 C3.4710644,29 2,27.5161437 2,25.6857143 L2,3.31428573 C2,1.48385626 3.4710644,0 5.2857143,0 Z" id="路径" fill="#FF756E"></path>
                    <path d="M0,19 L13.4251765,24.0608333 C13.7959533,24.2005606 14.2040467,24.2005606 14.5748235,24.0608333 L28,19 L28,25.6666667 C28,27.5076158 26.5251733,29 24.7058824,29 L3.29411763,29 C1.47482669,29 0,27.5076158 0,25.6666667 L0,19 Z" id="路径" fill="#FF3E4C"></path>
                    <path d="M18.1666667,5 C18.626904,5 19,5.38375593 19,5.85714286 L19,16.1428571 C19,16.6162441 18.626904,17 18.1666667,17 L9.83333334,17 C9.37309604,17 9,16.6162441 9,16.1428571 L9,5.85714286 C9,5.38375593 9.37309604,5 9.83333334,5 L18.1666667,5 Z M16.5,11 L11.5,11 C11.0397627,11 10.6666666,11.3837559 10.6666666,11.8571429 C10.6666666,12.3305298 11.0397627,12.7142857 11.5,12.7142857 L16.5,12.7142857 C16.9602373,12.7142857 17.3333334,12.3305298 17.3333334,11.8571429 C17.3333334,11.3837559 16.9602373,11 16.5,11 Z M13.1666666,7.57142855 L11.5,7.57142855 C11.0397627,7.57142855 10.6666666,7.95518448 10.6666666,8.42857141 C10.6666666,8.90195834 11.0397627,9.28571427 11.5,9.28571427 L13.1666666,9.28571427 C13.626904,9.28571427 14,8.90195834 14,8.42857141 C14,7.95518448 13.626904,7.57142855 13.1666666,7.57142855 Z" id="形状" fill-opacity="0.95" fill="#FFFFFF"></path>
                </g>
            </g>
        </g>
    </g>
</svg>