<?xml version="1.0" encoding="UTF-8"?>
<svg width="16px" height="16px" viewBox="0 0 16 16" version="1.1" xmlns="http://www.w3.org/2000/svg" xmlns:xlink="http://www.w3.org/1999/xlink">
    <title>扫码</title>
    <g id="健康管理系用1.9.0" stroke="none" stroke-width="1" fill="none" fill-rule="evenodd">
        <g id="工作流" transform="translate(-1080.000000, -171.000000)" fill-rule="nonzero">
            <g id="扫码" transform="translate(1080.000000, 171.000000)">
                <path d="M3,4.14285714 L3,11.8571429 C3,12.4857143 3.51428571,13 4.14285714,13 L11.8571429,13 C12.4857143,13 13,12.4857143 13,11.8571429 L13,4.14285714 C13,3.51428571 12.4857143,3 11.8571429,3 L4.14285714,3 C3.51428571,3 3,3.51428571 3,4.14285714 Z M4,7.45 C4,7.2 4.32,7 4.72,7 L11.28,7 C11.68,7 12,7.2 12,7.45 L12,7.55 C12,7.8 11.68,8 11.28,8 L4.72,8 C4.32,8 4,7.8 4,7.55 L4,7.45 Z" id="形状" fill="#3599FE"></path>
                <path d="M0.64,4.8 C0.992,4.8 1.28,4.512 1.28,4.16 L1.28,1.28 L4.16,1.28 C4.512,1.28 4.8,0.992 4.8,0.64 C4.8,0.288 4.512,0 4.16,0 L0.64,0 C0.288,0 0,0.288 0,0.64 L0,4.16 C0,4.512 0.288,4.8 0.64,4.8 Z M15.36,0 L11.84,0 C11.488,0 11.2,0.288 11.2,0.64 C11.2,0.992 11.488,1.28 11.84,1.28 L14.72,1.28 L14.72,4.16 C14.72,4.512 15.008,4.8 15.36,4.8 C15.712,4.8 16,4.512 16,4.16 L16,0.64 C16,0.288 15.712,0 15.36,0 Z M15.36,11.2 C15.008,11.2 14.72,11.488 14.72,11.84 L14.72,14.72 L11.84,14.72 C11.488,14.72 11.2,15.008 11.2,15.36 C11.2,15.712 11.488,16 11.84,16 L15.36,16 C15.712,16 16,15.712 16,15.36 L16,11.84 C16,11.488 15.712,11.2 15.36,11.2 Z M4.16,14.72 L1.28,14.72 L1.28,11.84 C1.28,11.488 0.992,11.2 0.64,11.2 C0.288,11.2 0,11.488 0,11.84 L0,15.36 C0,15.712 0.288,16 0.64,16 L4.16,16 C4.512,16 4.8,15.712 4.8,15.36 C4.8,15.008 4.512,14.72 4.16,14.72 Z" id="形状" fill="#CAE4FF"></path>
            </g>
        </g>
    </g>
</svg>