<?xml version="1.0" encoding="UTF-8"?>
<svg width="40px" height="40px" viewBox="0 0 40 40" version="1.1" xmlns="http://www.w3.org/2000/svg" xmlns:xlink="http://www.w3.org/1999/xlink">
    <title>资源中心</title>
    <g id="健康管理系用1.9.0" stroke="none" stroke-width="1" fill="none" fill-rule="evenodd">
        <g id="工作流" transform="translate(-321.000000, -611.000000)" fill-rule="nonzero">
            <g id="资源中心" transform="translate(321.000000, 611.000000)">
                <path d="M8.57142855,-2.84217094e-15 L31.4285714,-2.84217094e-15 C37.1428571,-2.84217094e-15 40,2.85714285 40,8.57142855 L40,31.4285714 C40,37.1428571 37.1428571,40 31.4285714,40 L8.57142855,40 C2.85714285,40 -2.84217094e-15,37.1428571 -2.84217094e-15,31.4285714 L-2.84217094e-15,8.57142855 C-2.84217094e-15,2.85714285 2.85714285,-2.84217094e-15 8.57142855,-2.84217094e-15 Z" id="路径" fill="#3599FE"></path>
                <path d="M19.6428571,9.72357145 L11.7821429,13.9864286 C11.5645931,14.1043003 11.4290761,14.3318556 11.4290761,14.5792857 C11.4290761,14.8267158 11.5645931,15.0542711 11.7821429,15.1721429 L20.03,19.6428571 L28.2178571,15.2042857 C28.4354069,15.086414 28.5709239,14.8588586 28.5709239,14.6114286 C28.5709239,14.3639985 28.4354069,14.1364432 28.2178571,14.0185714 L20.2942857,9.725 C20.0919223,9.61565135 19.8480777,9.61565135 19.6457143,9.725 L19.6428571,9.72357145 Z M10.3521429,25.9521429 L18.2842857,30.2735714 C18.4938444,30.3878928 18.748116,30.3834277 18.9535317,30.2618193 C19.1589473,30.1402109 19.285156,29.9194273 19.2857143,29.6807143 L19.2857143,20.6678571 L11.0014286,16.1542857 C10.7916464,16.0398433 10.5370753,16.0444485 10.3315695,16.1664034 C10.1260638,16.2883583 10,16.5096036 10,16.7485714 L10,25.3578571 C10,25.6057143 10.1342857,25.8342857 10.3521429,25.9535714 L10.3521429,25.9521429 L10.3521429,25.9521429 Z" id="形状" fill="#FFFFFF"></path>
                <path d="M20.7142857,20.69 L20.7142857,29.6757143 C20.7142857,29.9164286 20.8392857,30.1385714 21.045,30.2614286 C21.2500661,30.3839714 21.5046645,30.3888623 21.7142857,30.2742857 L29.6464286,25.9328571 C29.8650783,25.8132101 30.0007488,25.5835297 30.0000031,25.3342857 L30.0000031,16.7514286 C30.0004002,16.5116309 29.8744681,16.2893499 29.6685714,16.1664286 C29.4630708,16.0440618 29.2081259,16.039713 28.9985714,16.155 L20.7142857,20.69 Z" id="路径" fill="#B7D6FF"></path>
            </g>
        </g>
    </g>
</svg>