<?xml version="1.0" encoding="UTF-8"?>
<svg width="40px" height="40px" viewBox="0 0 40 40" version="1.1" xmlns="http://www.w3.org/2000/svg" xmlns:xlink="http://www.w3.org/1999/xlink">
    <title>考勤</title>
    <g id="健康管理系用1.9.0" stroke="none" stroke-width="1" fill="none" fill-rule="evenodd">
        <g id="工作流" transform="translate(-464.000000, -611.000000)" fill-rule="nonzero">
            <g id="考勤" transform="translate(464.000000, 611.000000)">
                <path d="M8.57142855,0 L31.4285714,0 C37.1428571,0 40,2.85714285 40,8.57142855 L40,31.4285714 C40,37.1428571 37.1428571,40 31.4285714,40 L8.57142855,40 C2.85714285,40 0,37.1428571 0,31.4285714 L0,8.57142855 C0,2.85714285 2.85714285,0 8.57142855,0 Z" id="路径" fill="#18C4BD"></path>
                <path d="M30,18.6666667 L30,28.5833333 C30,29.3657367 29.3604068,30 28.5714286,30 L11.4285714,30 C11.0496907,30 10.686328,29.8507445 10.4184189,29.5850679 C10.1505098,29.3193914 10,28.9590567 10,28.5833333 L10,18.6666667 L30,18.6666667 Z M24.495,20.290875 L19.195,25.5467083 L15.3964286,23.0356667 C15.1841107,22.8952166 14.9123621,22.8777618 14.6835478,22.9898771 C14.4547334,23.1019925 14.3036157,23.326645 14.2871192,23.5792104 C14.2706227,23.8317758 14.3912536,24.0738833 14.6035714,24.2143333 L18.8892857,27.0476667 C19.1726261,27.2350261 19.5499433,27.1979646 19.7907143,26.959125 L25.505,21.2924583 C25.7756949,21.0145233 25.7718237,20.5727313 25.4962994,20.2995031 C25.2207751,20.0262748 24.7752706,20.0224359 24.495,20.290875 L24.495,20.290875 Z M12.8571429,13 L12.8571429,13.7083333 C12.8560253,14.8584502 13.7778337,15.8007154 14.9371165,15.8344658 C16.0963993,15.8682162 17.0723627,14.9812011 17.1392857,13.833 L17.1428571,13.7083333 L17.1428571,13 L22.8571429,13 L22.8571429,13.7083333 C22.8570797,14.8335616 23.741556,15.7637782 24.8742857,15.8297916 L25,15.8333333 C26.134684,15.833396 27.0727176,14.9562902 27.1392857,13.833 L27.1428571,13.7083333 L27.1428571,13 L28.5714286,13 C29.3604068,13 30,13.6342633 30,14.4166666 L30,17.25 L10,17.25 L10,14.4166666 C10,13.6342633 10.6395932,13 11.4285714,13 L12.8571429,13 Z" id="形状" fill="#FFFFFF"></path>
                <path d="M15.5,11 L15.5,11 C15.8333333,11 16,11.2 16,11.6 L16,13.4 C16,13.8 15.8333333,14 15.5,14 L15.5,14 C15.1666667,14 15,13.8 15,13.4 L15,11.6 C15,11.2 15.1666667,11 15.5,11 Z" id="路径" fill="#FFFFFF"></path>
                <path d="M24.5,11 L24.5,11 C24.8333333,11 25,11.2 25,11.6 L25,13.4 C25,13.8 24.8333333,14 24.5,14 L24.5,14 C24.1666667,14 24,13.8 24,13.4 L24,11.6 C24,11.2 24.1666667,11 24.5,11 Z" id="路径" fill="#FFFFFF"></path>
            </g>
        </g>
    </g>
</svg>