<?xml version="1.0" encoding="UTF-8"?>
<svg width="40px" height="40px" viewBox="0 0 40 40" version="1.1" xmlns="http://www.w3.org/2000/svg" xmlns:xlink="http://www.w3.org/1999/xlink">
    <title>作业</title>
    <g id="健康管理系用1.9.0" stroke="none" stroke-width="1" fill="none" fill-rule="evenodd">
        <g id="工作流" transform="translate(-608.000000, -611.000000)" fill-rule="nonzero">
            <g id="作业" transform="translate(608.000000, 611.000000)">
                <path d="M8.57142855,0 L31.4285714,0 C37.1428571,0 40,2.85714285 40,8.57142855 L40,31.4285714 C40,37.1428571 37.1428571,40 31.4285714,40 L8.57142855,40 C2.85714285,40 0,37.1428571 0,31.4285714 L0,8.57142855 C0,2.85714285 2.85714285,0 8.57142855,0 Z" id="路径" fill="#FFA900"></path>
                <path d="M22.7692307,9 L22.7692307,13.3448276 C22.7692308,14.1446883 23.3547046,14.7931034 24.0769231,14.7931034 L28,14.7931034 L28,28.5517242 C28,29.3515848 27.4145262,30 26.6923077,30 L12.3076923,30 C11.5854738,30 11,29.3515848 11,28.5517242 L11,10.4482758 C11,9.64841517 11.5854738,9 12.3076923,9 L22.7692307,9 L22.7692307,9 Z M24.930517,24.2727273 L14.6759319,24.2727273 C14.3368297,24.2732872 14.0567054,24.6671552 14.0368324,25.1713314 C14.0169595,25.6755075 14.2642163,26.1154862 14.6009452,26.1751364 L14.6759319,26.1818182 L24.930517,26.1818182 C25.2844827,26.1818182 25.5714286,25.7544536 25.5714286,25.2272727 C25.5714286,24.7000918 25.2844827,24.2727273 24.930517,24.2727273 L24.930517,24.2727273 Z M24.930517,20.4545455 L14.6759319,20.4545455 C14.3368297,20.4551054 14.0567054,20.8489734 14.0368324,21.3531496 C14.0169595,21.8573257 14.2642163,22.2973044 14.6009452,22.3569545 L14.6759319,22.3636364 L24.930517,22.3636364 C25.2844827,22.3636364 25.5714286,21.9362718 25.5714286,21.4090909 C25.5714286,20.88191 25.2844827,20.4545455 24.930517,20.4545455 L24.930517,20.4545455 Z M24.930517,16.6363636 L14.6759319,16.6363636 C14.3368297,16.6369236 14.0567054,17.0307916 14.0368324,17.5349677 C14.0169595,18.0391439 14.2642163,18.4791226 14.6009452,18.5387727 L14.6759319,18.5454545 L24.930517,18.5454545 C25.2844827,18.5454545 25.5714286,18.11809 25.5714286,17.5909091 C25.5714286,17.0637282 25.2844827,16.6363636 24.930517,16.6363636 L24.930517,16.6363636 Z" id="形状" fill="#FFFFFF"></path>
                <path d="M25,9 L30,14 L25.8838607,14 C25.6494462,14 25.4246328,13.9068792 25.2588768,13.7411232 C25.0931208,13.5753671 25,13.3505537 25,13.1161393 L25,9 L25,9 Z" id="路径" fill="#FFEEE0"></path>
            </g>
        </g>
    </g>
</svg>