<?xml version="1.0" encoding="UTF-8"?>
<svg width="40px" height="40px" viewBox="0 0 40 40" version="1.1" xmlns="http://www.w3.org/2000/svg" xmlns:xlink="http://www.w3.org/1999/xlink">
    <title>通知</title>
    <g id="健康管理系用1.9.0" stroke="none" stroke-width="1" fill="none" fill-rule="evenodd">
        <g id="工作流" transform="translate(-753.000000, -611.000000)" fill-rule="nonzero">
            <g id="通知" transform="translate(753.000000, 611.000000)">
                <path d="M8.57142855,0 L31.4285714,0 C37.1428571,0 40,2.85714285 40,8.57142855 L40,31.4285714 C40,37.1428571 37.1428571,40 31.4285714,40 L8.57142855,40 C2.85714285,40 0,37.1428571 0,31.4285714 L0,8.57142855 C0,2.85714285 2.85714285,0 8.57142855,0 Z" id="路径" fill="#F64E60"></path>
                <path d="M23.4230769,28.5714286 C23.8266696,28.5714286 24.1538462,28.8912252 24.1538462,29.2857143 C24.1538462,29.6802034 23.8266696,30 23.4230769,30 L17.5769231,30 C17.1733304,30 16.8461538,29.6802034 16.8461538,29.2857143 C16.8461538,28.8912252 17.1733304,28.5714286 17.5769231,28.5714286 L23.4230769,28.5714286 L23.4230769,28.5714286 Z M20.5,10 C21.0437063,10 21.542475,10.2949967 21.7947299,10.7657796 C22.0469847,11.2365626 22.0110253,11.805302 21.7013846,12.2421429 C24.9322601,12.7842726 27.364962,15.4155517 27.5906539,18.6121429 L27.6966154,20.215 L27.7368077,20.8992857 L27.7762692,21.69 L27.7952692,22.1928571 L27.8055,22.6171429 L27.8076923,22.8571429 C27.8076923,23.6435714 27.9553077,24.3585714 28.2512692,25 L29.2692308,25 C29.6728235,25 30,25.3197966 30,25.7142857 C30,26.1087748 29.6728235,26.4285714 29.2692308,26.4285714 L11.7307692,26.4285714 C11.3271765,26.4285714 11,26.1087748 11,25.7142857 C11,25.3197966 11.3271765,25 11.7307692,25 L12.7487308,25 C13.0446923,24.3585714 13.1923077,23.6435714 13.1923077,22.8571429 L13.2916923,20.9885714 L13.3603846,19.7957143 L13.4298077,18.6457143 C13.6296456,15.4387458 16.0599564,12.787316 19.2993461,12.2421429 C18.9897801,11.8054074 18.9537577,11.2368268 19.2058313,10.7660959 C19.4579048,10.2953649 19.956425,10.000261 20.5,10 Z" id="形状" fill="#FFFFFF"></path>
            </g>
        </g>
    </g>
</svg>