<?xml version="1.0" encoding="UTF-8"?>
<svg width="40px" height="40px" viewBox="0 0 40 40" version="1.1" xmlns="http://www.w3.org/2000/svg" xmlns:xlink="http://www.w3.org/1999/xlink">
    <title>我的讲义</title>
    <g id="健康管理系用1.9.0" stroke="none" stroke-width="1" fill="none" fill-rule="evenodd">
        <g id="工作流" transform="translate(-321.000000, -709.000000)" fill-rule="nonzero">
            <g id="我的讲义" transform="translate(321.000000, 709.000000)">
                <path d="M8.57142855,0 L31.4285714,0 C37.1428571,0 40,2.85714285 40,8.57142855 L40,31.4285714 C40,37.1428571 37.1428571,40 31.4285714,40 L8.57142855,40 C2.85714285,40 0,37.1428571 0,31.4285714 L0,8.57142855 C0,2.85714285 2.85714285,0 8.57142855,0 Z" id="路径" fill="#AF5FFF"></path>
                <path d="M26.5833334,10 C27.3657367,10 28,10.6395932 28,11.4285714 L28,28.5714286 C28,29.3604068 27.3657367,30 26.5833334,30 L12.4166666,30 C11.6342633,30 11,29.3604068 11,28.5714286 L11,11.4285714 C11,10.6395932 11.6342633,10 12.4166666,10 L26.5833334,10 Z M24.4583333,25.7142857 L14.5416667,25.7142857 C14.150465,25.7142857 13.8333333,26.0340823 13.8333333,26.4285714 C13.8333333,26.8230605 14.150465,27.1428571 14.5416667,27.1428571 L24.4583333,27.1428571 C24.849535,27.1428571 25.1666667,26.8230605 25.1666667,26.4285714 C25.1666667,26.0340823 24.849535,25.7142857 24.4583333,25.7142857 Z M24.4583333,22.8571429 L14.5416667,22.8571429 C14.150465,22.8571429 13.8333333,23.1769395 13.8333333,23.5714286 C13.8333333,23.9659177 14.150465,24.2857143 14.5416667,24.2857143 L24.4583333,24.2857143 C24.849535,24.2857143 25.1666667,23.9659177 25.1666667,23.5714286 C25.1666667,23.1769395 24.849535,22.8571429 24.4583333,22.8571429 L24.4583333,22.8571429 Z M19.8137917,13.1164286 C19.6452933,13.0324225 19.4505925,13.019397 19.2725658,13.0802204 C19.0945391,13.1410437 18.9477863,13.2707279 18.864625,13.4407143 L18.0429583,15.12 L16.2048333,15.39 C15.9382523,15.429285 15.716851,15.6176685 15.6335963,15.8760477 C15.5503416,16.1344269 15.6196492,16.4180633 15.8124166,16.6078571 L17.1419583,17.915 L16.8281667,19.7614286 C16.7826359,20.0293926 16.8919041,20.3001875 17.1100331,20.459967 C17.3281622,20.6197465 17.617327,20.6408036 17.8559583,20.5142857 L19.170625,19.8178571 C19.3768504,19.7086292 19.6231496,19.7086292 19.829375,19.8178571 L21.1440417,20.5142857 C21.382673,20.6408036 21.6718378,20.6197465 21.8899669,20.459967 C22.1080959,20.3001875 22.2173641,20.0293926 22.1718333,19.7614286 L21.8580417,17.9157143 L23.1875834,16.6085714 C23.3807816,16.4188271 23.4503686,16.1349143 23.3670734,15.8762576 C23.2837782,15.617601 23.062054,15.4290824 22.7951667,15.39 L20.9570417,15.12 L20.135375,13.4407143 C20.0664423,13.2999128 19.9534198,13.1859405 19.8137917,13.1164286 L19.8137917,13.1164286 Z" id="形状" fill="#FFFFFF"></path>
            </g>
        </g>
    </g>
</svg>