<?xml version="1.0" encoding="UTF-8"?>
<svg width="40px" height="40px" viewBox="0 0 40 40" version="1.1" xmlns="http://www.w3.org/2000/svg" xmlns:xlink="http://www.w3.org/1999/xlink">
    <title>档案管理</title>
    <g id="健康管理系用1.9.0" stroke="none" stroke-width="1" fill="none" fill-rule="evenodd">
        <g id="工作流" transform="translate(-464.000000, -709.000000)">
            <g id="档案管理" transform="translate(464.000000, 709.000000)">
                <path d="M8.57142855,0 L31.4285714,0 C37.1428571,0 40,2.85714285 40,8.57142855 L40,31.4285714 C40,37.1428571 37.1428571,40 31.4285714,40 L8.57142855,40 C2.85714285,40 0,37.1428571 0,31.4285714 L0,8.57142855 C0,2.85714285 2.85714285,0 8.57142855,0 Z" id="路径" fill="#F64E60" fill-rule="nonzero"></path>
                <path d="M23.9164286,9.0000004 C25.065,8.99927003 25.9971429,9.98726996 26,11.209116 L26,25.790884 C25.9971429,27.01273 25.0642857,28.0000004 23.9164286,28.0000004 L13.0835714,28.0000004 C11.935,28.00073 11.0028571,27.01273 11,25.790884 L11,11.209116 C11.0028571,9.98726996 11.9357143,9.0000004 13.0835714,9.0000004 L23.9164286,9.0000004 Z M20.3334506,22.1538458 L14.237978,22.1538458 C14.0275165,22.1538458 13.8571429,22.5467074 13.8571429,23.0307689 C13.8571429,23.5148304 14.0275165,23.9076919 14.237978,23.9076919 L20.3334506,23.9076919 C20.5439121,23.9076919 20.7142857,23.5148304 20.7142857,23.0307689 C20.7142857,22.5467074 20.5439121,22.1538458 20.3334506,22.1538458 Z M22.6271429,17.7692308 L14.3728571,17.7692308 C14.0878571,17.7692308 13.8571429,18.1620923 13.8571429,18.6461539 C13.8571429,19.1302154 14.0878572,19.5230769 14.3728571,19.5230769 L22.6271429,19.5230769 C22.9121429,19.5230769 23.1428571,19.1302154 23.1428571,18.6461539 C23.1428571,18.1620923 22.9121428,17.7692308 22.6271429,17.7692308 Z M22.6271429,13.238462 L14.3728571,13.238462 C14.0878571,13.238462 13.8571429,13.6313235 13.8571429,14.115385 C13.8571429,14.5994465 14.0878572,14.992308 14.3728571,14.992308 L22.6271429,14.992308 C22.9121429,14.992308 23.1428571,14.5994465 23.1428571,14.115385 C23.1428571,13.6313235 22.9121428,13.238462 22.6271429,13.238462 Z" id="形状" fill="#FFFFFF" fill-rule="nonzero"></path>
                <path d="M29,9 L29,28 C29,29.6568542 27.6568542,31 26,31 L10,31 L10,31" id="路径-3" stroke="#FFFFFF" stroke-width="2" stroke-linecap="round"></path>
            </g>
        </g>
    </g>
</svg>