<?xml version="1.0" encoding="UTF-8"?>
<svg width="40px" height="40px" viewBox="0 0 40 40" version="1.1" xmlns="http://www.w3.org/2000/svg" xmlns:xlink="http://www.w3.org/1999/xlink">
    <title>记忆大师</title>
    <g id="健康管理系用1.9.0" stroke="none" stroke-width="1" fill="none" fill-rule="evenodd">
        <g id="工作流" transform="translate(-608.000000, -709.000000)" fill-rule="nonzero">
            <g id="记忆大师" transform="translate(608.000000, 709.000000)">
                <path d="M8.57142855,0 L31.4285714,0 C37.1428571,0 40,2.85714285 40,8.57142855 L40,31.4285714 C40,37.1428571 37.1428571,40 31.4285714,40 L8.57142855,40 C2.85714285,40 0,37.1428571 0,31.4285714 L0,8.57142855 C0,2.85714285 2.85714285,0 8.57142855,0 Z" id="路径" fill="#3599FE"></path>
                <path d="M16.7057507,25.9326916 L23.2930502,25.9326916 L23.2930502,27.1898214 C23.2930502,27.5076753 23.1123058,27.8005294 22.8191656,27.9583849 L21.646605,28.5883783 C20.625986,29.1372072 19.3728149,29.1372072 18.3521959,28.5883783 L17.1796353,27.9583849 C16.8866039,27.8006263 16.7057507,27.5073874 16.7057507,27.1898214 L16.7057507,25.9326916 L16.7057507,25.9326916 Z M15.7640569,23.2777193 L24.234744,23.2777193 C24.7397097,23.2968051 25.1386257,23.6873839 25.1386257,24.16271 C25.1386257,24.6380362 24.7397097,25.028615 24.234744,25.0477008 L15.7640569,25.0477008 C15.2590912,25.028615 14.8601752,24.6380362 14.8601752,24.16271 C14.8601752,23.6873839 15.2590912,23.2968051 15.7640569,23.2777193 L15.7640569,23.2777193 Z M19.9994005,10.0000001 C24.4177667,9.99928594 27.9992406,13.3671081 28,17.5227791 C28,19.0613346 27.4987759,20.5634618 26.5639171,21.8255915 L26.3892481,22.0505892 L13.4941194,21.9027336 C11.7802493,19.6500524 11.5209645,16.6938518 12.8191769,14.2074652 C14.1173892,11.7210785 16.7631188,10.1066671 19.7062603,10.0050002 L19.9994005,10.0000001 Z M21.9913865,11.4856991 L21.9488584,11.5428413 C21.8320834,11.7260891 21.8710529,11.9616269 22.0415089,12.1028355 L22.1098576,12.1499779 L22.4455259,12.3392616 L22.6262703,12.4485462 C23.5793344,13.0601022 24.1729162,14.0561428 24.2301874,15.1399468 L24.234744,15.3113735 C24.2448901,15.548845 24.4525245,15.7364441 24.7052111,15.7364441 C24.9578978,15.7364441 25.1655321,15.548845 25.1756783,15.3113735 C25.1755743,13.8566046 24.4027797,12.4980531 23.1161029,11.6906969 L22.9300425,11.5799838 L22.5943742,11.3907001 L22.5184312,11.3549861 C22.356109,11.2977456 22.1734748,11.3290274 22.0430277,11.4364138 L21.9913865,11.4856991 L21.9913865,11.4856991 Z" id="形状" fill="#FFFFFF"></path>
            </g>
        </g>
    </g>
</svg>