<?xml version="1.0" encoding="UTF-8"?>
<svg width="40px" height="40px" viewBox="0 0 40 40" version="1.1" xmlns="http://www.w3.org/2000/svg" xmlns:xlink="http://www.w3.org/1999/xlink">
    <title>杂费</title>
    <g id="健康管理系用1.9.0" stroke="none" stroke-width="1" fill="none" fill-rule="evenodd">
        <g id="工作流" transform="translate(-753.000000, -709.000000)" fill-rule="nonzero">
            <g id="杂费" transform="translate(753.000000, 709.000000)">
                <path d="M8.57142855,0 L31.4285714,0 C37.1428571,0 40,2.85714285 40,8.57142855 L40,31.4285714 C40,37.1428571 37.1428571,40 31.4285714,40 L8.57142855,40 C2.85714285,40 0,37.1428571 0,31.4285714 L0,8.57142855 C0,2.85714285 2.85714285,0 8.57142855,0 Z" id="路径" fill="#18C4BD"></path>
                <path d="M29.5957743,13.3018378 L21.0145498,8.34899132 C20.2351976,7.88366956 19.2985832,7.88366956 18.6737097,8.34899132 L10.0924852,13.3018378 C9.40449068,13.8133758 8.99967155,14.6166591 9.0000002,15.4696574 L9.0000002,25.5313782 C9.0000002,26.4592602 9.4690034,27.233876 10.2483556,27.54317 L18.8295802,32.6520442 C19.6089324,33.1159853 20.5455467,33.1159853 21.1704202,32.6520442 L29.7516448,27.54317 C30.5309969,27.079229 31.0000002,26.3046132 31.0000002,25.5313782 L31.0000002,15.4696574 C30.8427379,14.5403947 30.3751265,13.7657789 29.5943826,13.3018378 L29.5957743,13.3018378 Z M14.4610327,21.9703547 C13.52581,21.9703547 12.9023283,21.1971197 12.9023283,20.4225039 C12.9023283,19.4932411 13.6816805,18.8746531 14.4610327,18.8746531 C15.2403849,18.8746531 16.0211288,19.6478881 16.0211288,20.4225039 C16.0211288,21.1957389 15.2417767,21.9703547 14.4624244,21.9703547 L14.4610327,21.9703547 Z M19.922065,21.9703547 C18.9854507,21.9703547 18.3619688,21.1971197 18.3619688,20.4225039 C18.3619688,19.4932411 19.141321,18.8746531 19.922065,18.8746531 C20.8586793,18.8746531 21.4821611,19.6478881 21.4821611,20.4225039 C21.4821611,21.1957389 20.7028089,21.9703547 19.922065,21.9703547 L19.922065,21.9703547 Z M25.3830973,21.9703547 C24.4464829,21.9703547 23.8230011,21.1971197 23.8230011,20.4225039 C23.8230011,19.4932411 24.6023533,18.8746531 25.3817056,18.8746531 C26.3183199,18.8746531 26.9431934,19.6478881 26.9431934,20.4225039 C26.9431934,21.1957389 26.1638412,21.9703547 25.3830973,21.9703547 Z" id="形状" fill="#FFFFFF"></path>
            </g>
        </g>
    </g>
</svg>