<?xml version="1.0" encoding="UTF-8"?>
<svg width="15px" height="15px" viewBox="0 0 15 15" version="1.1" xmlns="http://www.w3.org/2000/svg" xmlns:xlink="http://www.w3.org/1999/xlink">
    <title>更多</title>
    <g id="健康管理系用1.9.0" stroke="none" stroke-width="1" fill="none" fill-rule="evenodd">
        <g id="工作流" transform="translate(-1303.000000, -572.000000)" fill="#989AB3" fill-rule="nonzero">
            <g id="更多" transform="translate(1303.000000, 572.000000)">
                <path d="M7.5,0 C3.359375,0 0,3.359375 0,7.5 C0,11.640625 3.359375,15 7.5,15 C11.640625,15 15,11.640625 15,7.5 C15,3.359375 11.640625,0 7.5,0 Z M10.9750061,8.20625305 L7.44062805,11.7437592 C7.05312805,12.1312592 6.41562805,12.1312592 6.02500305,11.7437592 C5.63750305,11.3562592 5.63750305,10.7187592 6.02500305,10.3281342 L8.85312805,7.50000916 L6.02500305,4.67188416 C5.63750305,4.28438416 5.63750305,3.64688416 6.02500305,3.25625916 C6.41250305,2.86875916 7.05000305,2.86875916 7.44062805,3.25625916 L10.9750061,6.79063721 C11.3625061,7.18126221 11.3625061,7.81876221 10.9750061,8.20626221 L10.9750061,8.20625305 Z" id="形状"></path>
            </g>
        </g>
    </g>
</svg>