<?xml version="1.0" encoding="UTF-8"?>
<svg width="22px" height="22px" viewBox="0 0 22 22" version="1.1" xmlns="http://www.w3.org/2000/svg" xmlns:xlink="http://www.w3.org/1999/xlink">
    <title>更多</title>
    <g id="健康管理系用1.9.0" stroke="none" stroke-width="1" fill="none" fill-rule="evenodd">
        <g id="工作流" transform="translate(-1259.000000, -568.000000)" fill-rule="nonzero">
            <g id="更多" transform="translate(1259.000000, 568.000000)">
                <rect id="矩形" fill="#F3F3F3" x="0" y="0" width="22" height="22" rx="4"></rect>
                <path d="M10.5,4 C6.359375,4 3,7.359375 3,11.5 C3,15.640625 6.359375,19 10.5,19 C14.640625,19 18,15.640625 18,11.5 C18,7.359375 14.640625,4 10.5,4 Z M13.9750061,12.2062531 L10.4406281,15.7437592 C10.0531281,16.1312592 9.41562805,16.1312592 9.02500305,15.7437592 C8.63750305,15.3562592 8.63750305,14.7187592 9.02500305,14.3281342 L11.8531281,11.5000092 L9.02500305,8.67188416 C8.63750305,8.28438416 8.63750305,7.64688416 9.02500305,7.25625916 C9.41250305,6.86875916 10.0500031,6.86875916 10.4406281,7.25625916 L13.9750061,10.7906372 C14.3625061,11.1812622 14.3625061,11.8187622 13.9750061,12.2062622 L13.9750061,12.2062531 Z" id="形状" fill="#3599FE"></path>
            </g>
        </g>
    </g>
</svg>