<?xml version="1.0" encoding="UTF-8"?>
<svg width="16px" height="16px" viewBox="0 0 16 16" version="1.1" xmlns="http://www.w3.org/2000/svg" xmlns:xlink="http://www.w3.org/1999/xlink">
    <title>通知</title>
    <g id="健康管理系用1.9.0" stroke="none" stroke-width="1" fill="none" fill-rule="evenodd">
        <g id="工作流" transform="translate(-893.000000, -572.000000)" fill-rule="nonzero">
            <g id="通知" transform="translate(893.000000, 572.000000)">
                <path d="M8.64253414,1.06620492 C8.39824012,0.950598029 8.10987514,0.988760963 7.90238046,1.16217951 L3.90154709,4.51275681 L0.710021409,4.49984949 C0.526514933,4.49984949 0.349708158,4.57280465 0.219750277,4.70357148 L0.219750231,4.70357152 C0.0884395002,4.8344153 0.0145416219,5.01263702 0.0144942337,5.19858801 L0,10.7980325 C0,10.9843584 0.0725038501,11.1628412 0.203033657,11.2941671 C0.332991539,11.426611 0.510353898,11.5001417 0.69554347,11.5001417 L3.92220174,11.5001417 L7.90296868,14.8383707 C8.0301323,14.945 8.18909499,15 8.34805768,15 L8.34805765,15 C8.45004999,15 8.55078574,14.9773579 8.64312234,14.9337698 L8.64312232,14.9337698 C8.88750948,14.8186554 9.0436011,14.5716462 9.0436011,14.300127 L9.0436011,1.69983134 C9.0436011,1.42876106 8.88743268,1.18181186 8.64256673,1.06618853 L8.64253414,1.06620492 Z" id="形状" fill="#3599FE"></path>
                <path d="M11.3398833,4.56606324 C10.9968585,4.40274036 10.5891408,4.55147879 10.4223672,4.89494519 C10.2561492,5.23954612 10.4000621,5.65654317 10.7402926,5.82884363 C10.7843636,5.85184662 11.8262653,6.39681529 11.8262653,7.94863755 C11.8262653,9.60653009 10.8518508,10.1559711 10.8194961,10.1739427 C10.4759158,10.3468022 10.3364803,10.767729 10.5082705,11.113448 C10.6309731,11.3592627 10.875839,11.5007007 11.1318493,11.5007007 L11.1318493,11.5007007 C11.2394907,11.5007007 11.3456663,11.4755827 11.4419639,11.4271865 C11.5144677,11.3901416 13.2173196,10.5034001 13.2173196,7.948654 C13.2173196,5.4837001 11.4162926,4.60256549 11.3398833,4.56607969 L11.3398833,4.56606324 Z" id="路径" fill="#CAE4FF"></path>
                <path d="M13.5056845,2.51026335 C13.1849649,2.30317065 12.7594031,2.39745168 12.5496697,2.71960866 C12.3410639,3.04176564 12.4325393,3.47502428 12.7515759,3.68718125 C12.826874,3.73713342 14.6089294,4.95893922 14.6089294,8.0002833 C14.6089294,11.0483523 12.8993778,12.2712927 12.831335,12.3178741 C12.5111709,12.5328263 12.425284,12.9666604 12.6383509,13.2888174 C12.7722142,13.4908623 12.993092,13.6003033 13.2178751,13.6003033 C13.3500717,13.6003033 13.4844906,13.5615813 13.6032878,13.4824438 C13.700891,13.4173481 16,11.8312926 16,7.99972426 C16,4.16087188 13.6077488,2.57593451 13.5056845,2.51027979 L13.5056845,2.51026335 Z" id="路径" fill="#CAE4FF"></path>
            </g>
        </g>
    </g>
</svg>