<?xml version="1.0" encoding="UTF-8"?>
<svg width="16px" height="16px" viewBox="0 0 16 16" version="1.1" xmlns="http://www.w3.org/2000/svg" xmlns:xlink="http://www.w3.org/1999/xlink">
    <title>设 置</title>
    <g id="健康管理系用1.9.0" stroke="none" stroke-width="1" fill="none" fill-rule="evenodd">
        <g id="工作流" transform="translate(-805.000000, -571.000000)" fill="#989AB3" fill-rule="nonzero">
            <g id="设-置" transform="translate(805.000000, 571.000000)">
                <path d="M14.5892857,8 C14.5892857,7.06428571 15.1767857,6.27142857 16,5.95535714 C15.8035714,5.18392857 15.5,4.45714286 15.1035714,3.78928571 C14.2964286,4.14821429 13.3214286,4.00178571 12.6607143,3.33928571 C12,2.67857143 11.8535714,1.70178571 12.2125,0.896428571 C11.5428571,0.5 10.8160714,0.196428571 10.0446429,0 C9.72678571,0.823214286 8.93392857,1.41071429 8,1.41071429 C7.06428571,1.41071429 6.27142857,0.823214286 5.95535714,0 C5.18392857,0.196428571 4.45714286,0.5 3.78928571,0.896428571 C4.14821429,1.70357143 4.00178571,2.67857143 3.34107143,3.33928571 C2.68035714,4 1.70357143,4.14642857 0.898214286,3.78928571 C0.5,4.45714286 0.196428571,5.18392857 0,5.95535714 C0.823214286,6.27321429 1.41071429,7.06607143 1.41071429,8 C1.41071429,8.93571429 0.823214286,9.72857143 0,10.0446429 C0.196428571,10.8160714 0.5,11.5428571 0.896428571,12.2107143 C1.70357143,11.8517857 2.67857143,11.9982143 3.33928571,12.6607143 C4,13.3214286 4.14642857,14.2982143 3.7875,15.1035714 C4.45714286,15.5 5.18392857,15.8035714 5.95535714,16 C6.27321429,15.1767857 7.06607143,14.5892857 8,14.5892857 C8.93571429,14.5892857 9.72857143,15.1767857 10.0446429,16 C10.8160714,15.8035714 11.5428571,15.5 12.2107143,15.1035714 C11.8517857,14.2964286 11.9982143,13.3214286 12.6589286,12.6607143 C13.3196429,12 14.2964286,11.8535714 15.1017857,12.2107143 C15.5,11.5428571 15.8035714,10.8160714 16,10.0446429 C15.1767857,9.72857143 14.5892857,8.93571429 14.5892857,8 Z M8,10.1964286 C6.7875,10.1964286 5.80357143,9.2125 5.80357143,8 C5.80357143,6.7875 6.7875,5.80357143 8,5.80357143 C9.2125,5.80357143 10.1964286,6.7875 10.1964286,8 C10.1964286,9.2125 9.2125,10.1964286 8,10.1964286 Z" id="形状"></path>
            </g>
        </g>
    </g>
</svg>