<?xml version="1.0" encoding="UTF-8"?>
<svg width="22px" height="22px" viewBox="0 0 22 22" version="1.1" xmlns="http://www.w3.org/2000/svg" xmlns:xlink="http://www.w3.org/1999/xlink">
    <title>设 置备份</title>
    <g id="健康管理系用1.9.0" stroke="none" stroke-width="1" fill="none" fill-rule="evenodd">
        <g id="工作流" transform="translate(-771.000000, -568.000000)">
            <g id="设-置备份" transform="translate(771.000000, 568.000000)">
                <rect id="矩形" fill="#F3F3F3" x="0" y="0" width="22" height="22" rx="4"></rect>
                <path d="M17.5892857,11 C17.5892857,10.0642857 18.1767857,9.27142857 19,8.95535714 C18.8035714,8.18392857 18.5,7.45714286 18.1035714,6.78928571 C17.2964286,7.14821429 16.3214286,7.00178571 15.6607143,6.33928571 C15,5.67857143 14.8535714,4.70178571 15.2125,3.89642857 C14.5428571,3.5 13.8160714,3.19642857 13.0446429,3 C12.7267857,3.82321429 11.9339286,4.41071429 11,4.41071429 C10.0642857,4.41071429 9.27142857,3.82321429 8.95535714,3 C8.18392857,3.19642857 7.45714286,3.5 6.78928571,3.89642857 C7.14821429,4.70357143 7.00178571,5.67857143 6.34107143,6.33928571 C5.68035714,7 4.70357143,7.14642857 3.89821429,6.78928571 C3.5,7.45714286 3.19642857,8.18392857 3,8.95535714 C3.82321429,9.27321429 4.41071429,10.0660714 4.41071429,11 C4.41071429,11.9357143 3.82321429,12.7285714 3,13.0446429 C3.19642857,13.8160714 3.5,14.5428571 3.89642857,15.2107143 C4.70357143,14.8517857 5.67857143,14.9982143 6.33928571,15.6607143 C7,16.3214286 7.14642857,17.2982143 6.7875,18.1035714 C7.45714286,18.5 8.18392857,18.8035714 8.95535714,19 C9.27321429,18.1767857 10.0660714,17.5892857 11,17.5892857 C11.9357143,17.5892857 12.7285714,18.1767857 13.0446429,19 C13.8160714,18.8035714 14.5428571,18.5 15.2107143,18.1035714 C14.8517857,17.2964286 14.9982143,16.3214286 15.6589286,15.6607143 C16.3196429,15 17.2964286,14.8535714 18.1017857,15.2107143 C18.5,14.5428571 18.8035714,13.8160714 19,13.0446429 C18.1767857,12.7285714 17.5892857,11.9357143 17.5892857,11 Z M11,13.1964286 C9.7875,13.1964286 8.80357143,12.2125 8.80357143,11 C8.80357143,9.7875 9.7875,8.80357143 11,8.80357143 C12.2125,8.80357143 13.1964286,9.7875 13.1964286,11 C13.1964286,12.2125 12.2125,13.1964286 11,13.1964286 Z" id="形状" fill="#3599FE" fill-rule="nonzero"></path>
            </g>
        </g>
    </g>
</svg>