<?xml version="1.0" encoding="UTF-8"?>
<svg width="16px" height="16px" viewBox="0 0 16 16" version="1.1" xmlns="http://www.w3.org/2000/svg" xmlns:xlink="http://www.w3.org/1999/xlink">
    <title>任务</title>
    <g id="健康管理系用1.9.0" stroke="none" stroke-width="1" fill="none" fill-rule="evenodd">
        <g id="工作流" transform="translate(-290.000000, -170.000000)" fill-rule="nonzero">
            <g id="任务" transform="translate(290.000000, 170.000000)">
                <path d="M2.00009402,3 L2.00009402,15.3424297 L2.00009402,15.342431 C1.99684449,15.5339018 2.07796385,15.7170328 2.22172953,15.8425577 L2.22172952,15.8425577 C2.36407878,15.9666004 2.55481139,16.0187227 2.73998486,15.984183 L7.85578135,14.9316408 L13.2661958,15.990744 L13.2661958,15.990744 C13.4504713,16.0230441 13.639388,15.9698596 13.7802311,15.8460315 L13.780231,15.8460316 C13.9224853,15.7207848 14.0027988,15.538949 13.9999255,15.3487991 L13.9999255,3 L2.00009402,3 L2.00009402,3 Z M11.2977153,8.24379249 L9.60504321,9.52729612 L9.60504321,9.52729611 C9.49042634,9.61314924 9.44258992,9.76270828 9.4859328,9.89968957 L10.1127486,11.9407197 L10.1127486,11.9407197 C10.1313345,12.0071396 10.1077732,12.0782456 10.0532893,12.1201632 L10.0532893,12.1201632 C9.99917108,12.1614818 9.92507304,12.1641081 9.86819822,12.1267235 L8.16919695,10.8432199 L8.16919696,10.8432199 C8.05760494,10.759796 7.90485368,10.759796 7.79326072,10.8432199 L6.09406653,12.1267235 L6.09406653,12.1267235 C6.03729586,12.1689221 5.9598004,12.1689221 5.90303029,12.1267235 L5.90303027,12.1267235 C5.84576829,12.0838505 5.82181955,12.0091736 5.84337916,11.9407197 L6.47019493,9.89968959 L6.47019494,9.89968956 C6.51351778,9.76274859 6.46577291,9.6132361 6.35127633,9.5272961 L4.65227506,8.24379248 L4.65227508,8.24379248 C4.56875708,8.20203954 4.53386632,8.10068974 4.57382716,8.01591931 L4.57382715,8.01591932 C4.61204377,7.9323765 4.71034717,7.89581757 4.79339427,7.93426247 C4.79437416,7.9347161 4.79534962,7.93517935 4.79632052,7.93565215 L6.89024552,7.93565215 L6.89024552,7.93565215 C7.03050309,7.93653863 7.15502148,7.84552492 7.19751623,7.71105763 L7.82471598,5.66365863 L7.82471598,5.66365863 C7.84348938,5.59559854 7.90487965,5.54833541 7.97509047,5.54788865 L7.97509048,5.54788865 C8.04535057,5.54831453 8.10680752,5.59556858 8.12565678,5.66365863 L8.75247255,7.71105763 L8.75247253,7.71105757 C8.79496784,7.8455241 8.9194851,7.9365377 9.05974324,7.93565209 L11.1908865,7.93565209 C11.2676082,7.9248469 11.3408774,7.97057604 11.3667709,8.04524768 L11.366771,8.0452477 C11.3927475,8.11957508 11.3639735,8.20208305 11.2975296,8.24379398 L11.2977153,8.24379249 Z" id="形状" fill="#3599FE"></path>
                <path d="M2.38095238,0 L13.6190476,0 C13.8730153,0 14,0.133333398 14,0.4 L14,1.6 C14,1.86666602 13.8730158,2 13.6190476,2 L2.38095238,2 C2.12698475,2 2,1.8666666 2,1.6 L2,0.4 C2,0.133333984 2.12698419,0 2.38095238,0 Z" id="路径" fill="#CAE4FF"></path>
            </g>
        </g>
    </g>
</svg>