<?xml version="1.0" encoding="UTF-8"?>
<svg width="20px" height="20px" viewBox="0 0 20 20" version="1.1" xmlns="http://www.w3.org/2000/svg" xmlns:xlink="http://www.w3.org/1999/xlink">
    <title>添加文件</title>
    <g id="页面-1" stroke="none" stroke-width="1" fill="none" fill-rule="evenodd">
        <g id="审核材料-保障责任" transform="translate(-1219.000000, -607.000000)" fill-rule="nonzero">
            <g id="添加文件" transform="translate(1219.000000, 607.000000)">
                <path d="M18,0 L5,0 C4.44771525,1.01453063e-16 4,0.44771525 4,1 C4,1.55228475 4.44771525,2 5,2 L18,2 L18,2 L18,15 C18,15.5522847 18.4477153,16 19,16 C19.5522847,16 20,15.5522847 20,15 L20,2 C20,0.8954305 19.1045695,-2.02906125e-16 18,0 L18,0 L18,0 Z" id="路径" fill="#B8D7FF"></path>
                <path d="M2,20 L14,20 C15.1045695,20 16,19.1045695 16,18 L16,6 C16,4.8954305 15.1045695,4 14,4 L2,4 C0.8954305,4 -1.3527075e-16,4.8954305 0,6 L0,18 C1.3527075e-16,19.1045695 0.8954305,20 2,20 Z M4,11 L7,11 L7,11 L7,8 C7,7.44771525 7.44771525,7 8,7 C8.55228475,7 9,7.44771525 9,8 L9,11 L9,11 L12,11 C12.5522847,11 13,11.4477153 13,12 C13,12.5522847 12.5522847,13 12,13 L9,13 L9,13 L9,16 C9,16.5522847 8.55228475,17 8,17 C7.44771525,17 7,16.5522847 7,16 L7,13 L7,13 L4,13 C3.44771525,13 3,12.5522847 3,12 C3,11.4477153 3.44771525,11 4,11 Z" id="形状" fill="#3599FE"></path>
            </g>
        </g>
    </g>
</svg>