<?xml version="1.0" encoding="UTF-8"?>
<svg width="20px" height="20px" viewBox="0 0 20 20" version="1.1" xmlns="http://www.w3.org/2000/svg" xmlns:xlink="http://www.w3.org/1999/xlink">
    <title>图谱</title>
    <g id="页面-1" stroke="none" stroke-width="1" fill="none" fill-rule="evenodd">
        <g id="疾病库" transform="translate(-1273.000000, -488.000000)" fill="#3599FE" fill-rule="nonzero">
            <g id="图谱" transform="translate(1273.000000, 488.000000)">
                <path d="M3.165,14.0000013 C1.403,14.0000013 0,12.5360025 0,10.714008 C0,8.8930096 1.439,7.43000695 3.165,7.43000695 C4.892,7.43000695 6.33099609,8.89400569 6.33099609,10.7150041 C6.32999609,12.5360025 4.92799609,14.0000013 3.165,14.0000013 L3.165,14.0000013 Z M6.54699219,4.17901367 C5.43199219,4.17901367 4.49699219,3.25001447 4.49699219,2.07100768 L4.49699215,2.07100398 C4.48539609,0.938879962 5.39376363,0.0117088877 6.52587887,0.000107335259 C6.53258123,0 6.53928391,0 6.54598668,0 C7.66098668,0 8.59598668,0.928999197 8.59598668,2.10699037 C8.59598668,3.28598935 7.69598668,4.17901367 6.54598668,4.17901367 L6.54699219,4.17901367 Z M17.05,6.07001203 C15.432,6.07001203 14.1,4.71301321 14.1,3.03501466 C14.1,1.35701611 15.433,1.72785007e-05 17.05,1.72785007e-05 C18.67,1.72785007e-05 20,1.35701611 20,3.03601075 C20,4.7140093 18.67,6.07100813 17.05,6.07100813 L17.05,6.07001203 Z M15.0359961,20 C12.9140039,20 11.1509961,18.2140015 11.1509961,15.9640108 C11.1509961,13.7140093 12.9139961,11.9640108 15.0359961,11.9640108 C17.1579883,11.9640108 18.9209961,13.7500093 18.9209961,16.0000035 C18.9209961,18.2500015 17.1939961,20 15.0359961,20 Z M5.765,8.66700198 L14.7559961,3.64700632 L15.1219961,4.25900579 L6.131,9.27900145 L5.765,8.66700198 L5.765,8.66700198 Z M6.15,11.1310038 L12.0319922,14.1369973 L11.6909922,14.7619967 L5.809,11.7560032 L6.15,11.1310038 Z M3.90199219,7.52600687 L5.66299219,3.33300268 L6.33999219,3.60000245 L4.57999219,7.79300664 L3.90199219,7.52600687 Z" id="形状"></path>
            </g>
        </g>
    </g>
</svg>