<?xml version="1.0" encoding="UTF-8"?>
<svg width="24px" height="24px" viewBox="0 0 24 24" version="1.1" xmlns="http://www.w3.org/2000/svg" xmlns:xlink="http://www.w3.org/1999/xlink">
    <title>图谱</title>
    <g id="页面-1" stroke="none" stroke-width="1" fill="none" fill-rule="evenodd">
        <g id="疾病库" transform="translate(-1271.000000, -562.000000)" fill="#3599FE" fill-rule="nonzero">
            <g id="图谱" transform="translate(1271.000000, 562.000000)">
                <path d="M5.165,17.0000013 C3.403,17.0000013 2,15.5360025 2,13.714008 C2,11.8930096 3.439,10.430007 5.165,10.430007 C6.892,10.430007 8.33099609,11.8940057 8.33099609,13.7150041 C8.32999609,15.5360025 6.92799609,17.0000013 5.165,17.0000013 L5.165,17.0000013 Z M8.54699219,7.17901367 C7.43199219,7.17901367 6.49699219,6.25001447 6.49699219,5.07100768 L6.49699215,5.07100398 C6.48539609,3.93887996 7.39376363,3.01170889 8.52587887,3.00010734 C8.53258123,3 8.53928391,3 8.54598668,3 C9.66098668,3 10.5959867,3.9289992 10.5959867,5.10699037 C10.5959867,6.28598935 9.69598668,7.17901367 8.54598668,7.17901367 L8.54699219,7.17901367 Z M19.05,9.07001203 C17.432,9.07001203 16.1,7.71301321 16.1,6.03501466 C16.1,4.35701611 17.433,3.00001728 19.05,3.00001728 C20.67,3.00001728 22,4.35701611 22,6.03601075 C22,7.7140093 20.67,9.07100813 19.05,9.07100813 L19.05,9.07001203 Z M17.0359961,23 C14.9140039,23 13.1509961,21.2140015 13.1509961,18.9640108 C13.1509961,16.7140093 14.9139961,14.9640108 17.0359961,14.9640108 C19.1579883,14.9640108 20.9209961,16.7500093 20.9209961,19.0000035 C20.9209961,21.2500015 19.1939961,23 17.0359961,23 Z M7.765,11.667002 L16.7559961,6.64700632 L17.1219961,7.25900579 L8.131,12.2790014 L7.765,11.667002 L7.765,11.667002 Z M8.15,14.1310038 L14.0319922,17.1369973 L13.6909922,17.7619967 L7.809,14.7560032 L8.15,14.1310038 Z M5.90199219,10.5260069 L7.66299219,6.33300268 L8.33999219,6.60000245 L6.57999219,10.7930066 L5.90199219,10.5260069 Z" id="形状"></path>
            </g>
        </g>
    </g>
</svg>