<?xml version="1.0" encoding="UTF-8"?>
<svg width="20px" height="20px" viewBox="0 0 20 20" version="1.1" xmlns="http://www.w3.org/2000/svg" xmlns:xlink="http://www.w3.org/1999/xlink">
    <title>药品 (1)</title>
    <g id="页面-1" stroke="none" stroke-width="1" fill="none" fill-rule="evenodd">
        <g id="药价监控优化" transform="translate(-1026.000000, -419.000000)" fill="#3599FE" fill-rule="nonzero">
            <g id="药品-(1)" transform="translate(1026.000000, 419.000000)">
                <path d="M4.06289293,-2.150292e-07 L15.9371068,-2.150292e-07 C18.1462458,-2.150292e-07 19.9371068,1.79086079 19.9371068,3.99999978 L19.9371068,15.9999998 C19.9371068,18.2091388 18.1462458,19.9999998 15.9371068,19.9999998 L4.06289293,19.9999998 C1.85375393,19.9999998 0.0628929253,18.2091388 0.0628929253,15.9999998 L0.0628929253,3.99999978 C0.0628929253,1.79086079 1.85375393,-2.15029199e-07 4.06289293,-2.150292e-07 Z M16.0331115,4.8974162 C15.4532058,4.09226672 14.5912824,3.56107686 13.6369628,3.42070735 C12.6826432,3.28033783 11.7141041,3.54228756 10.9444221,4.14892809 L8.043148,6.43649489 L12.4163016,12.5074352 L15.3175757,10.2204532 C16.0872783,9.61384128 16.5950825,8.71222406 16.7292722,7.71395554 C16.8634619,6.71568702 16.6130446,5.70254407 16.0331115,4.8974162 L16.0331115,4.8974162 Z M3.53247735,14.7505605 C4.11238303,15.55571 4.97430641,16.0868998 5.928626,16.2272693 C6.88294559,16.3676389 7.85148475,16.1056891 8.62116674,15.4990486 L11.5229999,13.2114818 L7.15040527,7.1405415 L4.24857216,9.4281083 C3.47886951,10.0347202 2.97106536,10.9363374 2.83687563,11.9346059 C2.70268591,12.9328744 2.95310326,13.9460174 3.53303636,14.7511453 L3.53247735,14.7505605 Z" id="形状"></path>
                <path d="M6.97375737,8.45039571 L4.78634205,10.1754269 C3.98911219,10.7855625 3.56768835,11.7974555 3.68343578,12.8236469 C3.79918321,13.8498384 4.43416999,14.7313477 5.34525656,15.1306408 C6.25634312,15.5299338 7.30238127,15.3851508 8.08283785,14.75173 L10.2708122,13.0272836 L6.97375737,8.45039571 L6.97375737,8.45039571 Z" id="路径"></path>
            </g>
        </g>
    </g>
</svg>