<?xml version="1.0" encoding="UTF-8"?>
<svg width="20px" height="20px" viewBox="0 0 20 20" version="1.1" xmlns="http://www.w3.org/2000/svg" xmlns:xlink="http://www.w3.org/1999/xlink">
    <title>icon/编辑</title>
    <g id="页面-1" stroke="none" stroke-width="1" fill="none" fill-rule="evenodd">
        <g id="icon" transform="translate(-653.000000, -88.000000)" fill-rule="nonzero">
            <g id="button/编辑" transform="translate(653.000000, 88.000000)">
                <polygon id="路径" fill="#2D97FF" points="6.03447421 18.9117063 0.95219494 18.8918651 0.960193452 13.8373636 0.954427083 13.8315972 0.960193452 13.8257688 0.960193452 13.8030134 0.971478175 13.8144221 13.8559028 0.92999752 18.9419643 6.01593502 6.05530754 18.9024678 6.06448413 18.9116443 6.04588294 18.9116443 6.03968254 18.9178447"></polygon>
                <path d="M6.03974454,19.8479043 C6.00281539,19.8479043 5.96592021,19.8456645 5.92925347,19.8412698 L0.94859871,19.8218626 C0.435763889,19.8198785 0.0213293651,19.4031498 0.0221960595,18.890377 L0.0300099206,13.9338418 C0.0189043035,13.8328408 0.0243283648,13.7307051 0.0460689484,13.6314484 C0.0916679519,13.3888199 0.231805891,13.1742525 0.435639881,13.0349702 L13.1982267,0.272383433 C13.5613839,-0.0908358135 14.1502976,-0.0908358135 14.5135169,0.272383433 L19.5995784,5.35832093 C19.9627808,5.72153033 19.9627808,6.31040172 19.5995784,6.67361111 L6.82266865,19.4503968 C6.6910818,19.6354631 6.49638944,19.7660518 6.27523562,19.8175843 C6.19897073,19.8375496 6.11979167,19.8479043 6.03974454,19.8479043 Z M1.88374256,17.9654018 L5.66232639,17.9801587 L17.6266121,6.01593502 L13.8559028,2.2452877 L1.88969494,14.2115575 L1.88374256,17.9654018 L1.88374256,17.9654018 Z" id="形状" fill="#2D97FF"></path>
                <path d="M5.77430556,15.0900306 C5.5275781,15.0903519 5.29090245,14.9922986 5.11669147,14.8175843 C4.75347222,14.4544271 4.75347222,13.8655134 5.11669147,13.5022941 L9.3250248,9.29396081 C9.68818204,8.93074157 10.2770957,8.93074157 10.640315,9.29396081 C11.0035342,9.65711806 11.0035342,10.2460317 10.640315,10.609251 L6.43198165,14.8175843 C6.25773994,14.9922906 6.02104905,15.0903409 5.77430556,15.0900306 L5.77430556,15.0900306 Z" id="路径" fill="#F4F6F9"></path>
                <polygon id="路径" fill="#F4F6F9" points="10.8211186 2.64632937 17.2253224 9.05059524 15.9100322 10.3658854 9.50582837 3.96161954"></polygon>
                <path d="M18.9412202,19.8412698 L9.9516369,19.8412698 C9.43799603,19.8412698 9.02157738,19.4248512 9.02157738,18.9112103 C9.02157738,18.3975694 9.43799603,17.9811508 9.9516369,17.9811508 L18.9412202,17.9811508 C19.4548611,17.9811508 19.8712798,18.3975694 19.8712798,18.9112103 C19.8712798,19.4248512 19.4549231,19.8412698 18.9412202,19.8412698 L18.9412202,19.8412698 Z" id="路径" fill="#B8D7FF"></path>
            </g>
        </g>
    </g>
</svg>