<?xml version="1.0" encoding="UTF-8"?>
<svg width="24px" height="24px" viewBox="0 0 24 24" version="1.1" xmlns="http://www.w3.org/2000/svg" xmlns:xlink="http://www.w3.org/1999/xlink">
    <title>编组 34</title>
    <g id="页面-1" stroke="none" stroke-width="1" fill="none" fill-rule="evenodd">
        <g id="药价监控" transform="translate(-1227.000000, -493.000000)">
            <g id="编组-34备份" transform="translate(1227.000000, 493.000000)">
                <rect id="矩形" fill="#3599FE" x="2" y="2" width="20" height="20" rx="4"></rect>
                <g id="手动" transform="translate(5.000000, 5.000000)" fill="#FFFFFF" fill-rule="nonzero">
                    <path d="M12.3575179,2.78926636 C12.1785354,2.28443812 11.6874093,1.94828963 11.1320541,1.94828963 C10.9785285,1.94828963 10.8269612,1.9765374 10.680877,2.03061175 C10.547717,2.08105416 10.3941917,2.1706396 10.2590737,2.28242105 L10.2590736,2.28242096 C9.93379808,1.56335516 9.12788204,1.22123574 8.40540863,1.49551913 C8.08464964,1.61254559 7.81793815,1.83610616 7.64443868,2.13149813 L7.64443868,2.13149812 C7.64152348,2.13546943 7.63852015,2.13937123 7.63543107,2.14320045 L7.6354311,2.14320049 C7.2322,1.65640503 6.57744424,1.47977646 5.99443545,1.70051735 C5.6208043,1.83893143 5.28163771,2.10647839 5.0693646,2.45876866 L5.06936466,2.45876857 C4.99757688,2.55250662 4.93585859,2.6539844 4.88528995,2.76142386 C4.56688028,2.26587683 4.21126585,1.76145273 3.87209926,1.41521614 C3.2419383,0.769957304 2.3106053,0 1.47913734,0 C1.33931932,0 1.20067663,0.0242123958 1.0690832,0.0726371874 C0.767122703,0.185628276 0.516860392,0.399504462 0.355110136,0.675121616 C0.255240142,0.803447189 0.176127598,0.949529136 0.124038533,1.10933042 C-0.0165625881,1.54192547 0.0511921514,2.01769767 0.310462557,2.41478163 C0.511377332,2.71662866 0.776522616,2.89378274 1.05067559,3.0838497 C1.46660501,3.36552053 1.93423128,3.68835202 2.42026247,4.55717515 C2.95133614,5.50387964 3.58267109,7.15314264 3.97001658,8.21566163 L2.56634799,7.50704668 L2.566348,7.50704668 C2.33618533,7.39674699 2.08545717,7.33945932 1.83161802,7.33917381 L1.83161798,7.33917381 C1.23374093,7.34243614 0.679218349,7.66124669 0.36254355,8.1837822 L0.362543442,8.18378234 C0.284005977,8.28708381 0.217004087,8.39916609 0.16280399,8.51791293 C-0.240983988,9.40892877 0.1334304,10.4645817 0.986438243,10.8709468 C1.00092913,10.8765964 2.46021129,11.6727794 4.48227689,12.6372464 L4.8147851,12.793416 C6.10722094,13.4164808 7.32954966,14 8.7484921,14 C9.42408375,14 10.1020287,13.8696567 10.8124705,13.6045312 C12.0203098,13.1566026 12.7346737,12.5541182 13.1717523,11.8765758 C13.7278906,11.1058158 13.8900331,10.2260949 13.9887281,9.35889656 C14.1547861,7.85570957 12.432321,2.99629278 12.3575179,2.78927578" id="路径"></path>
                </g>
            </g>
        </g>
    </g>
</svg>