<?xml version="1.0" encoding="UTF-8"?>
<svg width="20px" height="20px" viewBox="0 0 20 20" version="1.1" xmlns="http://www.w3.org/2000/svg" xmlns:xlink="http://www.w3.org/1999/xlink">
    <title>取消</title>
    <g id="页面-1" stroke="none" stroke-width="1" fill="none" fill-rule="evenodd">
        <g id="常用语设置" transform="translate(-935.000000, -515.000000)" fill="#3599FE" fill-rule="nonzero">
            <g id="取消" transform="translate(935.000000, 515.000000)">
                <path d="M17.0799965,2.92000346 C13.1858383,-0.973334486 6.81416171,-0.973334486 2.92000346,2.92000346 C-0.973334486,6.81416171 -0.973334486,13.1858383 2.92000346,17.0799965 C6.81416171,20.9733345 13.1866586,20.9733345 17.0799965,17.0799965 C20.9733345,13.1858383 20.9733345,6.8133414 17.0799965,2.92000346 Z M13.0216587,14.436658 L10,11.4166595 L6.97916163,14.4375096 L5.56249631,13.0216645 L8.58415499,10.0000059 L5.56249631,6.97916749 L6.97916163,5.56250217 L10,8.58416085 L13.0208384,5.56250217 L14.4375037,6.97916749 L11.415845,10.0000059 L14.4375037,13.0208442 L13.0208384,14.4375096 L13.0216587,14.436658 Z" id="形状"></path>
            </g>
        </g>
    </g>
</svg>