<?xml version="1.0" encoding="UTF-8"?>
<svg width="20px" height="20px" viewBox="0 0 20 20" version="1.1" xmlns="http://www.w3.org/2000/svg" xmlns:xlink="http://www.w3.org/1999/xlink">
    <title>箭头 (5)</title>
    <g id="页面-1" stroke="none" stroke-width="1" fill="none" fill-rule="evenodd">
        <g id="icon" transform="translate(-893.000000, -158.000000)" fill="#3599FE" fill-rule="nonzero">
            <g id="箭头-(5)" transform="translate(903.000000, 168.000000) rotate(-270.000000) translate(-903.000000, -168.000000) translate(893.000000, 158.000000)">
                <path d="M18.5849804,7.56131137 L11.5015462,0.418393792 C10.9483334,-0.139464597 10.0515565,-0.139464597 9.49834378,0.418393792 L2.41490958,7.56131137 C1.86169681,8.11916976 1.86169681,9.02347735 2.41490958,9.58133574 C2.96812234,10.1391941 3.86489922,10.1391941 4.41811199,9.58133574 L9.0832829,4.8769889 L9.0832829,18.5713998 C9.0832829,19.3606959 9.71726308,20 10.4999862,20 C11.2827094,20 11.9166896,19.3606959 11.9166896,18.5713998 L11.9166896,4.8769889 L16.5818605,9.58133574 C16.8581093,9.85993205 17.2207924,9.99990984 17.5834755,9.99990984 C17.9461586,9.99990984 18.3088142,9.86062556 18.5850904,9.58133574 C19.1383032,9.02347735 19.1383032,8.11916976 18.5850904,7.56131137 L18.5849804,7.56131137 Z" id="路径"></path>
            </g>
        </g>
    </g>
</svg>