<?xml version="1.0" encoding="UTF-8"?>
<svg width="20px" height="20px" viewBox="0 0 20 20" version="1.1" xmlns="http://www.w3.org/2000/svg" xmlns:xlink="http://www.w3.org/1999/xlink">
    <title>编组 2</title>
    <g id="保险管理系统" stroke="none" stroke-width="1" fill="none" fill-rule="evenodd">
        <g id="保险产品优化悬停" transform="translate(-817.000000, -510.000000)" fill="#3599FE" fill-rule="nonzero">
            <g id="编组-2" transform="translate(817.000000, 510.000000)">
                <g id="异地转移申请办理进度查询">
                    <path d="M0.729015262,9.0000898 C0.685864826,9.0000898 0.64271439,8.99559986 0.599563953,8.98886494 C0.213481105,8.91927083 -0.043150436,8.55334052 0.0295239826,8.1716954 C0.908430233,3.43929598 5.08039608,0.00673491379 9.9518532,0.00673491379 C14.8233103,0.00673491379 18.9952762,3.43929598 19.8741824,8.16945043 C19.9127907,8.37374282 19.8560138,8.58477011 19.7220203,8.74640805 C19.5880269,8.90580101 19.3859012,9.0000898 19.1769622,9.0000898 L16.5606831,9.0000898 C16.1677871,9.0000898 15.8498365,8.68579382 15.8498365,8.29741379 C15.8498365,7.90903376 16.1677871,7.59473779 16.5606831,7.59473779 L18.2776163,7.59473779 C17.2192951,3.96686422 13.8444767,1.41208693 9.9518532,1.41208693 C5.76853198,1.41208693 2.18250363,4.3597342 1.42623547,8.42313218 C1.36264535,8.76212284 1.06513445,9.0000898 0.729015262,9.0000898 Z M9.9518532,19.9577945 C5.08039608,19.9577945 0.908430233,16.5252335 0.0295239826,11.795079 C-0.00908430233,11.5907866 0.0476925872,11.3797593 0.181686047,11.2181214 C0.315679506,11.0587284 0.517805233,10.9644397 0.726744186,10.9644397 L3.34075218,10.9644397 C3.73364826,10.9644397 4.05159884,11.2787356 4.05159884,11.6671157 C4.05159884,12.0554957 3.73364826,12.3697917 3.34075218,12.3697917 L1.62381904,12.3697917 C2.68214026,15.9976652 6.05695858,18.5524425 9.94958212,18.5524425 C14.1329033,18.5524425 17.7189317,15.6047953 18.4751999,11.5413973 C18.5456032,11.1597522 18.9157885,10.9060704 19.3018714,10.9779095 C19.6879542,11.0475036 19.9445858,11.4134339 19.8719113,11.795079 C18.9930051,16.5252335 14.8210392,19.9577945 9.9518532,19.9577945 Z" id="形状"></path>
                </g>
                <path d="M8.5546875,13.869208 L13.36369,5.08014547 L12.1656977,5.08014547 L7.36805051,13.869208 L8.5546875,13.869208 Z M7.35101744,9.40732759 C8.04748062,9.40732759 8.59632389,9.2108926 8.99754724,8.81802263 C9.39877059,8.42515266 9.59938227,7.89945522 9.59938227,7.24093032 C9.59938227,6.58614703 9.39877059,6.0623204 8.99754724,5.66945043 C8.59632389,5.27658046 8.04748062,5.08014547 7.35101744,5.08014547 C6.8778767,5.08014547 6.46813681,5.17275054 6.12179778,5.35796067 C5.77545876,5.5431708 5.51807019,5.80789033 5.34963209,6.15211925 C5.18119398,6.49634818 5.09697493,6.8592852 5.09697493,7.24093032 C5.09697493,7.62631705 5.18119398,7.99112488 5.34963209,8.33535381 C5.51807019,8.67958273 5.77545876,8.94430226 6.12179778,9.12951239 C6.46813681,9.31472252 6.8778767,9.40732759 7.35101744,9.40732759 Z M7.35101744,8.47005208 C7.16176114,8.47005208 7.01792636,8.40083214 6.91951308,8.26239224 C6.76810804,8.05286159 6.69240552,7.7161159 6.69240552,7.25215517 C6.69240552,6.78819444 6.76810804,6.45144875 6.91951308,6.2419181 C7.01792636,6.10721983 7.16176114,6.03987069 7.35101744,6.03987069 C7.54027374,6.03987069 7.68221596,6.10721983 7.77684411,6.2419181 C7.92824915,6.45519037 8.00395167,6.79193606 8.00395167,7.25215517 C8.00395167,7.7161159 7.92824915,8.05286159 7.77684411,8.26239224 C7.68221596,8.40083214 7.54027374,8.47005208 7.35101744,8.47005208 Z M13.346657,13.8579831 C14.0469053,13.8579831 14.5976411,13.6606127 14.9988645,13.2658719 C15.4000878,12.8711312 15.6006995,12.3463691 15.6006995,11.6915858 C15.6006995,11.0368026 15.4000878,10.5120405 14.9988645,10.1172997 C14.5976411,9.72255897 14.0469053,9.52518858 13.346657,9.52518858 C12.8773014,9.52518858 12.4685078,9.61872905 12.1202762,9.80580999 C11.7720446,9.99289092 11.514656,10.2576105 11.3481105,10.5999686 C11.1815649,10.9423267 11.0982922,11.3061991 11.0982922,11.6915858 C11.0982922,12.0769726 11.1815649,12.440845 11.3481105,12.7832031 C11.514656,13.1255612 11.7720446,13.3902808 12.1202762,13.5773617 C12.4685078,13.7644426 12.8773014,13.8579831 13.346657,13.8579831 Z M13.346657,12.9150952 C13.1574007,12.9150952 13.0154585,12.847746 12.9208303,12.7130478 C12.7694253,12.5035171 12.6937227,12.1667714 12.6937227,11.7028107 C12.6937227,11.23885 12.7694253,10.9021043 12.9208303,10.6925736 C13.0154585,10.5541337 13.1574007,10.4849138 13.346657,10.4849138 C13.5359133,10.4849138 13.6797481,10.5522629 13.7781613,10.6869612 C13.9295664,10.9002335 14.0052689,11.23885 14.0052689,11.7028107 C14.0052689,12.1667714 13.9295664,12.5035171 13.7781613,12.7130478 C13.6797481,12.847746 13.5359133,12.9150952 13.346657,12.9150952 Z" id="%"></path>
            </g>
        </g>
    </g>
</svg>