<?xml version="1.0" encoding="UTF-8"?>
<svg width="20px" height="20px" viewBox="0 0 20 20" version="1.1" xmlns="http://www.w3.org/2000/svg" xmlns:xlink="http://www.w3.org/1999/xlink">
    <title>价格监控</title>
    <g id="页面-1" stroke="none" stroke-width="1" fill="none" fill-rule="evenodd">
        <g id="药价监控优化" transform="translate(-1285.000000, -416.000000)" fill="#3599FE" fill-rule="nonzero">
            <g id="价格监控" transform="translate(1285.000000, 416.000000)">
                <path d="M8.8888889,11.1111111 L8.8888889,12.2222222 L6.66333333,12.2222222 C6.0588889,12.2222222 5.55555557,12.72 5.55555557,13.3333333 C5.55555557,13.9511111 6.05111113,14.4444444 6.66333333,14.4444444 L8.8888889,14.4444444 L8.8888889,15.5522222 C8.88620501,15.8480272 9.00229817,16.1325449 9.21115892,16.3420322 C9.42001967,16.5515195 9.70418837,16.6684645 10,16.6666871 C10.6177778,16.6666871 11.1111111,16.1677778 11.1111111,15.5522222 L11.1111111,14.4444444 L13.3366667,14.4444444 C13.9411111,14.4444444 14.4444444,13.9466667 14.4444444,13.3333333 C14.4444444,12.7155556 13.9488889,12.2222222 13.3366667,12.2222222 L11.1111111,12.2222222 L11.1111111,11.1111111 L13.3366667,11.1111111 C13.9411111,11.1111111 14.4444444,10.6133333 14.4444444,10 C14.4444444,9.38222223 13.9488889,8.8888889 13.3366667,8.8888889 L11.6033333,8.8888889 L14.1122222,6.40333333 C14.3264896,6.18795009 14.4461228,5.89607939 14.4446764,5.59227302 C14.4432036,5.28846665 14.3207714,4.99775893 14.1044444,4.78444443 C13.6544042,4.33402478 12.9254205,4.33055343 12.4711111,4.77666667 L10.0022222,7.22444443 L7.53222223,4.77666667 C7.07621806,4.33474636 6.35066373,4.33820138 5.8988889,4.78444443 C5.68062749,4.99671165 5.55684844,5.28780154 5.5553726,5.59225724 C5.55392298,5.89671294 5.67489936,6.18897873 5.8911111,6.40333333 L8.4,8.8888889 L6.66333333,8.8888889 C6.0588889,8.8888889 5.55555557,9.38666667 5.55555557,10 C5.55555557,10.6177778 6.05111113,11.1111111 6.66333333,11.1111111 L8.8888889,11.1111111 Z M0,2.21666667 C0,0.992222233 0.992222233,0 2.21666667,0 L17.7833333,0 C19.0077778,0 20,0.992222233 20,2.21666667 L20,17.7833333 C20,19.0075645 19.0075645,20 17.7833333,20 L2.21666667,20 C1.62877011,20 1.06495227,19.766459 0.649246635,19.3507534 C0.233540996,18.9350477 0,18.3712299 0,17.7833333 L0,2.21666667 Z" id="形状"></path>
            </g>
        </g>
    </g>
</svg>