<?xml version="1.0" encoding="UTF-8"?>
<svg width="24px" height="24px" viewBox="0 0 24 24" version="1.1" xmlns="http://www.w3.org/2000/svg" xmlns:xlink="http://www.w3.org/1999/xlink">
    <title>价格监控</title>
    <g id="页面-1" stroke="none" stroke-width="1" fill="none" fill-rule="evenodd">
        <g id="基础药品库" transform="translate(-1278.000000, -579.000000)" fill="#3599FE" fill-rule="nonzero">
            <g id="价格监控备份" transform="translate(1278.000000, 579.000000)">
                <path d="M10.8888889,13.1111111 L10.8888889,14.2222222 L8.66333333,14.2222222 C8.0588889,14.2222222 7.55555557,14.72 7.55555557,15.3333333 C7.55555557,15.9511111 8.05111113,16.4444444 8.66333333,16.4444444 L10.8888889,16.4444444 L10.8888889,17.5522222 C10.886205,17.8480272 11.0022982,18.1325449 11.2111589,18.3420322 C11.4200197,18.5515195 11.7041884,18.6684645 12,18.6666871 C12.6177778,18.6666871 13.1111111,18.1677778 13.1111111,17.5522222 L13.1111111,16.4444444 L15.3366667,16.4444444 C15.9411111,16.4444444 16.4444444,15.9466667 16.4444444,15.3333333 C16.4444444,14.7155556 15.9488889,14.2222222 15.3366667,14.2222222 L13.1111111,14.2222222 L13.1111111,13.1111111 L15.3366667,13.1111111 C15.9411111,13.1111111 16.4444444,12.6133333 16.4444444,12 C16.4444444,11.3822222 15.9488889,10.8888889 15.3366667,10.8888889 L13.6033333,10.8888889 L16.1122222,8.40333333 C16.3264896,8.18795009 16.4461228,7.89607939 16.4446764,7.59227302 C16.4432036,7.28846665 16.3207714,6.99775893 16.1044444,6.78444443 C15.6544042,6.33402478 14.9254205,6.33055343 14.4711111,6.77666667 L12.0022222,9.22444443 L9.53222223,6.77666667 C9.07621806,6.33474636 8.35066373,6.33820138 7.8988889,6.78444443 C7.68062749,6.99671165 7.55684844,7.28780154 7.5553726,7.59225724 C7.55392298,7.89671294 7.67489936,8.18897873 7.8911111,8.40333333 L10.4,10.8888889 L8.66333333,10.8888889 C8.0588889,10.8888889 7.55555557,11.3866667 7.55555557,12 C7.55555557,12.6177778 8.05111113,13.1111111 8.66333333,13.1111111 L10.8888889,13.1111111 Z M2,4.21666667 C2,2.99222223 2.99222223,2 4.21666667,2 L19.7833333,2 C21.0077778,2 22,2.99222223 22,4.21666667 L22,19.7833333 C22,21.0075645 21.0075645,22 19.7833333,22 L4.21666667,22 C3.62877011,22 3.06495227,21.766459 2.64924664,21.3507534 C2.233541,20.9350477 2,20.3712299 2,19.7833333 L2,4.21666667 Z" id="形状"></path>
            </g>
        </g>
    </g>
</svg>