<?xml version="1.0" encoding="UTF-8"?>
<svg width="24px" height="24px" viewBox="0 0 24 24" version="1.1" xmlns="http://www.w3.org/2000/svg" xmlns:xlink="http://www.w3.org/1999/xlink">
    <title>保存</title>
    <defs>
        <path d="M21.9950074,8.63773552 L21.9980075,8.31542833 L21.9980075,8.30345407 C21.9950074,8.2894841 21.9180075,7.83047179 21.8780074,7.67181171 C21.8340075,7.50816357 21.5280067,7.08706832 21.5280067,7.08706832 L21.3810067,6.93140292 L17.4130113,2.73541969 L17.2990112,2.61867074 C16.5840103,1.95310141 15.678012,2.00997855 15.678012,2.00997855 L15.543012,2 L5.59700921,2 L5.59700937,2 C3.60940432,2.00220293 1.99944657,3.61093022 2.00000014,5.59426511 L2.00000014,18.4037356 L2.00000014,18.4027472 C2.00000014,20.3859593 3.60854081,21.9950478 5.59600435,22 L18.4020064,22 L18.4020065,22 C20.3894742,21.9961441 21.9988926,20.3879381 22.0000001,18.4047322 L22.0000001,8.63771988 L21.995,8.63771988 L21.9950074,8.63773552 Z M5.33333345,3.11111111 L15.3333335,3.11111111 L15.3333335,5.23886085 C15.3333335,6.5141615 14.39988,7.55555556 13.255052,7.55555556 L7.4116149,7.55555556 L7.41161481,7.55555556 C6.26322779,7.55183798 5.33389343,6.51589355 5.33333345,5.23886085 L5.33333345,3.11111111 L5.33333345,3.11111111 Z M18.6666667,19.7777778 L11.4510699,19.7777778 L11.4510699,14.5922305 L7.59762103,14.5922305 L7.59762103,19.7777778 L5.33333345,19.7777778 L5.33333345,13.7661433 C5.33333345,12.7923384 6.11233051,12 7.067902,12 L16.9279402,12 C17.8835117,12 18.6625088,12.7923384 18.6625088,13.7661433 L18.6625088,19.7777778 L18.6666667,19.7777778 L18.6666667,19.7777778 Z" id="path-1"></path>
        <filter x="-7.5%" y="-7.5%" width="115.0%" height="115.0%" filterUnits="objectBoundingBox" id="filter-2">
            <feOffset dx="0" dy="0" in="SourceAlpha" result="shadowOffsetOuter1"></feOffset>
            <feGaussianBlur stdDeviation="0.5" in="shadowOffsetOuter1" result="shadowBlurOuter1"></feGaussianBlur>
            <feColorMatrix values="0 0 0 0 0   0 0 0 0 0   0 0 0 0 0  0 0 0 0.5 0" type="matrix" in="shadowBlurOuter1"></feColorMatrix>
        </filter>
    </defs>
    <g id="页面-1" stroke="none" stroke-width="1" fill="none" fill-rule="evenodd">
        <g id="按钮状态" transform="translate(-830.000000, -964.000000)" fill-rule="nonzero">
            <g id="形状" transform="translate(830.000000, 964.000000)">
                <use fill="black" fill-opacity="1" filter="url(#filter-2)" xlink:href="#path-1"></use>
                <use fill="#3599FE" xlink:href="#path-1"></use>
            </g>
        </g>
    </g>
</svg>