<?xml version="1.0" encoding="UTF-8"?>
<svg width="20px" height="20px" viewBox="0 0 20 20" version="1.1" xmlns="http://www.w3.org/2000/svg" xmlns:xlink="http://www.w3.org/1999/xlink">
    <title>保存</title>
    <g id="页面-1" stroke="none" stroke-width="1" fill="none" fill-rule="evenodd">
        <g id="按钮状态" transform="translate(-627.000000, -966.000000)" fill="#3599FE" fill-rule="nonzero">
            <g id="保存" transform="translate(627.000000, 966.000000)">
                <path d="M19.9950074,6.63773552 L19.9980075,6.31542833 L19.9980075,6.30345407 C19.9950074,6.2894841 19.9180075,5.83047179 19.8780074,5.67181171 C19.8340075,5.50816357 19.5280067,5.08706832 19.5280067,5.08706832 L19.3810067,4.93140292 L15.4130113,0.73541969 L15.2990112,0.61867074 C14.5840103,-0.0468985906 13.678012,0.00997854696 13.678012,0.00997854696 L13.543012,0 L3.59700921,0 L3.59700937,0 C1.60940432,0.00220293008 -0.000553425486,1.61093022 1.42711237e-07,3.59426511 L1.42711237e-07,16.4037356 L1.42711237e-07,16.4027472 C1.42711237e-07,18.3859593 1.60854081,19.9950478 3.59600435,20 L16.4020064,20 L16.4020065,20 C18.3894742,19.9961441 19.9988926,18.3879381 20.0000001,16.4047322 L20.0000001,6.63771988 L19.995,6.63771988 L19.9950074,6.63773552 Z M3.33333345,1.11111111 L13.3333335,1.11111111 L13.3333335,3.23886085 C13.3333335,4.5141615 12.39988,5.55555556 11.255052,5.55555556 L5.4116149,5.55555556 L5.41161481,5.55555556 C4.26322779,5.55183798 3.33389343,4.51589355 3.33333345,3.23886085 L3.33333345,1.11111111 L3.33333345,1.11111111 Z M16.6666667,17.7777778 L9.45106993,17.7777778 L9.45106993,12.5922305 L5.59762103,12.5922305 L5.59762103,17.7777778 L3.33333345,17.7777778 L3.33333345,11.7661433 C3.33333345,10.7923384 4.11233051,10 5.067902,10 L14.9279402,10 C15.8835117,10 16.6625088,10.7923384 16.6625088,11.7661433 L16.6625088,17.7777778 L16.6666667,17.7777778 L16.6666667,17.7777778 Z" id="形状"></path>
            </g>
        </g>
    </g>
</svg>