<?xml version="1.0" encoding="UTF-8"?>
<svg width="20px" height="20px" viewBox="0 0 20 20" version="1.1" xmlns="http://www.w3.org/2000/svg" xmlns:xlink="http://www.w3.org/1999/xlink">
    <title>屏蔽</title>
    <g id="页面-1" stroke="none" stroke-width="1" fill="none" fill-rule="evenodd">
        <g id="保险产品优化悬停" transform="translate(-1110.000000, -765.000000)" fill="#F64E60" fill-rule="nonzero">
            <g id="屏蔽" transform="translate(1110.000000, 765.000000)">
                <path d="M9.95201564,20.0000002 C4.45687511,19.9990193 0.00288335198,15.5214327 0.00353384615,9.9988164 C0.00418434032,4.47620011 4.45923078,-0.000326654615 9.95437139,1.75171055e-07 C15.449512,0.000327004957 19.9040313,4.47738368 19.9040313,10.0000002 C19.903797,12.6524004 18.8551524,15.1960718 16.9887875,17.0714356 C15.1224225,18.9467994 12.59122,20.0002355 9.95201564,20.0000002 Z M1.78014149,9.98535025 C1.77820625,13.1381904 3.57674796,16.0123805 6.40512435,17.3763801 C9.23350074,18.7403797 12.5897602,18.3521199 15.0358039,16.3779632 L3.57795503,4.86193732 C2.41418408,6.31305709 1.78029993,8.12112355 1.78190994,9.98490633 L1.78014149,9.98535025 Z M9.93655535,1.78993164 C8.09008752,1.78819044 6.29822144,2.41926231 4.85674265,3.57897541 L16.3110577,15.0878984 C18.2648773,12.628257 18.6432341,9.26092447 17.2843917,6.4253376 C15.9255492,3.58975073 13.0699665,1.78769144 9.93832224,1.78948635 L9.93655535,1.78993164 Z" id="形状"></path>
            </g>
        </g>
    </g>
</svg>