<?xml version="1.0" encoding="UTF-8"?>
<svg width="18px" height="18px" viewBox="0 0 18 18" version="1.1" xmlns="http://www.w3.org/2000/svg" xmlns:xlink="http://www.w3.org/1999/xlink">
    <title>OA</title>
    <g id="健康管理系统" stroke="none" stroke-width="1" fill="none" fill-rule="evenodd">
        <g id="按钮状态" transform="translate(-1224.000000, -670.000000)">
            <g id="OA" transform="translate(1224.000000, 670.000000)">
                <g id="编组-10" transform="translate(0.000000, 1.000000)">
                    <g id="oa">
                        <rect id="矩形" fill="#2F4B74" x="3" y="3" width="11" height="7"></rect>
                        <path d="M11.2470834,5.4218848 C11.2298959,5.36172848 11.2148568,5.29727528 11.2041146,5.23282208 L11.191224,5.23282208 C11.1804818,5.3037206 11.1654427,5.3681738 11.1482552,5.43047856 C11.1310676,5.49063488 11.1138801,5.54219744 11.098841,5.5830178 L10.561731,7.06758984 L11.850795,7.06758984 L11.2900522,5.56368184 C11.27931,5.5293068 11.2642709,5.48204112 11.2470834,5.4218848 Z M7.71504804,5.45840828 C7.59903228,5.31016592 7.4550868,5.1962986 7.2832116,5.11895476 C7.1113364,5.03946248 6.91582836,5.00079056 6.6923906,5.00079056 C6.4775466,5.00079056 6.284187,5.04161092 6.11016336,5.12540008 C5.93613972,5.20918924 5.78789736,5.325205 5.66328784,5.4755958 C5.54082676,5.6259866 5.44414696,5.80645556 5.37754532,6.01700268 C5.31094368,6.2275498 5.27656864,6.46172976 5.27656864,6.71739412 C5.27656864,6.97305848 5.30879524,7.20509 5.37324844,7.41563712 C5.43770164,7.62618424 5.52793612,7.80450476 5.64824876,7.95274712 C5.7685614,8.10098948 5.91250688,8.21700524 6.08223364,8.29864596 C6.2519604,8.38028668 6.44102312,8.42110704 6.65157024,8.42110704 C6.875008,8.42110704 7.07481292,8.38243512 7.250985,8.30723972 C7.42715708,8.22989588 7.57539944,8.12032544 7.69571208,7.97637996 C7.81602472,7.83243448 7.90840764,7.65411396 7.97286084,7.44356684 C8.03731404,7.23301972 8.06954064,6.99454288 8.06954064,6.72598788 C8.06954064,6.45743288 8.03946248,6.2168076 7.9814546,6.0019636 C7.91914984,5.7871196 7.8310638,5.60665064 7.71504804,5.45840828 L7.71504804,5.45840828 Z M15.932831,0.33223044 L1.91426004,0.33223044 C0.89375104,0.33223044 0.05585944,1.135747 -1.77635684e-15,2.14336536 L-1.77635684e-15,11.2763838 C0.053711,12.2840022 0.89375104,13.0875187 1.91426004,13.0875187 L15.932831,13.0875187 C16.9898635,13.0875187 17.8492395,12.2281427 17.8492395,11.1711102 L17.8492395,2.24863892 C17.8492395,1.19375488 16.9877151,0.33223044 15.932831,0.33223044 Z M6.72891408,4.44219616 C7.036141,4.44219616 7.3154382,4.49590716 7.56680568,4.60332916 C7.81817316,4.71075116 8.03086872,4.86114196 8.20918924,5.05665 C8.38536132,5.25215804 8.52286148,5.48418956 8.61739284,5.75704144 C8.71407264,6.02774488 8.76133832,6.32852648 8.76133832,6.6572378 C8.75918988,7.00958196 8.70977576,7.33184796 8.61309596,7.62188736 C8.51641616,7.90977832 8.37676756,8.15470048 8.1962986,8.35665384 C8.01582964,8.5586072 7.79454032,8.71329488 7.53457908,8.82286532 C7.27461784,8.93028732 6.98028156,8.98614676 6.65157024,8.98614676 C6.337898,8.98614676 6.05215548,8.93243576 5.79649112,8.8271622 C5.54082676,8.72188864 5.32383432,8.57149784 5.14336536,8.3759898 C4.9628964,8.18048176 4.8232478,7.9463018 4.726568,7.67344992 C4.62773976,7.40059804 4.58047408,7.09551956 4.58047408,6.76036292 C4.58047408,6.4101672 4.6298882,6.09004964 4.726568,5.80430712 C4.8232478,5.5185646 4.96504484,5.27364244 5.14981068,5.07168908 C5.33457652,4.86973572 5.56016272,4.71504804 5.82442084,4.6054776 C6.0908274,4.49590716 6.391609,4.44219616 6.72891408,4.44219616 Z M11.5306775,4.49590716 L13.2687654,8.92169356 L12.549038,8.92169356 L12.0527484,7.65196552 L10.3490355,7.65196552 L9.88712088,8.92169356 L9.16524504,8.92169356 L10.8818486,4.49590716 L11.5306775,4.49590716 Z" id="形状" fill="#3599FE" fill-rule="nonzero"></path>
                    </g>
                    <rect id="矩形" fill="#2F4B74" x="4" y="14.5" width="10" height="1.5" rx="0.75"></rect>
                </g>
            </g>
        </g>
    </g>
</svg>