<?xml version="1.0" encoding="UTF-8"?>
<svg width="18px" height="15px" viewBox="0 0 18 15" version="1.1" xmlns="http://www.w3.org/2000/svg" xmlns:xlink="http://www.w3.org/1999/xlink">
    <title>营销</title>
    <g id="健康管理系统1.7.0" stroke="none" stroke-width="1" fill="none" fill-rule="evenodd">
        <g id="侧边栏" transform="translate(-908.000000, -192.000000)" fill-rule="nonzero">
            <g id="营销" transform="translate(908.000000, 192.000000)">
                <path d="M12.9567251,10.8494783 L10.4318757,1.85175171 L10.4318757,1.85175187 C10.40574,1.75562767 10.3667981,1.66358542 10.3161313,1.57818195 L10.3161312,1.57818191 C9.9969247,1.02228678 9.29475488,0.834638837 8.74779356,1.15905914 C8.74747886,1.1592458 8.74716424,1.15943262 8.74684971,1.15961958 L0.569352442,6.02916852 L0.569352346,6.02916858 C0.133049976,6.28841594 -0.0854328199,6.80690623 0.0310056293,7.30674075 L0.99464669,11.4376443 L0.994646636,11.437644 C1.11705481,11.9639341 1.57961421,12.3354938 2.11171644,12.3349545 L3.61100614,12.3349545 L4.14935286,14.5563425 L4.17088673,14.6219993 L4.17088672,14.6219993 C4.27403201,14.8985217 4.56388871,15.0534462 4.84651309,14.9831119 L4.86804695,14.9831119 L7.99854193,14.0557089 L8.06045188,14.0338233 L8.06045186,14.0338233 C8.32303236,13.9242057 8.46641074,13.635097 8.3969182,13.3553702 L8.14389539,12.3322174 L11.8450382,12.3322174 L11.8450381,12.3322174 C11.9516059,12.3341738 12.0578333,12.3194097 12.1599709,12.2884462 L12.1599709,12.2884462 C12.770154,12.1161593 13.1273843,11.4737615 12.9578648,10.8536104 C12.957487,10.8522285 12.9571068,10.8508474 12.956724,10.8494669 L12.9567251,10.8494783 Z M10.4991745,9.96858214 L10.4991745,9.96858215 C10.29186,10.0393213 10.067194,9.92698542 9.99581962,9.71689753 L8.78992181,5.61334139 L8.78992179,5.61334134 C8.71855445,5.38693155 8.83805786,5.1440215 9.05909515,5.06620151 L9.05909514,5.06620152 C9.26711798,4.99529126 9.49259449,5.10743292 9.56514076,5.31788614 L9.56514076,5.33156465 L10.7710386,9.43512079 L10.7710386,9.43512078 C10.8351995,9.65820326 10.7154712,9.89313725 10.499173,9.96858249 L10.4991745,9.96858214 Z" id="形状" fill="#3599FE"></path>
                <path d="M15.3435605,8.35336067 L15.383845,8.3764891 L17.5937433,9.77286965 L17.5937433,9.77286966 C17.8647174,9.94628591 17.9584795,10.2992382 17.8095537,10.5852563 L17.7635142,10.6719879 L17.7635142,10.6719879 C17.603321,10.9722104 17.2324658,11.0869586 16.9319263,10.9292919 L16.8916418,10.9061635 L14.6846261,9.5068929 L14.6846261,9.5068929 C14.4128589,9.3354336 14.3187369,8.98238423 14.4688158,8.69739787 L14.5148552,8.61066626 L14.5148552,8.61066633 C14.6726581,8.30979104 15.043345,8.19441191 15.3428078,8.35295997 C15.3430608,8.35309391 15.3433137,8.35322802 15.3435664,8.35336231 L15.3435605,8.35336067 Z M17.9419202,4.62389911 L17.9419202,4.62389913 C17.9432679,4.63251944 17.9432679,4.64129821 17.9419202,4.64991854 L17.9764498,4.76556068 L17.9764498,4.76556064 C18.0667369,5.08349435 17.8897691,5.41607706 17.5764826,5.51723459 L15.1997001,6.30649309 L15.1997001,6.30649311 C14.8636334,6.41949414 14.5000223,6.23737694 14.3875523,5.89972288 C14.3868152,5.89750988 14.38609,5.89529286 14.3853769,5.89307195 L14.3853769,5.86705239 L14.3853769,5.86705245 C14.2795898,5.50209538 14.4806409,5.11855034 14.840017,4.99973636 L17.1678873,4.22782433 L17.1678873,4.22782432 C17.4902822,4.12506256 17.8350546,4.30148236 17.9419259,4.6238986 L17.9419202,4.62389911 Z M15.1565287,0.0936189033 L15.1968132,0.116747332 L15.1968132,0.116747334 C15.4835875,0.297794158 15.5710077,0.677542701 15.3924806,0.96671695 L14.1695563,2.88926411 L14.1695564,2.88926406 C13.9885673,3.17498937 13.6118984,3.26023604 13.326458,3.08007376 L13.2861734,3.0540542 L13.2861735,3.05405422 C13.0004151,2.87205553 12.9143256,2.49250895 13.0933825,2.2040846 L14.3134288,0.287314389 L14.3134287,0.28731443 C14.493472,0.00057150547 14.8703403,-0.0860137235 15.1565272,0.0936131313 L15.1565287,0.0936189033 Z" id="形状" fill="#2F4B74"></path>
            </g>
        </g>
    </g>
</svg>