<?xml version="1.0" encoding="UTF-8"?>
<svg width="15px" height="18px" viewBox="0 0 15 18" version="1.1" xmlns="http://www.w3.org/2000/svg" xmlns:xlink="http://www.w3.org/1999/xlink">
    <title>药品</title>
    <g id="将康管理1.8.0" stroke="none" stroke-width="1" fill="none" fill-rule="evenodd">
        <g id="侧边栏备份" transform="translate(-623.000000, -769.000000)" fill="#3599FE" fill-rule="nonzero">
            <g id="药品" transform="translate(623.000000, 769.000000)">
                <path d="M12.2727305,3.70587761 L2.45455428,3.70587761 C1.6909175,3.70587761 1.09091955,3.12352446 1.09091955,2.38235042 L1.09091955,1.32352719 C1.09091955,0.582350671 1.69092005,0 2.45455428,0 L12.2727305,0 C13.0363672,0 13.6363652,0.582353153 13.6363652,1.32352719 L13.6363652,2.38235042 C13.6363652,3.12352694 12.9818201,3.70587761 12.2727305,3.70587761 Z M14.4545465,6.98823535 C14.2909103,6.77647095 14.0727294,6.61764834 13.9636377,6.45882497 L12.327275,5.02941472 L2.39999948,5.02941472 L0.763636778,6.45882497 C0.600000509,6.61764834 0.436364239,6.7764717 0.272727969,6.98823535 C0.109091699,7.19999975 0,7.51764573 0,8.04705859 L0,16.2529405 C0,16.5705873 0.109090932,16.888234 0.218181608,17.1529404 C0.32727254,17.3647048 0.490909577,17.5764702 0.709090418,17.7352936 C0.927272026,17.8941169 1.2545438,18 1.69090804,18 L13.09091,18 C13.5272743,18 13.8545468,17.8941177 14.0727276,17.7352936 C14.2909093,17.5764702 14.4545448,17.3647066 14.5636365,17.1529404 C14.6727274,16.888234 14.7272727,16.5705873 14.7272727,16.2529405 L14.7272727,8.04705859 C14.7272727,7.57058851 14.6181818,7.20000149 14.4545448,6.98823535 L14.4545465,6.98823535 Z M10.2545404,12.4411625 L8.34544976,12.4411625 L8.34544976,14.2941025 C8.34544976,14.8235129 7.90908553,15.2470427 7.36363214,15.2470427 C6.81817876,15.2470427 6.38181453,14.8235129 6.38181453,14.2941025 L6.38181453,12.4411625 L4.47272386,12.4411625 C3.92727048,12.4411625 3.49090624,12.0176327 3.49090624,11.4882223 C3.49090624,10.9588119 3.92727048,10.5352822 4.47272386,10.5352822 L6.38181453,10.5352822 L6.38181453,8.68234211 C6.38181453,8.15293173 6.81817876,7.72940194 7.36363214,7.72940194 C7.90908553,7.72940194 8.34544976,8.15293173 8.34544976,8.68234211 L8.34544976,10.5352822 L10.2545404,10.5352822 C10.7999938,10.5352822 11.2363581,10.9588119 11.2363581,11.4882223 C11.2363581,12.0176327 10.7999938,12.4411625 10.2545404,12.4411625 Z" id="形状"></path>
            </g>
        </g>
    </g>
</svg>