<?xml version="1.0" encoding="UTF-8"?>
<svg width="18px" height="18px" viewBox="0 0 18 18" version="1.1" xmlns="http://www.w3.org/2000/svg" xmlns:xlink="http://www.w3.org/1999/xlink">
    <title>站内消息</title>
    <g id="健康管理系统1.8.0" stroke="none" stroke-width="1" fill="none" fill-rule="evenodd">
        <g id="侧边栏" transform="translate(-909.000000, -648.000000)" fill-rule="nonzero">
            <g id="站内消息备份" transform="translate(909.000000, 648.000000)">
                <g id="消息备份-2" transform="translate(2.000000, 0.000000)" fill="#2B2C43">
                    <path d="M9.77609108,1.60065321 C9.77609108,0.700118765 9.00603761,3.55271368e-15 7.99861998,3.55271368e-15 C6.99120235,3.55271368e-15 6.22114887,0.700118765 6.22114887,1.60065321 L6.22114887,1.84916865 C3.79230637,2.60005938 1.77747111,4.99703088 1.77747111,7.80017815 L1.77747111,9.99940618 C1.77747111,9.99940618 1.77747111,13.1472684 0.888735553,13.1980404 C0.356046231,13.1980404 0,13.5480998 0,13.9970309 C0,14.4486342 0.414007245,14.7960214 0.888735553,14.7960214 L15.1112644,14.7960214 C15.5859928,14.7960214 16,14.445962 16,13.9970309 C16,13.5454276 15.5859928,13.1980404 15.1112644,13.1980404 C14.2225289,13.1980404 14.2225289,9.99940618 14.2225289,9.99940618 L14.2225289,7.80017815 C14.2225289,5.0023753 12.3263757,2.65083135 9.77885113,1.84916865 L9.77885113,1.60065321" id="形状"></path>
                </g>
                <g id="消息" fill="#494B74">
                    <path d="M10.6648266,15.6003563 C10.6648266,16.9498219 9.47800587,18 7.99861998,18 C6.51923409,18 5.33241332,16.9498219 5.33241332,15.6003563 L10.6648266,15.6003563 M9.77609108,1.60065321 C9.77609108,0.700118765 9.00603761,0 7.99861998,0 C6.99120235,0 6.22114887,0.700118765 6.22114887,1.60065321 L6.22114887,1.84916865 C3.79230637,2.60005938 1.77747111,4.99703088 1.77747111,7.80017815 L1.77747111,9.99940618 C1.77747111,9.99940618 1.77747111,13.1472684 0.888735553,13.1980404 C0.356046231,13.1980404 0,13.5480998 0,13.9970309 C0,14.4486342 0.414007245,14.7960214 0.888735553,14.7960214 L15.1112644,14.7960214 C15.5859928,14.7960214 16,14.445962 16,13.9970309 C16,13.5454276 15.5859928,13.1980404 15.1112644,13.1980404 C14.2225289,13.1980404 14.2225289,9.99940618 14.2225289,9.99940618 L14.2225289,7.80017815 C14.2225289,5.0023753 12.3263757,2.65083135 9.77885113,1.84916865 L9.77885113,1.60065321" id="形状"></path>
                </g>
            </g>
        </g>
    </g>
</svg>