<?xml version="1.0" encoding="UTF-8"?>
<svg width="18px" height="18px" viewBox="0 0 18 18" version="1.1" xmlns="http://www.w3.org/2000/svg" xmlns:xlink="http://www.w3.org/1999/xlink">
    <title>睡眠</title>
    <g id="将康管理1.8.0" stroke="none" stroke-width="1" fill="none" fill-rule="evenodd">
        <g id="侧边栏备份" transform="translate(-621.000000, -702.000000)" fill="#494B74" fill-rule="nonzero">
            <g id="睡眠备份" transform="translate(621.000000, 702.000000)">
                <path d="M17.5261121,10.1532088 L17.5261121,10.1532088 C17.2897107,10.0110288 16.9892584,10.0338512 16.7770452,10.2101078 L16.7770456,10.2101075 C14.0088689,12.3800296 10.0057553,11.8950349 7.83583312,9.12685406 C6.04113037,6.83733392 6.02596488,3.62270004 7.79898896,1.31634744 L7.81347424,1.29654742 L7.81347424,1.29654741 C7.97396312,1.07668126 7.98073864,0.780181617 7.83046058,0.553212048 L7.82003951,0.537163608 L7.82003951,0.537163606 C7.67029085,0.310926768 7.39565386,0.201662311 7.13141474,0.263193407 L7.12359894,0.265069199 L7.12359852,0.265069297 C2.33041757,1.38991129 -0.643351308,6.18740925 0.481492723,10.9805902 C1.39999357,14.8945142 4.82455288,17.7093618 8.8422397,17.8527939 C8.94353245,17.8561981 9.0447558,17.8579002 9.14590994,17.8579002 L9.1459096,17.8579002 C13.327199,17.8568013 16.9448961,14.9474312 17.8429191,10.8636968 L17.845316,10.8521294 L17.8453159,10.8521294 C17.9009304,10.5816845 17.7797819,10.3055914 17.5431051,10.1634008 L17.5261121,10.1532088 Z M16.6507427,1.78092128 L16.6507426,1.78092124 C16.5246872,1.4246633 16.1878723,1.18645445 15.8099703,1.18629569 L11.8712149,1.18629569 L11.8712149,1.18629569 C11.521977,1.18646823 11.2390043,1.46972015 11.2391773,1.81895812 C11.2391774,1.81902769 11.2391774,1.81909726 11.2391775,1.81916683 L11.2391775,1.81917084 C11.239007,2.16842509 11.5219649,2.45170505 11.8712191,2.45193301 L14.7643062,2.45193301 L11.2126974,5.34992528 L11.2126973,5.34992532 C10.9203743,5.58864708 10.8094489,5.98522559 10.935497,6.34096858 L10.935497,6.34096864 C11.0615653,6.69726322 11.3984325,6.93547817 11.7763732,6.93559419 L15.9082236,6.93559419 L15.9082236,6.93559419 C16.2575185,6.93542157 16.540538,6.65212291 16.540365,6.30282795 C16.540365,6.3028279 16.540365,6.30282785 16.540365,6.3028278 L16.540365,6.3027891 C16.5405739,5.95349414 16.2575837,5.67016534 15.9082887,5.66995569 C15.9082539,5.66995567 15.9082191,5.66995565 15.9081843,5.66995564 L12.8214731,5.66995564 L16.3730818,2.77196337 L16.3730818,2.77196339 C16.6654863,2.53329454 16.7764279,2.13665905 16.6502821,1.78092013 L16.6507427,1.78092128 Z" id="形状"></path>
            </g>
        </g>
    </g>
</svg>