<?xml version="1.0" encoding="UTF-8"?>
<svg width="18px" height="18px" viewBox="0 0 18 18" version="1.1" xmlns="http://www.w3.org/2000/svg" xmlns:xlink="http://www.w3.org/1999/xlink">
    <title>运营数据</title>
    <g id="页面-1" stroke="none" stroke-width="1" fill="none" fill-rule="evenodd">
        <g id="按钮状态" transform="translate(-1128.000000, -669.000000)" fill-rule="nonzero">
            <g id="运营数据" transform="translate(1128.000000, 669.000000)">
                <path d="M3.69452474,17 L0.176983221,17 C0.0824580917,17 0.0060335189,16.9207583 0.0060335189,16.8227487 L0.0060335189,15.7675824 C0.0060335189,15.7112791 0.0301675945,15.6591464 0.0724022269,15.6257814 L3.41899405,12.9545007 C3.53161973,12.8648325 3.69653592,12.9482448 3.69653592,13.0963017 L3.69653592,17 L3.69452474,17 Z" id="路径" fill="#3599FE"></path>
                <path d="M8.34435665,17 L4.82480395,17 C4.73027882,17 4.65385425,16.9207583 4.65385425,16.8227487 L4.65385425,12.1182919 C4.65385425,12.0619885 4.67798832,12.0098558 4.72022296,11.9764909 L6.43776467,10.6064429 C6.50614455,10.5522249 6.60268086,10.5584808 6.66301604,10.6210401 L8.28402146,12.2767753 C8.31620022,12.3101403 8.33631195,12.3560171 8.33631195,12.4039792 L8.33631195,17 L8.34435665,17 Z" id="路径" fill="#3599FE"></path>
                <path d="M12.9841327,17 L9.46659116,17 C9.37206603,17 9.29564146,16.9207583 9.29564146,16.8227487 L9.29564146,13.8595248 C9.29564146,13.8115627 9.31374202,13.7656859 9.34592078,13.732321 L12.6925126,10.3144997 C12.8011159,10.2039783 12.9841327,10.28322 12.9841327,10.4417035 L12.9841327,17 Z" id="路径" fill="#3599FE"></path>
                <path d="M17.6259199,17 L14.1083784,17 C14.0138532,17 13.9374287,16.9207583 13.9374287,16.8227487 L13.9374287,9.10293521 C13.9374287,9.0549731 13.9555292,9.00909631 13.9897192,8.97573136 L15.9244676,7.00302915 C15.9888251,6.93629926 16.0934061,6.93421395 16.161786,6.99885853 L17.5736294,8.33554153 C17.6098305,8.36890648 17.6299422,8.41686858 17.6299422,8.46691599 L17.6259199,17 Z" id="路径" fill="#3599FE"></path>
                <path d="M16.9280429,5.38065883 L16.1316184,4.56738836 C16.0652497,4.49857316 15.9566463,4.49857316 15.8902776,4.56738836 L9.60737327,10.9776279 C9.54100456,11.0464431 9.43240122,11.0464431 9.36603251,10.9776279 L6.73742944,8.29175005 C6.67709426,8.22919078 6.58055795,8.22293485 6.51217807,8.27715288 L0.275530697,13.1984819 C0.16290501,13.2881502 0,13.2047378 0,13.0566809 L0,11.2612299 C0,11.2070119 0.0241340756,11.1548792 0.066368708,11.1194289 L6.66502722,5.81023246 C6.7334071,5.75601443 6.8299434,5.76227035 6.89027859,5.82482962 L9.37206603,8.35847993 C9.43843474,8.42729512 9.54703808,8.42729512 9.61340679,8.35847993 L14.6111716,3.25781437 C14.6795515,3.18691387 14.6795515,3.07222188 14.6111716,3.00340668 L13.7161996,2.10046793 L17.7848026,1.00568076 C17.9115065,0.972315818 18.0281545,1.09117842 17.9939645,1.22463819 L16.9280429,5.38065883 Z" id="路径" fill="#2F4B74"></path>
            </g>
        </g>
    </g>
</svg>