<?xml version="1.0" encoding="UTF-8"?>
<svg width="18px" height="18px" viewBox="0 0 18 18" version="1.1" xmlns="http://www.w3.org/2000/svg" xmlns:xlink="http://www.w3.org/1999/xlink">
    <title>数据字典备份</title>
    <g id="页面-1" stroke="none" stroke-width="1" fill="none" fill-rule="evenodd">
        <g id="按钮状态" transform="translate(-1098.000000, -717.000000)">
            <g id="编组-17" transform="translate(1098.000000, 717.000000)">
                <g id="数据" fill="#3599FE" fill-rule="nonzero">
                    <path d="M6.55601191,0.373380511 L11.4468067,0.373380511 L11.4468067,17.9122041 L6.55601191,17.9122041 L6.55601191,0.373380511 L6.55601191,0.373380511 Z M0.0396429984,8.49837181 L4.928719,8.49837181 L4.928719,17.9121832 L0.0396429984,17.9121832 L0.0396429984,8.49837181 Z M13.07425,5.35352946 L17.9649373,5.35352946 L17.9649373,17.9139809 L13.07425,17.9139809 L13.07425,5.35352946 Z M8.33986164,2.20709844 L11.4468281,2.20709844 L11.4468281,17.9139809 L8.33986164,17.9139809 L8.33986164,2.20709844 Z M1.82177398,10.2829868 L4.928719,10.2829868 L4.928719,17.9139809 L1.82177398,17.9139809 L1.82177398,10.2829868 Z M14.8578849,7.01311923 L17.9649588,7.01311923 L17.9649588,17.9122041 L14.8578849,17.9122041 L14.8578849,7.01311923 Z" id="形状"></path>
                </g>
                <rect id="矩形" fill="#2F4B74" x="0" y="8.27027027" width="5" height="9.72972973"></rect>
            </g>
        </g>
    </g>
</svg>