<?xml version="1.0" encoding="UTF-8"?>
<svg width="18px" height="18px" viewBox="0 0 18 18" version="1.1" xmlns="http://www.w3.org/2000/svg" xmlns:xlink="http://www.w3.org/1999/xlink">
    <title>编组 9</title>
    <defs>
        <filter id="filter-1">
            <feColorMatrix in="SourceGraphic" type="matrix" values="0 0 0 0 0.184314 0 0 0 0 0.294118 0 0 0 0 0.454902 0 0 0 1.000000 0"></feColorMatrix>
        </filter>
    </defs>
    <g id="页面-1" stroke="none" stroke-width="1" fill="none" fill-rule="evenodd">
        <g id="按钮状态" transform="translate(-1192.000000, -669.000000)">
            <g id="编组-9" transform="translate(1192.000000, 669.000000)">
                <g filter="url(#filter-1)" id="结算备份">
                    <g transform="translate(2.000000, 0.000000)">
                        <path d="M13.3325718,2.66453526e-15 L2.66742615,2.66453526e-15 C1.15611193,2.66453526e-15 2.66453526e-15,1.15657209 2.66453526e-15,2.66742652 L2.66453526e-15,14.9339496 C2.66453526e-15,15.2886919 0.178285809,15.6434363 0.534857016,15.8217214 C0.889599311,16 1.24434366,16 1.60091363,15.7334927 L4.44480325,13.5990915 L7.37874201,15.8217142 C7.55702782,15.9117713 7.82171399,16 8,16 C8.17828478,16 8.44479863,15.9117713 8.62308567,15.8217142 L11.5551968,13.5990915 L14.400914,15.7334927 C14.7556563,16 15.1122284,16 15.4669707,15.8217214 C15.821713,15.6434355 16,15.2886919 16,14.9339496 L16,2.66742652 C16,1.15611209 14.8434281,2.66453526e-15 13.3325739,2.66453526e-15" id="形状" fill="#1677FF" fill-rule="nonzero"></path>
                    </g>
                </g>
                <g id="结算" transform="translate(0.000000, 2.000000)" fill="#3599FE" fill-rule="nonzero">
                    <path d="M9.92183604,9.32207453 L9.9268646,9.29693161 L8.66057852,9.29693161 L8.66057852,9.85327523 C8.73829289,10.2834474 8.4521204,10.6944186 8.02332013,10.7735037 L8.02332021,10.7735037 C7.59241297,10.8508207 7.18041708,10.5641789 7.10310008,10.1332716 C7.09558475,10.0913868 7.09145436,10.0489649 7.09074898,10.0064169 L7.09074896,10.0064167 C7.08534264,9.95551213 7.08534264,9.90417836 7.090749,9.85327379 L7.090749,9.28413025 L5.82446292,9.28413025 L5.82446288,9.28413025 C5.47529193,9.28413169 5.19223368,9.00107402 5.19223163,8.65190301 C5.19223163,8.65129261 5.19223251,8.65068221 5.19223427,8.65007181 C5.19223427,8.30081455 5.47520627,8.01784252 5.82446347,8.01784252 L7.09074955,8.01784252 L7.09074955,7.4614989 L5.82446347,7.4614989 L5.82446346,7.4614989 C5.47478733,7.46149888 5.19132042,7.17803195 5.19132042,6.82835577 C5.19132042,6.47867958 5.47478733,6.19521264 5.82446346,6.19521264 L6.99474914,6.19521264 L6.99474914,6.11795539 L5.5721205,4.82104009 C5.4011491,4.65555438 5.46423484,4.33326937 5.69829198,4.09189655 L5.69829195,4.09189659 C5.88825642,3.8629561 6.21793405,3.80911554 6.47086433,3.96572509 L7.83772206,5.28961201 L9.10400814,4.02332575 L9.10400809,4.02332579 C9.36579132,3.82346533 9.73681639,3.85638369 9.95932301,4.09921146 C10.211666,4.34058222 10.3323524,4.54949832 10.0854945,4.8141833 L8.65555102,6.24595465 L9.9218371,6.24595465 L9.92183707,6.24595465 C10.2715132,6.24595463 10.5549801,6.5294216 10.5549801,6.87909778 C10.5549801,7.22877396 10.2715132,7.51224091 9.92183707,7.51224091 L8.65555099,7.51224091 L8.65555099,8.0562405 L9.92183707,8.0562405 C10.2710943,8.0562405 10.5536083,8.33875459 10.5536083,8.68801185 L10.5536083,8.68801427 C10.554617,9.03718322 10.2723778,9.32105883 9.92320886,9.32206713 C9.92275078,9.32206845 9.9222927,9.32206928 9.92183462,9.32206961 M13.3325718,0 L2.66742615,0 C1.15611193,0 0,1.15657209 0,2.66742652 L0,14.9339496 C0,15.2886919 0.178285809,15.6434363 0.534857016,15.8217214 C0.889599311,16 1.24434366,16 1.60091363,15.7334927 L4.44480325,13.5990915 L7.37874201,15.8217142 C7.55702782,15.9117713 7.82171399,16 8,16 C8.17828478,16 8.44479863,15.9117713 8.62308567,15.8217142 L11.5551968,13.5990915 L14.400914,15.7334927 C14.7556563,16 15.1122284,16 15.4669707,15.8217214 C15.821713,15.6434355 16,15.2886919 16,14.9339496 L16,2.66742652 C16,1.15611209 14.8434281,0 13.3325739,0" id="形状"></path>
                </g>
            </g>
        </g>
    </g>
</svg>