<?xml version="1.0" encoding="UTF-8"?>
<svg width="18px" height="18px" viewBox="0 0 18 18" version="1.1" xmlns="http://www.w3.org/2000/svg" xmlns:xlink="http://www.w3.org/1999/xlink">
    <title>独立应用</title>
    <g id="健康管理2.0.0" stroke="none" stroke-width="1" fill="none" fill-rule="evenodd">
        <g id="侧边栏" transform="translate(-911.000000, -1164.000000)" fill-rule="nonzero">
            <g id="独立应用" transform="translate(911.000000, 1164.000000)">
                <path d="M8.13158332,1.40132586 L8.13158332,7.04606248 L8.13158332,7.0460285 C8.13092905,7.64527025 7.64533074,8.13089797 7.04608898,8.13159 L1.40131165,8.13159 L1.40131162,8.13159 C0.802069864,8.13091698 0.316456388,7.64530282 0.31578468,7.0460631 L0.31578468,1.40132647 L0.31578468,1.4013604 C0.316438974,0.802118642 0.802037261,0.316490918 1.40127901,0.315798895 L7.04601564,0.315798895 L7.04601569,0.315798895 C7.64525744,0.316471931 8.13087092,0.802086076 8.13158332,1.4013258 L8.13158332,1.40132586 Z M7.04605638,9.86844097 L1.40131975,9.86844097 L1.40131972,9.86844097 C0.802077968,9.86911399 0.316464492,10.3547282 0.315792784,10.9539679 L0.315792784,16.5987045 L0.315792784,16.5986706 C0.316447078,17.1979123 0.802045364,17.6835401 1.40128712,17.6842321 L7.04602374,17.6842321 L7.04602379,17.6842321 C7.64526554,17.683559 8.13087902,17.1979449 8.13155073,16.5987052 L8.13155073,10.9539686 L8.13155073,10.9540025 C8.13089646,10.3547608 7.64529815,9.86913306 7.04605639,9.86844097 L7.04605638,9.86844097 Z M16.5986923,9.86844097 L10.9539557,9.86844097 L10.9539557,9.86844097 C10.3547139,9.86911399 9.86910042,10.3547282 9.86842871,10.9539679 L9.86842871,16.5987045 L9.86842871,16.5986706 C9.86908301,17.1979123 10.3546813,17.6835401 10.953923,17.6842321 L16.5986597,17.6842321 L16.5986597,17.6842321 C17.1979015,17.683559 17.683515,17.1979449 17.6841867,16.5987052 L17.6841867,10.9539686 L17.6841867,10.9540025 C17.6835324,10.3547608 17.1979341,9.86913306 16.5986923,9.86844097 L16.5986923,9.86844097 Z" id="形状" fill="#3599FE"></path>
                <path d="M13.0087169,7.97813106 L13.0087168,7.97813101 C13.4329559,8.40133412 14.1196858,8.40133412 14.5439249,7.97813112 L17.5307608,4.9912952 L17.5307608,4.99129517 C17.9539639,4.56705607 17.9539639,3.88032622 17.5307608,3.45608711 L14.5439249,0.469251194 L14.5439249,0.469251224 C14.1196858,0.0460481203 13.4329559,0.0460481203 13.0087168,0.469251165 L10.0218809,3.45608708 L10.021881,3.45608704 C9.59867786,3.88032614 9.59867786,4.56705599 10.0218809,4.9912951 L13.0087169,7.97813106 Z" id="路径" fill="#2F4B74"></path>
            </g>
        </g>
    </g>
</svg>