<?xml version="1.0" encoding="UTF-8"?>
<svg width="18px" height="18px" viewBox="0 0 18 18" version="1.1" xmlns="http://www.w3.org/2000/svg" xmlns:xlink="http://www.w3.org/1999/xlink">
    <title>icon/项目管理</title>
    <g id="页面-1" stroke="none" stroke-width="1" fill="none" fill-rule="evenodd">
        <g id="icon" transform="translate(-352.000000, -711.000000)">
            <g id="icon/项目管理" transform="translate(352.000000, 711.000000)">
                <rect id="bound" x="0" y="0" width="18" height="18"></rect>
                <g id="编组" fill-rule="nonzero">
                    <g id="开关">
                        <path d="M4.10625,9.7875 L13.89375,9.7875 C16.161525,9.7875 18,11.625975 18,13.89375 C18,16.161525 16.161525,18 13.89375,18 L4.10625,18 C1.83841875,18 0,16.161525 0,13.89375 C0,11.625975 1.83841875,9.7875 4.10625,9.7875 Z" id="路径" fill="#2F4B74"></path>
                        <path d="M13.89375,18 L4.10625,18 C1.842075,18 0,16.157925 0,13.89375 C0,11.629575 1.842075,9.7875 4.10625,9.7875 L13.89375,9.7875 C16.157925,9.7875 18,11.629575 18,13.89375 C18,16.157925 16.157925,18 13.89375,18 Z M4.10625,11.475 C2.7725625,11.475 1.6875,12.5600625 1.6875,13.89375 C1.6875,15.2274375 2.7725625,16.3125 4.10625,16.3125 L13.89375,16.3125 C15.2274375,16.3125 16.3125,15.2274375 16.3125,13.89375 C16.3125,12.5600625 15.2274375,11.475 13.89375,11.475 L4.10625,11.475 Z" id="形状" fill="#2F4B74"></path>
                        <path d="M4.10625,0 L13.89375,0 C16.161525,0 18,1.83841875 18,4.10625 C18,6.37408125 16.161525,8.2125 13.89375,8.2125 L4.10625,8.2125 C1.83841875,8.2125 0,6.37408125 0,4.10625 C0,1.83841875 1.83841875,0 4.10625,0 Z" id="路径" fill="#3599FE"></path>
                        <path d="M13.89375,8.2125 L4.10625,8.2125 C1.842075,8.2125 0,6.370425 0,4.10625 C0,1.842075 1.842075,0 4.10625,0 L13.89375,0 C16.157925,0 18,1.842075 18,4.10625 C18,6.370425 16.157925,8.2125 13.89375,8.2125 Z M4.10625,1.6875 C2.7725625,1.6875 1.6875,2.7725625 1.6875,4.10625 C1.6875,5.4399375 2.7725625,6.525 4.10625,6.525 L13.89375,6.525 C15.2274375,6.525 16.3125,5.4399375 16.3125,4.10625 C16.3125,2.7725625 15.2274375,1.6875 13.89375,1.6875 L4.10625,1.6875 Z" id="形状" fill="#3599FE"></path>
                        <path d="M2.7,13.89375 C2.7,14.9189286 3.53107143,15.75 4.55625,15.75 C5.58142857,15.75 6.4125,14.9189286 6.4125,13.89375 C6.4125,12.8685714 5.58142857,12.0375 4.55625,12.0375 C3.53107143,12.0375 2.7,12.8685714 2.7,13.89375 Z" id="路径" fill="#1D365A"></path>
                        <path d="M4.55625,15.75 C3.532725,15.75 2.7,14.917275 2.7,13.89375 C2.7,12.870225 3.532725,12.0375 4.55625,12.0375 C5.579775,12.0375 6.4125,12.870225 6.4125,13.89375 C6.4125,14.917275 5.579775,15.75 4.55625,15.75 Z M4.55625,13.1625 C4.15305,13.1625 3.825,13.49055 3.825,13.89375 C3.825,14.29695 4.15305,14.625 4.55625,14.625 C4.95945,14.625 5.2875,14.29695 5.2875,13.89375 C5.2875,13.49055 4.95945,13.1625 4.55625,13.1625 Z" id="形状" fill="#1D365A"></path>
                        <path d="M11.5875,4.10625 C11.5875,5.13142857 12.4185714,5.9625 13.44375,5.9625 C14.4689286,5.9625 15.3,5.13142857 15.3,4.10625 C15.3,3.08107143 14.4689286,2.25 13.44375,2.25 C12.4185714,2.25 11.5875,3.08107143 11.5875,4.10625 Z" id="路径" fill="#9DCEFF"></path>
                    </g>
                </g>
            </g>
        </g>
    </g>
</svg>