<?xml version="1.0" encoding="UTF-8"?>
<svg width="18px" height="18px" viewBox="0 0 18 18" version="1.1" xmlns="http://www.w3.org/2000/svg" xmlns:xlink="http://www.w3.org/1999/xlink">
    <title>采购备份</title>
    <g id="健康管理系统1.7.0" stroke="none" stroke-width="1" fill="none" fill-rule="evenodd">
        <g id="侧边栏" transform="translate(-909.000000, -388.000000)" fill-rule="nonzero">
            <g id="采购备份" transform="translate(909.000000, 388.000000)">
                <path d="M17.9662511,4.90275689 C17.4813763,6.25218527 17.1990005,7.04377766 17.1191257,7.27965791 C16.9807507,7.68979884 16.8423753,8.09781594 16.7040011,8.50158182 C16.566751,8.90534771 16.4542517,9.22411062 16.3698758,9.45787056 C16.3046257,9.66400295 16.2225008,9.91582611 16.1235013,10.2101508 C16.0132513,10.5406018 15.7151265,10.7616099 15.3776263,10.7616099 L5.42588393,10.7616099 L5.64413305,12.1843549 C5.66438314,12.3171726 5.77463298,12.4149273 5.90400893,12.4149273 L14.4056318,12.4149273 C14.8466311,12.4149273 15.2043826,12.7836286 15.2111323,13.241586 C15.2145073,13.6942284 14.8680067,14.0650571 14.4348815,14.0693066 L4.89824871,14.0693066 C4.52024794,14.0693066 4.19512294,13.7898576 4.12312404,13.4041549 L2.34562337,3.83064834 C2.3197484,3.69464288 2.2049984,3.5968884 2.07337413,3.5968884 L1.02374968,3.5968884 C0.459000003,3.5968884 0,3.11980771 0,2.53115842 C0,1.94144721 0.459000003,1.46436652 1.02487589,1.46436652 L3.1432498,1.46436652 C3.39075046,1.46436652 3.6022498,1.6418112 3.65624991,1.89150875 C3.95662447,3.26856292 4.12425024,4.02616153 4.16250025,4.16535769 L17.4735003,4.16535769 C17.7637502,4.16535769 18,4.41186772 18,4.71362933 L18,4.71363173 C18,4.77800118 17.9884511,4.84190582 17.9662492,4.90276458 L17.9662511,4.90275689 Z M5.96813372,14.5644541 L5.96813364,14.5644541 C6.41760476,14.5630231 6.84704133,14.7399891 7.1516331,15.0521697 L7.15163311,15.0521698 C7.63969601,15.5578411 7.77946167,16.2822221 7.51163322,16.917991 L7.51163327,16.9179909 C7.42760953,17.1178382 7.30560249,17.3014903 7.15163316,17.4598875 L7.15163313,17.4598875 C7.00102768,17.6134325 6.82031492,17.7379253 6.61950802,17.826465 L6.61950808,17.826465 C6.41607709,17.917887 6.19341465,17.9647414 5.96813373,17.9635557 C5.72850906,17.9635557 5.50688318,17.9178436 5.29988307,17.8254024 L5.29988311,17.8254024 C5.09961223,17.7364719 4.91903973,17.6124381 4.76775799,17.4598886 L4.76775808,17.4598886 C4.27924693,16.9540003 4.13945513,16.2290742 4.40775796,15.593009 L4.40775784,15.5930093 C4.49178158,15.393162 4.61378862,15.2095099 4.76775795,15.0511127 C4.91738287,14.8981066 5.0951335,14.7791025 5.29988306,14.6940977 C5.50575883,14.6090944 5.72738284,14.5644541 5.96813373,14.5644541 L5.96813372,14.5644541 Z M13.4808783,14.6016443 L13.4808784,14.6016443 C13.9353156,14.6013997 14.3698379,14.7777788 14.6823785,15.0893588 L14.6823785,15.0893588 C15.1704414,15.5950302 15.310207,16.3194112 15.0423786,16.9551801 L15.0423786,16.9551799 C14.9583549,17.1550272 14.8363479,17.3386794 14.6823785,17.4970765 L14.6823786,17.4970765 C14.5296302,17.6525324 14.3451865,17.7772222 14.1401288,17.863654 L14.1401289,17.863654 C13.7248474,18.0454487 13.24591,18.0454487 12.8306285,17.863654 L12.8306284,17.863654 C12.6295657,17.7749996 12.4485038,17.6505309 12.297379,17.4970765 L12.2973789,17.4970764 C12.1434092,17.3386799 12.0214036,17.1550271 11.9373787,16.9551798 L11.9373787,16.9551798 C11.8466062,16.7450555 11.8003578,16.520156 11.8012407,16.2932157 L11.8012407,16.2932101 C11.7994897,15.8471051 11.9767674,15.4169411 12.2973831,15.0893512 L12.2973831,15.0893512 C12.6032748,14.7788984 13.0318691,14.6022793 13.4808826,14.6016443 L13.4808783,14.6016443 Z" id="形状" fill="#494B74"></path>
                <path d="M15.6093787,2.85844738 L9.00000654,2.85844738 L11.3850098,0.431602622 C11.660634,0.150028069 11.9655096,0.00658599266 12.2962601,0.000210946075 C12.6258843,-0.00616431219 12.93076,0.13196626 13.2075103,0.414603086 L15.6093787,2.85844738 L15.6093787,2.85844738 Z" id="路径" fill="#2B2C43"></path>
            </g>
        </g>
    </g>
</svg>