<?xml version="1.0" encoding="UTF-8"?>
<svg width="18px" height="18px" viewBox="0 0 18 18" version="1.1" xmlns="http://www.w3.org/2000/svg" xmlns:xlink="http://www.w3.org/1999/xlink">
    <title>icon/供应链备份 2</title>
    <g id="页面-1" stroke="none" stroke-width="1" fill="none" fill-rule="evenodd">
        <g id="icon" transform="translate(-59.000000, -165.000000)" fill-rule="nonzero">
            <g id="分享" transform="translate(59.000000, 165.000000)">
                <path d="M0,9 C0,10.863961 1.51103897,12.375 3.375,12.375 C5.23896103,12.375 6.75,10.863961 6.75,9 C6.75,7.13603897 5.23896103,5.625 3.375,5.625 C1.51103897,5.625 0,7.13603897 0,9 Z" id="路径" fill="#494B74"></path>
                <path d="M3.375,12.375 C1.514025,12.375 0,10.860975 0,9 C0,7.139025 1.514025,5.625 3.375,5.625 C5.235975,5.625 6.75,7.139025 6.75,9 C6.75,10.860975 5.235975,12.375 3.375,12.375 Z M3.375,7.3125 C2.4445125,7.3125 1.6875,8.0695125 1.6875,9 C1.6875,9.9304875 2.4445125,10.6875 3.375,10.6875 C4.3054875,10.6875 5.0625,9.9304875 5.0625,9 C5.0625,8.0695125 4.3054875,7.3125 3.375,7.3125 Z" id="形状" fill="#494B74"></path>
                <path d="M11.25,14.625 C11.25,16.488961 12.761039,18 14.625,18 C16.488961,18 18,16.488961 18,14.625 C18,12.761039 16.488961,11.25 14.625,11.25 C12.761039,11.25 11.25,12.761039 11.25,14.625 Z" id="路径" fill="#2B2C43"></path>
                <path d="M10.3323375,13.2278063 C10.2129188,13.2278063 10.0917,13.202325 9.97633125,13.14855 L4.9480875,10.8038812 C4.5257625,10.60695 4.3430625,10.1049188 4.53999375,9.68259375 C4.736925,9.2602125 5.2390125,9.077625 5.66128125,9.27444375 L10.6894687,11.6191125 C11.11185,11.8160438 11.29455,12.318075 11.0976187,12.7404 C10.9544062,13.0474125 10.6500937,13.2278063 10.3323375,13.2278063 L10.3323375,13.2278063 Z" id="路径" fill="#494B74"></path>
                <path d="M11.25,3.375 C11.25,5.23896103 12.761039,6.75 14.625,6.75 C16.488961,6.75 18,5.23896103 18,3.375 C18,1.51103897 16.488961,0 14.625,0 C12.761039,0 11.25,1.51103897 11.25,3.375 Z" id="路径" fill="#494B74"></path>
                <path d="M14.625,6.75 C12.764025,6.75 11.25,5.235975 11.25,3.375 C11.25,1.514025 12.764025,0 14.625,0 C16.485975,0 18,1.514025 18,3.375 C18,5.235975 16.485975,6.75 14.625,6.75 Z M14.625,1.6875 C13.6945125,1.6875 12.9375,2.4445125 12.9375,3.375 C12.9375,4.3054875 13.6945125,5.0625 14.625,5.0625 C15.5554875,5.0625 16.3125,4.3054875 16.3125,3.375 C16.3125,2.4445125 15.5554875,1.6875 14.625,1.6875 Z" id="形状" fill="#494B74"></path>
                <path d="M7.66771875,7.60280625 C7.3499625,7.60280625 7.04559375,7.4224125 6.90249375,7.11545625 C6.7055625,6.69313125 6.88831875,6.1911 7.3105875,5.99416875 L12.3388313,3.6495 C12.7610438,3.45256875 13.2631875,3.63526875 13.4601188,4.05759375 C13.65705,4.47991875 13.47435,4.98195 13.0519688,5.17888125 L8.02378125,7.52355 C7.91232105,7.57569888 7.79077516,7.60275388 7.66771875,7.60280625 L7.66771875,7.60280625 Z" id="路径" fill="#494B74"></path>
            </g>
        </g>
    </g>
</svg>