<?xml version="1.0" encoding="UTF-8"?>
<svg width="18px" height="18px" viewBox="0 0 18 18" version="1.1" xmlns="http://www.w3.org/2000/svg" xmlns:xlink="http://www.w3.org/1999/xlink">
    <title>日 历备份</title>
    <g id="将康管理1.8.0" stroke="none" stroke-width="1" fill="none" fill-rule="evenodd">
        <g id="侧边栏" transform="translate(-1218.000000, -110.000000)" fill="#494B74" fill-rule="nonzero">
            <g id="日-历备份" transform="translate(1218.000000, 110.000000)">
                <path d="M8.99954029,17.8611231 L1.78883891,17.8611231 C1.15378722,17.8611231 0.635051695,17.6518094 0.230757443,17.1637624 C0.0572206348,16.9544675 0,16.6756966 0,16.3959836 L0,3.1395362 C0,2.37175744 0.69227233,1.74385396 1.49992338,1.67441554 L2.99984676,1.67441554 C3.23060421,1.67441554 3.34598293,1.60495827 3.34598293,1.3956634 L3.34598293,0.83719835 C3.46136165,0.278733304 3.80749781,0 4.38439142,0 C4.84590631,0 5.19204247,0.349151329 5.25020056,0.906655615 L5.25020056,0.976094041 C5.3074212,1.74385396 5.3074212,1.74385396 6.05785161,1.74385396 L12.3455232,1.74385396 C12.6335013,1.74385396 12.7498175,1.67441554 12.7498175,1.39470264 L12.7498175,0.906655615 C12.8070381,0.348171731 13.2113324,0.0694384266 13.7300679,0.0694384266 C14.2488034,0.0694384266 14.595877,0.418589756 14.6530976,0.906655615 C14.6530976,1.18538892 14.5377189,1.53454025 14.7103183,1.67441554 C14.9410757,1.81427199 15.2872119,1.74385396 15.5761274,1.74385396 L16.4419366,1.74385396 C17.3077277,1.81331123 18,2.4412147 18,3.27843189 L18,16.3950229 C18,17.3016785 17.250507,17.9296008 16.2111791,18 C13.9036047,17.8611043 11.4224934,17.8611043 8.99954029,17.8611043 L8.99954029,17.8611231 Z M9.05769837,5.93086299 L1.84605955,5.93086299 C1.55808147,5.93086299 1.44176529,6.00032025 1.44176529,6.28003316 L1.44176529,15.9079366 C1.44176529,16.3265452 1.6153021,16.3959836 1.96051884,16.3959836 L16.1521016,16.3959836 C16.6708371,16.3959836 16.6708371,16.3959836 16.6708371,15.9079366 L16.6708371,6.34947158 C16.6708371,6.00032025 16.6136165,5.93086299 16.2665609,5.93086299 L9.05769837,5.93086299 L9.05769837,5.93086299 Z M4.55792823,14.3560085 L3.63489846,14.3560085 C3.23060421,14.3560085 3.05800485,14.1496148 2.99984676,13.806228 L2.99984676,12.6372285 C2.99984676,12.2928998 3.23060421,12.087448 3.57674037,12.087448 L5.53817864,12.087448 C5.94247289,12.087448 6.11507225,12.2938606 6.11507225,12.7066669 L6.11507225,13.8072076 C6.11507225,14.1515363 5.94153544,14.3569881 5.53817864,14.3569881 L4.55792823,14.3569881 L4.55792823,14.3560085 Z M9.05769837,14.3560085 L8.1346686,14.3560085 C7.73129377,14.3560085 7.49961691,14.1496148 7.49961691,13.806228 L7.49961691,12.7057062 C7.49961691,12.2928998 7.67315372,12.1559256 8.07651051,12.0864872 L9.9797907,12.0864872 C10.3259269,12.0864872 10.5566843,12.2928998 10.5566843,12.6362677 L10.5566843,13.8052672 C10.5566843,14.1496148 10.3259269,14.3550478 9.9797907,14.3550478 L9.05769837,14.3550478 L9.05769837,14.3560085 Z M13.5565311,12.0864872 L14.5377189,12.0864872 C14.8838551,12.0864872 15.1146125,12.2928998 15.0564544,12.6362677 L15.0564544,13.8747056 C15.0564544,14.2190532 14.825697,14.424505 14.4795608,14.424505 L12.5181226,14.424505 C12.1719864,14.424505 11.941229,14.2180924 11.941229,13.8747245 L11.941229,12.7057062 C11.941229,12.3613775 12.1719864,12.1559256 12.5181226,12.1559256 C12.8651962,12.0170299 13.2113324,12.0864872 13.5565311,12.0864872 L13.5565311,12.0864872 Z M9.05769837,10.4352052 L8.07651051,10.4352052 C7.67221626,10.4352052 7.49961691,10.2972892 7.49961691,9.88542471 L7.49961691,8.64698679 C7.49961691,8.30263926 7.67315372,8.16566509 8.01835243,8.16566509 L10.0379488,8.16566509 C10.3840849,8.16566509 10.5566843,8.37209653 10.6148424,8.71546446 L10.6148424,9.88446395 C10.6148424,10.2288115 10.4413056,10.4342445 10.0379488,10.4342445 C10.0379488,10.4352052 9.05676092,10.4352052 9.05769837,10.4352052 Z M4.55792823,8.16568393 L5.53817864,8.16568393 C5.8843148,8.16568393 6.11507225,8.37209653 6.11507225,8.64698679 L6.11507225,9.88542471 C6.11507225,10.2297722 5.94153544,10.3667464 5.59633673,10.3667464 L3.57674037,10.3667464 C3.23060421,10.3667464 3.05800485,10.2288115 3.05800485,9.88542471 L3.05800485,8.57849029 C3.05800485,8.2341616 3.28876229,8.09720626 3.63489846,8.09720626 C3.92287654,8.16568393 4.21179207,8.16568393 4.55792823,8.16568393 L4.55792823,8.16568393 Z M13.4993104,10.4352052 L12.51906,10.4352052 C12.1729239,10.4352052 11.9421664,10.2288115 11.9421664,9.88542471 L11.9421664,8.64698679 C11.9421664,8.30263926 12.1156852,8.16566509 12.4609019,8.16566509 L14.4804983,8.16566509 C14.8266345,8.16566509 14.9992338,8.37209653 14.9992338,8.64698679 L14.9992338,9.88542471 C14.9992338,10.160315 14.825697,10.3667464 14.4804983,10.3667464 C14.1915828,10.4352052 13.8454466,10.4352052 13.4993104,10.4352052 L13.4993104,10.4352052 Z" id="形状"></path>
            </g>
        </g>
    </g>
</svg>