<?xml version="1.0" encoding="UTF-8"?>
<svg width="18px" height="18px" viewBox="0 0 18 18" version="1.1" xmlns="http://www.w3.org/2000/svg" xmlns:xlink="http://www.w3.org/1999/xlink">
    <title>icon/内容管理</title>
    <g id="页面-1" stroke="none" stroke-width="1" fill="none" fill-rule="evenodd">
        <g id="icon" transform="translate(-630.000000, -843.000000)">
            <g id="icon/内容管理" transform="translate(630.000000, 843.000000)">
                <rect id="矩形" x="0" y="0" width="18" height="18"></rect>
                <g id="编组" fill-rule="nonzero">
                    <g id="分发内容备份">
                        <path d="M2.76976342,0 L13.1563762,0 C14.6860743,0 15.9261396,1.23992223 15.9261396,2.76944381 L15.9261396,13.010847 C15.9261396,14.5403686 14.6860743,15.7802908 13.1563762,15.7802908 L2.76976342,15.7802908 C1.24006532,15.7802908 0,14.5403686 0,13.010847 L0,2.76944381 C0,1.23992223 1.24006532,0 2.76976342,0 Z" id="形状" fill="#494B74"></path>
                        <path d="M7.63346797,5.95707362 L9.48505483,5.95707362 C9.98297155,5.95707361 10.3866128,5.55347893 10.3866128,5.05561966 C10.3866128,4.5577604 9.98297155,4.1541657 9.48505483,4.1541657 L5.53952683,4.1541657 C5.3558801,4.1541657 5.17975505,4.22711066 5.04989721,4.35695353 C4.92003936,4.4867964 4.84708598,4.66290112 4.84708598,4.84652666 L4.84708598,8.79159935 C4.86061404,9.27954238 5.26011094,9.66807327 5.74829776,9.66807327 C6.23648457,9.66807327 6.63598147,9.27954238 6.64950953,8.79159935 L6.64950953,7.39510732 L10.3866128,11.5091161 C10.533379,11.670617 10.7414077,11.7628116 10.9596479,11.7630757 C11.1778882,11.7633387 11.3861389,11.6716467 11.5332949,11.5105008 C11.8585737,11.1541657 11.8591737,10.6088389 11.5346797,10.2517886 L7.63346797,5.95707362 Z" id="路径" fill="#2B2C43"></path>
                        <path d="M15.0744374,18 L4.94472013,18 C4.57185622,18 4.2695903,17.697769 4.2695903,17.3249481 C4.2695903,16.9521272 4.57185622,16.6498961 4.94472013,16.6498961 L15.0751298,16.6498961 C15.9442887,16.6487519 16.648596,15.9445259 16.6497403,15.0754673 L16.6497403,4.87145165 C16.6497403,4.49863077 16.9520063,4.19639972 17.3248702,4.19639972 C17.6977341,4.19639972 18,4.49863077 18,4.87145165 L18,15.0754673 C17.9980922,16.6898513 16.6897001,17.9980924 15.0751298,18 L15.0744374,18 Z" id="路径" fill="#2B2C43"></path>
                    </g>
                </g>
            </g>
        </g>
    </g>
</svg>