<?xml version="1.0" encoding="UTF-8"?>
<svg width="18px" height="18px" viewBox="0 0 18 18" version="1.1" xmlns="http://www.w3.org/2000/svg" xmlns:xlink="http://www.w3.org/1999/xlink">
    <title>icon/健康专栏备份 2</title>
    <g id="页面-1" stroke="none" stroke-width="1" fill="none" fill-rule="evenodd">
        <g id="icon" transform="translate(-59.000000, -209.000000)">
            <g id="icon/健康专栏备份-2" transform="translate(59.000000, 209.000000)">
                <rect id="bound" x="0" y="0" width="18" height="18"></rect>
                <g id="icon/健康专栏" fill-rule="nonzero">
                    <g id="运营数据">
                        <path d="M8.15625,0 L9.84375,0 L9.84375,2.79017857 L8.15625,2.79017857 L8.15625,0 Z M14.2597687,17.8853237 C13.9348125,17.8853237 13.6251562,17.6980469 13.4864437,17.383817 L11.7451687,13.4390625 C11.55825,13.015625 11.7527625,12.5219866 12.1796437,12.3365513 C12.6063562,12.1511719 13.1040562,12.3440848 13.290975,12.7675781 L15.03225,16.7123326 C15.2191687,17.1357701 15.0246562,17.6294085 14.597775,17.8148437 C14.4876937,17.8626674 14.372775,17.8853237 14.2597687,17.8853237 L14.2597687,17.8853237 Z M3.79648125,17.8853237 C3.6851625,17.8853237 3.57204375,17.8633371 3.46336875,17.8169085 C3.0353625,17.6341518 2.83764375,17.1417411 3.0218625,16.7171317 L4.7332125,12.7723772 C4.91743125,12.3477679 5.413725,12.1515067 5.8417875,12.334375 C6.26979375,12.5171317 6.4675125,13.0095424 6.28329375,13.4341518 L4.57194375,17.3789062 C4.43446875,17.6957031 4.12335,17.8853237 3.79648125,17.8853237 Z" id="形状" fill="#2B2C43"></path>
                        <path d="M1.9125,1.171875 L16.0875,1.171875 C17.1437063,1.171875 18,2.02131696 18,3.06919643 L18,11.4397321 C18,12.4875558 17.1437063,13.3370536 16.0875,13.3370536 L1.9125,13.3370536 C0.8562375,13.3370536 0,12.4875558 0,11.4397321 L0,3.06919643 C0,2.02131696 0.8562375,1.171875 1.9125,1.171875 Z" id="路径" fill="#494B74"></path>
                        <path d="M16.0875,13.3370536 L1.9125,13.3370536 C0.857925,13.3370536 0,12.4859375 0,11.4397321 L0,3.06919643 C0,2.02299107 0.857925,1.171875 1.9125,1.171875 L16.0875,1.171875 C17.142075,1.171875 18,2.02299107 18,3.06919643 L18,11.4397321 C18,12.4859375 17.142075,13.3370536 16.0875,13.3370536 Z M1.9125,2.84598214 C1.7884125,2.84598214 1.6875,2.94609375 1.6875,3.06919643 L1.6875,11.4397321 C1.6875,11.5628348 1.7884125,11.6629464 1.9125,11.6629464 L16.0875,11.6629464 C16.2115875,11.6629464 16.3125,11.5628348 16.3125,11.4397321 L16.3125,3.06919643 C16.3125,2.94609375 16.2115875,2.84598214 16.0875,2.84598214 L1.9125,2.84598214 Z" id="形状" fill="#494B74"></path>
                        <path d="M14.653125,9.79352679 L8.409375,9.79352679 C7.9434,9.79352679 7.565625,9.41875 7.565625,8.95647321 C7.565625,8.49419643 7.9434,8.11941964 8.409375,8.11941964 L14.653125,8.11941964 C15.1191,8.11941964 15.496875,8.49419643 15.496875,8.95647321 C15.496875,9.41875 15.1191,9.79352679 14.653125,9.79352679 Z" id="路径" fill="#2B2C43"></path>
                    </g>
                </g>
            </g>
        </g>
    </g>
</svg>