<?xml version="1.0" encoding="UTF-8"?>
<svg width="18px" height="18px" viewBox="0 0 18 18" version="1.1" xmlns="http://www.w3.org/2000/svg" xmlns:xlink="http://www.w3.org/1999/xlink">
    <title>CP结算</title>
    <g id="将康管理1.8.0" stroke="none" stroke-width="1" fill="none" fill-rule="evenodd">
        <g id="侧边栏备份" transform="translate(-620.000000, -57.000000)" fill-rule="nonzero">
            <g id="CP结算" transform="translate(620.000000, 57.000000)">
                <path d="M17.0847902,14.6006663 L17.0847902,14.6006663 C17.4205577,14.6236509 17.6751557,14.9304892 17.6534479,15.2860076 C17.6336967,15.6094848 17.3902964,15.8672015 17.0847902,15.8881158 L15.1250956,15.8881158 L15.1250956,17.0882122 L15.1250956,17.0882119 C15.1033882,17.4437304 14.8135963,17.7133048 14.4778288,17.69032 C14.1723227,17.6694071 13.9289236,17.411689 13.9091711,17.0882119 L13.9091711,15.8854277 L11.9494766,15.8854277 L11.9494766,15.8854277 C11.6137091,15.8624431 11.359111,15.5556049 11.3808189,15.2000864 C11.4005701,14.8766092 11.6439704,14.6188926 11.9494766,14.5979782 L13.9091711,14.5979782 L13.9091711,13.7231039 L11.9494766,13.7231039 L11.9494766,13.7231039 C11.6137091,13.7001193 11.359111,13.3932811 11.3808189,13.0377626 C11.4005701,12.7142854 11.6439704,12.4565688 11.9494766,12.4356544 L13.4433629,12.4356544 L12.115746,11.0312863 L12.115746,11.0312863 C11.878816,10.7804193 11.878816,10.3736817 12.115746,10.1228146 C12.3526759,9.87194762 12.736817,9.87194762 12.973747,10.1228146 L14.5171334,11.7569885 L16.0605198,10.1228146 L16.0605198,10.1228146 C16.2974498,9.87194763 16.6815908,9.87194763 16.9185208,10.1228146 C17.1554508,10.3736817 17.1554508,10.7804193 16.9185208,11.0312863 L15.5909039,12.4369983 L17.0847902,12.4369983 L17.0847902,12.4369983 C17.4205577,12.4599829 17.6751558,12.7668212 17.6534479,13.1223397 C17.6336967,13.4458168 17.3902964,13.7035335 17.0847902,13.7244478 L15.1250957,13.7244478 L15.1250957,14.5993221 L17.0847902,14.600666 L17.0847902,14.6006663 Z" id="路径" fill="#2F4B74"></path>
                <path d="M4.33915997,3.65331422 L4.33915997,3.65331476 C4.33915997,5.63501933 5.8564002,7.24150898 7.72801007,7.24150898 C9.59961994,7.24150898 11.1168602,5.63501933 11.1168602,3.65331476 L11.1168602,3.65331476 C11.1168602,1.67161019 9.59961994,0.0651205393 7.72801007,0.0651205393 C5.8564002,0.0651205393 4.33915997,1.67161019 4.33915997,3.65331476 L4.33915997,3.65331422 Z" id="路径" fill="#3599FE"></path>
                <path d="M9.20031947,13.7096653 C9.20031947,11.7852106 10.2030129,10.1255027 11.6753229,9.23315782 L11.6753229,9.23315815 C10.5085038,8.50832528 9.18108321,8.12390889 7.82827995,8.11907088 C3.56873653,8.11907088 0.118963289,11.7018895 0.0656555343,16.1394241 L9.79939763,16.1394241 L9.79939754,16.1394241 C9.41131392,15.3951382 9.20536115,14.559831 9.20031992,13.7096654 L9.20031947,13.7096653 Z" id="形状" fill="#3599FE"></path>
            </g>
        </g>
    </g>
</svg>