<?xml version="1.0" encoding="UTF-8"?>
<svg width="18px" height="18px" viewBox="0 0 18 18" version="1.1" xmlns="http://www.w3.org/2000/svg" xmlns:xlink="http://www.w3.org/1999/xlink">
    <title>icon/图文问诊怎</title>
    <g id="页面-1" stroke="none" stroke-width="1" fill="none" fill-rule="evenodd">
        <g id="icon" transform="translate(-59.000000, -297.000000)" fill-rule="nonzero">
            <g id="对话" transform="translate(68.000000, 306.000000) scale(-1, 1) translate(-68.000000, -306.000000) translate(59.000000, 297.000000)">
                <path d="M0.84375,18 C0.377759742,18 0,17.6222403 0,17.15625 L0,9.9 C0,9.279675 0.504675,8.775 1.125,8.775 L8.71875,8.775 C9.339075,8.775 9.84375,9.279675 9.84375,9.9 L9.84375,15.2418937 C9.84375,15.8622188 9.339075,16.3668937 8.71875,16.3668937 L3.8592,16.3668937 C3.85374375,16.3702688 3.8482875,16.3735312 3.842775,16.3767937 L1.27040625,17.8842375 C1.14099952,17.960049 0.993728263,18 0.84375,18 L0.84375,18 Z M8.71875,9.61875 C8.87408009,9.61875 9,9.74466991 9,9.9 L9,15.2418937 C9,15.3972238 8.87408009,15.5231437 8.71875,15.5231437 L3.2016375,15.5231437 L3.41611875,15.6488062 L0.84375,17.15625 L0.84375,9.9 C0.84375,9.74466991 0.969669914,9.61875 1.125,9.61875 L8.71875,9.61875 Z" id="形状" fill="#2B2C43"></path>
                <path d="M16.875,0.84375 C17.0303301,0.84375 17.15625,0.969669914 17.15625,1.125 L17.15625,12.54375 L13.1646937,10.20375 L13.4973562,10.0087312 L4.78125,10.0087312 C4.62591991,10.0087312 4.5,9.88281134 4.5,9.72748125 L4.5,1.125 C4.5,0.969669914 4.62591991,0.84375 4.78125,0.84375 L16.875,0.84375 Z" id="路径" fill="#494B74"></path>
                <path d="M17.15625,13.3875 C17.0087062,13.3875 16.861275,13.3488563 16.7295375,13.271625 L12.7379812,10.931625 C12.6982923,10.9083357 12.6605562,10.8818678 12.6251438,10.8524813 L4.78125,10.8524813 C4.160925,10.8524813 3.65625,10.3478063 3.65625,9.72748125 L3.65625,1.125 C3.65625,0.504675 4.160925,0 4.78125,0 L16.875,0 C17.495325,0 18,0.504675 18,1.125 L18,12.54375 C18,13.0097145 17.6222145,13.3875 17.15625,13.3875 L17.15625,13.3875 Z M14.3355938,9.91215 L16.3125,11.0710688 L16.3125,1.6875 L5.34375,1.6875 L5.34375,9.1650375 L13.4973562,9.1650375 C13.9259736,9.16501724 14.2865028,9.48635322 14.3355937,9.91215 L14.3355938,9.91215 Z" id="形状" fill="#494B74"></path>
                <path d="M8.4375,14.0625 L5.625,14.0625 C5.31433125,14.0625 5.0625,13.8106125 5.0625,13.5 C5.0625,13.1893875 5.31433125,12.9375 5.625,12.9375 L8.4375,12.9375 C8.74816875,12.9375 9,13.1893875 9,13.5 C9,13.8106125 8.74816875,14.0625 8.4375,14.0625 Z" id="路径" fill="#2B2C43"></path>
                <path d="M10.125,3.15 L5.625,3.15 C5.31433125,3.15 5.0625,2.89816875 5.0625,2.5875 C5.0625,2.27683125 5.31433125,2.025 5.625,2.025 L10.125,2.025 C10.4356125,2.025 10.6875,2.27683125 10.6875,2.5875 C10.6875,2.89816875 10.4356125,3.15 10.125,3.15 Z" id="路径" fill="#2B2C43"></path>
            </g>
        </g>
    </g>
</svg>