<?xml version="1.0" encoding="UTF-8"?>
<svg width="18px" height="15px" viewBox="0 0 18 15" version="1.1" xmlns="http://www.w3.org/2000/svg" xmlns:xlink="http://www.w3.org/1999/xlink">
    <title>诊疗方案</title>
    <g id="页面-1" stroke="none" stroke-width="1" fill="none" fill-rule="evenodd">
        <g id="按钮状态" transform="translate(-1098.000000, -850.000000)" fill="#3599FE" fill-rule="nonzero">
            <g id="诊疗方案" transform="translate(1098.000000, 850.000000)">
                <path d="M11.6044306,9.17045455 C8.97580271,9.17045455 6.86007779,6.88636364 6.86007779,4.125 C6.86007779,3.03409091 7.18064217,2.04545455 7.72560162,1.22727273 C6.89213422,0.511363636 5.8663282,0.0681818182 4.71229642,0.0681818182 C2.11572492,0.0681818182 0,2.31818182 0,5.07954545 C0,6.51136364 0.577015889,7.84090909 1.5066526,8.76136364 L1.57076547,8.79545455 L7.43709367,14.7613636 C7.6294323,14.9318182 7.88588381,15 8.14233532,15 C8.39878682,15 8.65523833,14.8977273 8.84757696,14.7613636 L13.752212,9.81818182 L12.9828575,9 C12.5020109,9.10227273 12.0532208,9.17045455 11.6044306,9.17045455 L11.6044306,9.17045455 Z M17.6630975,8.48863636 L15.9641062,6.68181818 L15.0985824,5.76136364 C15.3229775,5.25 15.4191468,4.70454545 15.4191468,4.09090909 C15.4191468,2.28409091 14.2971715,0.75 12.7584624,0.204545455 C12.3417287,0.0681818182 11.924995,0 11.4762049,0 C9.39253641,0.0681818182 7.72560162,1.84090909 7.72560162,4.05681818 C7.72560162,6.30681818 9.45664928,8.14772727 11.5403178,8.14772727 C12.0852772,8.14772727 12.6302367,8.01136364 13.1110832,7.80681818 L14.265115,9.03409091 L15.6755983,10.5340909 C15.9320498,10.8068182 16.2846706,10.9772727 16.6372915,10.9772727 C16.9899123,10.9772727 17.3425331,10.8409091 17.5989846,10.5340909 C17.8554361,10.2613636 17.9836619,9.88636364 17.9836619,9.51136364 C18.0477747,9.13636364 17.919549,8.76136364 17.6630975,8.48863636 L17.6630975,8.48863636 Z M11.6364871,6.71590909 C10.2901167,6.71590909 9.20019778,5.55681818 9.20019778,4.125 C9.20019778,2.69318182 10.2901167,1.53409091 11.6364871,1.53409091 C12.9828575,1.53409091 14.0727764,2.69318182 14.0727764,4.125 C14.0727764,5.55681818 12.9828575,6.71590909 11.6364871,6.71590909 L11.6364871,6.71590909 Z" id="形状"></path>
            </g>
        </g>
    </g>
</svg>