<?xml version="1.0" encoding="UTF-8"?>
<svg width="18px" height="18px" viewBox="0 0 18 18" version="1.1" xmlns="http://www.w3.org/2000/svg" xmlns:xlink="http://www.w3.org/1999/xlink">
    <title>积分</title>
    <g id="页面-1" stroke="none" stroke-width="1" fill="none" fill-rule="evenodd">
        <g id="icon" transform="translate(-352.000000, -667.000000)">
            <g id="积分" transform="translate(352.000000, 667.000000)">
                <rect id="bound" x="0" y="0" width="18" height="18"></rect>
                <g id="编组" fill-rule="nonzero">
                    <g id="积分-(1)">
                        <g transform="translate(1.752802, 0.000000)" fill="#3599FE" id="形状">
                            <path d="M12.2864224,12.122674 C10.9428879,13.4573331 9.25150862,14.147674 7.21228448,14.1936967 C5.17306034,14.147674 3.48168103,13.4573331 2.13814655,12.122674 C0.794612069,10.7880149 0.09375,9.11969105 0.0342672414,7.1151456 C0.09375,5.09909446 0.794612069,3.42437855 2.13814655,2.08971946 C3.48168103,0.756338778 5.17306034,0.0659978693 7.21228448,0.018696733 C9.25150862,0.0659978693 10.9428879,0.756338778 12.2864224,2.08971946 C13.6299569,3.42437855 14.3256466,5.09909446 14.3721983,7.1151456 C14.3256466,9.11969105 13.6299569,10.7880149 12.2864224,12.122674 Z M10.906681,6.2854581 C10.918319,6.22153764 10.9247845,6.16017401 10.9247845,6.10136719 C10.9842672,5.90321378 10.96875,5.74852628 10.880819,5.6385831 C10.7928879,5.52736151 10.6778017,5.46727628 10.5355603,5.45449219 L9.26314655,5.33176491 C9.00323276,5.33176491 8.79762931,5.2729581 8.64375,5.15662287 C8.48987069,5.04028764 8.35538793,4.88815696 8.23771552,4.70278764 L7.72564655,3.56628196 C7.66616379,3.49596946 7.62219828,3.43460582 7.5924569,3.38219105 C7.56271552,3.32977628 7.51875,3.30292969 7.45926724,3.30292969 C7.3299569,3.24412287 7.18771552,3.24156605 7.03512931,3.29398082 C6.88125,3.3463956 6.7700431,3.43716264 6.69892241,3.56500355 L6.18685345,4.70150923 C6.06918103,4.88815696 5.93081897,5.04540128 5.77176724,5.17324219 C5.61271552,5.3010831 5.40969828,5.39440696 5.16142241,5.45321378 L3.88900862,5.59383878 C3.82952586,5.5823331 3.78556034,5.58488991 3.75581897,5.60278764 C3.72607759,5.62068537 3.68211207,5.65775923 3.62262931,5.71656605 C3.36271552,5.97352628 3.36271552,6.22281605 3.62262931,6.4682706 L4.52392241,7.35932173 C4.90150862,7.61628196 5.03081897,7.99469105 4.91314655,8.49582741 L4.64806034,9.77167969 L4.64806034,10.0158558 C4.77737069,10.1436967 4.90668103,10.2344638 5.03728448,10.2868786 C5.16659483,10.3392933 5.29590517,10.3367365 5.42650862,10.2779297 L6.57607759,9.63105469 C6.76487069,9.50321378 6.97435345,9.43929332 7.20323276,9.43929332 C7.43211207,9.43929332 7.64806034,9.50321378 7.84849138,9.63105469 L8.99806034,10.400657 L9.38728448,10.400657 C9.51659483,10.3303445 9.61357759,10.2408558 9.67952586,10.1296342 C9.74418103,10.0184126 9.77650862,9.8995206 9.77650862,9.77167969 L9.51142241,8.49582741 C9.38211207,7.99469105 9.51142241,7.61628196 9.90064655,7.35932173 L10.8019397,6.4682706 C10.8601293,6.41074219 10.8950431,6.34937855 10.906681,6.2854581 Z"></path>
                        </g>
                        <path d="M3.39568966,14.063299 C4.03189655,14.6053445 4.73275862,15.0681286 5.49956897,15.4529297 L4.35,17.7425604 C4.29051724,17.8128729 4.22844828,17.8652876 4.1637931,17.8998047 C4.09913793,17.9343217 4.03060345,17.9228161 3.96077586,17.8652876 C3.9012931,17.8652876 3.85991379,17.8243786 3.83663793,17.7425604 L3.0762931,16.4667081 C2.93534483,16.222532 2.75172414,16.0563388 2.52801724,15.9681286 C2.30431034,15.8811967 2.05603448,15.8364524 1.78577586,15.8364524 L0.248275862,15.9591797 C0.188793103,15.9591797 0.133189655,15.9361683 0.0801724138,15.8888672 C0.0271551724,15.8415661 -7.53420315e-14,15.7840376 -7.53420315e-14,15.7137251 L-7.53420315e-14,15.5909979 L1.66163793,12.2875888 C2.18146552,12.9293501 2.75948276,13.5212536 3.39568966,14.063299 L3.39568966,14.063299 Z" id="路径" fill="#2F4B74"></path>
                        <path d="M17.9288793,15.4516513 C17.9288793,15.5219638 17.9017241,15.5833274 17.8487069,15.6357422 C17.7956897,15.688157 17.7336207,15.7150036 17.6625,15.7150036 L16.125,15.5922763 C15.8650862,15.5922763 15.6206897,15.6472479 15.3918103,15.7584695 C15.162931,15.8696911 14.9818966,16.0231001 14.8525862,16.2212536 L14.0922414,17.4792081 C14.0806034,17.5380149 14.0573276,17.5750888 14.0211207,17.5929865 C13.9849138,17.6108842 13.9616379,17.6198331 13.95,17.6198331 C13.8905172,17.6198331 13.8284483,17.6108842 13.7637931,17.5929865 C13.6991379,17.5750888 13.637069,17.5380149 13.5775862,17.4792081 L12.4112069,15.2074751 C13.1896552,14.8929865 13.8956897,14.4877308 14.5331897,13.9929865 C15.1693966,13.4982422 15.7474138,12.9293501 16.2659483,12.2888672 L17.9275862,15.5922763 L17.9275862,15.4516513 L17.9288793,15.4516513 Z" id="路径" fill="#2F4B74"></path>
                    </g>
                </g>
            </g>
        </g>
    </g>
</svg>