<?xml version="1.0" encoding="UTF-8"?>
<svg width="18px" height="18px" viewBox="0 0 18 18" version="1.1" xmlns="http://www.w3.org/2000/svg" xmlns:xlink="http://www.w3.org/1999/xlink">
    <title>工具</title>
    <g id="健康管理系统1.7.0" stroke="none" stroke-width="1" fill="none" fill-rule="evenodd">
        <g id="侧边栏" transform="translate(-908.000000, -57.000000)">
            <g id="工具" transform="translate(908.000000, 57.000000)">
                <path d="M17.999979,7.68749739 L1.18020566e-07,7.68749739 L1.18020566e-07,5.8125024 L1.18020566e-07,5.81250283 C1.18020566e-07,4.25920146 1.20882783,3 2.69999484,3 L15.2999843,3 L15.2999842,3 C16.791149,3 17.999979,4.25919926 17.999979,5.81250283 L17.999979,7.68749739 L17.999979,7.68749739 Z M18,9.56249152 L18,15.1874972 L18,15.1874972 C18,16.7407985 16.7911492,18 15.2999843,18 L2.69999484,18 L2.69999472,18 C1.20882982,18 0,16.7407985 0,15.1874972 C0,15.1874972 0,15.1874972 0,15.1874972 L0,9.56249152 L5.51341032,9.56249152 L5.51341035,9.56249152 C6.0124664,11.5683269 7.97804147,12.7729636 9.90362286,12.253112 C11.169739,11.9112985 12.158456,10.8813753 12.4866108,9.56249152 L18,9.56249152 L18,9.56249152 Z" id="形状" fill="#3599FE" fill-rule="nonzero"></path>
                <rect id="矩形" fill="#2F4B74" x="5" y="0" width="8" height="2" rx="1"></rect>
            </g>
        </g>
    </g>
</svg>