<?xml version="1.0" encoding="UTF-8"?>
<svg width="17px" height="18px" viewBox="0 0 17 18" version="1.1" xmlns="http://www.w3.org/2000/svg" xmlns:xlink="http://www.w3.org/1999/xlink">
    <title>留言备份</title>
    <g id="健康管理系统1.8.0" stroke="none" stroke-width="1" fill="none" fill-rule="evenodd">
        <g id="侧边栏" transform="translate(-909.000000, -519.000000)" fill-rule="nonzero">
            <g id="留言备份" transform="translate(909.000000, 519.000000)">
                <path d="M15.962687,7 L15.962687,10.7900554 C15.962687,12.4846726 15.0002275,13.8630846 13.817541,13.8630846 L6.61111111,13.8630846 L6.61111111,14.265795 C6.61111111,15.261653 7.17999831,16.0763123 7.87515169,16.0763123 L13.176558,16.0763123 L13.8313298,18 L14.4861016,16.0763123 L15.7359594,16.0763123 C16.4311128,16.0763123 17,15.261443 17,14.265795 L17,8.77818286 C16.999803,7.89276579 16.5502876,7.15453331 15.962687,7 L15.962687,7 Z" id="路径" fill="#2B2C43"></path>
                <path d="M16.0555556,11.2460774 L16.0555556,2.78977439 C16.0555556,1.25540883 15.1764318,0 14.1020338,0 L1.95352174,0 C0.879123762,0 0,1.25540883 0,2.78977439 L0,11.2460774 C0,12.7804429 0.879123762,14.0358518 1.95352174,14.0358518 L3.88502155,14.0358518 L4.89686162,17 L5.90870169,14.0358518 L14.1020338,14.0358518 C15.1774062,14.0358518 16.0555556,12.7804429 16.0555556,11.2460774 Z M3.72911398,7.73664847 C3.15489881,7.73664847 2.68940543,7.24198988 2.68940543,6.63179758 C2.68940543,6.02160528 3.15489881,5.52694669 3.72911398,5.52694669 C4.30332916,5.52694669 4.76882253,6.02160528 4.76882253,6.63179758 C4.76882253,6.92482226 4.65928213,7.20584541 4.46429895,7.41304514 C4.26931577,7.62024488 4.00486184,7.73664847 3.72911398,7.73664847 Z M8.04346598,7.73664847 C7.46927618,7.7365341 7.00388057,7.24182488 7.00395232,6.63165955 C7.00402407,6.02149421 7.46953601,5.5269086 8.04372581,5.52694671 C8.61791561,5.52698483 9.08336941,6.02163225 9.08336941,6.63179758 C9.08336941,6.92482226 8.973829,7.20584541 8.77884583,7.41304514 C8.58386265,7.62024488 8.31940871,7.73664847 8.04366086,7.73664847 L8.04346598,7.73664847 Z M12.3580129,7.73664847 C11.7837977,7.73664847 11.3183043,7.24198988 11.3183043,6.63179758 C11.3183043,6.02160528 11.7837977,5.52694669 12.3580129,5.52694669 C12.932228,5.52694669 13.3977214,6.02160528 13.3977214,6.63179758 C13.3977214,6.92482226 13.288181,7.20584541 13.0931978,7.41304514 C12.8982146,7.62024488 12.6337607,7.73664847 12.3580129,7.73664847 Z" id="形状" fill="#494B74"></path>
            </g>
        </g>
    </g>
</svg>