<?xml version="1.0" encoding="UTF-8"?>
<svg width="18px" height="18px" viewBox="0 0 18 18" version="1.1" xmlns="http://www.w3.org/2000/svg" xmlns:xlink="http://www.w3.org/1999/xlink">
    <title>问卷2</title>
    <g id="将康管理1.8.0" stroke="none" stroke-width="1" fill="none" fill-rule="evenodd">
        <g id="侧边栏备份" transform="translate(-620.000000, -287.000000)">
            <g id="问卷2" transform="translate(620.000000, 287.000000)">
                <path d="M12.9008751,17.4857406 C11.8409309,17.4260723 11.0453301,16.4802994 10.9537882,15.3072122 C10.8571024,14.0662391 11.5812169,12.6514457 12.9487046,12.6514457 C13.2912185,12.6514457 13.2912185,12.13716 12.9487046,12.13716 L2.54726189,12.13716 L2.54726189,1.80669684 C2.54726189,1.05018127 3.58817739,8.81810743e-06 4.34109316,8.81810743e-06 L15.7423044,8.81810743e-06 C17.1319058,8.81810743e-06 17.941908,0.817723252 18.0000153,2.21555626 C18.0000153,2.73909893 17.5381864,3.14795835 17.5381864,3.14795835 L15.4527556,3.14795835 L15.4527556,15.6790526 C15.4527556,16.4355682 14.4118401,17.4857406 13.6589243,17.4857406 L12.9008663,17.4857406 L12.9008751,17.4857406 Z M11.5251719,17.4857356 L2.14149622,17.4857356 C0.926236659,17.3705295 8.81810774e-06,16.3203568 8.81810774e-06,15.0963574 C8.81810774e-06,13.8780129 0.918009485,12.8334976 2.12503966,12.650922 L2.14149684,12.6514362 L11.2978584,12.6514362 C10.6781442,13.1353788 10.3700859,14.4349808 10.4415715,15.3473331 C10.5094573,16.2211064 10.9111149,17.0007632 11.5251719,17.4857356 L11.5251719,17.4857356 Z M11.9936761,4.62857579 L8.57830472,4.62857579 C8.38390451,4.62857579 8.22910391,4.86360383 8.22910391,5.15726292 C8.22910391,5.45143469 8.38390407,5.68646273 8.57830472,5.68646273 L11.9941844,5.68646273 C12.1885846,5.68646273 12.3433965,5.45143469 12.3433965,5.15726292 C12.344928,4.86360604 12.188585,4.62857579 11.9941844,4.62857579 L11.9936761,4.62857579 Z M11.9936761,8.71354594 L8.57830472,8.71354594 C8.38390451,8.71354594 8.22910391,8.94857399 8.22910391,9.24274576 C8.22910391,9.53640264 8.38390407,9.77143289 8.57830472,9.77143289 L11.9941844,9.77143289 C12.1885846,9.77143289 12.3433965,9.53640485 12.3433965,9.24274576 C12.344928,8.95063133 12.188585,8.71354594 11.9941844,8.71354594 L11.9936761,8.71354594 Z M6.17143071,4.11428345 L6.17143072,4.11428345 C5.60336673,4.11420018 5.14279079,4.57464061 5.14270682,5.1427046 C5.14262355,5.71076859 5.60306398,6.17134453 6.17112797,6.17142851 C6.17122848,6.17142851 6.17132899,6.17142851 6.1714295,6.17142851 L6.17142951,6.17142851 C6.73949349,6.17134523 7.19993463,5.7107708 7.19985066,5.1427046 C7.19976741,4.57475774 6.73937637,4.11436521 6.17142951,4.11428345 L6.17143071,4.11428345 Z M6.17143071,8.22857797 L6.17143072,8.22857797 C5.60336673,8.2284947 5.14279079,8.68893513 5.14270682,9.25699912 C5.14262355,9.82506311 5.60306398,10.285639 6.17112797,10.285723 C6.17122848,10.285723 6.17132899,10.285723 6.1714295,10.285723 L6.17142951,10.285723 C6.73949349,10.2856398 7.19993463,9.82506532 7.19985066,9.25699912 C7.19976741,8.68905225 6.73937637,8.22865973 6.17142951,8.22857797 L6.17143071,8.22857797 Z M16.9009881,2.15640148 C16.9009881,1.4004008 16.6680174,1.05017243 16.1501296,1.05017243 C15.6276145,1.05017243 15.3961863,1.39783078 15.3961863,2.15640148 L16.9009881,2.15640148 Z" id="形状" fill="#3599FE" fill-rule="nonzero"></path>
                <polygon id="矩形" fill="#2B2C43" points="15 7 17.0571429 7 17.0571429 16.7714286 16.0285714 17.8 15 16.7714286"></polygon>
            </g>
        </g>
    </g>
</svg>