<?xml version="1.0" encoding="UTF-8"?>
<svg width="18px" height="17px" viewBox="0 0 18 17" version="1.1" xmlns="http://www.w3.org/2000/svg" xmlns:xlink="http://www.w3.org/1999/xlink">
    <title>糖尿病备份</title>
    <g id="青少男问卷" stroke="none" stroke-width="1" fill="none" fill-rule="evenodd">
        <g id="糖尿病图标" transform="translate(-140.000000, -172.000000)" fill-rule="nonzero">
            <g id="糖尿病备份" transform="translate(140.000000, 172.000000)">
                <path d="M13.0768971,1.55286408e-07 C11.9389225,1.55286408e-07 10.8254613,0.433602022 9.93484284,1.18078608 C9.06910391,0.433602022 7.93112761,1.55286408e-07 6.79315804,1.55286408e-07 L6.79315822,1.55286408e-07 C5.69140455,-0.000278605836 4.62242054,0.374762085 3.76233468,1.06332958 L3.76233438,1.06332981 C2.58128158,2.00325896 1.89363107,3.43069886 1.89473818,4.94013174 C1.89473818,5.01221558 1.89473818,5.10881519 1.91925529,5.18089936 L1.91925529,5.22919933 C1.91925529,5.73524965 2.04293218,6.26545063 2.2657702,6.81980227 C2.2657702,6.8435863 2.29028597,6.86773629 2.29028597,6.89188611 C2.76377153,8.00644231 3.6778101,9.16307239 4.71077638,10.2271457 C6.26844845,11.8327512 8.0972595,13.2279572 9.09398636,13.9524601 L9.1678998,14.00076 C9.39073748,14.1452937 9.66297317,14.2418937 9.93484273,14.2418937 C10.2070784,14.2418937 10.4793141,14.1452939 10.7017857,13.976611 L10.776065,13.928677 C11.5525221,13.3578599 12.9440652,12.297824 14.2942683,11.0336043 C15.3956525,10.0021092 16.4695909,8.83486999 17.1589595,7.68700838 C17.2332389,7.59077456 17.2826364,7.47039143 17.3320348,7.39794114 L17.4063142,7.25340734 C17.5051093,7.03642427 17.6042706,6.84359017 17.6785499,6.65112219 C17.8761402,6.14507187 17.9753006,5.6628044 17.9753006,5.22920269 L17.9753006,4.94013544 C17.9753006,3.67958196 17.5036457,2.52733696 16.7293837,1.65354669 C15.8307122,0.639615429 14.5251575,1.55286408e-07 13.0768906,1.55286408e-07 L13.0768971,1.55286408e-07 Z M9.88544987,9.08476221 C9.21291116,9.02841241 8.72515522,8.76020123 8.40169259,8.3569709 C8.03541882,7.89995077 7.87990739,7.2698571 7.90625311,6.57865621 C7.93845309,5.98185954 8.16787795,5.34627738 8.46243368,4.76119327 C9.07167013,3.55076836 9.95973078,2.55439755 9.95973078,2.55439755 C9.95973078,2.55439755 10.7738767,3.57857521 11.3582319,4.71947545 C11.6787672,5.34590958 11.9301456,6.00783913 11.9389275,6.55450555 C11.953198,7.32730308 11.7321892,8.00972206 11.2660227,8.473324 C10.9323137,8.80483628 10.4734663,9.02438221 9.88545155,9.08476221 L9.88544987,9.08476221 Z" id="形状" fill="#2B2C43"></path>
                <polygon id="路径" fill="#C1FDF9" points="12.5612642 5.04034877 12.5612642 5.7871667 11.7943212 5.7871667 11.7943212 6.22113454 12.5612642 6.22113454 12.5612642 6.96795247 13.0065751 6.96795247 13.0065751 6.22113454 13.773518 6.22113454 13.773518 5.7871667 13.0065751 5.7871667 13.0065751 5.04034877 12.5612642 5.04034877"></polygon>
                <path d="M11.1938633,1.99123589 C10.0558887,1.99123589 8.94242753,2.4248376 8.05180906,3.17202166 C7.18607013,2.4248376 6.04809383,1.99123589 4.91012426,1.99123589 L4.91012454,1.99123589 C3.73721376,1.99123589 2.60397187,2.41595493 1.72013842,3.18702429 L1.72013776,3.18702486 C0.633912394,4.12780213 0.0103954887,5.49436994 0.0117034087,6.93136766 C0.0117034087,7.00345149 0.0117034087,7.1000511 0.0362214091,7.17213527 L0.0362214091,7.22043524 C0.0362214091,7.72648556 0.159898303,8.25668655 0.382736319,8.81103819 C0.382736319,8.83482222 0.407252092,8.8589722 0.407252092,8.88312219 C0.975507994,10.2208822 2.17824433,11.6190155 3.45965672,12.8459126 C4.85632888,14.1825759 6.34629848,15.3154264 7.21095248,15.9436962 L7.28486592,15.9919962 C7.5077036,16.13653 7.77993929,16.2331299 8.05180885,16.2331299 C8.32404453,16.2331299 8.59628022,16.1365302 8.81875177,15.9678472 L8.89303117,15.9199132 C9.58349981,15.4123984 10.7602566,14.5181187 11.9615418,13.4372323 C13.2140456,12.3109669 14.4928935,10.9819939 15.2759425,9.67826142 C15.3502219,9.5820276 15.3996195,9.46164447 15.4490177,9.38919418 L15.5232971,9.24466039 C15.6220923,9.02767731 15.7212535,8.83484321 15.7955328,8.64237523 C15.9931231,8.13632491 16.0922847,7.65405744 16.0922847,7.22045573 L16.0922847,6.93138848 L16.0922847,6.93145697 C16.0933329,5.41172563 15.3963281,3.97570536 14.2016968,3.03633212 L14.2016969,3.03633218 C13.3453932,2.35922869 12.2855992,1.99100674 11.1939324,1.99123589 L11.1938633,1.99123589 Z M8.00241609,11.076008 C7.28486949,11.0159888 6.7777208,10.7144802 6.45608711,10.2658776 C6.13445343,9.8169088 5.99870255,9.22047825 6.02321765,8.56989011 C6.06639476,7.77404029 6.45974666,6.90976417 6.89078551,6.18710361 L6.89078544,6.18710374 C7.2388824,5.60734688 7.63561153,5.05821669 8.07669356,4.54563998 C8.07669356,4.54563998 8.74081649,5.3810092 9.29992437,6.38322286 C9.69949683,7.10040334 10.0456456,7.90284001 10.0558903,8.54574798 C10.0694289,9.27719884 9.87220426,9.92778363 9.45580023,10.3881005 C9.11733498,10.762424 8.63470139,11.0112429 8.00241266,11.076008 L8.00241609,11.076008 Z" id="形状" fill="#494B74"></path>
                <polygon id="路径" fill="#494B74" points="7.80445796 7.96761671 7.80445796 8.71443465 7.03751503 8.71443465 7.03751503 9.14840248 7.80445796 9.14840248 7.80445796 9.89522042 8.24976887 9.89522042 8.24976887 9.14840248 9.0167118 9.14840248 9.0167118 8.71443465 8.24976887 8.71443465 8.24976887 7.96761671 7.80445796 7.96761671"></polygon>
            </g>
        </g>
    </g>
</svg>