<?xml version="1.0" encoding="UTF-8"?>
<svg width="18px" height="18px" viewBox="0 0 18 18" version="1.1" xmlns="http://www.w3.org/2000/svg" xmlns:xlink="http://www.w3.org/1999/xlink">
    <title>留言</title>
    <g id="健康管理系统1.8.0" stroke="none" stroke-width="1" fill="none" fill-rule="evenodd">
        <g id="侧边栏" transform="translate(-909.000000, -465.000000)" fill-rule="nonzero">
            <g id="留言" transform="translate(909.000000, 465.000000)">
                <path d="M16.9016686,7 L16.9016686,10.7900554 C16.9016686,12.4846726 15.8825939,13.8630846 14.6303375,13.8630846 L7,13.8630846 L7,14.265795 C7,15.261653 7.60235116,16.0763123 8.3383959,16.0763123 L13.9516496,16.0763123 L14.6449374,18 L15.3382253,16.0763123 L16.6616041,16.0763123 C17.3976488,16.0763123 18,15.261443 18,14.265795 L18,8.77818286 C17.9997914,7.89276579 17.5238339,7.15453331 16.9016686,7 L16.9016686,7 Z" id="路径" fill="#2F4B74"></path>
                <path d="M17,11.2460774 L17,2.78977439 C17,1.25540883 16.0691631,0 14.9315652,0 L2.06843479,0 C0.930836924,0 0,1.25540883 0,2.78977439 L0,11.2460774 C0,12.7804429 0.930836924,14.0358518 2.06843479,14.0358518 L4.11355222,14.0358518 L5.1849123,17 L6.25627238,14.0358518 L14.9315652,14.0358518 C16.0701948,14.0358518 17,12.7804429 17,11.2460774 Z M3.94847363,7.73664847 C3.34048109,7.73664847 2.84760575,7.24198988 2.84760575,6.63179758 C2.84760575,6.02160528 3.34048109,5.52694669 3.94847363,5.52694669 C4.55646617,5.52694669 5.04934151,6.02160528 5.04934151,6.63179758 C5.04934151,6.92482226 4.93335755,7.20584541 4.72690477,7.41304514 C4.520452,7.62024488 4.24044194,7.73664847 3.94847363,7.73664847 Z M8.51661103,7.73664847 C7.90864537,7.7365341 7.41587355,7.24182488 7.41594951,6.63165955 C7.41602548,6.02149421 7.90892048,5.5269086 8.51688615,5.52694671 C9.12485183,5.52698483 9.61768526,6.02163225 9.61768526,6.63179758 C9.61768526,6.92482226 9.5017013,7.20584541 9.29524852,7.41304514 C9.08879575,7.62024488 8.8087857,7.73664847 8.51681738,7.73664847 L8.51661103,7.73664847 Z M13.0849548,7.73664847 C12.4769622,7.73664847 11.9840869,7.24198988 11.9840869,6.63179758 C11.9840869,6.02160528 12.4769622,5.52694669 13.0849548,5.52694669 C13.6929473,5.52694669 14.1858227,6.02160528 14.1858227,6.63179758 C14.1858227,6.92482226 14.0698387,7.20584541 13.8633859,7.41304514 C13.6569332,7.62024488 13.3769231,7.73664847 13.0849548,7.73664847 Z" id="形状" fill="#3599FE"></path>
            </g>
        </g>
    </g>
</svg>