<?xml version="1.0" encoding="UTF-8"?>
<svg width="18px" height="18px" viewBox="0 0 18 18" version="1.1" xmlns="http://www.w3.org/2000/svg" xmlns:xlink="http://www.w3.org/1999/xlink">
    <title>编组 5</title>
    <g id="页面-1" stroke="none" stroke-width="1" fill="none" fill-rule="evenodd">
        <g id="icon" transform="translate(-630.000000, -772.000000)">
            <g id="编组-5备份" transform="translate(630.000000, 772.000000)">
                <rect id="矩形" fill="#2B2C43" x="4" y="3" width="13" height="15" rx="3"></rect>
                <g id="表单-面" transform="translate(1.000000, 0.000000)" fill="#494B74" fill-rule="nonzero">
                    <path d="M11.2,0 C12.7463973,0 14,1.30244436 14,2.90909091 L14,13.0909091 C14,14.6975556 12.7463973,16 11.2,16 L2.8,16 C1.2536027,16 0,14.6975556 0,13.0909091 L0,2.90909091 C0,1.30244436 1.2536027,0 2.8,0 L11.2,0 Z M9.10000001,8 L4.2,8 C3.81344074,8.00005887 3.5001026,8.32565272 3.5001026,8.72727273 C3.5001026,9.12889274 3.81344074,9.45448659 4.2,9.45454545 L9.10000001,9.45454545 C9.48655926,9.45448659 9.79989741,9.12889274 9.79989741,8.72727273 C9.79989741,8.32565272 9.48655926,8.00005887 9.10000001,8 L9.10000001,8 Z M7.70000001,4.36363635 L4.2,4.36363635 C3.94988965,4.36359827 3.71876247,4.50220734 3.59369671,4.72724195 C3.46863095,4.95227655 3.46863095,5.22954162 3.59369671,5.45457623 C3.71876247,5.67961083 3.94988965,5.8182199 4.2,5.81818182 L7.70000001,5.81818182 C8.08655926,5.81812294 8.39989741,5.4925291 8.39989741,5.09090909 C8.39989741,4.68928908 8.08655926,4.36369523 7.70000001,4.36363635 L7.70000001,4.36363635 Z" id="形状"></path>
                </g>
            </g>
        </g>
    </g>
</svg>