<?xml version="1.0" encoding="UTF-8"?>
<svg width="18px" height="18px" viewBox="0 0 18 18" version="1.1" xmlns="http://www.w3.org/2000/svg" xmlns:xlink="http://www.w3.org/1999/xlink">
    <title>编组 7备份</title>
    <g id="页面-1" stroke="none" stroke-width="1" fill="none" fill-rule="evenodd">
        <g id="按钮状态" transform="translate(-1098.000000, -642.000000)">
            <g id="编组-7" transform="translate(1098.000000, 642.000000)">
                <g id="数据" fill="#494B74" fill-rule="nonzero">
                    <path d="M4.8719334,7.27489411 C4.90058773,7.27604604 4.92939148,7.27660555 4.95834464,7.27660555 C5.47266164,7.27660555 5.94431258,7.09547286 6.31192141,6.79406227 L9.9589071,8.96309621 L9.95890712,8.96309608 C9.93075051,9.1013166 9.91660198,9.24197987 9.9166727,9.38299085 C9.9166727,10.546308 10.8680761,11.4893763 12.0416752,11.4893763 C13.2152908,11.4893763 14.1666776,10.546308 14.1666776,9.38299085 C14.1666776,8.75204614 13.8868248,8.18588923 13.4434297,7.79984473 L14.7886061,4.46637459 C14.8172604,4.46752652 14.8460808,4.46808603 14.8750173,4.46808603 C16.0486164,4.46808603 17.0000198,3.52503424 17.0000198,2.3617006 C17.0000198,1.19838342 16.0486164,0.255315171 14.8750173,0.255315171 C13.7014183,0.255315171 12.7500149,1.19838342 12.7500149,2.3617006 C12.7500149,2.99264532 13.0298843,3.55880223 13.4732628,3.94484673 L12.1280864,7.27831686 C12.0994321,7.27716493 12.0706283,7.27660542 12.0416752,7.27660542 C11.5273582,7.27660542 11.0557072,7.45773811 10.6880984,7.7591487 L7.04111271,5.59011476 L7.04111273,5.59011467 C7.06926935,5.45189415 7.08341788,5.31123088 7.08334715,5.1702199 C7.08334715,4.00690272 6.1319437,3.06383447 4.95834468,3.06383447 C3.78472906,3.06383447 2.83334221,4.00690272 2.83334221,5.1702199 C2.83334221,5.80116462 3.11319507,6.36732152 3.55659012,6.75336602 L2.21141375,10.0868197 C2.18275942,10.0856678 2.15393907,10.0851083 2.12500252,10.0851083 C0.951403496,10.0851083 4.49132517e-08,11.0281601 4.49132517e-08,12.1914937 C4.49132517e-08,13.3548109 0.951403496,14.2978791 2.12500252,14.2978791 C3.29860154,14.2978791 4.25000499,13.3548109 4.25000499,12.1914937 C4.25000499,11.560549 3.97013552,10.9943921 3.52675708,10.6083476 L4.87193345,7.27487743 L4.8719334,7.27489411 Z" id="路径"></path>
                </g>
                <rect id="矩形" fill="#2B2C43" x="0.386363636" y="15.7021277" width="16.6136364" height="2.29787234"></rect>
            </g>
        </g>
    </g>
</svg>