<?xml version="1.0" encoding="UTF-8"?>
<svg width="18px" height="18px" viewBox="0 0 18 18" version="1.1" xmlns="http://www.w3.org/2000/svg" xmlns:xlink="http://www.w3.org/1999/xlink">
    <title>结算管理备份</title>
    <g id="将康管理1.8.0" stroke="none" stroke-width="1" fill="none" fill-rule="evenodd">
        <g id="侧边栏备份" transform="translate(-620.000000, -223.000000)" fill-rule="nonzero">
            <g id="结算管理备份" transform="translate(620.000000, 223.000000)">
                <path d="M13.9281642,7.97905308 C14.2490923,7.97905308 14.5701221,8.02177436 14.8804724,8.07527941 L16.763626,6.87815349 C17.2558524,6.5682184 17.2558524,5.65977022 16.763626,5.34973133 L8.87783124,0.326269278 L8.87783125,0.326269283 C8.69539484,0.208541579 8.4609276,0.208541579 8.27848977,0.326269257 L0.392695022,5.34973131 C-0.099531353,5.6597702 -0.099531353,6.56821838 0.392695022,6.87815346 L8.27848977,11.9016155 C8.37492349,11.9658009 8.47114981,11.9871617 8.56747892,11.9871617 C9.26294251,9.67844805 11.3922591,7.97904105 13.9281601,7.97904105 L13.9281642,7.97905308 Z M8.31064037,13.5904504 C8.31064037,13.4301423 8.34278488,13.2911949 8.35346525,13.1308876 L1.29150452,8.63106369 L1.29150452,8.63106369 C0.915067975,8.40529091 0.427404887,8.5187989 0.189360901,8.88759896 C-0.0460208282,9.26161748 0.0609900735,9.75332484 0.43552599,9.98839516 L7.85056135,14.712618 C8.04322139,14.8408852 8.26792295,14.8943904 8.49251929,14.915751 C8.3856126,14.4882288 8.31064321,14.0499213 8.31064321,13.5903584 L8.31064037,13.5904504 Z M8.8884131,16.0167471 L8.57816661,16.2090961 L1.30218733,11.5704197 L1.30218734,11.5704197 C0.926440791,11.3343276 0.43074005,11.4437968 0.189362138,11.8161695 C-0.0460195918,12.1902919 0.0609913098,12.6819992 0.435527227,12.9277491 L7.85056258,17.6519719 C8.07526272,17.7909195 8.3321094,17.8657849 8.57817069,17.8657849 C8.82423197,17.8657849 9.08107865,17.7909191 9.30577879,17.6519719 L9.77654271,17.3527164 L9.77654271,17.3527169 C9.41899435,16.9514937 9.1199912,16.5017148 8.88841968,16.0167466 L8.8884131,16.0167471 Z" id="形状" fill="#494B74"></path>
                <path d="M15.1408545,13.3892954 C15.3804881,13.3892954 15.5748064,13.1929023 15.5748064,12.9506785 C15.5748064,12.7082463 15.3804873,12.511854 15.1408545,12.511854 L13.8223049,12.511854 L13.8223049,12.3049877 L15.4310893,10.5946895 L15.4310893,10.5946894 C15.5383758,10.4817801 15.5780058,10.3205788 15.5353,10.1707963 L15.5353,10.1707963 C15.4932746,10.0214199 15.3747197,9.90583058 15.2243269,9.86760033 L15.2243269,9.86760033 C15.0743122,9.83002039 14.9156822,9.876096 14.8091431,9.98819444 L13.427029,11.4554397 L11.9675609,9.98269896 L11.967561,9.98269898 C11.8007924,9.81097143 11.5263876,9.80695139 11.3546599,9.97372005 C11.3530149,9.97531748 11.3513827,9.97692793 11.3497634,9.97855125 L11.3497634,9.97855124 C11.1780725,10.1506714 11.176226,10.4287046 11.3456156,10.6030885 L12.9515994,12.2324037 L12.9515994,12.5118551 L11.6662303,12.5118551 C11.4265967,12.5118551 11.2322784,12.7082482 11.2322784,12.9505758 C11.2322784,13.1929042 11.4265975,13.3892965 11.6662303,13.3892965 L12.954398,13.3892965 L12.954398,14.2668438 L11.6661265,14.2668438 C11.4264929,14.2668438 11.2321746,14.4633405 11.2321746,14.7056683 C11.2321746,14.9479968 11.4264937,15.1443891 11.6661265,15.1443891 L12.9542942,15.1443891 L12.9542942,16.4634577 L12.9542942,16.4634558 C12.9539489,16.6196759 13.0365268,16.7643457 13.1712173,16.8434888 L13.1712172,16.8434888 C13.3052549,16.9218507 13.4711322,16.9218507 13.6051691,16.8434888 L13.6051691,16.8434888 C13.7398992,16.7643734 13.8225196,16.6196985 13.8221959,16.4634578 L13.8221959,15.1471898 L15.1407456,15.1471898 C15.3803792,15.1471898 15.5746974,14.9507967 15.5746974,14.7084691 C15.5746974,14.4661407 15.3803784,14.2696446 15.1407456,14.2696446 L13.8221959,14.2696446 L13.8221959,13.3892987 L15.1407456,13.3892987 L15.1408545,13.3892954 Z" id="路径" fill="#2B2C43"></path>
            </g>
        </g>
    </g>
</svg>