<?xml version="1.0" encoding="UTF-8"?>
<svg width="18px" height="16px" viewBox="0 0 18 16" version="1.1" xmlns="http://www.w3.org/2000/svg" xmlns:xlink="http://www.w3.org/1999/xlink">
    <title>健康档案备份</title>
    <g id="青少男问卷" stroke="none" stroke-width="1" fill="none" fill-rule="evenodd">
        <g id="侧边栏备份" transform="translate(-622.000000, -1224.000000)" fill-rule="nonzero">
            <g id="健康档案备份" transform="translate(622.000000, 1224.000000)">
                <path d="M16.9186153,12.291759 C15.715524,14.1726174 13.3740872,15.9836652 13.3740872,15.9836652 C13.3740872,15.9836652 9.83484703,13.2436083 9.23007606,11.0032798 C9.17331773,10.8075615 9.13352167,10.6053192 9.13352167,10.3913335 C9.13352167,9.15635038 10.1460376,8.1542702 11.3947153,8.1542702 C12.3002391,8.1542702 13.0009182,8.68401422 13.3218911,9.44340237 C13.5541442,9.50603224 13.70028,9.55235225 13.70028,9.55235225 L13.7068039,9.55039506 C14.0271302,8.732293 14.8106551,8.1542702 15.8310042,8.1542702 C17.1762413,8.1542702 17.6146565,9.15634942 17.6146565,10.3913341 C17.6146565,11.1976944 17.4215471,11.8983654 16.9185519,12.2917516 L16.9186153,12.291759 Z" id="形状" fill="#2B2C43"></path>
                <path d="M13.7002844,8.15427817 C13.7002844,8.15427817 13.5130475,8.14840662 13.0478899,8.15427817 C12.93894,7.18481931 10.2602095,6.81034551 9.13352294,8.15427817 C6.4926313,11.3347013 10.4383119,14.6788762 10.4383119,14.6788762 L0,14.6788762 L0,2.93577523 L15.0050734,2.93577523 L15.0050734,7.50188367 C14.0669298,7.22657351 13.7002844,8.15427817 13.7002844,8.15427817 Z" id="路径" fill="#494B74"></path>
                <polygon id="路径" fill="#494B74" points="0.652394496 0.978591744 1.30478899 0.326197248 6.52394496 0.326197248 7.17633946 0.978591744 7.17633946 2.28338074 0.652394496 2.28338074"></polygon>
            </g>
        </g>
    </g>
</svg>