<?xml version="1.0" encoding="UTF-8"?>
<svg width="18px" height="18px" viewBox="0 0 18 18" version="1.1" xmlns="http://www.w3.org/2000/svg" xmlns:xlink="http://www.w3.org/1999/xlink">
    <title>编组 11</title>
    <g id="页面-1" stroke="none" stroke-width="1" fill="none" fill-rule="evenodd">
        <g id="icon" transform="translate(-654.000000, -737.000000)">
            <g id="编组-11" transform="translate(654.000000, 737.000000)">
                <rect id="矩形" x="0" y="0" width="18" height="18"></rect>
                <g id="编组" fill-rule="nonzero">
                    <g id="内容管理">
                        <path d="M15.8779046,3.73777799 L14.7711338,3.73777799 L14.7711338,17.9447853 L15.8779046,17.9447853 C16.4866286,17.9447853 16.9846755,17.4400882 16.9846755,16.8232362 L16.9846755,4.85932707 C16.9846755,4.24247508 16.4866286,3.73777799 15.8779046,3.73777799 Z" id="形状" fill="#2F4B74"></path>
                        <path d="M12.1851212,0 C12.7959736,0 13.291892,0.502540261 13.291892,1.12154908 L13.291892,1.12154908 L13.291892,3.36464724 L13.2897636,3.36464724 L13.2897636,17.9447853 L1.10677083,17.9447853 C0.49591847,17.9447853 0,17.442245 0,16.8232362 L0,16.8232362 L0,1.12154908 C0,0.502540261 0.49591847,0 1.10677083,0 L1.10677083,0 Z M8.86268029,12.7101706 L2.95422676,12.7101706 C2.54770132,12.7101706 2.21567007,13.0466354 2.21567007,13.458589 C2.21567007,13.8705426 2.54770132,14.2070073 2.95422676,14.2070073 L2.95422676,14.2070073 L8.86055188,14.2070073 C9.26707732,14.2070073 9.59910857,13.8705426 9.60123698,13.458589 C9.60123698,13.0466354 9.26920573,12.7101706 8.86268029,12.7101706 L8.86268029,12.7101706 Z M8.86268029,8.22397431 L2.95422676,8.22397431 C2.54770132,8.22397431 2.21567007,8.56043903 2.21567007,8.97239264 C2.21567007,9.38434624 2.54770132,9.72081097 2.95422676,9.72081097 L2.95422676,9.72081097 L8.86055188,9.72081097 C9.26707732,9.72081097 9.59910857,9.38434624 9.60123698,8.97239264 C9.60123698,8.56043903 9.26920573,8.22397431 8.86268029,8.22397431 L8.86268029,8.22397431 Z M10.3376653,3.73777799 L2.95209836,3.73777799 C2.54557292,3.73777799 2.21354167,4.07424271 2.21354167,4.48619632 C2.21354167,4.89814992 2.54557292,5.23461465 2.95209836,5.23461465 L2.95209836,5.23461465 L10.3376653,5.23461465 C10.7441907,5.23461465 11.076222,4.89814992 11.076222,4.48619632 C11.076222,4.07424271 10.7441907,3.73777799 10.3376653,3.73777799 L10.3376653,3.73777799 Z" id="形状结合" fill="#3599FE"></path>
                    </g>
                </g>
            </g>
        </g>
    </g>
</svg>