<?xml version="1.0" encoding="UTF-8"?>
<svg width="18px" height="19px" viewBox="0 0 18 19" version="1.1" xmlns="http://www.w3.org/2000/svg" xmlns:xlink="http://www.w3.org/1999/xlink">
    <title>首页</title>
    <g id="z" stroke="none" stroke-width="1" fill="none" fill-rule="evenodd">
        <g id="侧边栏" transform="translate(-911.000000, -933.000000)" fill-rule="nonzero">
            <g id="首页备份-3" transform="translate(911.000000, 933.000000)">
                <g id="首页备份-2" transform="translate(2.000000, 0.000000)" fill="#2B2C43">
                    <path d="M7.05205161,0.315148561 C7.65955564,-0.107672035 8.45897479,-0.104802353 9.06354912,0.322364355 L15.233133,4.68145276 C15.7133732,5.02076957 16,5.57946235 16,6.17618273 L16,16.1829091 C16,17.186466 15.2040599,18 14.2222267,18 L1.77775291,18 C0.795919795,18 0,17.186466 0,16.1829091 L0,6.18431349 C0,5.58308816 0.290958817,5.02078548 0.777161633,4.68238853 L7.05205161,0.315148561 Z M11.5555567,13.4403874 L4.44444331,13.4403874 C3.95351658,13.4403874 3.55554651,13.8471336 3.55554651,14.348912 L3.55554651,14.3697692 C3.55554651,14.8715476 3.95351658,15.2783147 4.44442297,15.2783147 L11.5555567,15.2783147 C12.0464834,15.2783147 12.4444331,14.8715476 12.4444331,14.36979 L12.4444331,14.348912 C12.4444331,13.8471336 12.0464834,13.4403874 11.5555567,13.4403874 L11.5555567,13.4403874 Z" id="形状"></path>
                </g>
                <g id="首页" transform="translate(0.000000, 0.125000)" fill="#494B74">
                    <path d="M7.05205161,0.315148561 C7.65955564,-0.107672035 8.45897479,-0.104802353 9.06354912,0.322364355 L15.233133,4.68145276 C15.7133732,5.02076957 16,5.57946235 16,6.17618273 L16,16.1829091 C16,17.186466 15.2040599,18 14.2222267,18 L1.77775291,18 C0.795919795,18 0,17.186466 0,16.1829091 L0,6.18431349 C0,5.58308816 0.290958817,5.02078548 0.777161633,4.68238853 L7.05205161,0.315148561 Z M11.5555567,13.4403874 L4.44444331,13.4403874 C3.95351658,13.4403874 3.55554651,13.8471336 3.55554651,14.348912 L3.55554651,14.3697692 C3.55554651,14.8715476 3.95351658,15.2783147 4.44442297,15.2783147 L11.5555567,15.2783147 C12.0464834,15.2783147 12.4444331,14.8715476 12.4444331,14.36979 L12.4444331,14.348912 C12.4444331,13.8471336 12.0464834,13.4403874 11.5555567,13.4403874 L11.5555567,13.4403874 Z" id="形状"></path>
                </g>
            </g>
        </g>
    </g>
</svg>