<?xml version="1.0" encoding="UTF-8"?>
<svg width="17px" height="18px" viewBox="0 0 17 18" version="1.1" xmlns="http://www.w3.org/2000/svg" xmlns:xlink="http://www.w3.org/1999/xlink">
    <title>护肤美妆</title>
    <g id="将康管理1.8.0" stroke="none" stroke-width="1" fill="none" fill-rule="evenodd">
        <g id="侧边栏备份" transform="translate(-622.000000, -905.000000)" fill="#3599FE" fill-rule="nonzero">
            <g id="护肤美妆" transform="translate(622.000000, 905.000000)">
                <path d="M10.8000194,5.63736072 L11.2827469,5.63736072 L11.2827469,3.8659918 L11.2827469,3.86599166 C11.2976377,3.66999358 11.4685971,3.52317564 11.6645952,3.53806784 C11.8398906,3.55138577 11.9792018,3.69069712 11.992519,3.86599342 L11.992519,5.63736072 L13.4100206,5.63736072 L13.4100206,3.86599342 L13.4100206,3.86599339 C13.4100207,3.67055956 13.5684511,3.5121295 13.7638845,3.5121295 C13.9593184,3.51212953 14.1177484,3.67055992 14.1177484,3.86599339 L14.1177484,5.63736072 L14.602522,5.63736072 C15.1486592,5.63736072 15.6252502,5.37963343 15.7929773,4.99304255 L16.9527517,2.09463488 C16.9527517,0.934860483 15.052519,9.33795617e-05 12.7329773,9.33795617e-05 C10.4134355,9.33795617e-05 8.51320284,0.934867514 8.51320284,2.09463488 L9.67297724,4.99304255 C9.7691137,5.37963343 10.2518414,5.63736072 10.8000246,5.63736072 M1.55455295,5.63736068 L4.79865243,5.63736068 L4.79865245,5.63736068 C5.06289065,5.63094177 5.27589031,5.41884148 5.28342608,5.15463317 L5.28342608,3.28713099 L5.28342608,3.28713603 C5.27562511,1.47818666 3.81349586,0.0123978447 2.00455703,3.73593754e-05 L1.58523916,3.73593754e-05 L1.58523916,3.73593754e-05 C1.30397126,-0.00333413852 1.07319306,0.221915276 1.06978465,0.503183181 C1.06973476,0.507298893 1.06973476,0.511415062 1.06978465,0.515530791 L1.06978465,5.11370997 L1.06978466,5.11370989 C1.06287891,5.38931939 1.27904369,5.61916595 1.55455827,5.62916439 M1.42568954,13.7250781 L1.42568954,13.7250781 C1.42568954,13.9233367 1.26496975,14.0840555 1.06671217,14.0840555 C0.868453543,14.0840555 0.707734802,13.9233357 0.707734802,13.7250781 L0.707734802,9.50530367 L0.707734812,9.5053038 C0.692843996,9.30930572 0.839660727,9.13834596 1.03565863,9.12345551 C1.23165671,9.10856469 1.40261648,9.25538142 1.41750693,9.45137933 C1.41887058,9.4693282 1.41887058,9.48735458 1.41750695,9.50530345 L1.42568954,13.7250781 Z M5.64546398,6.31439562 L0.70772777,6.31439562 L0.707727778,6.31439562 C0.31791834,6.3188368 0.00331523946,6.63434955 5.54667423e-13,7.02416953 L5.54667423e-13,16.8812201 L5.54667423e-13,16.8812199 C0.00331606441,17.2710399 0.317918339,17.5865518 0.707727777,17.5909938 L5.63727258,17.5909938 L5.63727261,17.5909938 C6.02708205,17.5865526 6.34168515,17.2710399 6.34500039,16.8812199 L6.34500039,7.02416939 L6.34500039,7.02416949 C6.3416843,6.6343495 6.02708205,6.31883761 5.63727261,6.31439562 L5.64546398,6.31439562 Z M10.2211431,9.14939896 L9.25364201,16.7850817 L9.25364202,16.7850816 C9.20735665,17.1652336 9.47800946,17.5109307 9.85816147,17.5572157 C9.86119827,17.5575855 9.86423748,17.5579351 9.8672789,17.5582646 L15.4063811,17.5582646 L15.406381,17.5582646 C15.796201,17.5549485 16.1117129,17.2403446 16.1161549,16.8505369 L16.1161549,16.7523548 L15.1486538,9.11871119 L10.2211431,9.14939896 Z M14.1504739,6.31439566 L11.1866052,6.31439566 L11.1866052,6.31439566 C10.8320224,6.31740975 10.532104,6.57745437 10.4788774,6.9280329 L10.2743311,8.41098853 L15.0259323,8.41098853 L14.821386,6.9259868 L14.821386,6.92598694 C14.7904411,6.57609044 14.4955856,6.30884814 14.1443391,6.31234971" id="形状"></path>
            </g>
        </g>
    </g>
</svg>