<?xml version="1.0" encoding="UTF-8"?>
<svg width="18px" height="18px" viewBox="0 0 18 18" version="1.1" xmlns="http://www.w3.org/2000/svg" xmlns:xlink="http://www.w3.org/1999/xlink">
    <title>icon/购药商城备份</title>
    <g id="页面-1" stroke="none" stroke-width="1" fill="none" fill-rule="evenodd">
        <g id="icon" transform="translate(-59.000000, -253.000000)">
            <g id="icon/购药商城备份" transform="translate(68.000000, 262.000000) scale(-1, -1) translate(-68.000000, -262.000000) translate(59.000000, 253.000000)">
                <rect id="bound" x="0" y="0" width="18" height="18"></rect>
                <g id="icon/购药商城" fill-rule="nonzero">
                    <g>
                        <path d="M2.25,0 L6.1875,0 C7.43011875,0 8.4375,1.00738125 8.4375,2.25 L8.4375,6.1875 C8.4375,7.43011875 7.43011875,8.4375 6.1875,8.4375 L2.25,8.4375 C1.00738125,8.4375 0,7.43011875 0,6.1875 L0,2.25 C0,1.00738125 1.00738125,0 2.25,0 Z" id="路径" fill="#494B74"></path>
                        <path d="M11.8125,0 L15.75,0 C16.992675,0 18,1.00738125 18,2.25 L18,6.1875 C18,7.43011875 16.992675,8.4375 15.75,8.4375 L11.8125,8.4375 C10.569825,8.4375 9.5625,7.43011875 9.5625,6.1875 L9.5625,2.25 C9.5625,1.00738125 10.569825,0 11.8125,0 Z" id="路径" fill="#2B2C43"></path>
                        <path d="M2.25,9.5625 L6.1875,9.5625 C7.43011875,9.5625 8.4375,10.569825 8.4375,11.8125 L8.4375,15.75 C8.4375,16.992675 7.43011875,18 6.1875,18 L2.25,18 C1.00738125,18 0,16.992675 0,15.75 L0,11.8125 C0,10.569825 1.00738125,9.5625 2.25,9.5625 Z M11.8125,9.5625 L15.75,9.5625 C16.992675,9.5625 18,10.569825 18,11.8125 L18,15.75 C18,16.992675 16.992675,18 15.75,18 L11.8125,18 C10.569825,18 9.5625,16.992675 9.5625,15.75 L9.5625,11.8125 C9.5625,10.569825 10.569825,9.5625 11.8125,9.5625 Z" id="形状" fill="#494B74"></path>
                    </g>
                </g>
            </g>
        </g>
    </g>
</svg>