<?xml version="1.0" encoding="UTF-8"?>
<svg width="18px" height="18px" viewBox="0 0 18 18" version="1.1" xmlns="http://www.w3.org/2000/svg" xmlns:xlink="http://www.w3.org/1999/xlink">
    <title>编组 8</title>
    <defs>
        <filter id="filter-1">
            <feColorMatrix in="SourceGraphic" type="matrix" values="0 0 0 0 0.182355 0 0 0 0 0.294202 0 0 0 0 0.455757 0 0 0 1.000000 0"></feColorMatrix>
        </filter>
        <filter id="filter-2">
            <feColorMatrix in="SourceGraphic" type="matrix" values="0 0 0 0 0.207843 0 0 0 0 0.600000 0 0 0 0 0.996078 0 0 0 1.000000 0"></feColorMatrix>
        </filter>
    </defs>
    <g id="页面-1" stroke="none" stroke-width="1" fill="none" fill-rule="evenodd">
        <g id="icon" transform="translate(-352.000000, -1143.000000)">
            <g id="编组-8" transform="translate(352.000000, 1143.000000)">
                <rect id="矩形" x="0" y="0" width="18" height="18"></rect>
                <g filter="url(#filter-1)" id="账号实心">
                    <g transform="translate(3.000000, 0.000000)">
                        <path d="M7.496878,9.53988055 C10.2139632,9.53988055 12.420027,7.39643931 12.4137963,4.76391216 C12.4137963,2.13140269 10.2014934,-0.00600656493 7.48442654,1.26821538e-05 C4.76734137,1.26821538e-05 2.56127752,2.14348435 2.56750829,4.77599381 C2.57374725,7.40850327 4.7798111,9.53988055 7.496878,9.53988055 Z M13.3734953,11.6772898 C12.3327755,10.6689581 10.9181465,10.1436626 9.44744946,10.1436626 L5.53385509,10.1436626 C2.48026996,10.1436626 -1.77635684e-15,12.5286308 -1.77635684e-15,15.4932354 C-1.77635684e-15,16.8819358 1.16536229,17.9929174 2.60491243,17.9929174 L12.3763921,17.9929174 C13.068124,18.0532903 13.7349347,17.7212128 14.2272423,17.2442086 C14.7195682,16.773254 15,16.1332447 15,15.4630401 C15,14.0380947 14.4141969,12.6795719 13.3734953,11.6772898 L13.3734953,11.6772898 Z" id="形状" fill="#000000" fill-rule="nonzero"></path>
                    </g>
                </g>
                <g filter="url(#filter-2)" id="账号实心备份-2">
                    <g transform="translate(1.000000, 0.000000)">
                        <path d="M7.496878,9.53988055 C10.2139632,9.53988055 12.420027,7.39643931 12.4137963,4.76391216 C12.4137963,2.13140269 10.2014934,-0.00600656493 7.48442654,1.26821538e-05 C4.76734137,1.26821538e-05 2.56127752,2.14348435 2.56750829,4.77599381 C2.57374725,7.40850327 4.7798111,9.53988055 7.496878,9.53988055 Z M13.3734953,11.6772898 C12.3327755,10.6689581 10.9181465,10.1436626 9.44744946,10.1436626 L5.53385509,10.1436626 C2.48026996,10.1436626 -1.77635684e-15,12.5286308 -1.77635684e-15,15.4932354 C-1.77635684e-15,16.8819358 1.16536229,17.9929174 2.60491243,17.9929174 L12.3763921,17.9929174 C13.068124,18.0532903 13.7349347,17.7212128 14.2272423,17.2442086 C14.7195682,16.773254 15,16.1332447 15,15.4630401 C15,14.0380947 14.4141969,12.6795719 13.3734953,11.6772898 L13.3734953,11.6772898 Z" id="形状" fill="#000000" fill-rule="nonzero"></path>
                    </g>
                </g>
            </g>
        </g>
    </g>
</svg>