<?xml version="1.0" encoding="UTF-8"?>
<svg width="18px" height="19px" viewBox="0 0 18 19" version="1.1" xmlns="http://www.w3.org/2000/svg" xmlns:xlink="http://www.w3.org/1999/xlink">
    <title>医生</title>
    <g id="将康管理1.8.0" stroke="none" stroke-width="1" fill="none" fill-rule="evenodd">
        <g id="侧边栏备份" transform="translate(-622.000000, -1084.000000)" fill="#494B74" fill-rule="nonzero">
            <g id="医生备份" transform="translate(622.000000, 1084.000000)">
                <path d="M15.0785898,17.839307 L8.95001125,17.839307 L8.95001125,16.8964487 C9.83394085,16.4839483 10.7767991,11.7696571 11.4839428,11.8285857 C14.2535888,12.3589435 16.198234,13.8321595 16.198234,16.6607342 C16.1393053,17.3678779 15.7857335,17.839307 15.0785898,17.839307 L15.0785898,17.839307 Z" id="路径"></path>
                <path d="M12.7214442,8.46965321 C12.1321578,10.3553697 10.5410845,11.7107284 8.65536805,11.7107284 C6.76965157,11.7107284 5.17857829,10.3553697 4.58929189,8.46965321 C4.29464869,8.35179593 3.94107685,8.05715273 3.82321957,7.40893769 C3.64643365,6.52500809 4.23572005,6.28929353 4.23572005,6.28929353 C4.29464869,6.28929353 4.29464869,6.34822217 4.35357733,6.40715081 C4.47143461,6.17143625 4.58929189,5.93572169 4.82500645,5.75893577 C5.59107877,5.05179209 7.00536613,4.69822025 8.71429669,4.69822025 C10.2464413,4.69822025 11.3071568,4.81607753 12.426801,5.75893577 C12.6035869,5.93572169 12.7803728,6.23036489 12.8982301,6.46607945 C12.9571588,6.40715081 13.0160874,6.34822217 13.075016,6.34822217 C13.075016,6.34822217 13.6643024,6.58393673 13.4875165,7.46786633 C13.3696592,8.05715273 13.0160874,8.29286729 12.7214442,8.46965321 Z" id="路径"></path>
                <path d="M8.47858213,0.160714971 C6.12143653,0.160714971 4.11786277,1.33928777 4.11786277,1.33928777 L4.11786277,5.16964937 C4.11786277,5.16964937 5.41429285,3.75536201 8.59643941,3.75536201 C11.778586,3.75536201 13.075016,5.16964937 13.075016,5.16964937 L13.075016,1.33928777 C13.075016,1.33928777 10.7767991,0.160714971 8.47858213,0.160714971 Z M9.83394085,2.28214601 L8.83215397,2.28214601 L8.83215397,3.22500425 L8.30179621,3.22500425 L8.30179621,2.28214601 L7.30000933,2.28214601 L7.30000933,1.75178825 L8.30179621,1.75178825 L8.30179621,0.808930011 L8.83215397,0.808930011 L8.83215397,1.75178825 L9.83394085,1.75178825 L9.83394085,2.28214601 Z M8.47858213,16.8964487 L8.47858213,17.839307 L2.35000357,17.839307 C1.64285989,17.839307 1.28928805,17.3678779 1.23035941,16.6607342 C1.23035941,13.8321595 3.17500453,12.3589435 5.94465061,11.8285857 C6.71072293,11.7696571 7.65358117,16.4839483 8.47858213,16.8964487 Z" id="形状"></path>
            </g>
        </g>
    </g>
</svg>