<?xml version="1.0" encoding="UTF-8"?>
<svg width="18px" height="18px" viewBox="0 0 18 18" version="1.1" xmlns="http://www.w3.org/2000/svg" xmlns:xlink="http://www.w3.org/1999/xlink">
    <title>数据</title>
    <g id="页面-1" stroke="none" stroke-width="1" fill="none" fill-rule="evenodd">
        <g id="按钮状态" transform="translate(-1158.000000, -642.000000)" fill-rule="nonzero">
            <g id="数据" transform="translate(1158.000000, 642.000000)">
                <path d="M2.7000029,14.5714248 L15.2999971,14.5714248 C16.8299978,14.5714248 17.9999903,13.4571382 17.9999903,12 L17.9999903,2.57142357 C17.9999903,1.11427925 16.82999,0 15.2999971,0 L2.7000029,0 C1.17000222,0 9.66796969e-06,1.11428662 9.66796969e-06,2.57142357 L9.66796969e-06,12 C9.66796969e-06,13.4571455 1.26000909,14.5714248 2.7000029,14.5714248 Z" id="路径" fill="#494B74"></path>
                <path d="M17.099999,16.2857115 L0.900000967,16.2857115 C0.45000145,16.2857115 0,16.7142827 0,17.1428557 C0,17.5714269 0.449999517,18 0.900000967,18 L17.099999,18 C17.5499985,18 18,17.5714288 18,17.1428557 C18,16.7142845 17.6399996,16.2857115 17.099999,16.2857115 Z" id="路径" fill="#494B74"></path>
                <path d="M3.83232379,12 C3.66149151,12 3.49065886,11.9097691 3.31982639,11.8195385 C2.97816146,11.5488474 2.89274615,10.9172317 3.14899411,10.556311 L5.79689641,7.12754345 C6.30939381,6.40569807 7.1635543,6.22523672 7.93230682,6.58615941 L10.1531234,7.7591572 L13.4843482,3.33785324 C13.740596,2.97693055 14.3385105,2.88670084 14.6801736,3.15739209 C15.0218385,3.42808314 15.1072539,4.05969882 14.8510059,4.42061957 L11.5197811,8.84192353 C11.0072837,9.47353727 10.1531232,9.74423026 9.46979515,9.29307593 L7.16355412,8.21030979 L4.51565182,11.6390773 C4.34481954,11.9097684 4.08857157,12 3.83232196,12 L3.83232379,12 Z" id="路径" fill="#2B2C43"></path>
            </g>
        </g>
    </g>
</svg>