<?xml version="1.0" encoding="UTF-8"?>
<svg width="18px" height="18px" viewBox="0 0 18 18" version="1.1" xmlns="http://www.w3.org/2000/svg" xmlns:xlink="http://www.w3.org/1999/xlink">
    <title>CP结算备份</title>
    <g id="将康管理1.8.0" stroke="none" stroke-width="1" fill="none" fill-rule="evenodd">
        <g id="侧边栏备份" transform="translate(-620.000000, -109.000000)" fill-rule="nonzero">
            <g id="CP结算备份" transform="translate(620.000000, 109.000000)">
                <path d="M17.0847902,14.7895182 L17.0847902,14.7895182 C17.4205577,14.8112258 17.6751557,15.1010175 17.6534479,15.436785 C17.6336967,15.7422912 17.3902964,15.9856903 17.0847902,16.0054427 L15.1250956,16.0054427 L15.1250956,17.1388671 L15.1250956,17.1388668 C15.1033882,17.4746342 14.8135963,17.7292323 14.4778288,17.7075245 C14.1723227,17.6877734 13.9289236,17.444373 13.9091711,17.1388668 L13.9091711,16.0029039 L11.9494766,16.0029039 L11.9494766,16.0029039 C11.6137091,15.9811963 11.359111,15.6914046 11.3808189,15.3556371 C11.4005701,15.0501309 11.6439704,14.8067319 11.9494766,14.7869794 L13.9091711,14.7869794 L13.9091711,13.9607092 L11.9494766,13.9607092 L11.9494766,13.9607092 C11.6137091,13.9390016 11.359111,13.6492099 11.3808189,13.3134424 C11.4005701,13.0079363 11.6439704,12.7645372 11.9494766,12.7447847 L13.4433629,12.7447847 L12.115746,11.4184371 L12.115746,11.418437 C11.878816,11.1815071 11.878816,10.797366 12.115746,10.5604361 C12.3526759,10.3235061 12.736817,10.3235061 12.973747,10.5604361 L14.5171334,12.1038225 L16.0605198,10.5604361 L16.0605198,10.5604361 C16.2974498,10.3235061 16.6815908,10.3235061 16.9185208,10.5604361 C17.1554508,10.797366 17.1554508,11.1815071 16.9185208,11.4184371 L15.5909039,12.746054 L17.0847902,12.746054 L17.0847902,12.746054 C17.4205577,12.7677616 17.6751558,13.0575533 17.6534479,13.3933208 C17.6336967,13.698827 17.3902964,13.942226 17.0847902,13.9619785 L15.1250957,13.9619785 L15.1250957,14.7882487 L17.0847902,14.7895179 L17.0847902,14.7895182 Z" id="路径" fill="#2B2C43"></path>
                <path d="M4.33915997,4.45035232 L4.33915997,4.45035283 C4.33915997,6.3219627 5.8564002,7.83920293 7.72801007,7.83920293 C9.59961994,7.83920293 11.1168602,6.3219627 11.1168602,4.45035283 L11.1168602,4.45035283 C11.1168602,2.57874296 9.59961994,1.06150273 7.72801007,1.06150273 C5.8564002,1.06150273 4.33915997,2.57874296 4.33915997,4.45035283 L4.33915997,4.45035232 Z" id="路径" fill="#494B74"></path>
                <path d="M9.20031947,13.9480172 C9.20031947,12.1304766 10.2030129,10.5629748 11.6753229,9.7202046 L11.6753229,9.72020492 C10.5085038,9.03564054 9.18108321,8.67258062 7.82827995,8.66801139 C3.56873653,8.66801139 0.118963289,12.0517846 0.0656555343,16.2427894 L9.79939763,16.2427894 L9.79939754,16.2427894 C9.41131392,15.5398528 9.20536115,14.7509515 9.20031992,13.9480174 L9.20031947,13.9480172 Z" id="形状" fill="#494B74"></path>
            </g>
        </g>
    </g>
</svg>