<?xml version="1.0" encoding="UTF-8"?>
<svg width="18px" height="18px" viewBox="0 0 18 18" version="1.1" xmlns="http://www.w3.org/2000/svg" xmlns:xlink="http://www.w3.org/1999/xlink">
    <title>S_中医视频问诊备份</title>
    <g id="将康管理1.8.0" stroke="none" stroke-width="1" fill="none" fill-rule="evenodd">
        <g id="侧边栏备份" transform="translate(-620.000000, -458.000000)">
            <g id="S_中医视频问诊备份" transform="translate(620.000000, 458.000000)">
                <polygon id="路径" points="0 0 18.0000209 0 18.0000209 18.0000209 0 18.0000209"></polygon>
                <path d="M2.49999784,2.499999 L15.5000219,2.499999 C16.5000233,2.499999 17.0000231,2.999999 17.0000231,3.999999 L17.0000231,11.999999 C17.0000231,12.999999 16.5000233,13.499999 15.5000219,13.499999 L2.49999784,13.499999 C1.49999784,13.499999 0.999997843,12.999999 0.999997843,11.999999 L0.999997843,3.999999 C0.999997843,2.999999 1.49999784,2.499999 2.49999784,2.499999 Z" id="路径" fill="#494B74" fill-rule="nonzero"></path>
                <path d="M13.4085215,6.01051285 L13.4665216,6.02151285 C13.4665216,6.02151285 13.5720218,7.48351534 13.4085215,8.32001357 C13.4085215,8.32001357 13.0520209,10.1165176 11.8965197,10.7860164 C11.8195197,10.8415164 10.6835187,11.6005174 9.31601279,11.4890175 C9.31601279,11.4890175 10.4715139,8.76651429 11.4345133,7.84051516 L11.4535133,7.82901516 L11.4345133,7.84051516 C10.8665124,8.32051631 9.27751666,9.74851738 9.06550664,10.9535168 C9.06550664,10.9535168 8.43000571,8.0525076 11.1165071,6.62401961 L11.1265071,6.61301959 C11.2415072,6.55751959 12.4165092,5.91001858 13.4085019,6.01051811 L13.4085215,6.01051285 Z M6.32700736,7.4335147 C8.40850588,8.45101511 7.95900985,10.6060184 7.95900985,10.6060184 C7.77350944,9.70901794 6.54200742,8.68101811 6.09250963,8.33050989 L6.08250961,8.31950987 C6.81551125,8.96501101 7.73451076,10.9235188 7.76351118,10.9890149 C6.68850915,11.0875151 5.77950106,10.496514 5.77950106,10.496514 C4.89999965,10.0370142 4.59699988,8.71350994 4.59699988,8.71350994 C4.49949971,8.29750907 4.47999974,7.73950842 4.51899985,7.01750719 C5.3205,6.89750699 6.327,7.43350806 6.327,7.43350806 L6.32700736,7.4335147 Z M6.63300772,4.00001071 C7.27000807,3.9900107 7.98050968,4.51651111 7.98050968,4.51651111 C9.46451121,5.52851307 8.89051093,7.20501815 8.89051093,7.20501815 C8.84551088,6.47751672 8.0170107,5.53901602 7.70700955,5.21251778 L7.69800954,5.20201778 L7.71650949,5.22301786 C8.20801025,5.82401817 8.681511,7.43652825 8.69951102,7.50002051 C8.1705108,7.47252056 7.65900962,7.27152044 7.2245095,6.92001905 C6.58700817,6.44601909 6.50550886,5.36001665 6.50550886,5.36001665 C6.46900889,4.85401567 6.63300895,4.00001488 6.63300895,4.00001488 L6.63300772,4.00001071 Z" id="形状" fill="#1E1E2F" fill-rule="nonzero"></path>
                <path d="M4.99999821,14.5000188 L12.9999982,14.5000188 C13.3333397,14.5000188 13.4999982,14.6666857 13.4999982,15.0000188 L13.4999982,15.0000188 C13.4999982,15.333353 13.3333383,15.5000188 12.9999982,15.5000188 L4.99999821,15.5000188 C4.66666363,15.5000188 4.49999821,15.3333516 4.49999821,15.0000188 L4.49999821,15.0000188 C4.49999821,14.6666843 4.66666504,14.5000188 4.99999821,14.5000188 Z" id="路径" fill="#494B74" fill-rule="nonzero"></path>
            </g>
        </g>
    </g>
</svg>