<?xml version="1.0" encoding="UTF-8"?>
<svg width="19px" height="18px" viewBox="0 0 19 18" version="1.1" xmlns="http://www.w3.org/2000/svg" xmlns:xlink="http://www.w3.org/1999/xlink">
    <title>编组 13</title>
    <g id="页面-1" stroke="none" stroke-width="1" fill="none" fill-rule="evenodd">
        <g id="icon" transform="translate(-654.000000, -872.000000)">
            <g id="编组-13" transform="translate(654.000000, 872.000000)">
                <rect id="矩形" x="1" y="0" width="18" height="18"></rect>
                <g id="编组" transform="translate(1.000000, 0.000000)" fill-rule="nonzero">
                    <g id="编组-12">
                        <g id="设置-设定-配置-扳手备份" transform="translate(9.864407, 8.674699) scale(-1, 1) translate(-9.864407, -8.674699) translate(1.728814, 0.000000)" fill="#2F4B74">
                            <path d="M16.0987818,5.47166792 C15.9970869,4.8888366 15.2979343,4.67196913 14.9038665,5.09214985 L11.5606462,8.64335467 C11.0903072,9.14486069 10.3148835,9.14486069 9.83183263,8.64335467 L8.11573093,6.81353539 C7.63268008,6.29847515 7.63268008,5.48522214 8.11573093,4.98371611 L11.484375,1.40540286 C11.8784428,0.985222139 11.6877648,0.239740211 11.1411547,0.131306476 C9.17081568,-0.27532003 7.06064619,0.334619729 5.53522246,1.96112575 C3.84454449,3.73672816 3.32335805,6.29847515 3.97166314,8.57558358 C4.07335805,8.94154744 4.00979873,9.34817395 3.75556144,9.61925828 L0.361493644,13.22468 C-0.108845339,13.726186 -0.108845339,14.5529932 0.361493644,15.0544992 L2.0903072,16.8843185 C2.56064619,17.3858245 3.33606992,17.3858245 3.81912076,16.8843185 L7.23861229,13.2517884 C7.49284958,12.9807041 7.86149364,12.8993788 8.21742585,13.0078125 C10.3403072,13.6719691 12.7174258,13.1162462 14.3953919,11.3270896 C15.8826801,9.74124623 16.454714,7.53190889 16.0987818,5.47166792 Z" id="路径"></path>
                        </g>
                        <g id="设置-设定-配置-扳手" transform="translate(8.135593, 9.325301) scale(-1, 1) translate(-8.135593, -9.325301) translate(0.000000, 0.650602)" fill="#3599FE">
                            <path d="M16.0987818,5.47166792 C15.9970869,4.8888366 15.2979343,4.67196913 14.9038665,5.09214985 L11.5606462,8.64335467 C11.0903072,9.14486069 10.3148835,9.14486069 9.83183263,8.64335467 L8.11573093,6.81353539 C7.63268008,6.29847515 7.63268008,5.48522214 8.11573093,4.98371611 L11.484375,1.40540286 C11.8784428,0.985222139 11.6877648,0.239740211 11.1411547,0.131306476 C9.17081568,-0.27532003 7.06064619,0.334619729 5.53522246,1.96112575 C3.84454449,3.73672816 3.32335805,6.29847515 3.97166314,8.57558358 C4.07335805,8.94154744 4.00979873,9.34817395 3.75556144,9.61925828 L0.361493644,13.22468 C-0.108845339,13.726186 -0.108845339,14.5529932 0.361493644,15.0544992 L2.0903072,16.8843185 C2.56064619,17.3858245 3.33606992,17.3858245 3.81912076,16.8843185 L7.23861229,13.2517884 C7.49284958,12.9807041 7.86149364,12.8993788 8.21742585,13.0078125 C10.3403072,13.6719691 12.7174258,13.1162462 14.3953919,11.3270896 C15.8826801,9.74124623 16.454714,7.53190889 16.0987818,5.47166792 Z" id="路径"></path>
                        </g>
                    </g>
                </g>
            </g>
        </g>
    </g>
</svg>