<?xml version="1.0" encoding="UTF-8"?>
<svg width="18px" height="18px" viewBox="0 0 18 18" version="1.1" xmlns="http://www.w3.org/2000/svg" xmlns:xlink="http://www.w3.org/1999/xlink">
    <title>集团法务</title>
    <g id="健康管理2.0.0" stroke="none" stroke-width="1" fill="none" fill-rule="evenodd">
        <g id="侧边栏" transform="translate(-911.000000, -1019.000000)" fill-rule="nonzero">
            <g id="集团法务" transform="translate(911.000000, 1019.000000)">
                <path d="M8.50012506,0 L8.50012503,0 C8.91433816,0 9.25012524,0.325611254 9.25012524,0.727271914 L9.25012524,1.45454383 L15.2501228,1.45454383 L15.2501228,1.45454383 C15.664336,1.45461027 16,1.7802744 16,2.18193705 C16,2.58350424 15.6642396,2.90902203 15.2501228,2.90908964 L9.25012528,2.90908964 L9.25012528,16 L7.75012282,16 L7.75012282,2.90908964 L1.75012527,2.90908964 L1.75012531,2.90908964 C1.33591218,2.90915609 1,2.5835997 1,2.18193705 C1,1.78027639 1.33566199,1.45461144 1.74987717,1.45454383 C1.74995985,1.45454381 1.75004253,1.45454381 1.75012521,1.45454383 L7.75012276,1.45454383 L7.75012276,0.727271914 L7.75012276,0.727272024 C7.7501227,0.325611364 8.08590983,0 8.50012296,0 L8.50012506,0 Z" id="路径" fill="#3599FE"></path>
                <path d="M5.70000038,17 L11.2999996,17 C11.7666678,17 12,17.1666671 12,17.5 L12,17.5 C12,17.8333342 11.7666659,18 11.2999996,18 L5.70000038,18 C5.23333218,18 5,17.8333329 5,17.5 L5,17.5 C5,17.1666658 5.2333341,17 5.70000038,17 Z" id="路径" fill="#85B5FF"></path>
                <path d="M3.50001125,14 L3.5000111,14 C5.43299906,14 7,12.3655142 7,10.349276 C7,9.05910955 5.92480284,6.98914174 3.7750995,4.13939047 L3.77509951,4.13939048 C3.65559684,3.98091402 3.43555521,3.95349162 3.28362112,4.07814093 C3.26178669,4.09605443 3.24207438,4.11661571 3.2249005,4.13939048 C1.0752029,6.98914175 0,9.05910358 0,10.349276 L0,10.3492765 C0,12.3655128 1.56700094,14 3.4999889,14 L3.50001125,14 Z" id="路径" fill="#3599FE"></path>
                <path d="M0,10 L0,10 C0,12.2091364 1.56700591,14 3.5,14 C5.43299409,14 7,12.2091364 7,10 L0,10 L0,10 Z" id="路径" fill="#3599FE"></path>
                <path d="M14.5000112,14 L14.5000111,14 C16.4329991,14 18,12.3655142 18,10.349276 C18,9.05910955 16.9248028,6.98914174 14.7750995,4.13939047 L14.7750995,4.13939048 C14.6555968,3.98091402 14.4355552,3.95349162 14.2836211,4.07814093 C14.2617867,4.09605443 14.2420744,4.11661571 14.2249005,4.13939048 C12.0752029,6.98914175 11,9.05910358 11,10.349276 L11,10.3492765 C11,12.3655128 12.5670009,14 14.4999889,14 L14.5000112,14 Z" id="路径" fill="#3599FE"></path>
                <path d="M11,10 L11,10 C11,12.2091364 12.5670059,14 14.5,14 C16.4329941,14 18,12.2091364 18,10 L11,10 L11,10 Z" id="路径" fill="#3599FE"></path>
            </g>
        </g>
    </g>
</svg>