<?xml version="1.0" encoding="UTF-8"?>
<svg width="18px" height="18px" viewBox="0 0 18 18" version="1.1" xmlns="http://www.w3.org/2000/svg" xmlns:xlink="http://www.w3.org/1999/xlink">
    <title>营销</title>
    <g id="健康管理系统1.4.0" stroke="none" stroke-width="1" fill="none" fill-rule="evenodd">
        <g id="侧边栏" transform="translate(-96.000000, -725.000000)" fill-rule="nonzero">
            <g id="营销" transform="translate(96.000000, 725.000000)">
                <path d="M17.292702,11.9012036 L12.8306199,16.6837342 C12.6124329,16.907328 12.312507,17.0434387 12.003559,17.0434387 C11.5309959,17.0434387 11.2947046,16.8101573 10.9857353,16.4699125 L15.2570489,11.9012016 C15.4660938,11.6776077 15.5932432,11.3567999 15.5932432,11.0263272 C15.5932432,10.69577 15.4660944,10.37509 15.2570489,10.141786 L8.7591222,3.20125912 C8.29567984,2.70544386 7.41414762,2.31661266 6.76889117,2.31661266 L8.80463905,2.31661266 C9.44980075,2.31661266 10.3313349,2.70544386 10.7948701,3.20125912 L17.2927968,10.141786 C17.5018417,10.375088 17.6289911,10.6958752 17.6289911,11.0263272 C17.6289911,11.3567999 17.5017435,11.6775871 17.2926982,11.9012016 L17.292702,11.9012036 Z" id="路径" fill="#2F4B74"></path>
                <path d="M13.802948,11.9012036 L9.34086582,16.6837342 C9.12267885,16.907328 8.82275297,17.0434387 8.51382427,17.0434387 C8.2048569,17.0434387 7.90495036,16.907328 7.69590543,16.6837342 L1.19797873,9.72381984 C0.734536375,9.23779734 0.371016459,8.29487899 0.371016459,7.60470175 L0.371016459,3.56083579 C0.371016459,2.88043069 0.898170803,2.31658997 1.53427168,2.31658997 L5.31489659,2.31658997 C5.96015691,2.31658997 6.8417104,2.70542117 7.30512761,3.20113125 L13.8030543,10.1416993 C14.0120992,10.3750859 14.1392487,10.6957658 14.1392487,11.0263252 C14.1392487,11.3567979 14.0119614,11.677585 13.8029364,11.9011995 L13.802948,11.9012036 Z" id="路径" fill="#3599FE"></path>
                <path d="M2.11588769,5.42721484 L2.11588769,5.42721478 C2.11588769,6.11439315 2.63669404,6.67146061 3.27914291,6.67146061 C3.92158985,6.67146061 4.44239813,6.11439315 4.44239813,5.42721478 L4.44239813,5.42721473 C4.44239813,4.74003637 3.92159178,4.18296891 3.27914291,4.18296891 C2.63669597,4.18296891 2.11588769,4.74003637 2.11588769,5.42721473 L2.11588769,5.42721484 Z" id="路径" fill="#2F4B74"></path>
            </g>
        </g>
    </g>
</svg>