<?xml version="1.0" encoding="UTF-8"?>
<svg width="14px" height="14px" viewBox="0 0 14 14" version="1.1" xmlns="http://www.w3.org/2000/svg" xmlns:xlink="http://www.w3.org/1999/xlink">
    <title>新增</title>
    <g id="健康管理2.0.0" stroke="none" stroke-width="1" fill="none" fill-rule="evenodd">
        <g id="应用设置" transform="translate(-1191.000000, -221.000000)" fill="#3599FE" fill-rule="nonzero">
            <g id="编组-4" transform="translate(1175.000000, 204.000000)">
                <g id="新增" transform="translate(16.000000, 17.000000)">
                    <path d="M13.3866672,2.3866891 L11.6133328,2.3866891 L11.6133328,0.613331391 C11.6133328,0.266668791 11.333347,0 11,0 C10.6533366,0 10.3866672,0.279998816 10.3866672,0.613331391 L10.3866672,2.38666178 L8.61333279,2.38666178 C8.2666694,2.38666178 8,2.6666606 8,3 C8,3.34665577 8.2799858,3.61332456 8.61333279,3.61332456 L10.3866672,3.61332456 L10.3866672,5.38665495 C10.3866672,5.73333121 10.6666667,6 11,6 C11.3466634,6 11.6133328,5.71998753 11.6133328,5.38665495 L11.6133328,3.6266819 L13.3866672,3.6266819 C13.7333443,3.6266819 14,3.34666943 14,3.01333685 C14,2.66667425 13.7200142,2.38667544 13.3866672,2.38667544 L13.3866672,2.3866891 Z" id="路径"></path>
                    <path d="M12.4078622,6.63466909 C12.24637,6.63466909 12.0983459,6.68833313 11.9906845,6.79566121 C11.8695688,6.90298929 11.8157381,7.05056883 11.8022701,7.19813463 L11.8022701,11.772963 C11.8022701,12.3230022 11.3447159,12.7791534 10.7929546,12.7791534 L2.20703166,12.7791534 C1.6552703,12.7791534 1.19771613,12.3230022 1.19771613,11.772963 L1.19771613,3.21362442 C1.19771613,2.66357146 1.6552703,2.20742026 2.20703166,2.20742026 L6.80953694,2.20742026 C7.14597545,2.20742026 7.41511523,1.93911381 7.41511523,1.603717 C7.41511523,1.28173277 7.14597545,1 6.80953694,1 L2.20703166,1 C0.98239328,1 0,1.99277784 0,3.21362442 L0,11.7863756 C0,13.0072222 0.995861297,14 2.20703166,14 L10.7929546,14 C12.0175929,14 13,13.0072222 13,11.7863756 L13,7.22497352 C13,6.90298929 12.7308464,6.63466909 12.4078622,6.63466909 Z" id="路径"></path>
                </g>
            </g>
        </g>
    </g>
</svg>